<?xml version="1.0" encoding="UTF-8"?><svg id="Layer_2" xmlns="http://www.w3.org/2000/svg" viewBox="0 0 175.39 125.41"><defs><style>.cls-1{fill:#fff;}.cls-2{opacity:.13;}.cls-3{fill:#3ecc99;}</style></defs><g id="Layer_1-2"><g><g><g><rect class="cls-3" x="86.14" y="91.08" width="45.66" height="33.47"/><path d="M131.8,125.41h-45.66c-.48,0-.87-.39-.87-.87v-33.47c0-.48,.39-.87,.87-.87h45.66c.48,0,.87,.39,.87,.87v33.47c0,.48-.39,.87-.87,.87Zm-44.79-1.74h43.92v-31.73h-43.92v31.73Z"/></g><g><rect class="cls-1" x="43.51" y="7.41" width="45.66" height="33.47"/><path d="M89.17,41.75H43.51c-.48,0-.87-.39-.87-.87V7.41c0-.48,.39-.87,.87-.87h45.66c.48,0,.87,.39,.87,.87V40.88c0,.48-.39,.87-.87,.87Zm-44.79-1.74h43.92V8.28H44.38v31.73Z"/></g><g><rect class="cls-1" x=".87" y="91.08" width="45.66" height="33.47"/><path d="M46.53,125.41H.87c-.48,0-.87-.39-.87-.87v-33.47c0-.48,.39-.87,.87-.87H46.53c.48,0,.87,.39,.87,.87v33.47c0,.48-.39,.87-.87,.87Zm-44.79-1.74H45.66v-31.73H1.74v31.73Z"/></g><path d="M65.8,71.82c-.48,0-.86-.38-.87-.86-.04-3.95-.03-8.8-.03-13.94,0-5.44,.01-11.07-.04-15.94,0-.48,.38-.87,.86-.88h0c.48,0,.86,.38,.87,.86,.05,4.87,.04,10.51,.04,15.95,0,5.13-.01,9.98,.03,13.92,0,.48-.38,.87-.86,.88h0Z"/><path d="M110.7,91.5h-.02c-.48-.01-.86-.41-.85-.89,.12-5.51,.15-11.09,.09-16.6,0-.53-.01-1.08-.19-1.5-.19-.45-.23-.51-.63-.52-18.51-.46-39.29-.23-57.63-.02-9.52,.11-18.51,.21-26.46,.21-.02,0-.04,0-.06,0-.2-.02-.56,.16-.7,.38-.18,.3-.2,.75-.21,1.29-.11,5.35-.07,10.78,.11,16.14,.02,.48-.36,.88-.84,.9-.48,.02-.88-.36-.9-.84-.18-5.39-.22-10.85-.11-16.24,.01-.6,.03-1.42,.45-2.14,.45-.77,1.41-1.29,2.28-1.23,7.94,0,16.91-.1,26.42-.21,18.35-.21,39.15-.44,57.69,.02,1.53,.04,1.97,1.07,2.19,1.57,.32,.74,.33,1.54,.33,2.17,.05,5.53,.02,11.13-.09,16.66,0,.47-.4,.85-.87,.85Z"/><path d="M3.38,100.06c-.06,0-.13-.02-.18-.06-.13-.1-.15-.28-.05-.41l4.96-6.34c.1-.13,.28-.15,.41-.05,.13,.1,.15,.28,.05,.41l-4.96,6.34c-.06,.07-.14,.11-.23,.11Z"/><path d="M4.14,106.13c-.06,0-.12-.02-.17-.05-.13-.09-.16-.27-.07-.4,2.9-4.08,5.96-8.12,9.1-12.02,.1-.12,.28-.14,.41-.04,.12,.1,.14,.28,.04,.41-3.13,3.89-6.18,7.93-9.08,12-.06,.08-.15,.12-.24,.12Z"/><path d="M4.28,112.71c-.06,0-.13-.02-.18-.06-.13-.1-.15-.28-.05-.41l14.79-18.56c.1-.13,.28-.15,.41-.05,.13,.1,.15,.28,.05,.41l-14.79,18.56c-.06,.07-.14,.11-.23,.11Z"/><path d="M3.83,121.19c-.07,0-.14-.02-.19-.07-.12-.1-.13-.29-.03-.41,7.48-8.64,14.78-17.62,21.72-26.69,.1-.13,.28-.15,.41-.05,.13,.1,.15,.28,.05,.41-6.94,9.08-14.26,18.07-21.74,26.72-.06,.07-.14,.1-.22,.1Z"/><path d="M9.81,122.4c-.06,0-.13-.02-.18-.07-.12-.1-.14-.28-.04-.41,7.63-9.23,15.43-18.55,23.17-27.7,.1-.12,.29-.14,.41-.03,.12,.1,.14,.29,.03,.41-7.74,9.15-15.53,18.46-23.16,27.69-.06,.07-.14,.11-.22,.11Z"/><path d="M16.19,122.37c-.06,0-.13-.02-.18-.07-.12-.1-.14-.28-.04-.41l22.88-28.03c.1-.12,.28-.14,.41-.04,.12,.1,.14,.28,.04,.41l-22.88,28.03c-.06,.07-.14,.11-.22,.11Z"/><path d="M23.49,122.41c-.06,0-.12-.02-.17-.06-.13-.1-.15-.28-.06-.41,6.5-8.63,13.38-17.13,20.46-25.28,.11-.12,.29-.13,.41-.03,.12,.1,.13,.29,.03,.41-7.07,8.14-13.95,16.63-20.44,25.25-.06,.08-.14,.12-.23,.12Z"/><path d="M30.29,122.4c-.06,0-.12-.02-.18-.06-.13-.1-.15-.28-.06-.41,4.42-5.8,9.05-11.56,13.78-17.11,.1-.12,.29-.14,.41-.03,.12,.1,.14,.29,.03,.41-4.72,5.54-9.35,11.29-13.76,17.09-.06,.07-.14,.11-.23,.11Z"/><path d="M36.74,122.43c-.06,0-.13-.02-.18-.06-.13-.1-.15-.28-.05-.41,2.14-2.73,4.44-5.38,6.83-7.89,.11-.12,.29-.12,.41-.01,.12,.11,.12,.29,.01,.41-2.37,2.5-4.66,5.14-6.79,7.85-.06,.07-.14,.11-.23,.11Z"/><path d="M42.35,122.55c-.07,0-.13-.02-.19-.07-.12-.1-.14-.29-.03-.41l1.48-1.76c.1-.12,.29-.14,.41-.03,.12,.1,.14,.29,.03,.41l-1.48,1.76c-.06,.07-.14,.1-.22,.1Z"/></g><g><g><path class="cls-1" d="M135.38,66.96c6.07,5.98,12.15,11.95,18.22,17.93,3.21,3.16,6.42,6.32,9.92,9.06,1.89,1.48,3.98,2.87,6.28,2.87,2.29,0,4.73-1.93,4.71-4.53-.01-2.02-1.41-3.65-2.72-5.03-9.67-10.2-19.78-19.87-30.28-28.97-1.92,2.82-3.85,5.64-6.14,8.66Z"/><path d="M169.81,97.68h0c-2.56,0-4.79-1.47-6.81-3.06-3.54-2.77-6.82-6-9.99-9.12l-18.22-17.93c-.31-.31-.35-.8-.08-1.15,2.27-3,4.22-5.85,6.1-8.6,.14-.2,.37-.35,.62-.38,.25-.04,.5,.03,.69,.19,10.48,9.08,20.69,18.85,30.34,29.03,1.42,1.5,2.94,3.29,2.96,5.62,0,1.35-.54,2.66-1.55,3.67-1.08,1.08-2.58,1.73-4.03,1.73Zm-33.27-30.82l17.68,17.39c3.14,3.09,6.39,6.28,9.85,8.99,1.78,1.4,3.71,2.69,5.74,2.69h0c.99,0,2.04-.45,2.8-1.22,.68-.68,1.05-1.55,1.04-2.43-.01-1.69-1.23-3.12-2.48-4.43-9.39-9.9-19.3-19.41-29.48-28.27-1.61,2.35-3.27,4.76-5.15,7.28Z"/></g><g><path class="cls-1" d="M111.68,.87c-20.92,0-37.88,16.96-37.88,37.88s16.96,37.88,37.88,37.88,37.88-16.96,37.88-37.88S132.6,.87,111.68,.87Zm0,66.65c-15.89,0-28.77-12.88-28.77-28.77s12.88-28.77,28.77-28.77,28.77,12.88,28.77,28.77-12.88,28.77-28.77,28.77Zm0,0c-15.89,0-28.77-12.88-28.77-28.77s12.88-28.77,28.77-28.77,28.77,12.88,28.77,28.77-12.88,28.77-28.77,28.77Z"/><path d="M111.68,77.51c-21.37,0-38.75-17.38-38.75-38.75S90.31,0,111.68,0s38.75,17.38,38.75,38.75-17.38,38.75-38.75,38.75Zm0-75.77c-20.41,0-37.01,16.6-37.01,37.01s16.6,37.01,37.01,37.01,37.01-16.6,37.01-37.01S132.09,1.74,111.68,1.74Zm0,66.66c-16.34,0-29.64-13.3-29.64-29.64s13.3-29.64,29.64-29.64,29.64,13.3,29.64,29.64-13.3,29.64-29.64,29.64Zm-27.9-29.64c0,15.39,12.52,27.9,27.9,27.9s27.9-12.52,27.9-27.9-12.52-27.9-27.9-27.9-27.9,12.52-27.9,27.9Z"/></g><path d="M140.27,68.04s-.05,0-.08-.01c-.15-.04-.24-.2-.2-.36l.67-2.33c.04-.15,.21-.24,.36-.2,.15,.04,.24,.2,.2,.36l-.67,2.33c-.04,.13-.15,.21-.28,.21Z"/><path d="M143.46,72.13s-.03,0-.04,0c-.16-.02-.27-.17-.25-.33,.36-2.73,.79-5.48,1.28-8.19,.03-.16,.18-.26,.34-.23,.16,.03,.26,.18,.23,.34-.49,2.69-.92,5.44-1.27,8.16-.02,.15-.14,.25-.29,.25Z"/><path d="M147.59,76.09c-.16,0-.29-.13-.29-.29,0-1.36,.21-3.65,.39-5.67,.11-1.23,.21-2.29,.24-2.96,0-.16,.14-.29,.3-.27,.16,0,.28,.14,.28,.3-.03,.68-.13,1.75-.25,2.99-.18,2.01-.39,4.28-.39,5.62,0,.16-.13,.29-.29,.29Z"/><path d="M151.83,80c-.16,0-.29-.13-.29-.28l-.22-9.68c0-.16,.12-.29,.28-.3,.18,.02,.29,.12,.3,.28l.22,9.68c0,.16-.12,.29-.28,.3h0Z"/><path d="M155.86,84.28c-.16,0-.28-.12-.29-.28l-.38-10.13c0-.16,.12-.29,.28-.3,.16,.01,.29,.12,.3,.28l.38,10.13c0,.16-.12,.29-.28,.3h-.01Z"/><path d="M159.97,87.88c-.15,0-.28-.12-.29-.27l-.51-9.46c0-.16,.11-.3,.27-.31,.15-.02,.3,.11,.3,.27l.51,9.46c0,.16-.11,.3-.27,.31h-.02Z"/><path d="M164.03,91.22c-.15,0-.28-.12-.29-.27l-.71-9.21c-.01-.16,.11-.3,.27-.31,.16-.02,.3,.11,.31,.27l.71,9.21c.01,.16-.11,.3-.27,.31h-.02Z"/><path d="M167.87,94.21c-.15,0-.27-.11-.29-.26l-.83-8.08c-.02-.16,.1-.3,.26-.32,.16-.02,.3,.1,.32,.26l.83,8.08c.02,.16-.1,.3-.26,.32h-.03Z"/><path d="M171.64,93.78c-.14,0-.26-.1-.29-.24l-.58-3.61c-.03-.16,.08-.31,.24-.33,.16-.03,.31,.08,.33,.24l.58,3.61c.03,.16-.08,.31-.24,.33-.02,0-.03,0-.05,0Z"/><g class="cls-2"><path d="M138.48,47.92c-.95,.8-1.39,2.1-2.2,3.05-.15,.27-2.09,2.46-3.19,3.51-.95,.85-1.86,1.6-2.79,2.3-.16,.03-.33,.09-.49,.19-4.74,3.43-8.3,4.68-14.28,5.78-2.84,.53-6.12,.98-10.59-.13-3.14-.73-4.65-1.59-7.93-3.8-1.39-.98-4.49-3.71-6.6-6.26h0c-2.27-3.1-3.04-5.81-3.51-7.05-.47-1.27-.83-2.57-1.2-3.87-.55-1.78-.72-2.41-.72-3.93-.35-.97-.66-1.94-.95-2.93-.28-.13-.59-.19-.9-.17-.51,3.91-.43,7.84,.06,11.74,.85,3.37,1.9,7.02,5.13,10.65,2.6,2.87,4.39,3.86,5.51,4.78,2.61,1.88,5.39,3.6,8.46,4.6,1.68,.49,3.43,.69,5.16,.9h.03c1.89,.35,3.81,.36,5.71,.14,1.49-.12,2.93-.56,4.37-.95,2.99-.73,5.97-1.65,8.7-3.09,1.11-.68,1.49-.95,2.01-1.34,3.35-2.09,6.81-4.99,8.58-7.01,.46-.95,.91-1.91,1.32-2.88,.52-1.45,1.05-2.9,1.56-4.35-.4-.16-.87-.15-1.27,.09Z"/></g><g class="cls-2"><path d="M144.66,60.28c-1.44-.41-2.41,.59-3.12,1.69l-.1,.12c-1.26,1.47-1.61,1.34-3.69,3.22l-.03,.02c-.41,.29-.9,.49-1.16,.94-1.75,2.15,.92,5.15,3.29,3.75,1.65-.91,3.07-2.2,4.21-3.7,.73-.8,1.44-1.63,2-2.56,.8-1.29,.05-3.09-1.41-3.47Z"/></g></g><g><g><g><path class="cls-1" d="M135.38,66.96c6.07,5.98,12.15,11.95,18.22,17.93,3.21,3.16,6.42,6.32,9.92,9.06,1.89,1.48,3.98,2.87,6.28,2.87,2.29,0,4.73-1.93,4.71-4.53-.01-2.02-1.41-3.65-2.72-5.03-9.67-10.2-19.78-19.87-30.28-28.97-1.92,2.82-3.85,5.64-6.14,8.66Z"/><path d="M169.81,97.68h0c-2.56,0-4.79-1.47-6.81-3.06-3.54-2.77-6.82-6-9.99-9.12l-18.22-17.93c-.31-.31-.35-.8-.08-1.15,2.27-3,4.22-5.85,6.1-8.6,.14-.2,.37-.35,.62-.38,.25-.04,.5,.03,.69,.19,10.48,9.08,20.69,18.85,30.34,29.03,1.42,1.5,2.94,3.29,2.96,5.62,0,1.35-.54,2.66-1.55,3.67-1.08,1.08-2.58,1.73-4.03,1.73Zm-33.27-30.82l17.68,17.39c3.14,3.09,6.39,6.28,9.85,8.99,1.78,1.4,3.71,2.69,5.74,2.69h0c.99,0,2.04-.45,2.8-1.22,.68-.68,1.05-1.55,1.04-2.43-.01-1.69-1.23-3.12-2.48-4.43-9.39-9.9-19.3-19.41-29.48-28.27-1.61,2.35-3.27,4.76-5.15,7.28Z"/></g><g><path class="cls-1" d="M111.68,.87c-20.92,0-37.88,16.96-37.88,37.88s16.96,37.88,37.88,37.88,37.88-16.96,37.88-37.88S132.6,.87,111.68,.87Zm0,66.65c-15.89,0-28.77-12.88-28.77-28.77s12.88-28.77,28.77-28.77,28.77,12.88,28.77,28.77-12.88,28.77-28.77,28.77Zm0,0c-15.89,0-28.77-12.88-28.77-28.77s12.88-28.77,28.77-28.77,28.77,12.88,28.77,28.77-12.88,28.77-28.77,28.77Z"/><path d="M111.68,77.51c-21.37,0-38.75-17.38-38.75-38.75S90.31,0,111.68,0s38.75,17.38,38.75,38.75-17.38,38.75-38.75,38.75Zm0-75.77c-20.41,0-37.01,16.6-37.01,37.01s16.6,37.01,37.01,37.01,37.01-16.6,37.01-37.01S132.09,1.74,111.68,1.74Zm0,66.66c-16.34,0-29.64-13.3-29.64-29.64s13.3-29.64,29.64-29.64,29.64,13.3,29.64,29.64-13.3,29.64-29.64,29.64Zm-27.9-29.64c0,15.39,12.52,27.9,27.9,27.9s27.9-12.52,27.9-27.9-12.52-27.9-27.9-27.9-27.9,12.52-27.9,27.9Z"/></g><path d="M140.27,68.04s-.05,0-.08-.01c-.15-.04-.24-.2-.2-.36l.67-2.33c.04-.15,.21-.24,.36-.2,.15,.04,.24,.2,.2,.36l-.67,2.33c-.04,.13-.15,.21-.28,.21Z"/><path d="M143.46,72.13s-.03,0-.04,0c-.16-.02-.27-.17-.25-.33,.36-2.73,.79-5.48,1.28-8.19,.03-.16,.18-.26,.34-.23,.16,.03,.26,.18,.23,.34-.49,2.69-.92,5.44-1.27,8.16-.02,.15-.14,.25-.29,.25Z"/><path d="M147.59,76.09c-.16,0-.29-.13-.29-.29,0-1.36,.21-3.65,.39-5.67,.11-1.23,.21-2.29,.24-2.96,0-.16,.14-.29,.3-.27,.16,0,.28,.14,.28,.3-.03,.68-.13,1.75-.25,2.99-.18,2.01-.39,4.28-.39,5.62,0,.16-.13,.29-.29,.29Z"/><path d="M151.83,80c-.16,0-.29-.13-.29-.28l-.22-9.68c0-.16,.12-.29,.28-.3,.18,.02,.29,.12,.3,.28l.22,9.68c0,.16-.12,.29-.28,.3h0Z"/><path d="M155.86,84.28c-.16,0-.28-.12-.29-.28l-.38-10.13c0-.16,.12-.29,.28-.3,.16,.01,.29,.12,.3,.28l.38,10.13c0,.16-.12,.29-.28,.3h-.01Z"/><path d="M159.97,87.88c-.15,0-.28-.12-.29-.27l-.51-9.46c0-.16,.11-.3,.27-.31,.15-.02,.3,.11,.3,.27l.51,9.46c0,.16-.11,.3-.27,.31h-.02Z"/><path d="M164.03,91.22c-.15,0-.28-.12-.29-.27l-.71-9.21c-.01-.16,.11-.3,.27-.31,.16-.02,.3,.11,.31,.27l.71,9.21c.01,.16-.11,.3-.27,.31h-.02Z"/><path d="M167.87,94.21c-.15,0-.27-.11-.29-.26l-.83-8.08c-.02-.16,.1-.3,.26-.32,.16-.02,.3,.1,.32,.26l.83,8.08c.02,.16-.1,.3-.26,.32h-.03Z"/><path d="M171.64,93.78c-.14,0-.26-.1-.29-.24l-.58-3.61c-.03-.16,.08-.31,.24-.33,.16-.03,.31,.08,.33,.24l.58,3.61c.03,.16-.08,.31-.24,.33-.02,0-.03,0-.05,0Z"/><g class="cls-2"><path d="M138.48,47.92c-.95,.8-1.39,2.1-2.2,3.05-.15,.27-2.09,2.46-3.19,3.51-.95,.85-1.86,1.6-2.79,2.3-.16,.03-.33,.09-.49,.19-4.74,3.43-8.3,4.68-14.28,5.78-2.84,.53-6.12,.98-10.59-.13-3.14-.73-4.65-1.59-7.93-3.8-1.39-.98-4.49-3.71-6.6-6.26h0c-2.27-3.1-3.04-5.81-3.51-7.05-.47-1.27-.83-2.57-1.2-3.87-.55-1.78-.72-2.41-.72-3.93-.35-.97-.66-1.94-.95-2.93-.28-.13-.59-.19-.9-.17-.51,3.91-.43,7.84,.06,11.74,.85,3.37,1.9,7.02,5.13,10.65,2.6,2.87,4.39,3.86,5.51,4.78,2.61,1.88,5.39,3.6,8.46,4.6,1.68,.49,3.43,.69,5.16,.9h.03c1.89,.35,3.81,.36,5.71,.14,1.49-.12,2.93-.56,4.37-.95,2.99-.73,5.97-1.65,8.7-3.09,1.11-.68,1.49-.95,2.01-1.34,3.35-2.09,6.81-4.99,8.58-7.01,.46-.95,.91-1.91,1.32-2.88,.52-1.45,1.05-2.9,1.56-4.35-.4-.16-.87-.15-1.27,.09Z"/></g><g class="cls-2"><path d="M144.66,60.28c-1.44-.41-2.41,.59-3.12,1.69l-.1,.12c-1.26,1.47-1.61,1.34-3.69,3.22l-.03,.02c-.41,.29-.9,.49-1.16,.94-1.75,2.15,.92,5.15,3.29,3.75,1.65-.91,3.07-2.2,4.21-3.7,.73-.8,1.44-1.63,2-2.56,.8-1.29,.05-3.09-1.41-3.47Z"/></g></g><path d="M101.42,53.84c-.48,0-.87-.39-.87-.87v-19.1c0-.48,.39-.87,.87-.87s.87,.39,.87,.87v19.1c0,.48-.39,.87-.87,.87Z"/><path d="M120.56,53.84c-.48,0-.87-.39-.87-.87v-19.1c0-.48,.39-.87,.87-.87s.87,.39,.87,.87v19.1c0,.48-.39,.87-.87,.87Z"/><path d="M110.99,53.84c-.48,0-.87-.39-.87-.87V22.23c0-.48,.39-.87,.87-.87s.87,.39,.87,.87v30.74c0,.48-.39,.87-.87,.87Z"/></g><g><g><path class="cls-1" d="M135.38,66.96c6.07,5.98,12.15,11.95,18.22,17.93,3.21,3.16,6.42,6.32,9.92,9.06,1.89,1.48,3.98,2.87,6.28,2.87,2.29,0,4.73-1.93,4.71-4.53-.01-2.02-1.41-3.65-2.72-5.03-9.67-10.2-19.78-19.87-30.28-28.97-1.92,2.82-3.85,5.64-6.14,8.66Z"/><path d="M169.81,97.68h0c-2.56,0-4.79-1.47-6.81-3.06-3.54-2.77-6.82-6-9.99-9.12l-18.22-17.93c-.31-.31-.35-.8-.08-1.15,2.27-3,4.22-5.85,6.1-8.6,.14-.2,.37-.35,.62-.38,.25-.04,.5,.03,.69,.19,10.48,9.08,20.69,18.85,30.34,29.03,1.42,1.5,2.94,3.29,2.96,5.62,0,1.35-.54,2.66-1.55,3.67-1.08,1.08-2.58,1.73-4.03,1.73Zm-33.27-30.82l17.68,17.39c3.14,3.09,6.39,6.28,9.85,8.99,1.78,1.4,3.71,2.69,5.74,2.69h0c.99,0,2.04-.45,2.8-1.22,.68-.68,1.05-1.55,1.04-2.43-.01-1.69-1.23-3.12-2.48-4.43-9.39-9.9-19.3-19.41-29.48-28.27-1.61,2.35-3.27,4.76-5.15,7.28Z"/></g><g><path class="cls-1" d="M111.68,.87c-20.92,0-37.88,16.96-37.88,37.88s16.96,37.88,37.88,37.88,37.88-16.96,37.88-37.88S132.6,.87,111.68,.87Zm0,66.65c-15.89,0-28.77-12.88-28.77-28.77s12.88-28.77,28.77-28.77,28.77,12.88,28.77,28.77-12.88,28.77-28.77,28.77Zm0,0c-15.89,0-28.77-12.88-28.77-28.77s12.88-28.77,28.77-28.77,28.77,12.88,28.77,28.77-12.88,28.77-28.77,28.77Z"/><path d="M111.68,77.51c-21.37,0-38.75-17.38-38.75-38.75S90.31,0,111.68,0s38.75,17.38,38.75,38.75-17.38,38.75-38.75,38.75Zm0-75.77c-20.41,0-37.01,16.6-37.01,37.01s16.6,37.01,37.01,37.01,37.01-16.6,37.01-37.01S132.09,1.74,111.68,1.74Zm0,66.66c-16.34,0-29.64-13.3-29.64-29.64s13.3-29.64,29.64-29.64,29.64,13.3,29.64,29.64-13.3,29.64-29.64,29.64Zm-27.9-29.64c0,15.39,12.52,27.9,27.9,27.9s27.9-12.52,27.9-27.9-12.52-27.9-27.9-27.9-27.9,12.52-27.9,27.9Z"/></g><path d="M140.27,68.04s-.05,0-.08-.01c-.15-.04-.24-.2-.2-.36l.67-2.33c.04-.15,.21-.24,.36-.2,.15,.04,.24,.2,.2,.36l-.67,2.33c-.04,.13-.15,.21-.28,.21Z"/><path d="M143.46,72.13s-.03,0-.04,0c-.16-.02-.27-.17-.25-.33,.36-2.73,.79-5.48,1.28-8.19,.03-.16,.18-.26,.34-.23,.16,.03,.26,.18,.23,.34-.49,2.69-.92,5.44-1.27,8.16-.02,.15-.14,.25-.29,.25Z"/><path d="M147.59,76.09c-.16,0-.29-.13-.29-.29,0-1.36,.21-3.65,.39-5.67,.11-1.23,.21-2.29,.24-2.96,0-.16,.14-.29,.3-.27,.16,0,.28,.14,.28,.3-.03,.68-.13,1.75-.25,2.99-.18,2.01-.39,4.28-.39,5.62,0,.16-.13,.29-.29,.29Z"/><path d="M151.83,80c-.16,0-.29-.13-.29-.28l-.22-9.68c0-.16,.12-.29,.28-.3,.18,.02,.29,.12,.3,.28l.22,9.68c0,.16-.12,.29-.28,.3h0Z"/><path d="M155.86,84.28c-.16,0-.28-.12-.29-.28l-.38-10.13c0-.16,.12-.29,.28-.3,.16,.01,.29,.12,.3,.28l.38,10.13c0,.16-.12,.29-.28,.3h-.01Z"/><path d="M159.97,87.88c-.15,0-.28-.12-.29-.27l-.51-9.46c0-.16,.11-.3,.27-.31,.15-.02,.3,.11,.3,.27l.51,9.46c0,.16-.11,.3-.27,.31h-.02Z"/><path d="M164.03,91.22c-.15,0-.28-.12-.29-.27l-.71-9.21c-.01-.16,.11-.3,.27-.31,.16-.02,.3,.11,.31,.27l.71,9.21c.01,.16-.11,.3-.27,.31h-.02Z"/><path d="M167.87,94.21c-.15,0-.27-.11-.29-.26l-.83-8.08c-.02-.16,.1-.3,.26-.32,.16-.02,.3,.1,.32,.26l.83,8.08c.02,.16-.1,.3-.26,.32h-.03Z"/><path d="M171.64,93.78c-.14,0-.26-.1-.29-.24l-.58-3.61c-.03-.16,.08-.31,.24-.33,.16-.03,.31,.08,.33,.24l.58,3.61c.03,.16-.08,.31-.24,.33-.02,0-.03,0-.05,0Z"/><g class="cls-2"><path d="M138.48,47.92c-.95,.8-1.39,2.1-2.2,3.05-.15,.27-2.09,2.46-3.19,3.51-.95,.85-1.86,1.6-2.79,2.3-.16,.03-.33,.09-.49,.19-4.74,3.43-8.3,4.68-14.28,5.78-2.84,.53-6.12,.98-10.59-.13-3.14-.73-4.65-1.59-7.93-3.8-1.39-.98-4.49-3.71-6.6-6.26h0c-2.27-3.1-3.04-5.81-3.51-7.05-.47-1.27-.83-2.57-1.2-3.87-.55-1.78-.72-2.41-.72-3.93-.35-.97-.66-1.94-.95-2.93-.28-.13-.59-.19-.9-.17-.51,3.91-.43,7.84,.06,11.74,.85,3.37,1.9,7.02,5.13,10.65,2.6,2.87,4.39,3.86,5.51,4.78,2.61,1.88,5.39,3.6,8.46,4.6,1.68,.49,3.43,.69,5.16,.9h.03c1.89,.35,3.81,.36,5.71,.14,1.49-.12,2.93-.56,4.37-.95,2.99-.73,5.97-1.65,8.7-3.09,1.11-.68,1.49-.95,2.01-1.34,3.35-2.09,6.81-4.99,8.58-7.01,.46-.95,.91-1.91,1.32-2.88,.52-1.45,1.05-2.9,1.56-4.35-.4-.16-.87-.15-1.27,.09Z"/></g><g class="cls-2"><path d="M144.66,60.28c-1.44-.41-2.41,.59-3.12,1.69l-.1,.12c-1.26,1.47-1.61,1.34-3.69,3.22l-.03,.02c-.41,.29-.9,.49-1.16,.94-1.75,2.15,.92,5.15,3.29,3.75,1.65-.91,3.07-2.2,4.21-3.7,.73-.8,1.44-1.63,2-2.56,.8-1.29,.05-3.09-1.41-3.47Z"/></g></g><g><path class="cls-1" d="M123.77,35.09l-1.45-4.89,3.05-4.4-7.52-5.32c-.97,1.62-1.94,3.23-2.91,4.85-.05,.09-.11,.17-.19,.23-.11,.08-.25,.08-.39,.07-1.67-.02-3.35-.05-5.02-.09-.83-1.6-1.63-3.12-2.53-4.58-.07-.12-.16-.24-.29-.27s-.26,.04-.38,.11c-1.99,1.22-3.98,2.44-5.97,3.67-.05,.03-.11,.07-.14,.12-.09,.13-.01,.3,.06,.44,.75,1.36,1.65,2.63,2.67,3.79-.9,1.69-1.85,3.27-2.88,4.78-.25,.36-.53,.75-.95,.87-.35,.1-.72,0-1.06-.09-1.4-.4-2.79-.86-4.15-1.37-1.17,2.82-1.39,6.04-.62,8.99,.11,.23,5.31-.53,5.31-.53l3.1,5.49-2.49,4.18,5.7,4.24,2.96-4.42,5.22,.11,2.02,4.66,7.79-2.75-1.89-4.78,2.8-4.64,5.28-.43,.16-6.58-5.3-1.43Zm-8.98,2.49c.05,.23-.15,.69-.23,.9-.08,.18-.15,.36-.26,.52-.2,.31-.45,.61-.72,.86-.56,.53-1.18,.91-1.89,1.18-.29,.11-.59,.18-.9,.23-.27,.05-.51,.07-.78,.04-.17-.02-.34-.07-.5-.07,.46,0-.04,0-.22-.05-.8-.23-1.59-.9-1.98-1.64-.24-.45-.45-.95-.47-1.47-.02-.46,.1-.95,.28-1.37,.25-.61,.54-1.22,.91-1.77,.42-.61,.94-1.25,1.61-1.59,.68-.34,1.4-.4,2.06-.14,.27-.13,.58-.17,.84-.07,.49,.19,.9,.42,1.24,.84,.33,.41,.55,.8,.74,1.3,.06,.15,.11,.31,.15,.47,.02,.09,.04,.19,.05,.28,.02,.15,.04,.29,.06,.44v-.1c-.02-.13-.02-.13,0-.01,.02,.15,.04,.3,.06,.45,0,.08,.01,.15,0,.23,0,.19-.02,.38-.07,.56Z"/><g class="cls-2"><path d="M115.83,38.55c-.06-.82-1.3-.9-1.48-.1-.25,.77-.15,.64-.96,1.44-.78,.64-.5,.45-1.72,.91-1.14,.35-.68,.28-1.64,.27-.13-.02-.26-.06-.39-.1-.47-.18-.32-.09-1.22-.59-.37-.19-.7-.54-1.13-.56-1.3-.24-1.94,1.68-.79,2.34,2.04,1.43,4.09,2.07,6.42,.89,1.2-.67,2.08-1.8,2.51-3.12,.19-.43,.44-.89,.4-1.36Z"/></g><g class="cls-2"><path d="M120.07,51.55c-.76,.28-1.04,.47-2.48,.73-.68,.22-1.51,.11-2.1,.56-1.22,.89-.21,2.93,1.21,2.5,1.71-.36,3.67-.44,5-1.72,1.05-1.2-.28-2.77-1.64-2.07Z"/></g><g class="cls-2"><path d="M129.53,40.44s0-.03,0-.04v.04c0-.29-.06-.58-.21-.83-.59-1.13-2.32-.94-2.73,.22-.03,.05-.06,.12-.09,.19-.11,.23-.19,.47-.28,.71-.08,.18-.18,.43-.25,.57-.15,.26-.22,.54-.22,.84,.02,1.92,2.68,2.29,3.19,.44,.26-.6,.47-1.21,.55-1.85,.02-.09,.03-.19,.03-.28Z"/></g><path d="M114.86,56.51c-.35,0-.68-.22-.81-.55-.55-1.4-1.08-2.73-1.87-4.06-1.53,.16-3.07,.08-4.53-.06-.43,.77-.84,1.57-1.27,2.4-.27,.52-.55,1.05-.84,1.59-.21,.39-.67,.56-1.09,.4-2.57-1.01-4.81-2.67-6.48-4.77-.24-.3-.25-.73-.03-1.04,.82-1.16,1.67-2.35,2.56-3.77-.92-1.25-1.75-2.72-2.52-4.47-.29,.06-.58,.12-.88,.19-1.23,.26-2.5,.53-3.87,.73-.44,.06-.85-.21-.96-.64-.79-2.93-.57-6.24,.65-9.84,.15-.43,.6-.67,1.04-.56,1.66,.42,3.33,.85,5.08,1.28,.7-1.46,1.54-2.83,2.43-4.25-.82-1.11-1.72-2.39-2.53-3.88-.19-.35-.12-.79,.18-1.06,1.9-1.74,4.29-3.25,7.1-4.49,.41-.18,.89-.02,1.11,.37,.82,1.47,1.57,3,2.22,4.55,1.64-.24,3.3-.3,4.95-.17,.77-1.49,1.58-3.02,2.59-4.62,.24-.38,.74-.52,1.14-.31,2.06,1.08,4.01,2.38,5.79,3.89,.48,.4,.94,.82,1.41,1.24,.24,.22,.58,.52,.7,.99,.06,.24,.02,.49-.12,.7-.4,.6-.82,1.2-1.24,1.81-.55,.79-1.11,1.6-1.69,2.48,.48,1.21,.97,2.44,1.43,3.69,1.48,.15,3.34,.46,5.33,1.28,.31,.13,.52,.42,.54,.75,.16,2.7-.19,5.17-1.08,7.55-.13,.35-.45,.59-.85,.56l-.58-.02c-1.26-.05-2.56-.1-3.93,0-.55,1.27-1.34,2.56-2.46,3.97,.75,1.33,1.51,2.73,2.19,4.37,.17,.41,0,.88-.39,1.1-2.72,1.48-5.51,2.39-8.31,2.69-.03,0-.06,0-.09,0Zm-2.24-6.42c.29,0,.57,.15,.73,.4,.91,1.41,1.52,2.82,2.07,4.2,2.12-.31,4.23-.99,6.31-2.04-.65-1.45-1.37-2.72-2.07-3.96-.18-.31-.14-.7,.09-.98,1.35-1.64,2.23-3.06,2.76-4.46,.12-.31,.4-.53,.73-.56,1.66-.16,3.17-.1,4.63-.04,.6-1.8,.86-3.68,.79-5.7-1.84-.68-3.55-.9-4.86-1.01-.34-.03-.63-.25-.75-.58-.54-1.54-1.16-3.08-1.76-4.57-.1-.26-.08-.56,.08-.8,.68-1.06,1.33-2,1.96-2.91,.3-.43,.59-.85,.87-1.26-.43-.39-.87-.78-1.31-1.16-1.48-1.25-3.07-2.35-4.75-3.29-.89,1.48-1.64,2.92-2.36,4.32-.16,.32-.51,.5-.86,.47-1.92-.2-3.86-.12-5.76,.22-.4,.07-.81-.15-.96-.53-.59-1.46-1.26-2.91-2.01-4.3-2.08,.98-3.89,2.12-5.39,3.39,.79,1.35,1.65,2.53,2.41,3.55,.22,.29,.23,.68,.04,.98-1.1,1.76-2.15,3.43-2.93,5.2-.17,.39-.59,.59-1,.49-1.73-.42-3.37-.83-4.99-1.25-.8,2.65-.98,5.1-.55,7.31,1.03-.17,2.01-.38,2.96-.58,.53-.11,1.06-.23,1.59-.33,.41-.08,.82,.14,.97,.52,.88,2.13,1.84,3.84,2.93,5.2,.23,.29,.25,.69,.06,1-.9,1.47-1.74,2.68-2.56,3.83,1.26,1.44,2.84,2.61,4.62,3.43,.16-.3,.31-.59,.46-.88,.53-1.02,1.04-1.99,1.58-2.94,.17-.3,.5-.47,.85-.44,1.69,.18,3.5,.31,5.24,.05,.04,0,.09,0,.13,0Z"/><path d="M110.22,41.69c-.75,0-1.5-.15-2.2-.46-.62-.28-1.07-.62-1.37-1.06-.41-.59-.51-1.27-.55-1.8-.14-1.81,.3-3.46,1.23-4.65,1.16-1.48,3.08-2.13,4.69-1.58,.12,.04,.22,.11,.31,.19,1.67,.58,2.9,2.26,3,4.1,.1,1.78-.82,3.54-2.35,4.5-.82,.52-1.79,.78-2.77,.78Zm.62-8.02c-.77,0-1.59,.41-2.13,1.11-.66,.85-.97,2.08-.87,3.45,.02,.31,.07,.7,.24,.94,.12,.17,.33,.32,.65,.47,1.09,.48,2.36,.41,3.33-.2,.98-.62,1.6-1.8,1.54-2.93-.06-1.14-.84-2.22-1.85-2.56l-.12-.04c-.19-.06-.34-.13-.46-.21-.11-.02-.21-.03-.32-.03Z"/></g></g></g></svg>