<?xml version="1.0" encoding="UTF-8"?><svg id="Layer_2" xmlns="http://www.w3.org/2000/svg" viewBox="0 0 158.21 133.97"><defs><style>.cls-1{fill:#fff;}.cls-2{opacity:.13;}.cls-3{fill:#3ecc99;}</style></defs><g id="Layer_1-2"><g><g><rect class="cls-3" x="54.32" y="109.73" width="17.87" height="23.37"/><path d="M72.19,133.97h-17.87c-.48,0-.87-.39-.87-.87v-23.37c0-.48,.39-.87,.87-.87h17.87c.48,0,.87,.39,.87,.87v23.37c0,.48-.39,.87-.87,.87Zm-17-1.74h16.13v-21.63h-16.13v21.63Z"/></g><path d="M89.67,133.97H36.73c-.48,0-.87-.39-.87-.87s.39-.87,.87-.87h52.94c.48,0,.87,.39,.87,.87s-.39,.87-.87,.87Z"/><g><rect class="cls-1" x=".87" y="24.54" width="124.66" height="86.31"/><path d="M125.53,111.72H.87c-.48,0-.87-.39-.87-.87V24.54c0-.48,.39-.87,.87-.87H125.53c.48,0,.87,.39,.87,.87V110.85c0,.48-.39,.87-.87,.87ZM1.74,109.98H124.66V25.41H1.74V109.98Z"/></g><g><rect class="cls-3" x=".87" y="103.14" width="124.66" height="11.39"/><path d="M125.53,115.39H.87c-.48,0-.87-.39-.87-.87v-11.39c0-.48,.39-.87,.87-.87H125.53c.48,0,.87,.39,.87,.87v11.39c0,.48-.39,.87-.87,.87ZM1.74,113.65H124.66v-9.65H1.74v9.65Z"/></g><g><g><path class="cls-1" d="M62.85,87.5c0-1.7,1.38-3.07,3.07-3.07s3.07,1.38,3.07,3.07-1.38,3.07-3.07,3.07-3.07-1.38-3.07-3.07Z"/><path d="M65.92,91.44c-2.17,0-3.94-1.77-3.94-3.94s1.77-3.94,3.94-3.94,3.94,1.77,3.94,3.94-1.77,3.94-3.94,3.94Zm0-6.14c-1.21,0-2.2,.99-2.2,2.2s.99,2.2,2.2,2.2,2.2-.99,2.2-2.2-.99-2.2-2.2-2.2Z"/></g><g><path class="cls-1" d="M77.73,87.5c0-1.7,1.38-3.07,3.07-3.07s3.07,1.38,3.07,3.07-1.38,3.07-3.07,3.07-3.07-1.38-3.07-3.07Z"/><path d="M80.8,91.44c-2.17,0-3.94-1.77-3.94-3.94s1.77-3.94,3.94-3.94,3.94,1.77,3.94,3.94-1.77,3.94-3.94,3.94Zm0-6.14c-1.21,0-2.2,.99-2.2,2.2s.99,2.2,2.2,2.2,2.2-.99,2.2-2.2-.99-2.2-2.2-2.2Z"/></g><g><path class="cls-1" d="M92.6,87.5c0-1.7,1.38-3.07,3.07-3.07s3.07,1.38,3.07,3.07-1.38,3.07-3.07,3.07-3.07-1.38-3.07-3.07Z"/><path d="M95.67,91.44c-2.17,0-3.94-1.77-3.94-3.94s1.77-3.94,3.94-3.94,3.94,1.77,3.94,3.94-1.77,3.94-3.94,3.94Zm0-6.14c-1.21,0-2.2,.99-2.2,2.2s.99,2.2,2.2,2.2,2.2-.99,2.2-2.2-.99-2.2-2.2-2.2Z"/></g></g><g><g><path class="cls-1" d="M118.21,66.95c6.07,5.98,12.15,11.95,18.22,17.93,3.21,3.16,6.42,6.32,9.92,9.06,1.89,1.48,3.98,2.87,6.28,2.87,2.29,0,4.73-1.93,4.71-4.53-.01-2.02-1.41-3.65-2.72-5.03-9.67-10.2-19.78-19.87-30.28-28.97-1.92,2.82-3.85,5.64-6.14,8.66Z"/><path d="M152.63,97.68h0c-2.56,0-4.79-1.47-6.81-3.06-3.54-2.77-6.82-6-9.99-9.12l-18.22-17.93c-.31-.31-.35-.8-.08-1.15,2.28-3.01,4.23-5.87,6.11-8.63,.14-.2,.36-.34,.61-.37,.25-.03,.49,.04,.68,.2,10.48,9.08,20.69,18.85,30.34,29.03,1.42,1.5,2.94,3.29,2.96,5.62,0,1.35-.54,2.66-1.55,3.67-1.08,1.08-2.58,1.73-4.03,1.73Zm-33.27-30.82l17.68,17.39c3.14,3.09,6.39,6.28,9.85,8.99,1.78,1.4,3.71,2.69,5.74,2.69h0c.99,0,2.04-.46,2.8-1.22,.68-.68,1.05-1.55,1.04-2.43-.01-1.69-1.23-3.12-2.48-4.43-9.39-9.9-19.3-19.41-29.48-28.27-1.6,2.34-3.26,4.75-5.15,7.28Z"/></g><g><path class="cls-1" d="M94.5,.87c-20.92,0-37.88,16.96-37.88,37.88s16.96,37.88,37.88,37.88,37.88-16.96,37.88-37.88S115.43,.87,94.5,.87Zm0,66.65c-15.89,0-28.77-12.88-28.77-28.77s12.88-28.77,28.77-28.77,28.77,12.88,28.77,28.77-12.88,28.77-28.77,28.77Zm0,0c-15.89,0-28.77-12.88-28.77-28.77s12.88-28.77,28.77-28.77,28.77,12.88,28.77,28.77-12.88,28.77-28.77,28.77Z"/><path d="M94.5,77.51c-21.37,0-38.75-17.38-38.75-38.75S73.14,0,94.5,0s38.75,17.38,38.75,38.75-17.38,38.75-38.75,38.75Zm0-75.77c-20.41,0-37.01,16.6-37.01,37.01s16.6,37.01,37.01,37.01,37.01-16.6,37.01-37.01S114.91,1.74,94.5,1.74Zm0,66.65c-16.34,0-29.64-13.3-29.64-29.64s13.3-29.64,29.64-29.64,29.64,13.3,29.64,29.64-13.3,29.64-29.64,29.64Zm-27.9-29.64c0,15.39,12.52,27.9,27.9,27.9s27.9-12.52,27.9-27.9-12.52-27.9-27.9-27.9-27.9,12.52-27.9,27.9Z"/></g><path d="M123.09,68.04s-.05,0-.08-.01c-.15-.04-.24-.2-.2-.36l.67-2.33c.04-.15,.2-.25,.36-.2,.15,.04,.24,.2,.2,.36l-.67,2.33c-.04,.13-.15,.21-.28,.21Z"/><path d="M126.28,72.13s-.03,0-.04,0c-.16-.02-.27-.17-.25-.33,.36-2.73,.79-5.48,1.28-8.18,.03-.16,.18-.26,.34-.23,.16,.03,.26,.18,.23,.34-.49,2.69-.92,5.44-1.27,8.16-.02,.15-.14,.25-.29,.25Z"/><path d="M130.42,76.09c-.16,0-.29-.13-.29-.29,0-1.36,.21-3.65,.39-5.67,.11-1.23,.21-2.29,.24-2.96,0-.16,.13-.29,.3-.27,.16,0,.28,.14,.27,.3-.03,.68-.13,1.75-.24,2.98-.18,2.01-.39,4.28-.39,5.62,0,.16-.13,.29-.29,.29Z"/><path d="M134.65,80c-.16,0-.29-.13-.29-.28l-.22-9.68c0-.16,.12-.29,.28-.3,.17,0,.29,.12,.3,.28l.22,9.68c0,.16-.12,.29-.28,.3h0Z"/><path d="M138.69,84.28c-.16,0-.28-.12-.29-.28l-.38-10.13c0-.16,.12-.29,.28-.3,.16,0,.29,.12,.3,.28l.38,10.13c0,.16-.12,.29-.28,.3h-.01Z"/><path d="M142.79,87.88c-.15,0-.28-.12-.29-.27l-.51-9.47c0-.16,.11-.3,.27-.31,.18-.02,.3,.11,.31,.27l.51,9.47c0,.16-.11,.3-.27,.31h-.02Z"/><path d="M146.85,91.22c-.15,0-.28-.12-.29-.27l-.71-9.21c-.01-.16,.11-.3,.27-.31,.15-.02,.3,.11,.31,.27l.71,9.21c.01,.16-.11,.3-.27,.31h-.02Z"/><path d="M150.7,94.21c-.15,0-.27-.11-.29-.26l-.83-8.08c-.02-.16,.1-.3,.26-.32,.15-.02,.3,.1,.32,.26l.83,8.08c.02,.16-.1,.3-.26,.32h-.03Z"/><path d="M154.46,93.78c-.14,0-.26-.1-.29-.24l-.58-3.61c-.03-.16,.08-.31,.24-.33,.16-.03,.31,.08,.33,.24l.58,3.61c.03,.16-.08,.31-.24,.33-.02,0-.03,0-.05,0Z"/><g class="cls-2"><path d="M121.3,47.92c-.95,.8-1.39,2.1-2.2,3.05-.15,.27-2.09,2.46-3.19,3.51-.95,.85-1.86,1.6-2.79,2.3-.16,.03-.33,.09-.49,.19-4.74,3.43-8.3,4.68-14.28,5.78-2.84,.53-6.12,.98-10.59-.13-3.14-.73-4.65-1.59-7.93-3.8-1.39-.98-4.49-3.71-6.6-6.26h0c-2.27-3.1-3.04-5.81-3.51-7.05-.47-1.27-.83-2.57-1.2-3.87-.55-1.78-.72-2.41-.72-3.93-.35-.97-.66-1.94-.95-2.93-.28-.13-.59-.19-.9-.17-.51,3.91-.43,7.84,.06,11.74,.85,3.37,1.9,7.02,5.13,10.65,2.6,2.87,4.39,3.86,5.51,4.78,2.61,1.88,5.39,3.6,8.46,4.6,1.68,.49,3.43,.69,5.16,.9h.03c1.89,.35,3.81,.36,5.71,.14,1.49-.12,2.93-.56,4.37-.95,2.99-.73,5.97-1.65,8.7-3.09,1.11-.68,1.49-.95,2.01-1.34,3.35-2.09,6.81-4.99,8.58-7.01,.46-.95,.91-1.91,1.32-2.88,.52-1.45,1.05-2.9,1.56-4.35-.4-.16-.87-.15-1.27,.09Z"/></g><g class="cls-2"><path d="M127.48,60.28c-1.44-.41-2.41,.59-3.12,1.69l-.1,.12c-1.26,1.47-1.61,1.34-3.69,3.22l-.03,.02c-.41,.29-.9,.49-1.16,.94-.65,.8-.69,1.71-.36,2.47-.52,0-1.03,.24-1.37,.65-1.02,.97-.52,.5-1.32,1.11-1.81,1.3-6.27,3.56-6.84,3.69-5.76,2.22-9.78,3.33-15.32,2.98-8.87-.23-16.29-3.61-22.86-8.23-1.16-.9-2.31-1.85-3.2-3.03,.09,.12,.18,.24,.27,.35-.93-1.11-1.66-2.56-2.97-3.26-1.7-.79-3.26,1.51-1.91,2.83,1.18,1,1.97,2.71,3.87,4.39,1.84,1.62,3.84,3.03,6.02,4.17,1.73,1.19,3.6,2.11,5.5,3.02,1.07,.48,4.39,1.93,6.96,2.47,4.31,.92,8.79,1.39,13.19,1,5.14-.59,10.08-2.45,14.63-4.85,2.28-1.3,4.69-2.49,6.57-4.37,.39-.37,.54-.9,.48-1.4,.61,.18,1.29,.14,1.95-.25,1.65-.91,3.07-2.2,4.21-3.7,.73-.8,1.44-1.63,2-2.56,.8-1.29,.05-3.09-1.41-3.47Z"/></g></g><path d="M14.09,86.06c-.16,0-.32-.04-.46-.13-.41-.25-.53-.79-.28-1.2l13.67-21.88c.12-.2,.32-.34,.55-.39,.23-.05,.47,0,.66,.12l14.17,9.37,11.22-13.82c.3-.37,.85-.43,1.22-.13,.37,.3,.43,.85,.13,1.22l-11.72,14.44c-.28,.35-.78,.42-1.15,.18l-14.09-9.31-13.2,21.12c-.17,.26-.45,.41-.74,.41Z"/><path d="M115.72,49.71c-.23,0-.46-.09-.63-.27l-22.17-23.59-19.22,22.44c-.31,.37-.86,.41-1.23,.1-.36-.31-.41-.86-.1-1.23l19.85-23.18c.16-.19,.39-.3,.64-.3,.22,0,.48,.09,.65,.27l22.83,24.3c.33,.35,.31,.9-.04,1.23-.17,.16-.38,.24-.6,.24Z"/><g class="cls-2"><path d="M70.33,91.38c-.11-1.29-1.74-1.73-2.67-.94l-.05,.02c-.15,.06-.35,.1-.48,.13-.02,0-.05,0-.07,0-1.15-.06-.2,.11-1.37-.21-.16-.08-.31-.17-.45-.28l.02,.02s-.05-.04-.08-.06c-.14-.12-.28-.24-.4-.39l-.04-.05c-.21-.3-.42-.62-.76-.8-1.75-1-3.53,1.3-2.11,2.73,1.44,1.87,3.56,2.62,6.13,2.1,1.04-.33,2.58-.92,2.34-2.27Z"/></g><g class="cls-2"><path d="M84.39,91.13c-.06-.81-.83-1.43-1.62-1.43-.54-.03-.93,.32-1.36,.57-.05,.02-.09,.04-.14,.05l-.08,.02c-.16,0-.33,0-.49,0h-.01c-.22-.05-.45-.11-.66-.18-.08-.04-.18-.1-.28-.16-.05-.03-.09-.06-.13-.08-.12-.11-.24-.22-.35-.33-.32-.3-.57-.71-1.01-.84-1.61-.76-3.08,1.46-1.81,2.68,1.29,1.54,3.31,2.52,5.32,2.07,1.17-.21,2.87-.9,2.62-2.35Z"/></g><g class="cls-2"><path d="M99.92,91.16c-.1-1.23-1.58-1.77-2.58-1.17-.19,.06-.39,.11-.59,.14-.21,.02-.56,.04-.75,.02-.12,0-.25,0-.36-.02-.23-.04-.45-.09-.66-.17-.15-.08-.29-.17-.38-.24-.36-.29-.68-.63-1.14-.75-.67-.16-1.45,.03-1.84,.63-.68,.76-.39,2.08,.49,2.57,1.04,.92,2.38,1.36,3.76,1.36,1.51-.04,4.27-.34,4.04-2.39Z"/></g></g></g></svg>