<?xml version="1.0" encoding="UTF-8"?><svg id="Layer_2" xmlns="http://www.w3.org/2000/svg" viewBox="0 0 117.28 131.78"><defs><style>.cls-1{fill:#fff;}.cls-2{opacity:.13;}.cls-3{fill:#3ecc99;}.cls-4{fill:#acd4f7;}</style></defs><g id="Layer_1-2"><g><g><g><rect class="cls-3" x=".87" y=".87" width="74.76" height="130.04" rx="14.06" ry="14.06"/><path d="M61.43,131.78H15.07c-8.31,0-15.07-6.76-15.07-15.07V15.07C0,6.76,6.76,0,15.07,0H61.43c8.31,0,15.07,6.76,15.07,15.07V116.71c0,8.31-6.76,15.07-15.07,15.07ZM15.07,1.74C7.72,1.74,1.74,7.72,1.74,15.07V116.71c0,7.35,5.98,13.33,13.33,13.33H61.43c7.35,0,13.33-5.98,13.33-13.33V15.07c0-7.35-5.98-13.33-13.33-13.33H15.07Z"/></g><g><rect class="cls-1" x=".87" y="14.7" width="74.76" height="98.06"/><path d="M75.63,113.63H.87c-.48,0-.87-.39-.87-.87V14.7c0-.48,.39-.87,.87-.87H75.63c.48,0,.87,.39,.87,.87V112.76c0,.48-.39,.87-.87,.87ZM1.74,111.89H74.76V15.57H1.74V111.89Z"/></g><path d="M45.74,120.68h-13.47c-.48,0-.87-.39-.87-.87s.39-.87,.87-.87h13.47c.48,0,.87,.39,.87,.87s-.39,.87-.87,.87Z"/></g><path d="M38.63,36.06H13.02c-.48,0-.87-.39-.87-.87s.39-.87,.87-.87h25.61c.48,0,.87,.39,.87,.87s-.39,.87-.87,.87Z"/><path d="M25.76,56.41H13.02c-.48,0-.87-.39-.87-.87s.39-.87,.87-.87h12.74c.48,0,.87,.39,.87,.87s-.39,.87-.87,.87Z"/><path d="M64.24,77.33h-21.69c-.48,0-.87-.39-.87-.87s.39-.87,.87-.87h21.69c.48,0,.87,.39,.87,.87s-.39,.87-.87,.87Z"/><path d="M64.24,95.94h-31.32c-.48,0-.87-.39-.87-.87s.39-.87,.87-.87h31.32c.48,0,.87,.39,.87,.87s-.39,.87-.87,.87Z"/><g><path d="M20.5,87.52c-.19,0-.37-.06-.53-.18-.38-.29-.45-.84-.16-1.22L56.69,38.12c.14-.19,.35-.31,.59-.33,.24-.03,.47,.04,.65,.19l33.04,26.65,19.51-28.39c.27-.4,.81-.5,1.21-.22,.4,.27,.5,.81,.22,1.21l-20.04,29.17c-.14,.2-.35,.33-.59,.37-.24,.04-.48-.03-.67-.18l-33.08-26.68L21.19,87.18c-.17,.22-.43,.34-.69,.34Z"/><g><circle class="cls-1" cx="111.2" cy="36.72" r="5.22"/><path d="M111.2,42.81c-3.36,0-6.09-2.73-6.09-6.09s2.73-6.09,6.09-6.09,6.09,2.73,6.09,6.09-2.73,6.09-6.09,6.09Zm0-10.44c-2.4,0-4.35,1.95-4.35,4.35s1.95,4.35,4.35,4.35,4.35-1.95,4.35-4.35-1.95-4.35-4.35-4.35Z"/></g><g><circle class="cls-4" cx="56.86" cy="38.65" r="5.22"/><path d="M56.86,44.74c-3.36,0-6.09-2.73-6.09-6.09s2.73-6.09,6.09-6.09,6.09,2.73,6.09,6.09-2.73,6.09-6.09,6.09Zm0-10.44c-2.4,0-4.35,1.95-4.35,4.35s1.95,4.35,4.35,4.35,4.35-1.95,4.35-4.35-1.95-4.35-4.35-4.35Z"/></g><g><circle class="cls-1" cx="91.16" cy="65.89" r="5.22"/><path d="M91.16,71.98c-3.36,0-6.09-2.73-6.09-6.09s2.73-6.09,6.09-6.09,6.09,2.73,6.09,6.09-2.73,6.09-6.09,6.09Zm0-10.44c-2.4,0-4.35,1.95-4.35,4.35s1.95,4.35,4.35,4.35,4.35-1.95,4.35-4.35-1.95-4.35-4.35-4.35Z"/></g><g><circle class="cls-1" cx="20.55" cy="86.65" r="5.22"/><path d="M20.55,92.74c-3.36,0-6.09-2.73-6.09-6.09s2.73-6.09,6.09-6.09,6.09,2.73,6.09,6.09-2.73,6.09-6.09,6.09Zm0-10.44c-2.4,0-4.35,1.95-4.35,4.35s1.95,4.35,4.35,4.35,4.35-1.95,4.35-4.35-1.95-4.35-4.35-4.35Z"/></g></g><g class="cls-2"><path d="M71.99,14.78c-.77,.17-2.79,.07-6.12-.07-7.1-.13-14.21-.3-21.31-.29-6.95-.22-13.88,.37-20.82,.22-4.35,0-8.7,.18-13.06,.19-2.8,.14-5.58,.41-8.39,.36-2.46,.05-2.5,3.7,0,3.77,2.82,.11,5.64-.11,8.46-.19,3.07,.04,6.13,.01,9.2-.07,4.88-.04,9.77,.28,14.65,.06,8.65-.23,17.31-.16,25.96-.01,3.48,.12,6.96,.21,10.43,.43h.04c.08,.02,.16,.03,.27,.04,.36,.09,.74,.08,1.11,.03,1.04,.1,2.11-.6,2.37-1.63,.45-1.72-1.11-3.12-2.79-2.83Z"/></g><g class="cls-2"><path d="M26.07,89.45c-.57-.5-1.52-.41-2.04,.12-.18,.21-.39,.4-.6,.58-.13,.09-.34,.23-.48,.31-.17,.13-.57,.32-.76,.42-.21,.08-.42,.15-.63,.21-.2,.07-.57,.15-.77,.19-.24,.02-.47,.03-.71,.03-.08,0-.14,0-.18-.01-.48-.11-1.3-.39-1.63-.5-.05-.03-.11-.05-.16-.08l-.14-.09c-.06-.05-.12-.11-.18-.17-.15-.31-.39-.58-.69-.75-1.26-.8-2.98,.52-2.53,1.95,.41,1.26,1.61,2.07,2.74,2.64,2.54,1.3,5.75,.76,7.84-1.13,1-.85,2.33-2.62,.93-3.69Z"/></g><g class="cls-2"><path d="M63.04,41.36c-.63-.93-2.16-.8-2.69,.16-.06,.11-.13,.2-.19,.31-.05,.05-.12,.11-.2,.19-.52,.6-1.72,1.26-2.75,1.27-1.57,0-1.02,.11-2.34-.33-1.37-.84-.88-.44-1.94-1.5-1.68-1.63-4.14,.84-2.52,2.52,1.14,1.21,2.57,2.19,4.19,2.63,2.21,.49,4.76,.29,6.63-1.08,1.07-.77,2.94-2.87,1.83-4.17Z"/></g></g></g></svg>