<?xml version="1.0" encoding="UTF-8"?><svg id="Layer_2" xmlns="http://www.w3.org/2000/svg" viewBox="0 0 77.7 68.43"><defs><style>.cls-1{opacity:.13;}.cls-2{fill:#fff;}.cls-3{fill:#3ecc99;}</style></defs><g id="Layer_2-2"><g id="Layer_2-2"><g><g><path class="cls-2" d="M28.81,13.7c-.44-2.04-.69-4.18-.3-6.24s1.47-4.05,3.23-5.19c1.79-1.16,4.04-1.31,6.17-1.43,1.65-.09,3.3-.18,4.95-.27,2.43-.13,5.1-.19,6.99,1.34,2.07,1.67,2.44,4.62,2.68,7.26,.12,1.39,.23,2.87-.38,4.13-.61,1.26-2.22,2.15-3.45,1.48-1.15-.63-1.38-2.18-1.26-3.48,.11-1.31,.41-2.7-.18-3.87-.98-1.96-3.7-2.07-5.88-1.91l-3.47,.26c-1.37,.1-2.94,.32-3.69,1.47-.98,1.51,.11,3.59-.48,5.29-.36,1.05-1.4,1.83-2.51,1.9-1.11,.06-2.23-.61-2.42-.73h0Z"/><path d="M49.63,15.54c-.41,0-.82-.1-1.17-.29-1.15-.62-1.71-2.07-1.54-4,.02-.22,.04-.45,.07-.67,.12-1.07,.22-2.08-.19-2.92-.67-1.33-2.37-1.85-5.37-1.62l-3.47,.26c-1.26,.09-2.67,.27-3.29,1.23-.44,.68-.37,1.58-.28,2.53,.08,.87,.15,1.78-.14,2.64-.43,1.26-1.65,2.18-2.98,2.25-1.11,.06-2.19-.48-2.73-.8-.13-.08-.21-.2-.25-.34-.56-2.56-.65-4.6-.3-6.44,.45-2.39,1.71-4.41,3.46-5.54,1.96-1.26,4.43-1.4,6.43-1.51L42.84,.06c2.63-.14,5.37-.15,7.36,1.46,2.19,1.77,2.62,4.74,2.87,7.62,.12,1.33,.26,2.98-.43,4.41-.41,.86-1.23,1.57-2.13,1.86-.3,.09-.59,.14-.88,.14h0Zm-6.92-10.62c1.95,0,4.1,.4,5.03,2.26,.56,1.12,.43,2.33,.3,3.5-.02,.22-.05,.44-.07,.65-.06,.7-.08,2.4,.99,2.98,.44,.24,.91,.17,1.22,.07,.63-.2,1.22-.72,1.5-1.32,.56-1.17,.44-2.59,.33-3.85-.23-2.66-.62-5.38-2.49-6.9-1.69-1.37-4.1-1.36-6.63-1.22l-4.95,.27c-1.96,.11-4.19,.22-5.92,1.34-1.51,.98-2.61,2.74-3,4.85-.31,1.64-.23,3.49,.25,5.8,.43,.23,1.2,.58,1.93,.54,.89-.05,1.75-.7,2.04-1.54,.22-.65,.16-1.41,.09-2.21-.09-1.08-.19-2.21,.44-3.19,.84-1.3,2.47-1.59,4.1-1.71l3.47-.26c.43-.03,.89-.06,1.36-.06h0Z"/></g><g><path class="cls-2" d="M1.1,66.62c-.41-8.04-.48-16.11-.55-24.17-.06-6.96-.11-13.97,1.27-20.78,.44-2.14,1.37-4.85,2.75-6.97,.94-1.44,2.52-2.29,4.17-2.34,19.55-.56,38.61-.28,58.2-.91,3.19-.11,5.26,.37,6.58,1.17,3.96,2.41,1.14,7.8,1.34,9.6,1.7,15.12,2.91,30.86,2,44.82-1.88,.25-6.08,.25-8.89,.27l-56.8,.57c-3.09,.03-6.19,.06-10.08-1.27h0Z"/><path class="cls-3" d="M11.89,63.51c-.08-1.07-.14-2.13-.24-3.2-.81-8.18-.41-16.44-1.52-24.6-.22-1.91-.52-3.82-.91-5.7,0,0,0-.01,.01-.02,.34-.63-.01-1.33-.08-1.99-.27-1.66-.67-2.84-1.12-3.96,.36-.22,.61-.61,.61-1.12-.25-1.3-.8-1.85-1.45-3.93-.21-.62-.37-1.25-.51-1.88-.13-.58-.23-1.25-.81-1.56-.01-.01-.04-.01-.05-.03-.7-.78-2.25-.63-2.57,.6-.77,3.75-1.61,7.5-1.97,11.32-.39,3.66-.84,7.33-.77,11.02,.12,5.49,.31,10.97,.79,16.44-.44,.22-.77,.65-.76,1.24,.06,1.4,.13,2.79,.15,4.19,0,.93,.06,1.86,.25,2.78,.03,.6,.05,1.19,.13,1.78,.06,.54,.17,1.18,.65,1.5,.34,.3,.77,.35,1.16,.24,1.19,.97,2.79,1.41,4.41,1.5,.78,.06,1.57,.08,2.35,.13,.37,.03,.74,.09,1.07-.11,1.15-.44,1.22-1.81,.56-2.56,.23-.09,.44-.25,.57-.48,.3-.48,.08-1.06,.08-1.59h0ZM3.89,47.21c-.23-3.66-.4-7.33-.47-11v-.44c.3,2.82,.6,5.65,.87,8.47-.16,.98-.3,1.97-.41,2.96h0Zm1.38,16.98c-.01-.16-.03-.32-.04-.48-.14-1.72-.3-3.44-.45-5.16,.11,0,.22,0,.34-.01,.07,1.61,.17,3.22,.32,4.82,.04,.33,.08,.65,.13,.98-.1-.04-.19-.09-.29-.14h0Zm.41-37.15c.89,3.38,1.37,6.59,1.72,9.86,.03,.26,.05,.52,.08,.79-.22-.13-.47-.2-.73-.19-.16-1.41-.32-2.8-.46-4.21-.21-2.09-.41-4.17-.61-6.25h0Zm3.28,37.87c-.04-.9-.07-1.8-.12-2.7-.13-2.2-.24-4.39-.36-6.59v.04c.04,.33,.25,1.85,.15,1.17,0,.19,.06,.38,.15,.55,.18,1.88,.39,3.75,.6,5.63,.07,.59,.15,1.18,.23,1.76,.02,.08,.05,.15,.08,.23-.26-.04-.51-.06-.74-.09h0Z"/><path d="M9.78,68.43c-2.66,0-5.47-.15-8.85-1.31-.2-.07-.34-.25-.36-.47C.16,58.58,.09,50.38,.02,42.45c-.06-6.89-.12-14,1.28-20.89,.52-2.56,1.57-5.24,2.82-7.15,1.02-1.56,2.74-2.53,4.6-2.58,9.41-.27,18.86-.34,28.01-.42,9.85-.08,20.03-.16,30.18-.48,3.08-.1,5.33,.31,6.87,1.25,3.22,1.96,2.42,5.63,1.88,8.07-.17,.79-.34,1.52-.29,1.93,1.34,11.89,3.01,29.5,2.01,44.91-.01,.25-.2,.46-.46,.48-1.62,.22-4.93,.25-7.59,.27-.48,0-.94,0-1.37,.01l-56.8,.57c-.46,0-.93,0-1.4,0h0Zm-8.17-2.19c3.65,1.19,6.52,1.16,9.56,1.13l56.8-.57c.43,0,.89,0,1.38-.01,2.41-.01,5.35-.04,7.03-.2,.93-15.22-.71-32.54-2.03-44.28-.06-.57,.1-1.32,.31-2.27,.53-2.4,1.18-5.38-1.4-6.95-1.34-.81-3.46-1.19-6.3-1.1-10.17,.32-20.35,.41-30.2,.48-9.14,.07-18.58,.15-27.98,.42-1.52,.04-2.92,.83-3.75,2.1-1.18,1.81-2.18,4.35-2.68,6.79-1.38,6.78-1.31,13.84-1.26,20.67,.06,7.8,.13,15.86,.53,23.79Z"/></g><path d="M36.18,44.56c-.12,0-.23-.04-.33-.12L12.73,25.61c-1.62-1.31-3.28-2.68-4.59-4.41-1.64-2.18-2.64-4.91-2.81-7.69-.02-.29,.2-.54,.49-.56s.54,.2,.56,.49c.15,2.57,1.08,5.1,2.6,7.12,1.24,1.64,2.85,2.96,4.42,4.23l23.14,18.84c.22,.18,.26,.51,.08,.74-.11,.13-.25,.2-.41,.2h0Z"/><path d="M11.78,67.73c-.29,0-.53-.24-.53-.53,0-16.48-.93-30.65-3-45.96-.04-.29,.16-.56,.45-.59,.29-.04,.56,.16,.59,.45,2.08,15.37,3.01,29.59,3.01,46.11,0,.29-.24,.53-.53,.53h0Z"/><path d="M49.13,44.14c-.15,0-.31-.07-.41-.2-.18-.22-.15-.56,.08-.74l18.49-14.91c1.99-1.6,6.12-4.94,7.19-7.28,.12-.27,.44-.38,.7-.26,.27,.12,.38,.44,.26,.7-1.03,2.26-4.22,5.02-7.49,7.66l-18.49,14.91c-.1,.08-.21,.12-.33,.12Z"/><g><path class="cls-3" d="M48.75,39.48c.52,2.44,.58,4.98,.18,7.44-.1,.6-.25,1.25-.71,1.62-.32,.27-.74,.34-1.15,.41-2.87,.46-5.82,.41-8.68-.12-.41-.08-.84-.18-1.17-.46-.54-.47-.62-1.29-.65-2.03-.08-2.11-.08-4.24-.03-6.46,.39-.88,1.47-1.08,2.38-1.17,2.66-.26,5.33-.53,8-.38,.72,.04,1.64,.27,1.82,1.15h0Z"/><path d="M43.07,49.79c-1.6,0-3.2-.15-4.78-.44-.48-.09-1-.21-1.41-.58-.67-.58-.79-1.5-.83-2.41-.08-1.94-.08-4-.03-6.5,0-.07,.01-.13,.04-.2,.56-1.26,2.14-1.42,2.81-1.49,2.64-.26,5.37-.53,8.08-.38,1.29,.07,2.11,.63,2.3,1.56h0c.53,2.49,.59,5.13,.18,7.64-.11,.69-.31,1.46-.9,1.95-.42,.34-.92,.44-1.4,.52-1.36,.22-2.71,.32-4.07,.32h.01Zm-6-9.78c-.06,2.42-.05,4.43,.03,6.32,.03,.67,.11,1.33,.47,1.66,.22,.19,.56,.27,.91,.34,2.81,.53,5.67,.57,8.5,.12,.35-.06,.68-.12,.9-.3,.32-.26,.44-.78,.53-1.3,.39-2.38,.33-4.89-.17-7.25h0c-.09-.44-.54-.69-1.33-.73-2.63-.15-5.32,.12-7.92,.37-.77,.08-1.6,.23-1.91,.78h0Z"/></g><g><path class="cls-2" d="M42.03,42.69c-.34-.23-.55-.67-.51-1.1,.04-.43,.33-.82,.71-.97,.22-.08,.46-.1,.7-.09,.37,.01,.74,.07,1.04,.3,.5,.39,.55,1.27,.11,1.73-.13,.14-.32,.25-.37,.45-.03,.11-.01,.22,0,.34,.12,.84,.25,1.69,.37,2.53-.83,.24-1.69,.34-2.56,.31,.2-1.12,.4-2.23,.51-3.5h0Z"/><path d="M41.83,46.72h-.34c-.15,0-.3-.08-.39-.2-.1-.12-.13-.27-.11-.42,.18-1.01,.37-2.05,.48-3.18-.34-.36-.53-.86-.48-1.38,.06-.62,.48-1.19,1.04-1.41,.32-.13,.65-.13,.91-.13,.37,.01,.91,.07,1.35,.41,.35,.28,.58,.72,.6,1.22,.03,.5-.13,.97-.45,1.29-.04,.04-.08,.08-.13,.13-.04,.04-.11,.09-.12,.11,0,0,.01,.06,.02,.11l.37,2.53c.04,.26-.13,.51-.38,.58-.78,.22-1.58,.33-2.38,.33Zm.98-5.67c-.13,0-.27,.01-.39,.06-.2,.08-.36,.3-.38,.53-.02,.23,.09,.49,.27,.62,.16,.11,.25,.3,.23,.48-.1,1.05-.25,2-.41,2.92,.45-.02,.9-.08,1.34-.18l-.3-2.07c-.02-.13-.05-.34,.01-.56,.08-.29,.27-.46,.41-.59,.03-.03,.06-.05,.08-.08,.11-.11,.17-.3,.15-.49-.01-.2-.09-.37-.21-.46-.15-.12-.38-.18-.73-.19h-.1Z"/></g><path d="M11.62,20.26s-.07,0-.1-.03c-.08-.06-.1-.16-.05-.25,1.31-1.93,2.72-3.84,4.17-5.68,.06-.08,.17-.09,.25-.03,.08,.06,.09,.17,.03,.25-1.44,1.83-2.84,3.73-4.15,5.66-.04,.05-.09,.08-.15,.08Z"/><path d="M14.66,23.12s-.08-.01-.11-.04c-.08-.06-.08-.18-.02-.25,2.22-2.65,4.43-5.36,6.58-8.07,.06-.08,.17-.09,.25-.03,.08,.06,.09,.17,.03,.25-2.15,2.71-4.37,5.43-6.59,8.08-.04,.04-.08,.06-.13,.06Z"/><path d="M17.9,26.11s-.07,0-.1-.03c-.08-.06-.1-.16-.04-.25,2.81-4.1,5.94-8.04,9.3-11.71,.06-.07,.18-.08,.25-.01s.08,.18,.01,.25c-3.34,3.65-6.46,7.58-9.26,11.67-.04,.05-.09,.08-.15,.08h0Z"/><path d="M20.86,29s-.07-.01-.11-.04c-.08-.06-.09-.17-.04-.25,3.66-4.95,7.55-9.82,11.55-14.49,.06-.07,.18-.08,.25-.02s.08,.18,.02,.25c-4,4.66-7.88,9.53-11.54,14.47-.04,.05-.08,.07-.14,.07h0Z"/><path d="M23.7,31.6s-.08-.01-.11-.04c-.08-.06-.09-.17-.04-.25,4.41-5.82,9.04-11.59,13.76-17.15,.06-.08,.18-.08,.25-.02,.08,.06,.08,.18,.02,.25-4.72,5.56-9.34,11.33-13.75,17.14-.04,.04-.08,.07-.14,.07h0Z"/><path d="M27.09,33.76s-.08-.01-.11-.04c-.08-.06-.08-.17-.02-.25,5.4-6.58,10.96-13.17,16.54-19.6,.06-.07,.18-.08,.25-.02s.08,.18,.02,.25c-5.57,6.43-11.13,13.02-16.53,19.6-.04,.04-.08,.06-.13,.06h0Z"/><path d="M29.62,36.48s-.08-.01-.11-.04c-.08-.06-.08-.18-.02-.25L48.47,13.69c.06-.08,.18-.08,.25-.02,.08,.06,.08,.18,.02,.25l-18.98,22.5s-.08,.06-.13,.06Z"/><path d="M33.22,39.05s-.08-.01-.11-.04c-.08-.06-.08-.17-.03-.25L53.53,13.75c.06-.08,.17-.08,.25-.03,.08,.06,.08,.17,.03,.25l-20.45,25.01s-.08,.06-.13,.06h0Z"/><path d="M40.08,37.22s-.08-.01-.11-.04c-.08-.06-.09-.17-.04-.25,6.02-7.85,12.4-15.6,18.96-23.01,.06-.07,.18-.08,.25-.01s.08,.18,.01,.25c-6.56,7.41-12.93,15.14-18.95,22.99-.04,.04-.08,.07-.14,.07h0Z"/><path d="M46.11,36.41s-.08-.01-.11-.04c-.08-.06-.08-.18-.02-.25l18.96-22.3c.06-.08,.18-.08,.25-.02,.08,.06,.08,.18,.02,.25l-18.96,22.3s-.08,.06-.13,.06Z"/><path d="M51.07,37.64s-.08-.01-.11-.04c-.07-.06-.08-.18-.02-.25,6.65-7.67,13.55-15.3,20.52-22.68,.06-.07,.18-.07,.25,0,.07,.06,.07,.18,0,.25-6.96,7.37-13.85,14.99-20.5,22.67-.04,.04-.08,.06-.13,.06h0Z"/><path d="M62.93,30.53s-.08-.01-.12-.05c-.07-.06-.08-.18-.01-.25,3.44-3.77,7-7.52,10.59-11.17,.07-.07,.18-.07,.25,0s.07,.18,0,.25c-3.58,3.64-7.14,7.39-10.58,11.16-.04,.04-.08,.06-.13,.06h0Z"/><path d="M8.76,16.65s-.07-.01-.11-.04c-.08-.06-.09-.17-.04-.25l1.92-2.54c.06-.08,.17-.09,.25-.04,.08,.06,.09,.17,.04,.25l-1.92,2.54s-.08,.07-.14,.07Z"/><path d="M4.77,64.84c-.09,0-.17-.07-.18-.16-.96-14.89-.98-30.01-.06-44.9,0-.1,.08-.17,.18-.16,.1,0,.17,.09,.16,.18-.91,14.89-.89,29.98,.06,44.86,0,.1-.07,.18-.16,.19h0Z"/><path d="M8.3,65.83c-.09,0-.17-.07-.18-.17l-1.99-41.53c0-.1,.07-.18,.17-.18,.09,0,.18,.07,.18,.17l1.99,41.53c0,.1-.07,.18-.17,.18h0Z"/><g class="cls-1"><path d="M9.63,64.77l-.04-.31c0,.11,.01,.21,.04,.31Z"/></g><g class="cls-1"><path d="M74.14,22.47c.05,.16,.01,.34-.16,.48-1.54,1.28-3.08,2.56-4.62,3.85-.58,.56-1.15,1.1-1.75,1.62-.6,.47-1.17,.98-1.73,1.48-.07-.01-.15-.01-.22,0l-1.9,1.58c-.27,.23-.55,.46-.82,.69-.91,.76-1.81,1.52-2.7,2.29-2.88,2.49-5.72,5.04-8.68,7.44-.14,.12-.3,.14-.45,.11-.46,.37-.92,.75-1.38,1.12-.29,.23-.64,.11-.81-.12,0,.69,0,1.38-.02,2.06,0,.13,0,.25-.01,.38,.07,.06,.15,.12,.22,.17-.1,.1-.18,.21-.25,.34,0,.11,0,.22-.02,.33-.03,.39-.04,.8-.16,1.18-.05,.15-.15,.26-.28,.32-.15,.39-.46,.73-.87,.89-.42,.16-.88,.14-1.32,.15l-1.48,.04c-1.94,.03-3.88,.06-5.81-.17-.1-.01-.19-.04-.27-.08-.09,.06-.2,.11-.31,.11-.08,0-.16-.02-.23-.06-.09-.13-.2-.24-.33-.34-.04-.05-.07-.11-.09-.17-.05-.11-.09-.22-.12-.33v-.04c-.06,.01-.11,.04-.15,.06-.09-.25-.27-.43-.44-.63-.09-.14-.26-.4-.31-.53h0c-.04-.11-.15-.48-.18-.65-.29-1.13-.22-.72-.53-1.47-.04-.08-.09-.15-.14-.22l-.03-.08c-.18-.65-1.62-1.82-2.96-2.73-1.85-1.36-2.62-2.04-4.97-3.89-1.81-1.48-3.77-2.75-5.65-4.12,.11-.13,.17-.3,.19-.48-.64-.56-1.3-1.1-2-1.61-1.25-.9-2.52-1.77-3.74-2.69-1.36-1.02-2.56-2.2-3.75-3.41-1.18-1.19-2.37-2.36-3.63-3.47-.37,.3-.56,.84-.27,1.29,.56,.74,1.15,1.55,1.85,2.54,0,.23,.08,.46,.28,.65,1.2,1.43,1.03,1.45,2.65,3.08,1.56,1.57,3.31,2.92,4.99,4.37,2.24,1.93,5.23,3.85,6.75,5.16,3.34,2.6,6.44,5.82,8.21,7h-.01s-.01,.02,.06,.11c.19,.06,.34,.21,.41,.41,.32,.83,.65,1.69,1.13,2.45,.06,.02,.11,.06,.15,.11,.42,.48,.84,.77,1.42,1.06,.34,.18,.55,.25,.87,.39,.13,.06,.25,.12,.39,.18,1.55,.38,3.18,.41,4.78,.44,2.33,.11,5.07-.18,6.6-2.14,.18-.2,.32-.42,.44-.65v-.13c.12-.84,.31-1.64,.67-2.35,0,0,0-.01-.01-.02,0,0,.02,0,.03-.01,.3-.58,.72-1.1,1.32-1.54,1.17-.84,2.31-1.68,3.41-2.61,1.12-.93,2.18-1.95,3.26-2.92,1.09-.98,2.17-1.96,3.3-2.89,.92-.75,1.88-1.58,2.92-2.2,2-1.76,3.95-3.58,5.88-5.41,.96-.98,1.97-1.9,2.96-2.85,.46-.55,1.12-1.07,1.28-1.79,.11-.56-.34-1.04-.85-1.12v.02Z"/></g><g class="cls-1"><path d="M33.01,9.35c-.88-.09-1.77-.04-2.66-.02-.43,.04-.9-.06-1.29,.13-1.29,.49-.87,2.47,.49,2.45,.83-.04,1.66-.09,2.48-.15,.58-.01,1.3,.04,1.65-.51,.56-.63,.15-1.77-.68-1.92h0Z"/></g><g class="cls-1"><path d="M50.05,8.97c-.57,.06-1.13,.14-1.7,.24-.28,.04-.58,.08-.79,.29-1.14,.82-.21,2.67,1.14,2.28,1.07-.15,.62-.12,1.94-.23,.84,.06,1.73-.41,1.71-1.33-.08-1.3-1.25-1.43-2.3-1.24h0Z"/></g></g></g></g></svg>