<?xml version="1.0" encoding="utf-8"?>
<!-- Generator: Adobe Illustrator 26.3.1, SVG Export Plug-In . SVG Version: 6.00 Build 0)  -->
<svg version="1.1" id="Layer_2_00000176736542848822148170000013830604958601089934_"
	 xmlns="http://www.w3.org/2000/svg" xmlns:xlink="http://www.w3.org/1999/xlink" x="0px" y="0px" viewBox="0 0 2130.5 1408.8"
	 style="enable-background:new 0 0 2130.5 1408.8;" xml:space="preserve">
<style type="text/css">
	.st0{opacity:0.6;fill:#3F3468;enable-background:new    ;}
	.st1{fill:#BDD0FB;}
	.st2{fill:#91B3FA;}
	.st3{fill:#F0F0F0;}
	.st4{fill:#7D97F4;}
	.st5{fill:#4E37D3;}
	.st6{fill:#3E31BA;}
	.st7{fill:#FFFFFF;}
	.st8{fill:#31B583;}
	.st9{fill:#3ECC99;}
	.st10{opacity:0.51;fill:#FFFFFF;enable-background:new    ;}
	.st11{fill:#FE5E62;}
	.st12{opacity:0.66;fill:#FFFFFF;enable-background:new    ;}
	.st13{opacity:0.76;}
	.st14{fill:url(#SVGID_1_);}
	.st15{fill:url(#SVGID_00000065767537435878335840000017060239162800196776_);}
	.st16{fill:url(#SVGID_00000141429805512053960000000005372970031739896969_);}
	.st17{fill:url(#SVGID_00000009569436075299464760000014619865306811850384_);}
	.st18{fill:url(#SVGID_00000094617368876830932010000008673928806601892758_);}
	.st19{fill:url(#SVGID_00000030471690164534711430000014424592978922225560_);}
	.st20{fill:url(#SVGID_00000113332842361727686640000006796097280711735194_);}
	.st21{fill:url(#SVGID_00000036957643493646088480000004038374106423866298_);}
	.st22{fill:url(#SVGID_00000067944939134951660420000012833803120016763285_);}
	.st23{fill:url(#SVGID_00000077301468080489929740000018363212545890846394_);}
	.st24{fill:url(#SVGID_00000129180441735184118480000009842378290815771781_);}
	.st25{fill:url(#SVGID_00000114054067175652483660000009155461150624557235_);}
	.st26{fill:url(#SVGID_00000075856358978471639900000001310776280154286485_);}
	.st27{fill:url(#SVGID_00000007421827301533964330000017987175825830386872_);}
	.st28{fill:url(#SVGID_00000059990097644598853690000013369266521697308561_);}
	.st29{fill:url(#SVGID_00000174583766137414328850000002798289308336516778_);}
	.st30{fill:url(#SVGID_00000065755736800677067590000006909292457298903460_);}
	.st31{fill:url(#SVGID_00000158012517447977032780000011772686326766616484_);}
	.st32{fill:url(#SVGID_00000017501924570041348830000013624219055136732094_);}
</style>
<g id="Illustration">
	<g>
		<path class="st0" d="M542.6,145.5C423,287.2-12.5,148.2,0.3,402c14.9,297.2,279.6,428.8,149.3,642.2s190,384.9,740.4,362.6
			c550.4-22.3,1427.6-313.3,1205-591.2s-80.9-297.2-74.6-423.4c6.3-126.2-110.6-398.9-529.5-154.8S845.4-213.5,542.6,145.5
			L542.6,145.5z"/>
		<g>
			<path class="st1" d="M777.4,1051.6c-105.7-8.4-201.1-150.8-173.2-222c18.8-48.1,81.7-32.6,112.8-87.3c39.7-70-39.5-136.5-40-266
				c-0.4-110.3,56.4-238.9,119.2-244c65.8-5.4,156,122.9,142.8,228.7c-8.6,68.8-56.5,92.3-45.3,148.2
				c12.9,64.9,84.1,66.8,108.9,124.4C1047.1,837.1,917.3,1062.7,777.4,1051.6L777.4,1051.6z"/>
			<path class="st2" d="M840.9,1071.4c-0.5,0.2-1.1,0.3-1.7,0.3c-2.1-0.1-3.7-1.9-3.6-4c14.5-285.3-68.2-574-69-576.9
				c-0.6-2,0.6-4.2,2.6-4.8c2-0.6,4.2,0.6,4.8,2.6c0.8,2.9,83.9,292.9,69.3,579.4C843.2,1069.6,842.3,1070.9,840.9,1071.4
				L840.9,1071.4z"/>
			<path class="st2" d="M885.9,524c-0.2,0-0.3,0-0.5-0.1c-1-0.3-1.6-1.3-1.3-2.3c29.9-111.9,7.6-176.6-16.4-211.2
				c-25.9-37.4-59.4-48.6-59.7-48.7c-1-0.3-1.5-1.4-1.2-2.4c0.3-1,1.4-1.5,2.4-1.2c1.4,0.5,34.8,11.6,61.5,49.9
				c24.5,35.2,47.4,101,17.1,214.5C887.5,523.4,886.8,523.9,885.9,524L885.9,524z"/>
			<path class="st3" d="M760.1,1034.4c-0.3,0-0.7-0.1-1-0.3c-90.2-57.7-135.8-112.5-135.6-162.8c0.2-44.8,38.2-69.2,38.5-69.5
				c0.9-0.6,2.1-0.3,2.6,0.6c0.6,0.9,0.3,2.1-0.6,2.6c-0.4,0.2-36.6,23.6-36.8,66.3c-0.2,48.9,44.9,102.6,133.9,159.5
				c0.9,0.6,1.1,1.7,0.6,2.6C761.3,1034.1,760.7,1034.4,760.1,1034.4L760.1,1034.4z"/>
		</g>
		<g>
			<path class="st2" d="M707.2,1156.3c-67.5,28.2-172.7-30.5-218.5-108.5c-47.1-80.2,0.3-127.3-24.1-246.9
				c-27.7-135.8-102.5-142.1-186-316c-18.8-39.2-127.8-266.2-61.1-326.2c61.7-55.5,282,24.1,347,169.5
				c46.3,103.6-20.5,164.5,33.9,285.1c47.7,105.9,114.9,94.1,162,196C817.7,933.4,795.9,1119.3,707.2,1156.3L707.2,1156.3z"/>
			<path class="st4" d="M708.7,1190.2c-10.4-150.2-92.6-368.7-159.8-525.6C476.2,494.9,405,358.7,404.3,357.4l-5.5,2.9
				c0.7,1.4,71.8,137.3,144.5,306.9c67,156.4,149,374.2,159.3,523.5L708.7,1190.2L708.7,1190.2z"/>
		</g>
		<g>
			<path class="st1" d="M507.2,1174.8c70.3-36.6,94.4-162.4,54.4-203.3c-27-27.6-65.7,1.4-103.1-27.2
				c-47.7-36.6-12.6-105.4-50.1-194.7c-31.9-76-108.5-147.9-153.2-133.2c-46.8,15.5-71.5,130-31.5,199c26,44.8,65.8,47.1,74.4,88.8
				c10,48.4-38.4,70.5-38.7,117.4C259,1106,414.2,1223.3,507.2,1174.8L507.2,1174.8z"/>
			<path class="st2" d="M469.3,1207.1c0.4,0,0.9-0.1,1.2-0.3c1.4-0.7,2-2.4,1.3-3.8C378.6,1010.9,351.3,788.1,351,785.8
				c-0.2-1.6-1.6-2.7-3.2-2.5s-2.7,1.6-2.5,3.2c0.3,2.2,27.7,226,121.3,418.9C467.2,1206.5,468.2,1207.1,469.3,1207.1L469.3,1207.1z
				"/>
			<path class="st2" d="M278,844.1c-0.6,0-1.1-0.2-1.5-0.7c-54.1-69.4-57.5-121.5-50.9-153c7.2-34.3,27.1-51.8,27.9-52.6
				c0.8-0.7,2-0.6,2.7,0.2c0.7,0.8,0.6,2-0.2,2.7c-0.2,0.2-19.9,17.6-26.7,50.7c-6.4,30.7-2.8,81.5,50.2,149.7
				c0.6,0.8,0.5,2-0.3,2.7C278.9,843.9,278.5,844.1,278,844.1L278,844.1z"/>
			<path class="st2" d="M513.6,1158.6c-0.4,0-0.8-0.1-1.1-0.3c-0.9-0.6-1.1-1.8-0.5-2.6c44.5-65,59.8-114.9,45.5-148.4
				c-12.4-29.1-44-34.6-44.3-34.6c-1-0.2-1.7-1.2-1.6-2.2c0.2-1,1.1-1.7,2.2-1.6c1.4,0.2,33.9,5.8,47.1,36.8
				c14.9,34.7-0.5,85.9-45.9,152.1C514.8,1158.3,514.2,1158.6,513.6,1158.6L513.6,1158.6z"/>
		</g>
		<path class="st5" d="M177,1328h1700.9v62.8H195.1c-10,0-18.1-8.1-18.1-18.1V1328L177,1328L177,1328z"/>
		<g>
			<g>
				<path class="st6" d="M1556.7,313.2h369.7c22.3,0,40.4,18.1,40.4,40.4v988.1h-450.6V353.6
					C1516.3,331.3,1534.4,313.2,1556.7,313.2L1556.7,313.2z"/>
				<path class="st5" d="M1423.9,313.2h369.7c22.3,0,40.4,18.1,40.4,40.4v988.1h-450.6V353.6
					C1383.5,331.3,1401.6,313.2,1423.9,313.2L1423.9,313.2z"/>
				<g>
					<path class="st2" d="M1420.7,500.4c-1.6,0-2.8-1.3-2.8-2.9v-78.1c0-41.1,33.4-74.5,74.5-74.5h118.5c1.6,0,2.8,1.3,2.8,2.9
						s-1.3,2.9-2.8,2.9h-118.5c-37.9,0-68.8,30.9-68.8,68.8v78.1C1423.5,499.1,1422.2,500.4,1420.7,500.4L1420.7,500.4z"/>
					<path class="st7" d="M1420.7,583.2c-1.6,0-2.8-1.3-2.8-2.8v-31.8c0-1.6,1.3-2.8,2.8-2.8s2.8,1.3,2.8,2.8v31.8
						C1423.5,581.9,1422.2,583.2,1420.7,583.2z"/>
				</g>
			</g>
			<g>
				<path class="st8" d="M1530.2,1341.7h-457.5V566c0-22.3,18.1-40.4,40.4-40.4h376.7c22.3,0,40.4,18.1,40.4,40.4L1530.2,1341.7
					L1530.2,1341.7z"/>
				<path class="st9" d="M1414,1341.7H956.4V566c0-22.3,18.1-40.4,40.4-40.4h376.7c22.3,0,40.4,18.1,40.4,40.4L1414,1341.7
					L1414,1341.7z"/>
				<g>
					<path class="st7" d="M987.1,678c-1.6,0-2.8-1.3-2.8-2.8v-57.9c0-30.9,25.1-56,56-56h87.9c1.6,0,2.8,1.3,2.8,2.8
						s-1.3,2.8-2.8,2.8h-87.9c-27.7,0-50.3,22.5-50.3,50.3v57.9C990,676.8,988.7,678,987.1,678L987.1,678z"/>
					<path class="st7" d="M987.1,739.4c-1.6,0-2.8-1.3-2.8-2.8V713c0-1.6,1.3-2.8,2.8-2.8s2.8,1.3,2.8,2.8v23.6
						C990,738.2,988.7,739.4,987.1,739.4z"/>
				</g>
			</g>
			<g>
				<path class="st6" d="M711.9,765.3h313.4c22.3,0,40.4,18.1,40.4,40.4v535.9H671.5V805.7C671.5,783.4,689.6,765.3,711.9,765.3
					L711.9,765.3z"/>
				<path class="st5" d="M595.7,765.3h313.4c22.3,0,40.4,18.1,40.4,40.4v535.9H555.3V805.7C555.3,783.4,573.4,765.3,595.7,765.3
					L595.7,765.3z"/>
				<g>
					<path class="st2" d="M587.8,929.5c-1.6,0-2.8-1.3-2.8-2.8v-68.3c0-36.1,29.4-65.5,65.5-65.5h103.7c1.6,0,2.8,1.3,2.8,2.8
						s-1.3,2.8-2.8,2.8H650.5c-33,0-59.8,26.8-59.8,59.8v68.3C590.7,928.2,589.4,929.5,587.8,929.5L587.8,929.5z"/>
					<path class="st2" d="M587.8,1001.9c-1.6,0-2.8-1.3-2.8-2.8v-27.8c0-1.6,1.3-2.8,2.8-2.8s2.8,1.3,2.8,2.8v27.8
						C590.7,1000.6,589.4,1001.9,587.8,1001.9z"/>
				</g>
			</g>
			<g>
				<path class="st8" d="M687.8,1341.7H293.6v-246c0-22.3,18.1-40.4,40.4-40.4h313.4c22.3,0,40.4,18.1,40.4,40.4L687.8,1341.7
					L687.8,1341.7z"/>
				<path class="st9" d="M571.6,1341.7H177.4v-246c0-22.3,18.1-40.4,40.4-40.4h313.4c22.3,0,40.4,18.1,40.4,40.4L571.6,1341.7
					L571.6,1341.7z"/>
				<g>
					<path class="st7" d="M205.4,1214.7c-1.6,0-2.9-1.3-2.9-2.8v-68.3c0-36.1,29.4-65.5,65.5-65.5h103.7c1.6,0,2.9,1.3,2.9,2.8
						s-1.3,2.8-2.9,2.8H268.1c-33,0-59.8,26.8-59.8,59.8v68.3C208.3,1213.4,207,1214.7,205.4,1214.7L205.4,1214.7z"/>
					<path class="st7" d="M205.4,1287.1c-1.6,0-2.9-1.3-2.9-2.8v-27.8c0-1.6,1.3-2.8,2.9-2.8s2.9,1.3,2.9,2.8v27.8
						C208.2,1285.9,207,1287.1,205.4,1287.1z"/>
				</g>
			</g>
		</g>
		<g>
			<path class="st10" d="M1676.4,9.2l26.2,53.2c2.4,4.9,7,8.2,12.4,9l58.7,8.5c13.5,2,18.9,18.5,9.1,28.1l-42.5,41.4
				c-3.9,3.8-5.7,9.2-4.7,14.6l10,58.4c2.3,13.4-11.8,23.7-23.9,17.4l-52.5-27.6c-4.8-2.5-10.5-2.5-15.3,0l-52.5,27.6
				c-12.1,6.4-26.2-3.9-23.9-17.4l10-58.4c0.9-5.3-0.8-10.8-4.7-14.6l-42.5-41.4c-9.8-9.5-4.4-26.1,9.1-28.1l58.7-8.5
				c5.4-0.8,10-4.2,12.4-9l26.2-53.2C1652.9-3,1670.4-3,1676.4,9.2L1676.4,9.2z"/>
			<path class="st11" d="M1729.5,231.7c-1,0-2-0.3-3-0.8l-52.5-27.6c-3.8-2-8-3-12.3-3s-8.5,1.1-12.3,3l-52.5,27.6
				c-1,0.5-2,0.8-3,0.8c-1.9,0-3.8-0.9-5-2.4c-0.9-1-1.8-2.8-1.4-5.2l10-58.4c1.5-8.6-1.4-17.3-7.6-23.4l-42.5-41.4
				c-2.6-2.6-2-5.5-1.7-6.7s1.6-3.9,5.3-4.4l58.7-8.5c8.6-1.2,16-6.7,19.9-14.4l26.2-53.2c1.6-3.3,4.6-3.6,5.8-3.6s4.2,0.4,5.8,3.6
				l26.2,53.2c3.8,7.8,11.3,13.2,19.9,14.4l58.7,8.5c3.6,0.5,4.9,3.3,5.3,4.4s1,4.1-1.7,6.7l-42.5,41.4c-6.2,6.1-9.1,14.8-7.6,23.4
				l10,58.4c0.4,2.5-0.5,4.2-1.4,5.2C1733.2,230.8,1731.3,231.7,1729.5,231.7L1729.5,231.7z"/>
			<path class="st12" d="M1606,151.4c-0.6,0-1.2-0.4-1.4-1c-1.7-5.4-4.8-10.3-8.8-14.2l-16.2-15.8c-0.6-0.6-0.6-1.5,0-2.1
				c0.6-0.6,1.5-0.6,2.1,0l16.2,15.7c4.4,4.3,7.7,9.6,9.6,15.4c0.2,0.8-0.2,1.6-1,1.9C1606.3,151.3,1606.2,151.4,1606,151.4
				L1606,151.4z"/>
			<path class="st12" d="M1637.8,199.7c-0.5,0-1.1-0.3-1.3-0.8c-0.4-0.7-0.1-1.6,0.6-2l7-3.7c5.4-2.8,11.5-4.4,17.6-4.4
				s12.2,1.5,17.6,4.4c0.7,0.4,1,1.3,0.6,2c-0.4,0.7-1.3,1-2,0.6c-5-2.6-10.6-4-16.2-4s-11.2,1.4-16.2,4l-7,3.7
				C1638.2,199.6,1638,199.7,1637.8,199.7L1637.8,199.7z"/>
			<path class="st12" d="M1710.8,211.5c-1.2,0-2.3-0.2-3.5-0.5c-0.8-0.2-1.2-1.1-1-1.9s1.1-1.2,1.9-1c3,0.9,6.3,0.2,8.7-1.9
				c2.4-2.1,3.5-5.2,3-8.4l-5.2-30.3c-2.1-12.3,2-24.8,10.9-33.5l22-21.4c2.6-2.5,3.4-6,2.3-9.4c-1.1-3.4-3.9-5.7-7.4-6.2l-30.4-4.4
				c-12.3-1.8-23-9.5-28.5-20.7l-13.6-27.5c-1.6-3.2-4.7-5.1-8.2-5.1s-6.7,1.9-8.2,5.1l-13.6,27.5c-5.5,11.2-16.2,18.9-28.5,20.7
				l-30.4,4.4c-1.8,0.3-3.5,1-4.8,2.2c-0.6,0.6-1.6,0.5-2.1-0.1c-0.6-0.6-0.5-1.6,0.1-2.1c1.8-1.6,3.9-2.6,6.3-2.9l30.4-4.4
				c11.3-1.7,21.2-8.8,26.2-19.1l13.6-27.5c2.1-4.2,6.2-6.8,10.9-6.8s8.8,2.6,10.9,6.8l13.6,27.5c5.1,10.3,14.9,17.4,26.2,19.1
				l30.4,4.4c4.6,0.7,8.4,3.8,9.8,8.3s0.3,9.2-3.1,12.5l-22,21.5c-8.2,8-12,19.5-10,30.9l5.2,30.3c0.7,4.2-0.8,8.4-3.9,11.2
				C1716.5,210.5,1713.7,211.5,1710.8,211.5L1710.8,211.5z"/>
		</g>
		<g class="st13">
			<path class="st7" d="M1798.1,176.9l5.6,1.6c1.5,0.4,2.4,2,2,3.5c-0.4,1.5-2,2.4-3.5,2l0,0l-0.1,0l-5.4-1.6l-0.1,0
				c-1.5-0.4-2.4-2-1.9-3.5C1795,177.4,1796.6,176.5,1798.1,176.9L1798.1,176.9z"/>
			<path class="st7" d="M1816.4,183.2l5.3,2.4c1.5,0.6,2.1,2.4,1.5,3.8s-2.4,2.1-3.8,1.5l0,0l-0.1-0.1l-5.1-2.3l-0.1-0.1
				c-1.5-0.6-2.1-2.4-1.5-3.8C1813.3,183.2,1815,182.5,1816.4,183.2L1816.4,183.2z"/>
			<path class="st7" d="M1833.8,191.8l5,3c1.4,0.8,1.8,2.6,1,4s-2.7,1.8-4,1l0,0l-0.1-0.1l-4.8-2.9l-0.1-0.1c-1.4-0.8-1.8-2.6-1-4
				C1830.6,191.4,1832.4,191,1833.8,191.8z"/>
			<path class="st7" d="M1849.9,202.6l4.6,3.6c1.3,1,1.5,2.9,0.5,4.2s-2.9,1.5-4.2,0.5l0,0l-0.1-0.1l-4.4-3.5l-0.1-0.1
				c-1.3-1-1.5-2.9-0.5-4.2S1848.7,201.6,1849.9,202.6L1849.9,202.6z"/>
			<path class="st7" d="M1864.6,215.3l4.1,4.1c1.2,1.2,1.2,3.1,0,4.2s-3.1,1.2-4.2,0l0,0l-0.1-0.1l-3.9-4l-0.1-0.1
				c-1.2-1.2-1.2-3.1,0-4.2C1861.5,214.1,1863.4,214.1,1864.6,215.3L1864.6,215.3z"/>
			<path class="st7" d="M1877.7,229.5l3.6,4.5c1.1,1.3,0.8,3.2-0.5,4.3c-1.3,1.1-3.2,0.8-4.3-0.5l0,0l-0.1-0.1l-3.5-4.4l-0.1-0.1
				c-1-1.3-0.8-3.2,0.5-4.2C1874.8,228,1876.7,228.2,1877.7,229.5L1877.7,229.5z"/>
			<path class="st7" d="M1889.2,245.1l3.1,4.9c0.9,1.4,0.5,3.3-0.9,4.2c-1.4,0.9-3.3,0.5-4.2-0.9l0,0l-0.1-0.1l-3-4.7l-0.1-0.1
				c-0.9-1.4-0.5-3.3,0.9-4.2C1886.4,243.2,1888.3,243.6,1889.2,245.1L1889.2,245.1z"/>
			<path class="st7" d="M1899,261.7l2.6,5.2c0.8,1.5,0.2,3.4-1.4,4.2c-1.5,0.8-3.4,0.1-4.2-1.4l0,0l0-0.1l-2.5-5l0-0.1
				c-0.8-1.5-0.1-3.4,1.4-4.1C1896.4,259.6,1898.2,260.2,1899,261.7L1899,261.7z"/>
			<path class="st7" d="M1907,279.3l2.1,5.4c0.6,1.6-0.2,3.4-1.8,4c-1.6,0.6-3.4-0.2-4.1-1.8l0,0l0-0.1l-2-5.2l0-0.1
				c-0.6-1.6,0.2-3.4,1.8-4S1906.5,277.7,1907,279.3L1907,279.3z"/>
			<path class="st7" d="M1913.2,297.6l1.5,5.6c0.4,1.7-0.6,3.4-2.3,3.9c-1.7,0.5-3.4-0.6-3.9-2.3l0,0l0-0.1l-1.4-5.4l0-0.1
				c-0.4-1.7,0.6-3.4,2.3-3.9C1911.1,294.9,1912.8,295.9,1913.2,297.6L1913.2,297.6z"/>
			<path class="st7" d="M1917.5,316.5c0.3,1.9,0.6,3.8,0.9,5.7c0.2,1.8-1,3.4-2.7,3.6c-1.8,0.2-3.4-1-3.6-2.7l0,0v-0.1
				c-0.3-1.9-0.5-3.7-0.8-5.5c-0.3-1.7,0.9-3.4,2.6-3.7C1915.5,313.6,1917.2,314.8,1917.5,316.5L1917.5,316.5z"/>
			<path class="st7" d="M1919.7,335.7l0.3,5.8c0.1,1.8-1.3,3.3-3.1,3.4c-1.8,0.1-3.3-1.3-3.4-3l0,0v-0.1l-0.3-5.6v-0.1
				c-0.1-1.8,1.3-3.3,3.1-3.4C1918.1,332.6,1919.7,334,1919.7,335.7L1919.7,335.7z"/>
			<path class="st7" d="M1920.2,355l-0.2,5.8c-0.1,1.8-1.6,3.2-3.4,3.1s-3.2-1.6-3.1-3.4l0,0v-0.1l0.2-5.6v-0.1
				c0.1-1.8,1.6-3.2,3.4-3.1C1918.9,351.8,1920.2,353.3,1920.2,355L1920.2,355z"/>
			<path class="st7" d="M1918.9,374.3l-0.7,5.8c-0.2,1.8-1.8,3-3.6,2.8s-3.1-1.9-2.8-3.6l0,0v-0.1l0.7-5.6v-0.1
				c0.2-1.8,1.9-3,3.6-2.8S1919.1,372.5,1918.9,374.3L1918.9,374.3z"/>
			<path class="st7" d="M1916,393.4l-1.2,5.7c-0.4,1.8-2.1,2.9-3.9,2.5c-1.8-0.4-2.9-2.1-2.5-3.9l0,0l0-0.1l1.2-5.5l0-0.1
				c0.4-1.8,2.1-2.9,3.9-2.5C1915.2,389.9,1916.3,391.6,1916,393.4L1916,393.4z"/>
			<path class="st7" d="M1911.6,412.1l-1.6,5.6c-0.5,1.7-2.3,2.8-4.1,2.2c-1.7-0.5-2.8-2.3-2.2-4.1l0,0l0-0.1l1.6-5.4l0-0.1
				c0.5-1.7,2.3-2.7,4.1-2.2C1911.1,408.6,1912.1,410.4,1911.6,412.1L1911.6,412.1z"/>
			<path class="st7" d="M1905.8,430.5l-2,5.4c-0.6,1.7-2.5,2.6-4.2,2c-1.7-0.6-2.6-2.5-1.9-4.2l0,0l0-0.1l1.9-5.3l0-0.1
				c0.6-1.7,2.5-2.6,4.2-2C1905.5,426.9,1906.4,428.8,1905.8,430.5L1905.8,430.5z"/>
			<path class="st7" d="M1898.7,448.4l-2.4,5.3c-0.8,1.7-2.7,2.4-4.4,1.7s-2.4-2.7-1.7-4.4l0,0l0-0.1l2.3-5.1l0-0.1
				c0.8-1.7,2.7-2.4,4.4-1.7C1898.7,444.8,1899.4,446.7,1898.7,448.4L1898.7,448.4z"/>
			<path class="st7" d="M1890.4,465.8l-2.7,5.1c-0.9,1.6-2.9,2.2-4.5,1.4s-2.2-2.9-1.4-4.5l0,0l0-0.1l2.7-5l0-0.1
				c0.9-1.6,2.9-2.2,4.5-1.4C1890.6,462.2,1891.3,464.2,1890.4,465.8L1890.4,465.8z"/>
			<path class="st7" d="M1881,482.6l-3,4.9c-1,1.6-3,2.1-4.6,1.1c-1.6-1-2.1-3-1.1-4.6l0,0l0-0.1l3-4.8l0,0c1-1.6,3-2,4.6-1.1
				C1881.5,479,1882,481,1881,482.6L1881,482.6z"/>
			<path class="st7" d="M1870.6,498.7l-3.3,4.7c-1.1,1.5-3.2,1.9-4.7,0.8c-1.5-1.1-1.9-3.1-0.8-4.6l0,0l0,0l3.3-4.6l0,0
				c1.1-1.5,3.1-1.9,4.7-0.8C1871.3,495.2,1871.7,497.2,1870.6,498.7L1870.6,498.7z"/>
			<path class="st7" d="M1859.2,514.2l-3.6,4.5c-1.2,1.5-3.3,1.7-4.7,0.5s-1.7-3.3-0.6-4.7l0,0l0,0l3.5-4.4l0,0
				c1.2-1.5,3.3-1.7,4.7-0.5C1860.1,510.7,1860.3,512.8,1859.2,514.2L1859.2,514.2z"/>
			<path class="st7" d="M1847,529l-3.8,4.3c-1.2,1.4-3.3,1.5-4.8,0.3s-1.5-3.3-0.3-4.8l0,0l0,0l3.7-4.2l0,0c1.2-1.4,3.3-1.5,4.7-0.3
				S1848.2,527.7,1847,529L1847,529z"/>
			<path class="st7" d="M1834.1,543.2l-4,4.1c-1.3,1.3-3.4,1.4-4.8,0.1s-1.4-3.4-0.1-4.8l0,0l0,0l3.9-4.1l0,0
				c1.3-1.3,3.4-1.4,4.8-0.1C1835.3,539.8,1835.4,541.9,1834.1,543.2L1834.1,543.2z"/>
			<path class="st7" d="M1820.5,556.8l-4.2,4c-1.4,1.3-3.5,1.2-4.8-0.1c-1.3-1.4-1.2-3.5,0.1-4.8l0,0l0,0l4.1-3.9l0,0
				c1.4-1.3,3.5-1.2,4.8,0.2C1821.9,553.4,1821.9,555.5,1820.5,556.8L1820.5,556.8z"/>
			<path class="st7" d="M1806.4,569.7l-4.3,3.8c-1.4,1.2-3.6,1.1-4.8-0.3c-1.2-1.4-1.1-3.6,0.3-4.8l0,0l0,0l4.3-3.7l0,0
				c1.4-1.2,3.6-1.1,4.8,0.3C1807.9,566.3,1807.8,568.5,1806.4,569.7L1806.4,569.7z"/>
			<path class="st7" d="M1791.8,582.1l-4.5,3.6c-1.5,1.2-3.6,1-4.8-0.5c-1.2-1.5-0.9-3.6,0.5-4.8l0,0l0,0l4.4-3.5l0,0
				c1.5-1.2,3.6-1,4.8,0.5C1793.5,578.8,1793.2,580.9,1791.8,582.1L1791.8,582.1z"/>
			<path class="st7" d="M1776.7,593.9l-4.6,3.5c-1.5,1.1-3.7,0.8-4.8-0.7s-0.8-3.7,0.7-4.8l0,0l0,0l4.5-3.4l0,0
				c1.5-1.1,3.7-0.8,4.8,0.7S1778.3,592.8,1776.7,593.9L1776.7,593.9z"/>
			<path class="st7" d="M1761.3,605.3l-4.7,3.3c-1.6,1.1-3.7,0.7-4.8-0.8c-1.1-1.5-0.7-3.7,0.8-4.8l0,0l0,0l4.6-3.3l0,0
				c1.6-1.1,3.7-0.7,4.8,0.8C1763.2,602.1,1762.9,604.2,1761.3,605.3L1761.3,605.3z"/>
			<path class="st7" d="M1745.7,616.2l-4.8,3.2c-1.6,1.1-3.7,0.6-4.8-0.9s-0.6-3.7,0.9-4.8l0,0l0,0l4.7-3.2h0
				c1.6-1.1,3.7-0.7,4.8,0.9S1747.2,615.2,1745.7,616.2L1745.7,616.2z"/>
			<path class="st7" d="M1729.7,626.8l-4.8,3.1c-1.6,1-3.8,0.6-4.8-1s-0.6-3.8,1.1-4.8h0l4.8-3.1h0c1.6-1,3.7-0.6,4.8,1
				S1731.3,625.7,1729.7,626.8L1729.7,626.8z"/>
			<path class="st7" d="M1713.6,637l-4.9,3c-1.6,1-3.8,0.5-4.8-1.1s-0.5-3.8,1.1-4.8h0l4.8-3h0c1.6-1,3.8-0.5,4.8,1.1
				C1715.7,633.8,1715.2,636,1713.6,637L1713.6,637z"/>
			<path class="st7" d="M1697.2,646.8l-4.9,2.9c-1.7,1-3.8,0.4-4.8-1.2s-0.4-3.8,1.2-4.8h0l4.9-2.9h0c1.7-1,3.8-0.4,4.8,1.2
				C1699.4,643.7,1698.9,645.9,1697.2,646.8L1697.2,646.8z"/>
			<path class="st7" d="M1680.7,656.5l-5,2.8c-1.7,1-3.8,0.4-4.8-1.3s-0.4-3.8,1.3-4.8h0l4.9-2.8h0c1.7-1,3.8-0.4,4.8,1.3
				S1682.4,655.5,1680.7,656.5L1680.7,656.5z"/>
			<path class="st7" d="M1664.1,665.8l-5,2.8c-1.7,0.9-3.8,0.3-4.8-1.4s-0.3-3.8,1.4-4.8h0l5-2.7h0c1.7-0.9,3.8-0.3,4.8,1.4
				S1665.8,664.9,1664.1,665.8L1664.1,665.8z"/>
			<path class="st7" d="M1647.3,674.9l-5.1,2.7c-1.7,0.9-3.8,0.3-4.8-1.5c-0.9-1.7-0.3-3.8,1.5-4.8h0l5-2.7h0
				c1.7-0.9,3.8-0.3,4.8,1.5C1649.7,671.8,1649,674,1647.3,674.9L1647.3,674.9z"/>
			<path class="st7" d="M1630.4,683.7l-5.1,2.6c-1.7,0.9-3.9,0.2-4.8-1.5c-0.9-1.7-0.2-3.9,1.5-4.8h0l5.1-2.6h0
				c1.7-0.9,3.9-0.2,4.7,1.5C1632.8,680.7,1632.2,682.8,1630.4,683.7z"/>
			<path class="st7" d="M1613.4,692.4l-5.1,2.5c-1.8,0.9-3.9,0.2-4.8-1.6s-0.2-3.9,1.6-4.8h0l5.1-2.5h0c1.8-0.9,3.9-0.2,4.7,1.6
				S1615.2,691.5,1613.4,692.4L1613.4,692.4z"/>
			<path class="st7" d="M1596.3,700.8l-5.2,2.5c-1.8,0.9-3.9,0.1-4.8-1.7s-0.1-3.9,1.7-4.8h0l5.1-2.5l0,0c1.8-0.9,3.9-0.1,4.7,1.7
				C1598.8,697.8,1598.1,700,1596.3,700.8L1596.3,700.8z"/>
			<path class="st7" d="M1579.2,709.1l-5.2,2.5c-1.8,0.8-3.9,0.1-4.8-1.7s-0.1-3.9,1.7-4.8h0l5.2-2.4l0,0c1.8-0.8,3.9-0.1,4.7,1.7
				S1580.9,708.2,1579.2,709.1L1579.2,709.1z"/>
			<path class="st7" d="M1561.9,717.2l-5.2,2.4c-1.8,0.8-3.9,0-4.8-1.7s-0.1-3.9,1.7-4.8h0l5.2-2.4c1.8-0.8,3.9,0,4.8,1.7
				S1563.7,716.3,1561.9,717.2L1561.9,717.2z"/>
			<path class="st7" d="M1544.6,725.1l-5.2,2.4c-1.8,0.8-3.9,0-4.8-1.8s0-3.9,1.8-4.8h0l5.2-2.3c1.8-0.8,3.9,0,4.8,1.8
				C1547.2,722.2,1546.4,724.3,1544.6,725.1L1544.6,725.1z"/>
			<path class="st7" d="M1527.2,732.9l-5.2,2.3c-1.8,0.8-3.9,0-4.8-1.8s0-3.9,1.8-4.8l0,0l5.2-2.3c1.8-0.8,3.9,0,4.8,1.8
				S1529,732.1,1527.2,732.9L1527.2,732.9z"/>
			<path class="st7" d="M1509.8,740.6l-5.2,2.3c-1.8,0.8-3.9,0-4.7-1.8c-0.8-1.8,0-3.9,1.8-4.7l5.2-2.3c1.8-0.8,3.9,0,4.7,1.8
				S1511.6,739.8,1509.8,740.6L1509.8,740.6L1509.8,740.6z"/>
			<path class="st7" d="M1492.3,748.2l-5.2,2.3c-1.8,0.8-3.9,0-4.7-1.9c-0.8-1.8,0.1-3.9,1.9-4.7l5.2-2.3c1.8-0.8,3.9,0,4.7,1.8
				C1495,745.3,1494.2,747.5,1492.3,748.2L1492.3,748.2L1492.3,748.2z"/>
			<path class="st7" d="M1474.9,755.8l-5.2,2.2c-1.8,0.8-3.9-0.1-4.7-1.9c-0.8-1.8,0.1-3.9,1.9-4.7l5.2-2.2c1.8-0.8,3.9,0,4.7,1.9
				S1476.7,755,1474.9,755.8L1474.9,755.8L1474.9,755.8z"/>
			<path class="st7" d="M1457.3,763.3l-5.2,2.2c-1.8,0.8-3.9-0.1-4.7-1.9s0.1-3.9,1.9-4.7l5.2-2.2c1.8-0.8,3.9,0.1,4.7,1.9
				S1459.2,762.5,1457.3,763.3L1457.3,763.3L1457.3,763.3z"/>
			<path class="st7" d="M1439.8,770.7l-5.2,2.2c-1.8,0.8-3.9-0.1-4.6-1.9s0.1-3.9,1.9-4.6l5.2-2.2c1.8-0.8,3.9,0.1,4.7,1.9
				S1441.7,769.9,1439.8,770.7L1439.8,770.7L1439.8,770.7z"/>
			<path class="st7" d="M1422.3,778.1l-5.2,2.2c-1.8,0.8-3.9-0.1-4.6-1.9s0.1-3.9,1.9-4.6l5.2-2.2c1.8-0.8,3.9,0.1,4.6,1.9
				S1424.1,777.4,1422.3,778.1L1422.3,778.1L1422.3,778.1z"/>
			<path class="st7" d="M1404.8,785.6l-5.2,2.2c-1.8,0.8-3.8-0.1-4.6-1.9s0.1-3.8,1.8-4.6l5.2-2.2c1.8-0.8,3.8,0.1,4.6,1.8
				C1407.4,782.7,1406.6,784.8,1404.8,785.6L1404.8,785.6L1404.8,785.6z"/>
			<path class="st7" d="M1387.3,793l-5.2,2.2c-1.8,0.8-3.8-0.1-4.6-1.8s0.1-3.8,1.8-4.6l5.2-2.2c1.8-0.8,3.8,0.1,4.6,1.8
				S1389.1,792.3,1387.3,793L1387.3,793L1387.3,793z"/>
			<path class="st7" d="M1369.8,800.5l-5.2,2.3c-1.8,0.8-3.8,0-4.6-1.8c-0.8-1.8,0.1-3.8,1.8-4.6l5.2-2.3c1.8-0.8,3.8,0,4.6,1.8
				C1372.4,797.7,1371.6,799.8,1369.8,800.5L1369.8,800.5L1369.8,800.5z"/>
			<path class="st7" d="M1352.4,808.1l-5.2,2.3c-1.8,0.8-3.8,0-4.6-1.8c-0.8-1.8,0-3.8,1.8-4.6l5.2-2.3c1.8-0.8,3.8,0,4.6,1.8
				C1355,805.2,1354.2,807.3,1352.4,808.1L1352.4,808.1L1352.4,808.1z"/>
			<path class="st7" d="M1335,815.7l-5.2,2.3c-1.8,0.8-3.8,0-4.6-1.8c-0.8-1.8,0-3.8,1.8-4.6l5.2-2.3c1.8-0.8,3.8,0,4.6,1.8
				C1337.5,812.9,1336.7,814.9,1335,815.7L1335,815.7L1335,815.7z"/>
			<path class="st7" d="M1317.6,823.4l-5.2,2.3c-1.7,0.8-3.8,0-4.6-1.7c-0.8-1.7,0-3.8,1.7-4.6l5.2-2.3c1.7-0.8,3.8,0,4.6,1.7
				C1320.1,820.6,1319.4,822.6,1317.6,823.4L1317.6,823.4L1317.6,823.4z"/>
			<path class="st7" d="M1300.3,831.2l-5.2,2.4c-1.7,0.8-3.8,0-4.6-1.7c-0.8-1.7,0-3.8,1.7-4.6l5.2-2.4c1.7-0.8,3.8,0,4.6,1.7
				S1302,830.5,1300.3,831.2L1300.3,831.2L1300.3,831.2z"/>
			<path class="st7" d="M1283.1,839.2l-5.2,2.4c-1.7,0.8-3.8,0.1-4.6-1.6s-0.1-3.8,1.6-4.6l5.2-2.4c1.7-0.8,3.8-0.1,4.6,1.6
				S1284.8,838.4,1283.1,839.2L1283.1,839.2L1283.1,839.2z"/>
			<path class="st7" d="M1265.9,847.3l-5.1,2.5l0,0c-1.7,0.8-3.7,0.1-4.6-1.6c-0.8-1.7-0.1-3.7,1.6-4.5l5.2-2.5
				c1.7-0.8,3.7-0.1,4.6,1.6C1268.3,844.5,1267.6,846.5,1265.9,847.3L1265.9,847.3L1265.9,847.3z"/>
			<path class="st7" d="M1248.8,855.6l-5.1,2.5h0c-1.7,0.8-3.7,0.1-4.6-1.5c-0.8-1.7-0.1-3.7,1.5-4.5l5.1-2.5
				c1.7-0.8,3.7-0.2,4.6,1.5C1251.2,852.7,1250.5,854.8,1248.8,855.6L1248.8,855.6L1248.8,855.6z"/>
			<path class="st7" d="M1231.8,864.1l-5.1,2.6h0c-1.7,0.8-3.7,0.2-4.6-1.5c-0.8-1.7-0.2-3.7,1.5-4.5l5.1-2.6
				c1.7-0.8,3.7-0.2,4.6,1.5C1234.2,861.2,1233.5,863.2,1231.8,864.1L1231.8,864.1L1231.8,864.1z"/>
			<path class="st7" d="M1214.9,872.8l-5,2.7h0c-1.7,0.9-3.7,0.2-4.6-1.4c-0.9-1.7-0.2-3.7,1.4-4.5l5.1-2.7c1.7-0.9,3.7-0.2,4.6,1.4
				C1217.2,869.8,1216.6,871.9,1214.9,872.8L1214.9,872.8L1214.9,872.8z"/>
			<path class="st7" d="M1198.2,881.7l-5,2.7h0c-1.6,0.9-3.7,0.3-4.6-1.3s-0.3-3.7,1.3-4.5l5-2.7c1.6-0.9,3.7-0.3,4.6,1.3
				S1199.8,880.8,1198.2,881.7L1198.2,881.7L1198.2,881.7z"/>
			<path class="st7" d="M1181.5,890.8l-5,2.8h0c-1.6,0.9-3.7,0.3-4.6-1.3c-0.9-1.6-0.3-3.7,1.3-4.6l5-2.8c1.6-0.9,3.7-0.3,4.6,1.3
				C1183.7,887.8,1183.2,889.9,1181.5,890.8L1181.5,890.8L1181.5,890.8z"/>
			<path class="st7" d="M1165.1,900.2l-4.9,2.9h0c-1.6,0.9-3.6,0.4-4.6-1.2c-0.9-1.6-0.4-3.6,1.2-4.6l4.9-2.9
				c1.6-0.9,3.6-0.4,4.6,1.2S1166.7,899.3,1165.1,900.2L1165.1,900.2L1165.1,900.2z"/>
			<path class="st7" d="M1148.8,909.9l-4.9,3h0c-1.6,1-3.6,0.5-4.6-1.1c-0.9-1.6-0.5-3.6,1.1-4.6l4.9-3c1.6-1,3.6-0.5,4.6,1.1
				C1150.8,906.9,1150.3,908.9,1148.8,909.9L1148.8,909.9L1148.8,909.9z"/>
			<path class="st7" d="M1132.6,919.9l-4.8,3h0c-1.5,1-3.6,0.5-4.6-1c-1-1.5-0.5-3.6,1-4.6l4.8-3.1c1.5-1,3.6-0.5,4.6,1
				C1134.6,916.8,1134.2,918.9,1132.6,919.9L1132.6,919.9L1132.6,919.9z"/>
			<path class="st7" d="M1116.7,930.1l-4.7,3.2h0c-1.5,1-3.6,0.6-4.6-0.9c-1-1.5-0.6-3.6,0.9-4.6l4.8-3.2c1.5-1,3.6-0.6,4.6,0.9
				C1118.6,927.1,1118.2,929.1,1116.7,930.1L1116.7,930.1L1116.7,930.1z"/>
			<path class="st7" d="M1101,940.7l-4.7,3.2h0c-1.5,1-3.5,0.7-4.6-0.8c-1-1.5-0.7-3.5,0.8-4.6l4.7-3.3c1.5-1,3.5-0.7,4.6,0.8
				S1102.5,939.7,1101,940.7L1101,940.7L1101,940.7z"/>
			<path class="st7" d="M1085.5,951.7l-4.6,3.3h0c-1.5,1.1-3.5,0.8-4.6-0.7c-1.1-1.5-0.8-3.5,0.7-4.6l4.6-3.4
				c1.5-1.1,3.5-0.8,4.6,0.7C1087.3,948.5,1087,950.6,1085.5,951.7L1085.5,951.7L1085.5,951.7z"/>
			<path class="st7" d="M1070.3,963l-4.5,3.5h0c-1.4,1.1-3.5,0.8-4.6-0.6c-1.1-1.4-0.8-3.5,0.6-4.6l4.6-3.5c1.4-1.1,3.5-0.8,4.6,0.6
				C1072,959.8,1071.7,961.8,1070.3,963L1070.3,963L1070.3,963z"/>
			<path class="st7" d="M1055.3,974.6l-4.4,3.6l0,0c-1.4,1.1-3.4,0.9-4.6-0.5c-1.1-1.4-0.9-3.4,0.5-4.6l4.5-3.6
				c1.4-1.1,3.4-0.9,4.6,0.5C1057,971.4,1056.7,973.5,1055.3,974.6L1055.3,974.6L1055.3,974.6L1055.3,974.6z"/>
			<path class="st7" d="M1040.7,986.6l-4.3,3.7l0,0c-1.4,1.2-3.4,1-4.6-0.4s-1-3.4,0.4-4.5l4.4-3.7c1.4-1.2,3.4-1,4.6,0.4
				S1042.1,985.4,1040.7,986.6L1040.7,986.6L1040.7,986.6z"/>
			<path class="st7" d="M1026.3,999l-4.2,3.8l0,0c-1.3,1.2-3.3,1.1-4.5-0.3s-1.1-3.3,0.2-4.5l4.3-3.8c1.3-1.2,3.3-1.1,4.5,0.2
				S1027.7,997.8,1026.3,999L1026.3,999L1026.3,999L1026.3,999z"/>
			<path class="st7" d="M1012.3,1011.7l-4.1,3.9l0,0c-1.3,1.2-3.3,1.2-4.5-0.1c-1.2-1.3-1.2-3.3,0.1-4.5l4.2-4
				c1.3-1.2,3.3-1.2,4.5,0.1C1013.6,1008.5,1013.6,1010.5,1012.3,1011.7L1012.3,1011.7L1012.3,1011.7L1012.3,1011.7z"/>
			<path class="st7" d="M998.8,1024.9l-3.9,4.1l0,0c-1.2,1.2-3.2,1.3-4.4,0.1c-1.2-1.2-1.3-3.2-0.1-4.4l4-4.2
				c1.2-1.3,3.2-1.3,4.4-0.1C1000,1021.6,1000,1023.6,998.8,1024.9L998.8,1024.9L998.8,1024.9L998.8,1024.9z"/>
			<path class="st7" d="M986.2,1038.8l-3.6,4.3l0,0.1c-1.1,1.3-3,1.5-4.3,0.4c-1.3-1.1-1.5-3-0.4-4.3l3.7-4.5c1.1-1.3,3-1.5,4.4-0.4
				C987.1,1035.5,987.3,1037.4,986.2,1038.8L986.2,1038.8L986.2,1038.8L986.2,1038.8z"/>
			<path class="st7" d="M974.8,1053.7l-3.1,4.7l-0.1,0.1c-0.9,1.4-2.8,1.8-4.2,0.9s-1.8-2.8-0.9-4.2l3.2-4.9
				c0.9-1.4,2.8-1.8,4.2-0.9C975.4,1050.3,975.8,1052.2,974.8,1053.7L974.8,1053.7L974.8,1053.7L974.8,1053.7z"/>
			<path class="st7" d="M965.2,1069.7c-0.8,1.7-1.7,3.3-2.5,5l0,0c-0.7,1.5-2.5,2.2-4,1.4c-1.5-0.7-2.2-2.5-1.5-4
				c0.8-1.8,1.7-3.5,2.6-5.3c0.8-1.5,2.6-2.1,4.1-1.3S966,1068.2,965.2,1069.7L965.2,1069.7L965.2,1069.7L965.2,1069.7z"/>
			<path class="st7" d="M957.9,1086.7l-1.6,5.3l0,0.1c-0.5,1.6-2.2,2.4-3.7,2c-1.6-0.5-2.5-2.1-2-3.7l1.7-5.6c0.5-1.6,2.2-2.5,3.7-2
				c1.6,0.5,2.5,2.2,2,3.7l0,0L957.9,1086.7L957.9,1086.7z"/>
			<path class="st7" d="M953.5,1104.7l-0.7,5.5l0,0.2c-0.2,1.6-1.7,2.7-3.3,2.5c-1.6-0.2-2.8-1.7-2.5-3.3l0.7-5.8
				c0.2-1.6,1.7-2.8,3.3-2.6s2.8,1.7,2.6,3.3l0,0L953.5,1104.7L953.5,1104.7z"/>
			<path class="st7" d="M952.4,1123.1l0.4,5.5v0.2c0.1,1.6-1.1,3-2.7,3.1s-3-1.1-3.1-2.7l-0.4-5.9c-0.1-1.6,1.1-3,2.7-3.1
				c1.6-0.1,3,1.1,3.1,2.7l0,0L952.4,1123.1L952.4,1123.1z"/>
			<path class="st7" d="M955,1141.3l1.6,5.3l0.1,0.2c0.5,1.5-0.4,3.1-1.9,3.6s-3.1-0.4-3.6-1.9l-1.8-5.7c-0.5-1.5,0.4-3.1,1.9-3.6
				s3.1,0.4,3.6,1.9l0,0L955,1141.3L955,1141.3z"/>
		</g>
		<g>
			
				<linearGradient id="SVGID_1_" gradientUnits="userSpaceOnUse" x1="665.71" y1="949.55" x2="471.45" y2="1056.62" gradientTransform="matrix(1 0 0 -1 0 1408)">
				<stop  offset="0" style="stop-color:#FE7062"/>
				<stop  offset="1" style="stop-color:#FF928E"/>
			</linearGradient>
			<path class="st14" d="M633.7,394.4l-31.8,49c14.8,28.9,31.3,44.8,47.7,52.4c2.9-18,13.4-32.9,21.2-41.8
				C641.4,437.3,633.7,394.4,633.7,394.4L633.7,394.4z"/>
			
				<linearGradient id="SVGID_00000120545081121985685040000007653479959954194836_" gradientUnits="userSpaceOnUse" x1="766.9515" y1="971.657" x2="527.7214" y2="855.757" gradientTransform="matrix(1 0 0 -1 0 1408)">
				<stop  offset="0" style="stop-color:#FF928E"/>
				<stop  offset="1" style="stop-color:#FEB3B1"/>
			</linearGradient>
			<path style="fill:url(#SVGID_00000120545081121985685040000007653479959954194836_);" d="M743.1,445.2
				c-32.6,19.3-55.9,18.2-72.4,8.8c-7.7,8.9-18.2,23.8-21.2,41.8c52.3,24.1,104.7-36.5,104.7-36.5L743.1,445.2L743.1,445.2z"/>
			
				<linearGradient id="SVGID_00000180339978152546403090000016902564782693536698_" gradientUnits="userSpaceOnUse" x1="768.0876" y1="969.3051" x2="528.8575" y2="853.415" gradientTransform="matrix(1 0 0 -1 0 1408)">
				<stop  offset="0" style="stop-color:#FF928E"/>
				<stop  offset="1" style="stop-color:#FEB3B1"/>
			</linearGradient>
			<path style="fill:url(#SVGID_00000180339978152546403090000016902564782693536698_);" d="M744.9,453.6c0,0-8.8-15.3,3.9-27.1
				c0,0,4.1-4.7,8.6,2.2c0,0,13.6-12.4,17.3-7.4c3.7,5,13.6,17.3,4,31.4C768.9,466.9,749.2,460.5,744.9,453.6L744.9,453.6z"/>
			
				<linearGradient id="SVGID_00000147222046350883357850000018417002218423702687_" gradientUnits="userSpaceOnUse" x1="772.4064" y1="1098.9904" x2="760.4064" y2="992.4904" gradientTransform="matrix(1 0 0 -1 0 1408)">
				<stop  offset="0" style="stop-color:#FF928E"/>
				<stop  offset="1" style="stop-color:#FEB3B1"/>
			</linearGradient>
			<path style="fill:url(#SVGID_00000147222046350883357850000018417002218423702687_);" d="M758.3,445.4c-1.3,0-2.8-0.2-4.1-1
				c-1.3-0.8-2.8-2.3-3.2-5.5c-0.1-1,0.6-2,1.7-2.1c1-0.1,2,0.6,2.1,1.6c0.2,2,1.1,2.5,1.4,2.7c1,0.6,2.6,0.5,3.8,0.3l-3-9.5
				c-0.3-1,0.2-2.1,1.2-2.4s2.1,0.2,2.4,1.2l3.6,11.3c0.3,1-0.2,2-1.1,2.3C762.7,444.6,760.6,445.4,758.3,445.4L758.3,445.4z"/>
			
				<linearGradient id="SVGID_00000019645447067516732670000005013610481783912118_" gradientUnits="userSpaceOnUse" x1="277.9381" y1="592.8273" x2="315.39" y2="592.8273" gradientTransform="matrix(1 0 0 -1 0 1408)">
				<stop  offset="0" style="stop-color:#4042E2"/>
				<stop  offset="1" style="stop-color:#4F52FF"/>
			</linearGradient>
			<path style="fill:url(#SVGID_00000019645447067516732670000005013610481783912118_);" d="M281.7,774.2c-2.8,1.7-4.3,5.3-3.6,8.8
				c2.7,13.8,11.4,50.4,32.6,72.1c1.4,1.4,3.4,1.3,4.7,0c-5.4-5.6-12-15.2-19.8-31.4C283.6,798.7,281.4,783.3,281.7,774.2
				L281.7,774.2z"/>
			
				<linearGradient id="SVGID_00000110435932787782402250000000619667815848353209_" gradientUnits="userSpaceOnUse" x1="281.6697" y1="595.1837" x2="321.536" y2="595.1837" gradientTransform="matrix(1 0 0 -1 0 1408)">
				<stop  offset="0" style="stop-color:#09005D"/>
				<stop  offset="1" style="stop-color:#1A0F91"/>
			</linearGradient>
			<path style="fill:url(#SVGID_00000110435932787782402250000000619667815848353209_);" d="M309.1,773.7c0,0-13.7-7.4-27.3,0.5
				c0,0-0.1,0-0.1,0.1c-0.3,9.1,1.9,24.5,13.9,49.5c7.8,16.2,14.5,25.8,19.8,31.4c0.4-0.4,0.7-0.9,0.9-1.6
				C320.3,839.7,328.7,801.2,309.1,773.7L309.1,773.7z"/>
			
				<linearGradient id="SVGID_00000145761585960781488080000000698629929309311639_" gradientUnits="userSpaceOnUse" x1="301.5748" y1="635.4891" x2="330.8889" y2="635.4891" gradientTransform="matrix(1 0 0 -1 0 1408)">
				<stop  offset="0" style="stop-color:#FF928E"/>
				<stop  offset="1" style="stop-color:#FEB3B1"/>
			</linearGradient>
			<path style="fill:url(#SVGID_00000145761585960781488080000000698629929309311639_);" d="M328.9,774.5l-12.4,11.9
				c-2.2,2.1-5.6,2.4-8.1,0.8c-2.2-1.5-4.7-3.9-6.3-7.8c-1-2.3-0.5-5,1.2-6.9l12.4-13.6c3-3.2,8.2-2.7,10.5,1.1l3.9,6.5
				C331.5,769.1,331.1,772.4,328.9,774.5L328.9,774.5z"/>
			
				<linearGradient id="SVGID_00000128486547477452545040000008982594588864917930_" gradientUnits="userSpaceOnUse" x1="729.65" y1="727.3005" x2="785.801" y2="727.3005" gradientTransform="matrix(1 0 0 -1 0 1408)">
				<stop  offset="0" style="stop-color:#4042E2"/>
				<stop  offset="1" style="stop-color:#4F52FF"/>
			</linearGradient>
			<path style="fill:url(#SVGID_00000128486547477452545040000008982594588864917930_);" d="M729.7,714.9c2.9,1.6,6.7,1.1,9.5-1.2
				c10.7-9.2,38.2-34.8,46.6-64c0.5-1.9-0.6-3.6-2.3-4.1c-2.2,7.4-7.2,18-17.5,32.8C750,701.1,737.8,710.6,729.7,714.9L729.7,714.9z
				"/>
			
				<linearGradient id="SVGID_00000079463888958193943370000017542986688000480402_" gradientUnits="userSpaceOnUse" x1="715.66" y1="727.8244" x2="783.37" y2="727.8244" gradientTransform="matrix(1 0 0 -1 0 1408)">
				<stop  offset="0" style="stop-color:#09005D"/>
				<stop  offset="1" style="stop-color:#1A0F91"/>
			</linearGradient>
			<path style="fill:url(#SVGID_00000079463888958193943370000017542986688000480402_);" d="M715.7,691.3c0,0,0.3,15.6,13.9,23.5
				c0,0,0.1,0,0.1,0c8.1-4.2,20.4-13.8,36.2-36.5c10.3-14.8,15.3-25.3,17.5-32.8c-0.5-0.1-1.2-0.2-1.8,0
				C767.6,649,730,660.7,715.7,691.3L715.7,691.3z"/>
			
				<linearGradient id="SVGID_00000110438602221119911970000012508885807218778255_" gradientUnits="userSpaceOnUse" x1="697.7133" y1="729.7852" x2="729.9139" y2="729.7852" gradientTransform="matrix(1 0 0 -1 0 1408)">
				<stop  offset="0" style="stop-color:#FF928E"/>
				<stop  offset="1" style="stop-color:#FEB3B1"/>
			</linearGradient>
			<path style="fill:url(#SVGID_00000110438602221119911970000012508885807218778255_);" d="M714.7,665.5l13,11.3
				c2.3,2,2.9,5.3,1.5,8c-1.3,2.3-3.4,5-7.2,7c-2.2,1.2-5,1-7-0.6l-14.7-11.1c-3.5-2.7-3.4-7.9,0.1-10.5l6.2-4.4
				C709.1,663.4,712.4,663.5,714.7,665.5L714.7,665.5z"/>
			
				<linearGradient id="SVGID_00000098931283584451399230000004136333979779106949_" gradientUnits="userSpaceOnUse" x1="416.4984" y1="731.2888" x2="269.4984" y2="536.2988" gradientTransform="matrix(1 0 0 -1 0 1408)">
				<stop  offset="0" style="stop-color:#09005D"/>
				<stop  offset="1" style="stop-color:#1A0F91"/>
			</linearGradient>
			<path style="fill:url(#SVGID_00000098931283584451399230000004136333979779106949_);" d="M454.7,551.3c0,0-25.3,86.1-41.6,124
				c0,0-28.6,4.4-46.3,14.7s-55.8,67.6-55.8,67.6s10,18.9,22,21.8l108.4-75.1L528,603.5l-4.1-46.7L454.7,551.3L454.7,551.3z"/>
			
				<linearGradient id="SVGID_00000142877797052919579110000000992150252287753605_" gradientUnits="userSpaceOnUse" x1="731.18" y1="794.345" x2="543.69" y2="794.345" gradientTransform="matrix(1 0 0 -1 0 1408)">
				<stop  offset="0" style="stop-color:#09005D"/>
				<stop  offset="1" style="stop-color:#1A0F91"/>
			</linearGradient>
			<path style="fill:url(#SVGID_00000142877797052919579110000000992150252287753605_);" d="M456.3,544.2l-7.4,23.6
				c0,0,6.8,61.8,84.7,51.4c78-10.4,87.8-23.2,87.8-23.2s-6.8,39.5,78.5,87c0,0,13-9.8,15.8-20.9l-59.7-98.5
				c-8.3-12.9-16-16.3-31.2-13.9c-33.5,5.2-96.4,12.1-105.9,10.5L456.3,544.2L456.3,544.2z"/>
			
				<linearGradient id="SVGID_00000160179598531114069640000007034316235779749773_" gradientUnits="userSpaceOnUse" x1="540.0742" y1="1004.1737" x2="363.4741" y2="722.7237" gradientTransform="matrix(1 0 0 -1 0 1408)">
				<stop  offset="0" style="stop-color:#FE7062"/>
				<stop  offset="1" style="stop-color:#FF928E"/>
			</linearGradient>
			<path style="fill:url(#SVGID_00000160179598531114069640000007034316235779749773_);" d="M517.2,368.9
				c-22.7,1.2-58.6,12-81.8,33.3c7.1,7.9,18.1,20.7,26.3,33.3c7.3-6.9,17.8-12.6,32.6-16.2c-12.8,47.7-27.9,93.2-46.3,135.5
				c-1.1,2.7,0.2,5.7,2.9,6.7c14.2,5,56.2,16.8,89.9-2.2l74.6-106.9c8-11.5,13.3-24.7,15.4-38.5l3-19.3
				C633.7,394.4,566.7,366.3,517.2,368.9L517.2,368.9z"/>
			
				<linearGradient id="SVGID_00000134930932866479327000000007091431254125414564_" gradientUnits="userSpaceOnUse" x1="414.5992" y1="1079.9199" x2="446.5992" y2="913.9199" gradientTransform="matrix(1 0 0 -1 0 1408)">
				<stop  offset="0" style="stop-color:#FF928E"/>
				<stop  offset="1" style="stop-color:#FEB3B1"/>
			</linearGradient>
			<path style="fill:url(#SVGID_00000134930932866479327000000007091431254125414564_);" d="M476.5,530.6
				c-3.2-7.2-14.4-13.9-19.6-16.7c-4.6-9.5-23-52.3,4.8-78.4c-8.2-12.6-19.1-25.4-26.3-33.3c-26.8,24.6-36.6,63.4,10.4,117.5
				c-2.6,13.3,5.8,28.9,10.3,31.1C458.1,551.8,480.8,540.1,476.5,530.6z"/>
			
				<linearGradient id="SVGID_00000121966281177966342180000006219018659310246557_" gradientUnits="userSpaceOnUse" x1="519.8881" y1="997.9991" x2="497.9024" y2="987.3412" gradientTransform="matrix(1 0 0 -1 0 1408)">
				<stop  offset="0" style="stop-color:#FE7062"/>
				<stop  offset="1" style="stop-color:#FF928E"/>
			</linearGradient>
			<path style="fill:url(#SVGID_00000121966281177966342180000006219018659310246557_);" d="M498.5,419.5c-0.9,0-1.7-0.6-1.9-1.5
				c-0.2-1,0.4-2,1.5-2.3l20.8-4.5c1-0.2,2,0.4,2.3,1.5c0.2,1-0.4,2-1.5,2.3l-20.8,4.5C498.8,419.5,498.6,419.5,498.5,419.5z"/>
			
				<linearGradient id="SVGID_00000057117942990925259400000000243579369475030664_" gradientUnits="userSpaceOnUse" x1="579.7716" y1="1098.5314" x2="555.7716" y2="947.0413" gradientTransform="matrix(1 0 0 -1 0 1408)">
				<stop  offset="0" style="stop-color:#FF928E"/>
				<stop  offset="1" style="stop-color:#FEB3B1"/>
			</linearGradient>
			<path style="fill:url(#SVGID_00000057117942990925259400000000243579369475030664_);" d="M567.6,340.5l-19.5,38.2
				c-1.2,2.3-0.8,5.1,0.9,7.1c4.7,5.3,15.9,13.8,35.3,7.7c2.1-0.7,3.7-2.6,4-4.8l5.1-34.7L567.6,340.5L567.6,340.5z"/>
			<g>
				
					<linearGradient id="SVGID_00000040551137946119001200000000639739242667063434_" gradientUnits="userSpaceOnUse" x1="560.5797" y1="1141.4099" x2="602.5797" y2="1034.9199" gradientTransform="matrix(1 0 0 -1 0 1408)">
					<stop  offset="0" style="stop-color:#FF928E"/>
					<stop  offset="1" style="stop-color:#FEB3B1"/>
				</linearGradient>
				<path style="fill:url(#SVGID_00000040551137946119001200000000639739242667063434_);" d="M600.1,296.1c0,0,11.4,26.3,12.2,40.1
					s3.7,22.7-12.2,25.5c-15.9,2.8-29.4-5.2-36.7-18.9c0,0-11.4-21.2-8.8-29.8C557.2,304.3,600.1,296.2,600.1,296.1L600.1,296.1z"/>
				
					<linearGradient id="SVGID_00000092433940006130716080000005275960572607256230_" gradientUnits="userSpaceOnUse" x1="556.471" y1="1128.3408" x2="617.371" y2="1049.9408" gradientTransform="matrix(1 0 0 -1 0 1408)">
					<stop  offset="0" style="stop-color:#09005D"/>
					<stop  offset="1" style="stop-color:#1A0F91"/>
				</linearGradient>
				<path style="fill:url(#SVGID_00000092433940006130716080000005275960572607256230_);" d="M568.9,332.9l0.9-0.4
					c1.2-0.5,1.7-1.9,1.1-3c-2.2-4.3-6.6-14.3-1-16.6c7.3-3,36.2-8.9,42.4-19.1c6-9.9,0.7-22.6-7.3-26.2c-0.5-0.2-1.2,0-1.4,0.5
					l-0.7,1.3c-0.5,0.9-1.7,0.7-2-0.2l0,0c-0.3-0.9-1.5-1.1-2-0.3c-1.9,3.1-7.1,8-20.9,10.6c-19.7,3.6-32.7,11.6-33,25.2
					c0,0.9-0.9,1.3-1.7,0.9c-1.5-0.9-3.8-1.3-6.9,1.3c-5.4,4.5-3.2,16.3,8.7,26c0.6,0.5,0.6,1.3,0,1.7c-2.2,1.4-5.3,4.7,3,9.2
					c8.6,4.6,15,4.2,17.5,3.8c0.6-0.1,1-0.7,0.9-1.3l-2.6-12c-0.2-0.7,0.4-1.3,1.1-1.3H568.9L568.9,332.9z"/>
				
					<linearGradient id="SVGID_00000057107198799255344810000004397994014863451812_" gradientUnits="userSpaceOnUse" x1="539.5857" y1="1133.1383" x2="581.5757" y2="1026.6383" gradientTransform="matrix(1 0 0 -1 0 1408)">
					<stop  offset="0" style="stop-color:#FF928E"/>
					<stop  offset="1" style="stop-color:#FEB3B1"/>
				</linearGradient>
				<path style="fill:url(#SVGID_00000057107198799255344810000004397994014863451812_);" d="M569.4,335.5c0,0-4.4-16.8-11.9-12.1
					c-7.5,4.7,3.9,18.8,10,19.4L569.4,335.5L569.4,335.5z"/>
			</g>
		</g>
		<g>
			<g>
				<g>
					<path class="st2" d="M1945.1,992.9c-5.2-14.6-8.4-29.7-7.9-45.6c1.4-40.2,28.5-74.5,49.2-107.1c19-29.9,35.7-75.8-17.7-77.2
						c-42.5-1.1-96.5,35.6-106.8,78.8c-12.2,51.1,6.1,119.1-28.8,163c-48.8,61.4-77.4,43.1-89.2,154.2c-5,47.5,18.5,76.5,47.1,94.1
						c45.1,27.8,102.8,24.6,144.6-8c36.9-28.8,61.7-73.3,60-120.8C1993.9,1076.4,1960.6,1036.6,1945.1,992.9L1945.1,992.9z"/>
					<path class="st4" d="M1895.7,1365.1c-1.4,0-2.6-1-2.8-2.5c-34.3-243.5-12-388.2,12.8-466.6c27-85.6,61.9-112.9,63.3-114
						c1.2-1,3-0.7,4,0.5c0.9,1.2,0.7,3-0.5,4c-0.5,0.4-35.3,27.9-61.6,112c-24.4,77.9-46.4,221.5-12.3,463.3c0.2,1.6-0.9,3-2.4,3.2
						C1896,1365,1895.8,1365.1,1895.7,1365.1L1895.7,1365.1z"/>
				</g>
				<path class="st2" d="M1999.5,880.2c-2-0.8-4.2-1.2-6.6-1.2c-13.3,0.1-20.2,13.4-25.2,23.9c-4.3,9-9.4,19.8-8.5,30.1
					c1,11.1,11.6,21.2,21.2,11.1c10.9-11.6,27.2-29.4,29.1-46C2010.3,889.8,2006.3,882.9,1999.5,880.2L1999.5,880.2z"/>
			</g>
			<g>
				<path class="st1" d="M2074.8,1194.8c9.2-34.9,0.6-77.1-1.9-115.3c-1.3-20.2-0.8-40.1,4.5-59.8c5.3-19.5,16.9-40.1,10.4-60.8
					c-13.1-41.8-56.3-28-83.2-0.4c-31.1,32-44.7,88.2-59.8,130.9c-9.1,25.8-21.4,51.9-27.6,78.5c-10.2,44.1-3.4,76.2,15.7,99.4
					c18.4,22.3,49.1,29.7,75.7,18.4C2032.7,1275.5,2060,1251.1,2074.8,1194.8L2074.8,1194.8z"/>
				<path class="st2" d="M1963,1365.1c-1.5,0-2.8-1.2-2.8-2.7c-0.1-2.3-12.4-235.5,75.8-401c0.7-1.4,2.5-1.9,3.9-1.2
					s1.9,2.5,1.2,3.9c-87.5,164.1-75.3,395.6-75.2,398c0.1,1.6-1.1,2.9-2.7,3C1963.1,1365.1,1963.1,1365.1,1963,1365.1L1963,1365.1z
					"/>
			</g>
		</g>
		<path class="st9" d="M1726.6,1241l278.5,111.7c18.5,7.4,13.8,38.1-5.9,38.1h-303.9c-9.7,0-17.5-8.8-17.5-19.6v-91.7
			C1677.8,1251.2,1702.8,1231.4,1726.6,1241L1726.6,1241z"/>
		<path class="st11" d="M177.9,1340.3c0,0,822.3-140.6,1341.3-888.5l-60.1-20.8c-16.6-5.8-20.2-27.7-6.2-38.4l190.9-146.1
			c14.5-11.1,35.3-0.4,34.8,17.9l-7.8,243.4c-0.5,16.2-19.3,25-32.1,14.9l-51-40.3c0,0-253,715.3-762.9,875.2L177.9,1340.3
			L177.9,1340.3z"/>
		<g class="st13">
			<path class="st7" d="M1844.9,258.1l1.6,5.5c0.3,1-0.3,2.1-1.3,2.4c-1,0.3-2.1-0.3-2.4-1.3v0l0-0.1l-1.5-5.4l0-0.1
				c-0.3-1,0.3-2.1,1.3-2.3C1843.6,256.5,1844.6,257.1,1844.9,258.1L1844.9,258.1z"/>
			<path class="st7" d="M1849.4,276.8l0.9,5.7c0.2,1.1-0.6,2.1-1.7,2.3c-1.1,0.2-2.1-0.6-2.3-1.7v-0.1l-0.8-5.6v-0.1
				c-0.2-1.1,0.6-2.1,1.7-2.3C1848.2,275,1849.2,275.8,1849.4,276.8L1849.4,276.8z"/>
			<path class="st7" d="M1851.6,296l0.2,5.8c0,1.2-0.9,2.1-2,2.2s-2.1-0.9-2.2-2v-0.1l-0.2-5.6v-0.1c0-1.1,0.9-2.1,2-2.1
				S1851.6,294.8,1851.6,296L1851.6,296z"/>
			<path class="st7" d="M1851.6,315.2l-0.4,5.8c-0.1,1.2-1.1,2.1-2.3,2s-2.1-1.1-2-2.3v-0.1l0.5-5.6v-0.1c0.1-1.2,1.2-2.1,2.3-2
				C1850.8,313,1851.7,314,1851.6,315.2L1851.6,315.2z"/>
			<path class="st7" d="M1849.4,334.4l-1,5.7c-0.2,1.2-1.4,2-2.6,1.8s-2-1.4-1.8-2.6v0l0-0.1l1.1-5.5v-0.1c0.2-1.2,1.4-2,2.6-1.8
				S1849.6,333.1,1849.4,334.4L1849.4,334.4z"/>
			<path class="st7" d="M1845.3,353.1l-1.6,5.5c-0.4,1.2-1.7,2-2.9,1.6c-1.2-0.4-2-1.7-1.6-2.9v0l0-0.1l1.6-5.4l0-0.1
				c0.4-1.2,1.7-1.9,2.9-1.6C1844.9,350.6,1845.6,351.9,1845.3,353.1L1845.3,353.1z"/>
			<path class="st7" d="M1839.3,371.5l-2.1,5.4c-0.5,1.2-1.9,1.9-3.2,1.4s-1.9-1.9-1.4-3.2v0l0-0.1l2.1-5.2l0-0.1
				c0.5-1.2,1.9-1.8,3.1-1.3C1839.2,368.8,1839.8,370.2,1839.3,371.5L1839.3,371.5z"/>
			<path class="st7" d="M1831.7,389.1l-2.6,5.1c-0.6,1.2-2.1,1.7-3.4,1.1s-1.7-2.1-1.1-3.4l0,0l0-0.1l2.6-5l0-0.1
				c0.6-1.2,2.1-1.7,3.3-1.1S1832.3,387.9,1831.7,389.1L1831.7,389.1z"/>
			<path class="st7" d="M1822.4,406l-3.1,4.9c-0.8,1.2-2.3,1.5-3.5,0.8c-1.2-0.8-1.5-2.3-0.8-3.5l0,0l0-0.1l3-4.8l0-0.1
				c0.8-1.2,2.3-1.5,3.5-0.8C1822.8,403.2,1823.1,404.8,1822.4,406L1822.4,406z"/>
			<path class="st7" d="M1811.5,421.9l-3.5,4.6c-0.9,1.1-2.5,1.3-3.6,0.5c-1.1-0.9-1.3-2.5-0.5-3.6l0,0l0-0.1l3.5-4.5l0,0
				c0.9-1.1,2.5-1.3,3.6-0.5C1812.2,419.2,1812.4,420.8,1811.5,421.9L1811.5,421.9z"/>
			<path class="st7" d="M1799.3,436.8l-3.9,4.3c-1,1.1-2.6,1.1-3.7,0.2c-1.1-1-1.1-2.6-0.2-3.6l0,0l0,0l3.8-4.2l0,0
				c1-1,2.6-1.1,3.6-0.2S1800.3,435.7,1799.3,436.8L1799.3,436.8z"/>
			<path class="st7" d="M1786,450.6l-4.2,4c-1.1,1-2.7,0.9-3.7-0.1c-1-1-0.9-2.7,0.1-3.7l0,0l0,0l4.1-3.9l0,0c1.1-1,2.7-0.9,3.7,0.1
				C1787.1,448,1787,449.6,1786,450.6L1786,450.6z"/>
			<path class="st7" d="M1771.7,463.4l-4.5,3.6c-1.1,0.9-2.8,0.7-3.7-0.4c-0.9-1.1-0.7-2.8,0.4-3.7l0,0l0,0l4.4-3.5l0,0
				c1.1-0.9,2.8-0.7,3.7,0.4C1772.9,460.8,1772.8,462.5,1771.7,463.4L1771.7,463.4z"/>
			<path class="st7" d="M1756.4,475.1l-4.7,3.3c-1.2,0.9-2.9,0.6-3.7-0.6s-0.6-2.9,0.7-3.7l0,0l0,0l4.6-3.2l0,0
				c1.2-0.8,2.9-0.5,3.7,0.7S1757.6,474.3,1756.4,475.1L1756.4,475.1z"/>
			<path class="st7" d="M1740.5,485.8l-4.9,3c-1.3,0.8-2.9,0.4-3.7-0.9c-0.8-1.3-0.4-2.9,0.9-3.7l0,0l0,0l4.8-2.9l0,0
				c1.3-0.8,2.9-0.4,3.7,0.9C1742.2,483.4,1741.8,485,1740.5,485.8L1740.5,485.8z"/>
			<path class="st7" d="M1723.9,495.5l-5.1,2.7c-1.3,0.7-3,0.2-3.7-1.1s-0.2-3,1.1-3.7l0,0l0,0l5-2.7l0,0c1.3-0.7,3-0.2,3.7,1.1
				C1725.8,493.1,1725.3,494.8,1723.9,495.5L1723.9,495.5z"/>
			<path class="st7" d="M1706.9,504.2l-5.2,2.4c-1.4,0.6-3,0-3.7-1.3c-0.7-1.4-0.1-3,1.3-3.7l0,0l0,0l5.2-2.4l0,0
				c1.4-0.6,3,0,3.7,1.3S1708.3,503.6,1706.9,504.2L1706.9,504.2z"/>
			<path class="st7" d="M1689.4,512l-5.3,2.2c-1.4,0.6-3.1-0.1-3.6-1.5c-0.6-1.4,0.1-3,1.5-3.6l0,0l0,0l5.3-2.1l0,0
				c1.4-0.6,3,0.1,3.6,1.5C1691.5,509.8,1690.8,511.5,1689.4,512L1689.4,512z"/>
			<path class="st7" d="M1671.5,519l-5.4,1.9c-1.5,0.5-3.1-0.2-3.6-1.7s0.2-3.1,1.7-3.6l0,0l0,0l5.3-1.9h0c1.5-0.5,3.1,0.2,3.6,1.7
				S1673,518.4,1671.5,519L1671.5,519z"/>
			<path class="st7" d="M1653.3,525.1l-5.5,1.7c-1.5,0.5-3.1-0.4-3.6-1.9c-0.5-1.5,0.4-3.1,1.9-3.5h0l5.4-1.7h0
				c1.5-0.5,3.1,0.4,3.5,1.9C1655.7,523,1654.9,524.6,1653.3,525.1L1653.3,525.1z"/>
			<path class="st7" d="M1635,530.4l-5.6,1.5c-1.5,0.4-3.1-0.5-3.5-2c-0.4-1.5,0.5-3.1,2.1-3.5h0l5.5-1.4h0c1.5-0.4,3.1,0.5,3.5,2
				C1637.4,528.4,1636.5,530,1635,530.4L1635,530.4z"/>
			<path class="st7" d="M1616.4,535l-5.6,1.2c-1.6,0.3-3.1-0.6-3.5-2.2s0.6-3.1,2.2-3.5h0l5.5-1.2h0c1.6-0.3,3.1,0.6,3.4,2.2
				S1618,534.6,1616.4,535L1616.4,535z"/>
			<path class="st7" d="M1597.7,538.9l-5.6,1c-1.6,0.3-3.1-0.8-3.4-2.3c-0.3-1.6,0.8-3.1,2.3-3.4h0l5.6-1h0c1.6-0.3,3.1,0.8,3.4,2.3
				C1600.3,537.1,1599.3,538.6,1597.7,538.9L1597.7,538.9z"/>
			<path class="st7" d="M1578.8,542.2l-5.7,0.9c-1.6,0.2-3.1-0.9-3.4-2.5s0.9-3.1,2.5-3.4h0l5.6-0.8h0c1.6-0.2,3.1,0.9,3.4,2.5
				S1580.4,541.9,1578.8,542.2z"/>
			<path class="st7" d="M1559.9,544.9l-5.7,0.7c-1.6,0.2-3.1-1-3.3-2.6c-0.2-1.6,1-3.1,2.6-3.3h0l5.6-0.7h0c1.6-0.2,3.1,1,3.3,2.6
				C1562.7,543.2,1561.5,544.7,1559.9,544.9L1559.9,544.9z"/>
			<path class="st7" d="M1540.9,547l-5.7,0.5c-1.7,0.2-3.1-1-3.3-2.7c-0.2-1.7,1.1-3.1,2.7-3.3h0l5.7-0.5h0c1.7-0.2,3.1,1.1,3.3,2.7
				C1543.8,545.4,1542.6,546.9,1540.9,547L1540.9,547z"/>
			<path class="st7" d="M1521.9,548.7l-5.7,0.4c-1.7,0.1-3.1-1.1-3.3-2.8c-0.1-1.7,1.1-3.1,2.8-3.3h0l5.7-0.4h0
				c1.7-0.1,3.1,1.1,3.2,2.8S1523.6,548.6,1521.9,548.7L1521.9,548.7z"/>
			<path class="st7" d="M1502.9,550l-5.7,0.3c-1.7,0.1-3.2-1.2-3.2-2.9c-0.1-1.7,1.2-3.2,2.9-3.2h0l5.7-0.3h0
				c1.7-0.1,3.1,1.2,3.2,2.9C1505.8,548.4,1504.6,549.9,1502.9,550L1502.9,550z"/>
			<path class="st7" d="M1483.8,550.8l-5.7,0.2c-1.7,0-3.1-1.3-3.2-3s1.3-3.1,3-3.2l0,0l5.7-0.2h0c1.7-0.1,3.1,1.3,3.2,3
				C1486.8,549.3,1485.5,550.7,1483.8,550.8L1483.8,550.8L1483.8,550.8z"/>
			<path class="st7" d="M1464.7,551.3l-5.7,0.1c-1.7,0-3.1-1.3-3.1-3c0-1.7,1.3-3,3-3.1l0,0l5.7-0.1h0c1.7,0,3.1,1.3,3.1,3
				C1467.7,549.9,1466.4,551.3,1464.7,551.3L1464.7,551.3z"/>
			<path class="st7" d="M1445.7,551.5l-5.7,0c-1.7,0-3-1.3-3-3c0-1.7,1.3-3,3-3l0,0l5.7,0h0c1.7,0,3,1.3,3,3
				C1448.7,550.2,1447.3,551.5,1445.7,551.5L1445.7,551.5L1445.7,551.5z"/>
			<path class="st7" d="M1426.6,551.5l-5.7,0c-1.7,0-3-1.3-3-3s1.3-3,3-3l5.7,0c1.7,0,3,1.3,3,3
				C1429.6,550.2,1428.3,551.5,1426.6,551.5L1426.6,551.5z"/>
			<path class="st7" d="M1407.5,551.4l-5.7-0.1c-1.6,0-2.9-1.4-2.9-3c0-1.6,1.4-2.9,3-2.9l5.7,0.1c1.6,0,2.9,1.4,2.9,3
				C1410.5,550,1409.2,551.4,1407.5,551.4L1407.5,551.4L1407.5,551.4z"/>
			<path class="st7" d="M1388.5,551.1l-5.7-0.1c-1.6,0-2.9-1.4-2.9-3s1.4-2.9,3-2.9l5.7,0.1c1.6,0,2.9,1.4,2.9,3
				S1390.1,551.1,1388.5,551.1L1388.5,551.1L1388.5,551.1z"/>
			<path class="st7" d="M1369.5,550.7l-5.7-0.1c-1.6,0-2.9-1.4-2.8-3c0-1.6,1.3-2.9,3-2.8l5.7,0.1c1.6,0,2.9,1.4,2.9,3
				C1372.4,549.5,1371.1,550.7,1369.5,550.7L1369.5,550.7L1369.5,550.7z"/>
			<path class="st7" d="M1350.4,550.3l-5.7-0.1c-1.6,0-2.9-1.3-2.8-2.9s1.3-2.9,2.9-2.8l5.7,0.1c1.6,0,2.9,1.3,2.8,2.9
				S1352.1,550.4,1350.4,550.3L1350.4,550.3L1350.4,550.3z"/>
			<path class="st7" d="M1331.4,550l-5.7-0.1c-1.6,0-2.8-1.3-2.8-2.9s1.3-2.8,2.9-2.8l5.7,0.1c1.6,0,2.8,1.3,2.8,2.9
				S1333,550,1331.4,550L1331.4,550L1331.4,550z"/>
			<path class="st7" d="M1312.4,549.7l-5.7,0c-1.6,0-2.8-1.3-2.8-2.8c0-1.6,1.3-2.8,2.8-2.8l5.7,0c1.6,0,2.8,1.3,2.8,2.9
				C1315.3,548.5,1314,549.7,1312.4,549.7L1312.4,549.7L1312.4,549.7z"/>
			<path class="st7" d="M1293.4,549.6h-5.7c-1.6,0-2.8-1.2-2.8-2.8c0-1.5,1.2-2.8,2.8-2.8l5.7,0c1.6,0,2.8,1.2,2.8,2.8
				C1296.2,548.3,1295,549.6,1293.4,549.6L1293.4,549.6L1293.4,549.6z"/>
			<path class="st7" d="M1274.4,549.7l-5.7,0.1h0c-1.5,0-2.8-1.2-2.8-2.8c0-1.5,1.2-2.8,2.7-2.8l5.7-0.1c1.5,0,2.8,1.2,2.8,2.8
				S1276,549.7,1274.4,549.7L1274.4,549.7L1274.4,549.7z"/>
			<path class="st7" d="M1255.4,550l-5.7,0.2h0c-1.5,0-2.8-1.2-2.8-2.7c0-1.5,1.2-2.8,2.7-2.8l5.7-0.2c1.5,0,2.8,1.2,2.8,2.7
				C1258.2,548.7,1257,550,1255.4,550L1255.4,550L1255.4,550z"/>
			<path class="st7" d="M1236.5,550.7l-5.7,0.2h0c-1.5,0.1-2.8-1.1-2.8-2.6s1.1-2.8,2.6-2.8l5.7-0.3c1.5-0.1,2.8,1.1,2.9,2.6
				S1238,550.6,1236.5,550.7L1236.5,550.7z"/>
			<path class="st7" d="M1217.5,551.6l-5.7,0.4h0c-1.5,0.1-2.8-1-2.9-2.5c-0.1-1.5,1-2.8,2.5-2.9l5.7-0.4c1.5-0.1,2.8,1,2.9,2.5
				S1219,551.5,1217.5,551.6L1217.5,551.6L1217.5,551.6z"/>
			<path class="st7" d="M1198.6,553l-5.7,0.5h0c-1.5,0.1-2.8-1-2.9-2.4s0.9-2.8,2.4-2.9l5.7-0.5c1.5-0.1,2.8,1,2.9,2.4
				S1200.1,552.9,1198.6,553L1198.6,553L1198.6,553z"/>
			<path class="st7" d="M1179.8,554.8l-5.7,0.6h0c-1.5,0.2-2.8-0.9-2.9-2.3c-0.2-1.5,0.9-2.8,2.3-2.9l5.7-0.7c1.5-0.2,2.8,0.9,3,2.3
				C1182.3,553.3,1181.2,554.7,1179.8,554.8L1179.8,554.8L1179.8,554.8z"/>
			<path class="st7" d="M1160.9,557.2l-5.6,0.8h0c-1.4,0.2-2.8-0.8-3-2.2s0.8-2.8,2.2-3l5.7-0.8c1.4-0.2,2.8,0.8,3,2.2
				S1162.4,556.9,1160.9,557.2L1160.9,557.2L1160.9,557.2z"/>
			<path class="st7" d="M1142.2,560.1l-5.6,1h0c-1.4,0.3-2.8-0.7-3-2.1s0.7-2.8,2.1-3l5.6-1c1.4-0.2,2.8,0.7,3,2.1
				S1143.7,559.8,1142.2,560.1L1142.2,560.1L1142.2,560.1z"/>
			<path class="st7" d="M1123.6,563.6l-5.6,1.2h0c-1.4,0.3-2.8-0.6-3.1-2c-0.3-1.4,0.6-2.8,2-3.1l5.6-1.2c1.4-0.3,2.8,0.6,3.1,2
				C1125.9,561.9,1125.1,563.3,1123.6,563.6L1123.6,563.6L1123.6,563.6z"/>
			<path class="st7" d="M1105.2,567.8l-5.5,1.4h0c-1.4,0.3-2.8-0.5-3.1-1.8s0.5-2.8,1.8-3.1l5.6-1.4c1.4-0.3,2.8,0.5,3.1,1.8
				S1106.6,567.4,1105.2,567.8L1105.2,567.8L1105.2,567.8z"/>
			<path class="st7" d="M1086.9,572.6l-5.4,1.6h0c-1.3,0.4-2.8-0.4-3.2-1.7c-0.4-1.3,0.4-2.8,1.7-3.1l5.5-1.6
				c1.3-0.4,2.8,0.4,3.2,1.7C1089,570.8,1088.2,572.2,1086.9,572.6L1086.9,572.6L1086.9,572.6z"/>
			<path class="st7" d="M1068.8,578.2l-5.4,1.8h0c-1.3,0.5-2.7-0.2-3.2-1.6c-0.4-1.3,0.2-2.7,1.6-3.2l5.4-1.9
				c1.3-0.5,2.8,0.2,3.2,1.6C1070.9,576.3,1070.2,577.8,1068.8,578.2L1068.8,578.2L1068.8,578.2z"/>
			<path class="st7" d="M1051,584.6l-5.3,2h0c-1.3,0.5-2.7-0.1-3.2-1.4s0.1-2.7,1.4-3.2l5.3-2.1c1.3-0.5,2.7,0.1,3.2,1.4
				S1052.3,584,1051,584.6L1051,584.6L1051,584.6L1051,584.6z"/>
			<path class="st7" d="M1033.4,591.7l-5.2,2.3h0c-1.2,0.5-2.6,0-3.2-1.2c-0.5-1.2,0-2.6,1.2-3.2l5.2-2.3c1.2-0.5,2.7,0,3.2,1.2
				C1035.3,589.7,1034.7,591.1,1033.4,591.7L1033.4,591.7L1033.4,591.7L1033.4,591.7z"/>
			<path class="st7" d="M1016.3,599.6l-5.1,2.5l0,0c-1.2,0.6-2.5,0.1-3.1-1c-0.6-1.1-0.1-2.5,1-3.1l5.1-2.6c1.2-0.6,2.6-0.1,3.2,1
				C1017.9,597.6,1017.5,599,1016.3,599.6L1016.3,599.6L1016.3,599.6L1016.3,599.6z"/>
			<path class="st7" d="M999.5,608.3l-4.9,2.8l0,0c-1.1,0.6-2.5,0.2-3.1-0.8c-0.6-1.1-0.2-2.4,0.8-3.1l5-2.9
				c1.1-0.6,2.5-0.3,3.1,0.8S1000.7,607.7,999.5,608.3L999.5,608.3L999.5,608.3L999.5,608.3z"/>
			<path class="st7" d="M983.3,618l-4.8,3.1l0,0c-1,0.7-2.4,0.4-3-0.7s-0.4-2.3,0.6-3l4.8-3.1c1-0.7,2.4-0.4,3,0.6
				S984.3,617.3,983.3,618L983.3,618L983.3,618L983.3,618z"/>
			<path class="st7" d="M967.6,628.5l-4.6,3.3l0,0c-0.9,0.7-2.3,0.5-3-0.5c-0.7-0.9-0.5-2.2,0.5-2.9l4.6-3.4c0.9-0.7,2.3-0.5,3,0.4
				C968.8,626.5,968.6,627.8,967.6,628.5L967.6,628.5L967.6,628.5L967.6,628.5z"/>
			<path class="st7" d="M952.6,640l-4.4,3.6l0,0c-0.9,0.7-2.2,0.6-2.9-0.3c-0.7-0.9-0.6-2.1,0.2-2.9l4.4-3.7
				c0.9-0.7,2.2-0.6,2.9,0.2C953.6,638,953.5,639.2,952.6,640L952.6,640L952.6,640L952.6,640z"/>
			<path class="st7" d="M938.3,652.4l-4.1,3.9l0,0c-0.8,0.8-2,0.7-2.8-0.1c-0.7-0.8-0.7-2,0.1-2.8l4.1-4c0.8-0.8,2-0.7,2.8,0.1
				C939.1,650.4,939.1,651.6,938.3,652.4L938.3,652.4L938.3,652.4L938.3,652.4z"/>
			<path class="st7" d="M924.9,665.7l-2,2.2v0c-0.7,0.8-1.9,0.8-2.7,0.1c-0.8-0.7-0.8-1.9-0.1-2.7l2-2.2c0.7-0.8,1.9-0.8,2.7-0.1
				C925.6,663.7,925.6,664.9,924.9,665.7L924.9,665.7L924.9,665.7L924.9,665.7z"/>
		</g>
	</g>
</g>
</svg>
