<?xml version="1.0" encoding="utf-8"?>
<!-- Generator: Adobe Illustrator 26.3.1, SVG Export Plug-In . SVG Version: 6.00 Build 0)  -->
<svg version="1.1" id="Layer_2_00000075882233435790902430000013816538739379254958_"
	 xmlns="http://www.w3.org/2000/svg" xmlns:xlink="http://www.w3.org/1999/xlink" x="0px" y="0px" viewBox="0 0 462.3 324.6"
	 style="enable-background:new 0 0 462.3 324.6;" xml:space="preserve">
<style type="text/css">
	.st0{opacity:0.6;}
	.st1{fill:#3F3468;}
	.st2{fill:#9C78ED;}
	.st3{fill:#7846D1;}
	.st4{fill:#5B23A9;}
	.st5{fill:#403657;}
	.st6{fill:#3ECC99;}
	.st7{fill:#FFA681;}
	.st8{fill:#FFFFFF;}
	.st9{fill:#31B583;}
	.st10{fill:#0F6D47;}
	.st11{fill:#F97853;}
	.st12{fill:#EA5143;}
	.st13{fill:#4E37D3;}
	.st14{fill:#91B3FA;}
	.st15{fill:#3E31BA;}
	.st16{fill:#1A0B42;}
	.st17{fill:#614C6E;}
	.st18{fill:#FE6669;}
	.st19{opacity:0.5;}
</style>
<g id="OBJECTS">
	<g class="st0">
		<path class="st1" d="M196,62.4c-15.4-55.8-84.6-73.7-124.3-32c-0.6,0.6-1.1,1.2-1.7,1.8c-56.9,61.9-30,214.3,88.7,252.9
			s242.3-31.9,249.2-95S360,107.3,275,124.9C227,134.9,205.5,97.1,196,62.4L196,62.4z"/>
		<path class="st1" d="M294.8,72c-15.9,2.6-20.3,16.7-8,26.7c4.1,3.3,9.9,6,18.1,7.4c31.4,5.2,48.1-8.7,35.5-26.7
			C332.6,68.2,310.5,69.4,294.8,72L294.8,72z"/>
		<path class="st1" d="M48.8,185.9c-7.8-14.1-22.5-13.5-27.8,1.4c-1.7,4.9-2.4,11.3-0.9,19.5c5.7,31.3,24.4,42.3,37.1,24.4
			C65.2,220.2,56.6,199.9,48.8,185.9L48.8,185.9z"/>
		<path class="st1" d="M419.1,197.5c-1.5,7.7,4.9,13.1,12,10.1c2.4-1,4.8-2.9,6.9-6.2c8.1-12.6,4-23.4-7.3-22.3
			C423.8,179.8,420.6,189.9,419.1,197.5z"/>
		<path class="st1" d="M378.9,116.6c7.6,1.6,13.2-4.6,10.3-11.9c-0.9-2.4-2.8-4.8-6-7c-12.5-8.3-23.3-4.4-22.4,6.9
			C361.4,111.6,371.4,115,378.9,116.6z"/>
		<path class="st1" d="M193.3,34.6c6.1,4.9,13.8,1.9,14.6-5.8c0.3-2.5-0.2-5.5-2.1-9c-7.2-13.1-18.7-14.6-23.1-4.2
			C180,22.1,187.3,29.7,193.3,34.6L193.3,34.6z"/>
	</g>
	<g>
		<g>
			<path class="st2" d="M435.1,309.8c2.6,0.4,5.4-0.3,7.2-2.2c1.2-1.3,2-2.8,2-4.3v-0.1c0-10.7,13.1-10,17.3-23
				c4.2-13.1-12.4-14.2-22-6.1c-6.8,5.8-15-2.3-25,4.5c-8.6,5.9-3.8,20.3-18,15.8c-4.5-1.5-8.6,0-12,2.5c-3.9,3-6.5,7.1-7.6,11.6
				l1.1,0.8C406.2,326.3,418.8,307.1,435.1,309.8L435.1,309.8z"/>
			<path class="st3" d="M407.5,309.2l37-23.8c0.5-0.3,0.6-1,0.3-1.5c-0.3-0.5-1-0.6-1.5-0.3l-39.8,25.6L407.5,309.2L407.5,309.2z"/>
		</g>
		<g>
			<path class="st4" d="M405.5,238.5c-1.6-23.3-1.8-47.7-0.1-63.9c2.3-21.2,7.4-35.9,15.2-43.8c0.5-0.5,1.4-0.5,1.9,0
				c0.5,0.5,0.5,1.4,0,1.9c-13.7,13.8-18.6,50.8-14.3,107.2L405.5,238.5L405.5,238.5z"/>
			<path class="st3" d="M409,155.9c0,0-11.2,0-10.4-19.6C398.6,136.2,415.7,141.1,409,155.9z"/>
			<path class="st3" d="M408,166c0,0-0.6-11.1,19-11.4C427.1,154.5,423.1,171.9,408,166z"/>
			<path class="st3" d="M416.6,138.4c0,0-4.3-10.3,14.1-17.1C430.7,121.3,432.8,138.9,416.6,138.4z"/>
			<path class="st3" d="M405.5,186.2c0,0-10.5,3.8-16.4-15C389.1,171.2,406.8,170,405.5,186.2z"/>
			<path class="st3" d="M406.1,196.6c0,0-2.5-10.9,16.8-14.6C422.9,182.1,422,199.8,406.1,196.6z"/>
			<path class="st3" d="M405.5,211c0,0-10.4,4-16.7-14.7C388.9,196.3,406.6,194.8,405.5,211z"/>
		</g>
		<g>
			<path class="st3" d="M81.6,290.4l-3-0.1l-1.6-0.1l-4.6-0.2c0,0-42.2-71.7-15.8-95.1c8.2-7.2,22.4-1.2,19.2,31.9
				C72.9,257.5,81.6,290.5,81.6,290.4L81.6,290.4z"/>
			<path class="st4" d="M78.5,290.3l-1.6-0.1c-7.4-17.4-11.1-36-12.9-49.1c-2.2-15.6-2.3-26.9-2.3-27c0-0.4,0.3-0.7,0.7-0.7
				s0.7,0.3,0.7,0.7c0,0.1,0.1,11.3,2.3,26.8C67.3,254.1,71,272.9,78.5,290.3L78.5,290.3z"/>
		</g>
		<g>
			<path class="st2" d="M89.9,304.8l-4.1,1.5l-2.2,0.8l-6.2,2.3c0,0-96.4-72.3-74.1-118.3c6.9-14.2,29.2-14.1,43.5,31.9
				C60,265.6,90,304.8,89.9,304.8L89.9,304.8z"/>
			<path class="st3" d="M85.8,306.3l-2.2,0.8c-19.5-19.1-34.9-42-44.7-58.4c-11.6-19.6-18-34.6-18.1-34.8c-0.2-0.5,0-1.2,0.6-1.4
				c0.5-0.2,1.2,0,1.4,0.6c0.1,0.1,6.4,15.1,18,34.5C50.6,264.2,66.1,287.3,85.8,306.3z"/>
		</g>
		<g>
			<path class="st3" d="M419.5,308.9c0-1.7-0.2-3.4-0.6-5c-3.5-15.9,6-18.9,18.4-23.9c12.4-5,13.9-19.9,5.1-32.3
				c-8.8-12.4,7-22.3,1.2-40.9c-5.8-18.6-26-6.2-30.5,10.9c-3.2,12.3-19.4,9.7-25.3,25.7c-5.2,13.9,12.2,26.7-7.9,33.1
				c-6.4,2-10,7-11.9,12.7c-2.1,6.6-1.7,13.5,0.7,19.6L419.5,308.9L419.5,308.9z"/>
			<path class="st4" d="M394.8,308.9L428,227c0.3-0.8-0.1-1.7-0.8-2s-1.7,0.1-2,0.8l-33.6,83L394.8,308.9L394.8,308.9z"/>
		</g>
	</g>
	<g>
		<path class="st5" d="M118.5,61.4c0,0,0.7-14.7-8.3-17.6c-14-4.4-17.8,2.8-20,7.6c-2.8,6.1-1.6,18.2,6.7,19.3
			C109.4,72.5,117.7,65.5,118.5,61.4L118.5,61.4z"/>
		<path class="st5" d="M127.5,110.7c7.3,0,13.5-5.1,15-12.2c1.1-5.1,2.1-9.6,2.1-12.2v-0.1c0.1-0.8,0.1-1.6,0.1-2.4
			c0.1-11.6-7.1-32.9-32.3-29.5c0,0-20.9,2.4-23.3,22.8c0,0-1,9.4-1.7,16.3c0,0.1,0,0.2,0,0.4c-0.9,9,6.2,16.9,15.3,16.9
			L127.5,110.7L127.5,110.7z"/>
		<g>
			<path class="st6" d="M157.4,135c0,0,4.5,35.3,9.6,53.5c0,0,7.2-3.4,16.7-7.9c10.3-5,25-14,25-14l3.7,9c0,0-38.2,36-50.8,38
				c-12.6,2-20.4-43.2-20.4-43.2L157.4,135L157.4,135z"/>
			<path class="st7" d="M207.9,167.5c0,0-1.1-5,1.2-8.4s5.7-9.8,9.7-11.1c3.4-1.1-1.6,4.6-1.7,8.2c0,0,5-0.6,8.6-1.8
				c3.2-1,9.4-2.3,12.4-2.9c0.8-0.2,1.3,0.9,0.7,1.4c-1,0.9-3.1,1.9-7.4,3c0,0,10.4-2,11.5-0.4c1.1,1.6-12,3.8-12,3.8
				s10.2-0.6,10.4,1c0.2,1-10.4,3.2-10.4,3.2s9.6,0.3,7.3,1.8c-0.7,0.4-19.3,2.5-25.8,10.2C212.5,175.5,208.1,171,207.9,167.5
				L207.9,167.5z"/>
		</g>
		<g>
			<path class="st6" d="M93.1,128c0,0-21.3,6.3-39.7,10.4c0,0-0.5-8-1-18.5c-0.5-11.4,0.4-28.7,0.4-28.7l-9.7,1
				c0,0-13.5,50.7-9.3,62.8s57.8-4.8,57.8-4.8L93.1,128L93.1,128z"/>
			<path class="st7" d="M52.3,92.5c0,0,4.9-1.5,6.8-5.1c1.9-3.6,7.2-10.8,4-13.5c-1.2-1-2.1,3.3-5.2,5.1c0,0-1.8-4.7-2.5-8.4
				c-0.6-3.3-2.5-9.4-3.3-12.2c-0.2-0.8-1.4-0.8-1.5,0c-0.3,1.3-0.2,3.6,0.9,7.9c0,0-3.2-10.1-5.2-10.3c-1.9-0.2,2.3,12.4,2.3,12.4
				s-4.3-9.2-5.8-8.7c-0.9,0.3,2.1,10.7,2.1,10.7s-4.8-8.3-5-5.6c-0.1,0.8,7,18.2,3.3,27.5C43.2,92.3,49.2,94,52.3,92.5L52.3,92.5z"
				/>
		</g>
		<g>
			<g>
				<path class="st6" d="M156.6,271.9l0.2,0.8c-16.6,11.2-78.8,3.6-78.8,3.6c0.1-1.3,0.2-2.7,0.4-4.1c0.2-1.6,0.4-3.2,0.7-4.9
					c0.8-4.5,1.8-9.4,2.9-14.4c0.4-1.6,0.7-3.2,1.1-4.8c1.1-4.8,2.3-9.7,3.4-14.4c0.4-1.6,0.8-3.2,1.2-4.8c0.5-2.2,1-4.4,1.5-6.5
					c0.6-2.8,1.2-5.5,1.6-8.1c0.3-1.7,0.6-3.4,0.8-4.9c0.2-1.6,0.4-3.2,0.5-4.7c-1-3.6-1.9-7.2-2.8-10.7c-0.4-1.8-0.8-3.5-1.3-5.2
					c-1.3-5.5-2.4-10.7-3.4-15.5c-0.3-1.8-0.7-3.5-1-5.2c-1.1-5.8-2-10.9-2.7-15.5c-0.3-1.8-0.5-3.5-0.8-5.1
					c-0.2-1.7-0.5-3.4-0.7-4.8c-0.8-6.4-1.1-10.1-1.1-10.1c0.2-0.1,0.3-0.2,0.5-0.3c1.9-1.3,4.8-2.6,8.1-3.7c3.5-1.2,7.3-2.2,10.7-3
					c0.5-0.1,1-0.2,1.5-0.4c4.4-1,7.7-1.6,7.7-1.6c15.1,3.2,19.4,1.1,19.4,1.1l7.7,2.3l0.9,0.3l5.6,2l0.2,0.1l10,3.5l6.7,2.3
					l-2.6,11.9l-1.1,5.2l-3.4,15.7l-1.1,5.2l-3.4,15.7l-1.1,5.1l-2.8,13l0.6,2.5l1.1,4.8l1.7,7.7l1.6,6.9l1.1,4.8l3.3,14.4l1.1,4.8
					l3.2,14.3L156.6,271.9L156.6,271.9z"/>
				<path class="st7" d="M134.9,127.1c-1.6,9.4-6.2,18.9-15.7,19.9c-11.5,1.2-17.4-13.1-20-22c4.4-1,9-2.1,9-2.1
					c15.1,3.2,18,1.2,18,1.2l7.8,2.6L134.9,127.1L134.9,127.1z"/>
				<path class="st8" d="M118.1,139.1c-12,0-14.9-14.8-14.9-15c-0.1-0.3,0.2-0.6,0.5-0.7c0.3-0.1,0.6,0.2,0.7,0.5
					c0.1,0.6,2.8,14.6,14.5,14c10.2-0.5,10.8-11.8,10.8-12.3c0-0.3,0.3-0.6,0.6-0.6s0.6,0.3,0.6,0.6c0,0.1-0.7,12.9-11.9,13.4
					C118.6,139.1,118.3,139.1,118.1,139.1L118.1,139.1z"/>
				<path class="st9" d="M96.5,135c0,1.6-1.3,2.9-2.9,2.9s-2.9-1.3-2.9-2.9s1.3-2.9,2.9-2.9S96.5,133.4,96.5,135z"/>
				<path class="st9" d="M90.7,149.3c0,1.6-1.3,2.9-2.9,2.9s-2.9-1.3-2.9-2.9s1.3-2.9,2.9-2.9S90.7,147.7,90.7,149.3z"/>
				<path class="st9" d="M109.4,156.1c0,1.6-1.3,2.9-2.9,2.9s-2.9-1.3-2.9-2.9s1.3-2.9,2.9-2.9S109.4,154.4,109.4,156.1z"/>
				<path class="st9" d="M96.3,164.1c0.6,1.5-0.1,3.2-1.6,3.8c-1.5,0.6-3.2-0.1-3.8-1.6c-0.6-1.5,0.1-3.2,1.6-3.8
					C94,161.8,95.7,162.6,96.3,164.1z"/>
				<path class="st9" d="M121.8,169.5c0,1.6-1.3,2.9-2.9,2.9s-2.9-1.3-2.9-2.9s1.3-2.9,2.9-2.9S121.8,167.9,121.8,169.5z"/>
				<path class="st9" d="M140.5,175.5c0,1.6-1.3,2.9-2.9,2.9s-2.9-1.3-2.9-2.9s1.3-2.9,2.9-2.9S140.5,173.9,140.5,175.5z"/>
				<path class="st9" d="M144.2,137.9c0,1.6-1.3,2.9-2.9,2.9s-2.9-1.3-2.9-2.9s1.3-2.9,2.9-2.9S144.2,136.3,144.2,137.9z"/>
				<path class="st9" d="M122.9,188.2c0,1.6-1.3,2.9-2.9,2.9s-2.9-1.3-2.9-2.9s1.3-2.9,2.9-2.9S122.9,186.6,122.9,188.2z"/>
				<path class="st9" d="M104.9,197.3c0,1.6-1.3,2.9-2.9,2.9S99,199,99,197.3s1.3-2.9,2.9-2.9S104.9,195.7,104.9,197.3z"/>
				<path class="st9" d="M102.8,180.8c0,1.6-1.3,2.9-2.9,2.9s-2.9-1.3-2.9-2.9s1.3-2.9,2.9-2.9S102.8,179.1,102.8,180.8z"/>
				<path class="st9" d="M131.7,156.8c0,1.6-1.3,2.9-2.9,2.9s-2.9-1.3-2.9-2.9s1.3-2.9,2.9-2.9C130.4,153.9,131.7,155.2,131.7,156.8
					z"/>
				<path class="st9" d="M147.9,153.1c0,1.6-1.3,2.9-2.9,2.9s-2.9-1.3-2.9-2.9s1.3-2.9,2.9-2.9S147.9,151.5,147.9,153.1z"/>
				<path class="st9" d="M137.5,193.1c0,1.6-1.3,2.9-2.9,2.9s-2.9-1.3-2.9-2.9s1.3-2.9,2.9-2.9S137.5,191.5,137.5,193.1z"/>
				<path class="st9" d="M138.3,216.3c0,1.6-1.3,2.9-2.9,2.9s-2.9-1.3-2.9-2.9s1.3-2.9,2.9-2.9S138.3,214.7,138.3,216.3z"/>
				<path class="st9" d="M123.4,206.6c0.6,1.5-0.1,3.2-1.6,3.8c-1.5,0.6-3.2-0.1-3.8-1.6c-0.6-1.5,0.1-3.2,1.6-3.8
					C121.1,204.4,122.8,205.1,123.4,206.6z"/>
				<path class="st9" d="M103.4,215.2c0.6,1.5-0.1,3.2-1.6,3.8c-1.5,0.6-3.2-0.1-3.8-1.6s0.1-3.2,1.6-3.8
					C101.1,213,102.8,213.7,103.4,215.2z"/>
			</g>
			<polygon class="st10" points="162.9,308.9 162.2,305.2 159.9,291 159.1,286.2 156.8,272.6 152.7,272.8 98.2,275.3 78,276.2 
				76.7,286.7 76.1,291.6 74.3,306.2 74,308.9 			"/>
			<path class="st10" d="M162.8,308.9l-0.6-3.3l-0.1-0.4l-0.4-2.3l-0.4-2.3l-1.6-9.5l-0.5-2.8l-0.4-2l-0.1-0.3l-2.1-12.4l-0.1-0.9
				l-0.2-0.8l-0.2-0.7l-0.9-4.1l-1.8-8l-0.5-2.3l-0.9-4l-1.1-4.8l-0.7-3.3l-0.5-2.3l-2-8.9l-0.7-3.2l-0.4-1.6l-0.2-0.7l-1.4-6.2
				c-22.2,6.5-45.6,2.7-56,0.3c-0.5,2.1-1,4.3-1.5,6.5c-0.1,0.5-0.2,1-0.3,1.5c-0.2,0.8-0.4,1.5-0.6,2.3c-0.1,0.4-0.2,0.7-0.2,1.1
				c-0.9,3.6-1.8,7.3-2.6,11c-0.2,0.8-0.3,1.5-0.5,2.3c-0.1,0.4-0.2,0.8-0.3,1.2c-0.4,1.6-0.7,3.2-1.1,4.8c-0.5,2.1-0.9,4.2-1.3,6.2
				c-0.2,0.8-0.3,1.5-0.5,2.2c-0.4,2.1-0.8,4.1-1.1,6c-0.3,1.7-0.5,3.3-0.7,4.9c-0.1,0.5-0.1,1-0.2,1.4c-0.1,0.8-0.2,1.5-0.2,2.3
				c0,0.1,0,0.2,0,0.3l-1.3,10.5l-0.2,1.6l-0.3,2.3l-0.1,1l-1.4,11.5l-0.3,2.3l-0.1,0.7l-0.3,2.7L162.8,308.9L162.8,308.9z"/>
		</g>
		<g>
			<g>
				<g>
					<path class="st11" d="M136,87.6c0,0,3.6-4.6,6.3-0.8s-1.1,14.9-7.7,12.2C134.6,99,136,87.6,136,87.6z"/>
					<path class="st12" d="M136.1,95.6c0.2,0,0.5-0.2,0.5-0.4c1-3.4,4.8-4.8,4.8-4.8c0.3-0.1,0.4-0.4,0.3-0.7
						c-0.1-0.3-0.4-0.4-0.7-0.3c-0.2,0.1-4.3,1.6-5.5,5.6c-0.1,0.3,0.1,0.6,0.4,0.7C136,95.6,136,95.6,136.1,95.6z"/>
					<path class="st12" d="M139.9,93.9c0.1,0,0.2,0,0.3-0.1c0.3-0.2,0.3-0.5,0.2-0.7c0,0-0.7-1-2.1-1.6c-0.3-0.1-0.6,0-0.7,0.3
						c-0.1,0.3,0,0.6,0.3,0.7c1.1,0.5,1.6,1.2,1.6,1.2C139.5,93.8,139.7,93.9,139.9,93.9L139.9,93.9z"/>
					<path class="st8" d="M134.4,99c-0.6,0.7-1,1.6-1,2.6c0,2.2,1.8,3.9,3.9,3.9s3.9-1.8,3.9-3.9c0-1.2-0.6-2.3-1.5-3.1
						c-0.4-0.4-1-0.6-1.6-0.8c-0.1-0.3-0.1-0.5,0.1-0.7c0.8,0.2,1.4,0.5,2,1c1,0.8,1.7,2.1,1.7,3.6c0,2.6-2.1,4.7-4.7,4.7
						s-4.7-2.1-4.7-4.7c0-1.1,0.4-2.1,1-2.9C133.9,98.8,134.2,98.9,134.4,99L134.4,99z"/>
				</g>
				<path class="st7" d="M108.3,110.9v13.7c0,0,6.4,4.9,11.3,5.3s6.7-5.4,6.7-5.4v-12.7L108.3,110.9L108.3,110.9z"/>
				<path class="st11" d="M108.3,112.3v5.5c3.3,3.7,9.2,5,18,3.7v-8.3L108.3,112.3L108.3,112.3z"/>
				<path class="st7" d="M138.2,92.8c-0.2,1.3-0.3,2.7-0.6,4c-1.6,8.9-7.2,18.5-14.3,20.1c-15.3,3.5-21.7-8.6-24.2-17.4
					c-0.3-1,0.2-2.1,0-3.3c-0.5-2.8-1.6-5.9-1.9-9C97.1,85,97,82.9,96.9,81c-0.2-5.4,2.9-10.4,7.8-12.3c7.1-2.8,17.8-5,27.9,0.9
					c3.8,2.2,6.1,6.3,6.2,10.7C138.8,83.7,138.7,88.2,138.2,92.8L138.2,92.8z"/>
				<path class="st11" d="M118.8,99.7c-0.3,0-0.5-0.2-0.6-0.5c-0.1-0.3,0.2-0.6,0.5-0.7l2.1-0.3l-2.8-7.5c-0.1-0.3,0-0.7,0.3-0.8
					c0.3-0.1,0.7,0,0.8,0.3l3.3,8.9l-3.5,0.6C118.9,99.7,118.8,99.7,118.8,99.7L118.8,99.7z"/>
				<path class="st5" d="M126.1,89.8c0,1.3,0.7,2.4,1.5,2.4s1.5-1.1,1.5-2.4s-0.7-2.4-1.5-2.4S126.1,88.5,126.1,89.8z"/>
				<path class="st5" d="M109.4,89.8c0,1.3,0.7,2.4,1.5,2.4s1.5-1.1,1.5-2.4s-0.7-2.4-1.5-2.4S109.4,88.5,109.4,89.8z"/>
				<path class="st5" d="M132.1,83.5c-1.2-0.2-3.7-0.6-6.3-0.5c-0.7,0-1.2,0.5-1.1,1.1l0,0c0.1,0.4,0.5,0.8,1.1,0.7
					c1.8-0.1,6.5-0.1,8.6,0.5c0.1-0.3-0.1-0.7-0.5-0.9C133.4,83.9,132.8,83.7,132.1,83.5L132.1,83.5z"/>
				<path class="st5" d="M107.8,83.8c1.2-0.2,3.7-0.7,6.3-0.6c0.7,0,1.2,0.5,1.2,1.1l0,0c-0.1,0.4-0.5,0.8-1.1,0.7
					c-1.8-0.1-6.4,0-8.6,0.7c-0.1-0.3,0.1-0.7,0.4-0.9C106.4,84.3,107.1,84,107.8,83.8z"/>
				<path class="st8" d="M126.1,103.3c-0.4,2.1-1.9,5.9-6.8,5.9s-6.3-3.5-6.8-5.9H126.1L126.1,103.3z"/>
				<path class="st11" d="M119.3,112.8c1.4,0,2.7-0.8,2.7-0.8c0.3-0.2,0.4-0.5,0.2-0.8c-0.2-0.3-0.5-0.4-0.8-0.2l0,0
					c0,0-1,0.6-2.1,0.6c-1.2,0-2.2-0.6-2.2-0.6c-0.3-0.2-0.6-0.1-0.8,0.2c-0.2,0.3-0.1,0.6,0.2,0.8
					C116.5,112,117.8,112.8,119.3,112.8L119.3,112.8z"/>
				<path class="st5" d="M138.8,91.4c-0.1,0.1-0.3,0.1-0.4-0.2c-2-3.6-0.1-10.7-6.1-13.4c-4.6-2.1-6.2-6.4-6.2-6.4
					c-1,1.8-3.8,3.4-3.8,3.4s-6.9,4.1-14.1,6.8c-2.1,0.8-3.7,1.7-4.7,2.4c0.1,0,0.1,0,0.1,0s-2,3.2-0.5,8.2c1.4,5-0.4,13.3-3.6,15.2
					c0.1-0.1,2.5-5.8,1.1-10.5c-0.8-2.7-0.8-6.9-1.5-9.5c-0.8-0.6-2.7-1.5-3.4-1.9c-0.2-2.2-0.3-4.3-0.4-6.3
					c-0.3-5.5,3-10.6,8.2-12.6c7.4-2.9,18.7-5.1,29.4,0.9c3.9,2.2,6.4,6.4,6.5,10.9C139.5,82.1,139.4,86.7,138.8,91.4z"/>
			</g>
			<g>
				<path class="st7" d="M99.1,87.6c0,0-4.2-5.1-6.7-1.4c-2.5,3.7,1.2,14.9,7.2,12.3C99.7,98.4,99.1,87.6,99.1,87.6z"/>
				<path class="st8" d="M99.3,98.6c0.4,0.8,0.6,1.8,0.3,2.8c-0.5,2.1-2.7,3.4-4.7,2.8s-3.4-2.7-2.8-4.7c0.3-1.2,1.1-2.1,2.2-2.6
					c0.5-0.2,1.1-0.4,1.7-0.3c0.1-0.2,0.2-0.5,0-0.8c-0.8,0-1.5,0.1-2.2,0.5c-1.2,0.6-2.2,1.7-2.5,3.1c-0.6,2.5,0.9,5,3.4,5.7
					c2.5,0.6,5-0.9,5.7-3.4c0.3-1.1,0.1-2.2-0.3-3.1C99.8,98.5,99.5,98.5,99.3,98.6L99.3,98.6z"/>
				<path class="st11" d="M98.2,94.7c-0.2,0-0.4-0.2-0.5-0.4c-0.9-3.3-4.4-4.7-4.4-4.7c-0.3-0.1-0.4-0.4-0.3-0.7s0.4-0.4,0.7-0.3
					c0.2,0.1,4,1.5,5.1,5.4c0.1,0.3-0.1,0.6-0.3,0.6C98.3,94.7,98.2,94.7,98.2,94.7L98.2,94.7z"/>
				<path class="st11" d="M94.7,93c-0.1,0-0.2,0-0.3-0.1c-0.2-0.2-0.3-0.5-0.2-0.7c0,0,0.6-1,1.9-1.6c0.3-0.1,0.6,0,0.7,0.3
					s0,0.6-0.3,0.7c-1,0.4-1.5,1.2-1.5,1.2C95,92.9,94.9,93,94.7,93z"/>
			</g>
		</g>
	</g>
	<g>
		<path class="st7" d="M321,198c-9.8,7-25,11.8-25,11.8l-3.1-11.2l-2.4-8.8l-1.7-6.2h-17.5c1,3.3,1.9,6.6,2.9,9.9
			c1.3,4.2,2.5,8.4,3.7,12.2c1.7,5.4,3.2,10.1,4.5,13.6c0.3,0.8,0.6,1.6,1,2.6c2.3,6.3,4.2,13.2,13.1,8.9c7.9-3.8,18.5-9,23.8-12.5
			L321,198L321,198z"/>
		<g>
			<path class="st11" d="M274.1,193.5c1.3,4.2,2.5,8.4,3.7,12.2c7.1-0.8,12.1-4.3,15-7.2l-2.4-8.8L274.1,193.5z"/>
			<path class="st13" d="M270.4,132.2c0,0,18.2,43.5,26.1,57.6c0,0-11,9.3-21.7,9.6C274.8,199.4,268.6,151.6,270.4,132.2
				L270.4,132.2z"/>
		</g>
		<g>
			<path class="st14" d="M227.7,308.9c0.2-3,0.4-5.9,0.5-8.6c0.6-11,1.1-18.5,1.1-18.5l-4.3-0.2l-2.4-0.1l-29.2-1.3
				c0,0-0.5,8.4-1.2,20.7c-0.1,2.5-0.3,5.2-0.4,8L227.7,308.9L227.7,308.9z"/>
			<path class="st13" d="M225,281.6l4.3,0.2c0,0-0.4,7.5-1.1,18.5c-11.2,0.9-23.5,1.3-36.1,0.6c0.6-12.3,1.2-20.7,1.2-20.7l29.2,1.3
				L225,281.6L225,281.6z"/>
			<path class="st3" d="M223.5,308.9c0.7-11.7,1.2-21.8,1.5-27.3l-2.4-0.1c-0.3,5.5-0.9,15.6-1.5,27.4H223.5L223.5,308.9z"/>
		</g>
		<g>
			<path class="st14" d="M237.1,308.9h35.9c-0.1-2.8-0.3-5.5-0.4-8c-0.6-12.3-1.2-20.7-1.2-20.7l-29.2,1.3l-2.4,0.1l-4.3,0.2
				c0,0,0.4,7.5,1.1,18.5C236.8,303,237,305.8,237.1,308.9L237.1,308.9z"/>
			<path class="st13" d="M239.9,281.6l-4.3,0.2c0,0,0.4,7.5,1.1,18.5c11.2,0.9,23.5,1.3,36.1,0.6c-0.6-12.3-1.2-20.7-1.2-20.7
				l-29.2,1.3L239.9,281.6L239.9,281.6z"/>
			<path class="st3" d="M243.8,308.9c-0.7-11.8-1.2-21.9-1.5-27.4l-2.4,0.1c0.3,5.5,0.9,15.6,1.5,27.3H243.8L243.8,308.9z"/>
		</g>
		<path class="st13" d="M187,259.4c0,0.6,0,1.2,0,1.8c0,10.7,0.1,19,0.1,23c10.3,2.8,20.6,4.6,31,5.4c0.5,0,0.9,0.1,1.4,0.1
			c0.2,0,0.5,0,0.8,0c0.6,0,1.1,0.1,1.7,0.1c0.6,0,1.2,0.1,1.9,0.1c7,0.3,14.1,0.2,21.1-0.4c1.4-0.1,2.8-0.3,4.2-0.4
			c0.1,0,0.2,0,0.3,0c0.4,0,0.7-0.1,1.1-0.1c0.2,0,0.4,0,0.7-0.1c8.2-1,16.4-2.6,24.5-4.8c0-1.9,0-4.6,0-8c0-0.6,0-1.3,0-2l0,0
			c0-4.9,0-11.1-0.1-18c0-0.6,0-1.2,0-1.8c0-4.6-0.1-9.6-0.1-14.8c0-0.6,0-1.2,0-1.8c-0.1-5.3-0.1-10.8-0.2-16.4
			c-0.1-3.4-0.1-6.9-0.2-10.3c-0.1-3.5-0.1-7-0.2-10.5c0-0.8,0-1.5-0.1-2.3c-0.8-32.9-2.2-63.1-4.5-66.4c-1.6-2.3-5.2-5.1-9.5-7.8
			c-0.5-0.3-1.1-0.7-1.6-1c-1.8-1.1-16.7-6.2-18.6-7.3l-15.7-1.1c-0.1,0.1-15.1,5.1-15.2,5.2c-0.6,0.4-1.3,0.7-1.9,1.1
			c-5.6,3.2-11.1,6.6-14.2,9.5c-0.5,0.4-0.9,0.8-1.2,1.2c-0.3,0.3-0.5,0.6-0.7,0.9c-0.2,0.3-0.4,0.7-0.6,1.4
			c-1.9,6.9-2.9,34.1-3.4,63.7c0,2.1-0.1,4.2-0.1,6.4c0,0.9,0,1.9,0,2.8c0,0.6,0,1.3,0,1.9v1c0,1.6-0.1,3.2-0.1,4.8
			c0,1.2,0,2.4,0,3.5C187,233.1,187,247.6,187,259.4L187,259.4z"/>
		<g>
			<g>
				<path class="st7" d="M158.9,301.6c-0.4,4.2,4.7,1.9,3.3-6.6c-1.4-8.5,2.7-16.2,4.4-16c1.8,0.2-1.5,9.3,0.1,12.5
					c1.6,3.3,3.6-3.1,5.6-6.9c2.1-4,2-12.7,1-18.9s10.3-43.9,10.4-54.9l1.4-4.6l5-17l7.9-26.6c0,0-4.7-20.1-12.6-18.4
					c0,0-4.2,14-8.7,29.8c-0.8,2.7-1.5,5.4-2.3,8.1c-3.2,11.4-6.2,22.8-7.6,29.5c-3.7,17.7-4,54.5-4,54.5s-6.5,13.5-6.7,19.5
					C155.9,292.3,159.2,297.4,158.9,301.6L158.9,301.6z"/>
				<path class="st11" d="M174.3,182.3l10.8,24l5-17l-13.5-15.1C175.8,176.8,175.1,179.6,174.3,182.3L174.3,182.3z"/>
			</g>
			<path class="st13" d="M173.8,175.2c4.7,8.1,9.5,16.1,14.3,24.2c1.6-5.3,3.2-10.3,4.7-15c0,0,0,0,0,0c0.6-1.9,1.2-3.6,1.8-5.4
				c0,0,0-0.1,0-0.1c0.2-0.6,0.4-1.2,0.6-1.8l0,0c2.3-6.9,4.1-12.4,4.6-15.6c1.4-8.6-2.4-25.5-7.6-28.8l0,0
				c-0.1,0.3-0.6-0.6-0.8-0.1c-0.9,2.1-5,7.4-7,12.5c-0.3,0.6-0.5,1.3-0.8,2C180.6,154.7,177.1,164.5,173.8,175.2L173.8,175.2z"/>
		</g>
		<g>
			<path class="st15" d="M231.9,130.4c6.8,0,11.6-6.2,11.8-6.5c0.3-0.4,0.2-0.9-0.1-1.2s-0.9-0.2-1.2,0.1c-0.1,0.1-4.5,5.8-10.5,5.8
				s-9.6-6.5-9.6-6.6c-0.2-0.4-0.7-0.6-1.1-0.3s-0.5,0.8-0.3,1.2C221.1,123.3,225.1,130.4,231.9,130.4L231.9,130.4z"/>
			<path class="st15" d="M260.8,190c0.1,0,0.2,0,0.4-0.1c0.4-0.2,0.6-0.8,0.4-1.2l-3-6.3c-0.2-0.4-0.7-0.6-1.1-0.4
				c-0.4,0.2-0.6,0.8-0.4,1.2l3,6.3C260.2,189.8,260.5,190,260.8,190z"/>
			<path class="st15" d="M266.9,184.8c0.1,0.1,0.2,0.1,0.4,0.1c0.5,0,0.9-0.3,0.9-0.8l0.6-7c0-0.5-0.3-0.9-0.8-1
				c-0.5,0-0.9,0.3-0.9,0.8l-0.6,7C266.5,184.3,266.7,184.7,266.9,184.8z"/>
			<path class="st15" d="M251,174c0.4,0,0.8-0.3,0.8-0.7l1.1-6.9c0.1-0.5-0.2-0.9-0.7-1s-0.9,0.2-0.9,0.7l-1.1,6.9
				c-0.1,0.5,0.2,0.9,0.7,1C250.9,173.9,250.9,174,251,174L251,174z"/>
			<path class="st15" d="M224.3,176.6c0.1,0,0.3,0,0.4-0.1c0.4-0.2,0.5-0.8,0.3-1.2l-3.4-6.1c-0.2-0.4-0.7-0.6-1.1-0.3
				c-0.4,0.2-0.5,0.8-0.3,1.2l3.4,6.1C223.7,176.4,224,176.6,224.3,176.6L224.3,176.6z"/>
			<path class="st15" d="M257.1,149.4c0.1,0,0.3-0.1,0.5-0.1l5.5-3.8c0.4-0.3,0.5-0.8,0.2-1.2c-0.2-0.4-0.8-0.5-1.1-0.3l-5.5,3.8
				c-0.4,0.3-0.5,0.8-0.2,1.2C256.5,149.3,256.8,149.4,257.1,149.4L257.1,149.4z"/>
			<path class="st15" d="M232.5,205.8c0.1,0,0.2,0,0.4-0.1c0.4-0.2,0.6-0.8,0.4-1.2l-3-6.3c-0.2-0.4-0.7-0.6-1.1-0.4
				s-0.6,0.8-0.4,1.2l3,6.3C231.9,205.6,232.2,205.8,232.5,205.8z"/>
			<path class="st15" d="M245.5,154.1c0.3,0,0.6-0.1,0.7-0.4c0.2-0.4,0.1-1-0.3-1.2l-5.6-3.7c-0.4-0.3-0.9-0.1-1.1,0.3
				c-0.2,0.4-0.1,1,0.3,1.2l5.6,3.7C245.2,154.1,245.4,154.1,245.5,154.1z"/>
			<path class="st15" d="M258.8,128c0,0.2,0,0.3,0.1,0.5c0.1,0.3,0.4,0.4,0.7,0.5c0.5,0,0.9-0.3,0.9-0.8l0.3-4c-0.5-0.3-1-0.7-1.6-1
				L258.8,128L258.8,128z"/>
			<path class="st15" d="M266.2,166.6c0.3,0,0.5-0.1,0.7-0.4c0.2-0.4,0.1-1-0.3-1.2l-5.6-3.7c-0.4-0.3-0.9-0.1-1.1,0.3
				c-0.2,0.4-0.1,1,0.3,1.2l5.6,3.7C265.9,166.5,266.1,166.6,266.2,166.6z"/>
			<path class="st15" d="M221.7,135.9c0.2,0,0.3-0.1,0.5-0.1c0.4-0.3,0.5-0.8,0.2-1.2l-3.2-5.2c-0.2-0.4-0.8-0.5-1.1-0.2
				c-0.4,0.3-0.5,0.8-0.2,1.2l3.2,5.2C221.2,135.8,221.5,135.9,221.7,135.9L221.7,135.9z"/>
			<path class="st15" d="M218.9,225.1c0.2,0,0.4-0.1,0.6-0.3l4.6-5.1c0.3-0.4,0.3-0.9,0-1.2s-0.9-0.3-1.2,0l-4.6,5.1
				c-0.3,0.4-0.3,0.9,0,1.2C218.5,225,218.7,225.1,218.9,225.1L218.9,225.1z"/>
			<path class="st15" d="M235.6,224c0.2,0,0.4-0.1,0.6-0.3l4.6-5.1c0.3-0.4,0.3-0.9,0-1.2s-0.9-0.3-1.2,0l-4.6,5.1
				c-0.3,0.4-0.3,0.9,0,1.2C235.2,223.9,235.4,224,235.6,224L235.6,224z"/>
			<path class="st15" d="M247.7,258.3c0.1-0.2,0.1-0.5,0-0.7l-2.8-6.4c-0.2-0.4-0.7-0.6-1.1-0.4c-0.4,0.2-0.6,0.7-0.4,1.2l2.8,6.3
				c0.2,0.4,0.7,0.6,1.1,0.4C247.5,258.7,247.6,258.5,247.7,258.3z"/>
			<path class="st15" d="M199.6,279.3c0.1-0.2,0.1-0.5,0-0.7l-2.8-6.4c-0.2-0.4-0.7-0.6-1.1-0.4c-0.4,0.2-0.6,0.7-0.4,1.2l2.8,6.4
				c0.2,0.4,0.7,0.6,1.1,0.4C199.4,279.7,199.6,279.5,199.6,279.3z"/>
			<path class="st15" d="M220.3,289.8c0.6,0,1.1,0.1,1.7,0.1l0.6-4c0.1-0.5-0.2-0.9-0.7-1s-0.9,0.3-0.9,0.7L220.3,289.8L220.3,289.8
				z"/>
			<path class="st15" d="M213.6,277.8c0.2-0.1,0.3-0.3,0.3-0.6l1-7c0.1-0.5-0.2-0.9-0.7-1c-0.4-0.1-0.9,0.2-0.9,0.7l-1,7
				c-0.1,0.5,0.2,0.9,0.7,1C213.2,278,213.5,278,213.6,277.8L213.6,277.8z"/>
			<path class="st15" d="M253.6,219.7c0.1,0,0.3,0,0.4-0.1c0.4-0.2,0.5-0.8,0.3-1.2l-3.3-6.1c-0.2-0.4-0.7-0.6-1.1-0.3
				c-0.4,0.2-0.5,0.8-0.3,1.2l3.3,6.1C253.1,219.5,253.4,219.7,253.6,219.7z"/>
			<path class="st15" d="M244,204.5c0.3,0,0.6-0.2,0.7-0.5l3-6.2c0.2-0.4,0.1-1-0.4-1.2c-0.4-0.2-0.9-0.1-1.1,0.4l-3,6.2
				c-0.2,0.4-0.1,1,0.4,1.2C243.7,204.5,243.8,204.5,244,204.5L244,204.5z"/>
			<path class="st15" d="M270.2,203.6c0.1,0.1,0.2,0.2,0.3,0.2c0.3,0.1,0.6,0.1,0.9-0.1l3.4-3.1c0-0.8,0-1.5,0-2.3l-4.4,4
				C269.9,202.6,269.9,203.2,270.2,203.6z"/>
			<path class="st15" d="M244,138.1c0.3,0,0.6-0.2,0.7-0.5l3-6.2c0.2-0.4,0.1-1-0.4-1.2s-0.9-0.1-1.1,0.4l-3,6.2
				c-0.2,0.4-0.1,1,0.4,1.2C243.8,138.1,243.9,138.1,244,138.1L244,138.1z"/>
			<path class="st15" d="M224.7,161c0.1,0,0.1,0,0.2,0c0.4-0.1,0.7-0.6,0.7-1l-1.2-6.9c-0.1-0.5-0.5-0.8-1-0.7
				c-0.4,0.1-0.7,0.6-0.7,1l1.2,6.9C223.9,160.7,224.3,161,224.7,161z"/>
			<path class="st15" d="M235.4,167.1c0.1,0,0.1,0,0.2,0c0.4-0.1,0.7-0.6,0.7-1l-1.2-6.9c-0.1-0.5-0.5-0.8-1-0.7s-0.7,0.6-0.7,1
				l1.2,6.9C234.7,166.8,235.1,167.1,235.4,167.1z"/>
			<path class="st15" d="M227.7,144.3c0.3,0,0.5-0.1,0.7-0.4l3.5-5.9c0.2-0.4,0.1-1-0.3-1.2s-0.9-0.1-1.1,0.3l-3.5,5.9
				c-0.2,0.4-0.1,1,0.3,1.2C227.4,144.3,227.6,144.3,227.7,144.3z"/>
			<path class="st15" d="M260.1,205.6c0.2-0.3,0.3-0.6,0.1-1l-2.8-6.4c-0.2-0.4-0.7-0.6-1.1-0.4c-0.4,0.2-0.6,0.7-0.4,1.2l2.8,6.4
				c0.2,0.4,0.7,0.6,1.1,0.4C259.9,205.7,260,205.6,260.1,205.6L260.1,205.6z"/>
			<path class="st15" d="M238.7,187.1c0.3,0,0.6-0.2,0.8-0.6l2.4-6.6c0.2-0.5,0-1-0.5-1.1c-0.4-0.2-0.9,0.1-1.1,0.5l-2.4,6.6
				c-0.2,0.5,0,1,0.5,1.1C238.5,187.1,238.6,187.1,238.7,187.1z"/>
			<path class="st15" d="M212.4,227.6c0.1,0,0.2,0,0.4-0.1c0.4-0.2,0.6-0.8,0.4-1.2l-3-6.3c-0.2-0.4-0.7-0.6-1.1-0.4
				c-0.4,0.2-0.6,0.8-0.4,1.2l3,6.3C211.8,227.4,212.1,227.6,212.4,227.6z"/>
			<path class="st15" d="M256.1,272.8c0,0.1,0,0.3,0.1,0.4c0.2,0.4,0.7,0.6,1.1,0.4l5.8-3.2c0.4-0.2,0.6-0.8,0.4-1.2
				c-0.2-0.4-0.7-0.6-1.1-0.4l-5.8,3.2C256.2,272.1,256,272.4,256.1,272.8L256.1,272.8z"/>
			<path class="st15" d="M271.9,276.8c0,0.1,0,0.3,0.1,0.4c0.2,0.4,0.7,0.6,1.1,0.4l2.5-1.4c0-0.6,0-1.3,0-2l-3.3,1.8
				C272.1,276.1,271.9,276.5,271.9,276.8z"/>
			<path class="st15" d="M247.4,284.6l2,4.6c0.4,0,0.7-0.1,1.1-0.1l0.6-0.1l-2.2-5.1c-0.2-0.4-0.7-0.6-1.1-0.4
				C247.4,283.6,247.2,284.2,247.4,284.6L247.4,284.6z"/>
			<path class="st15" d="M201.6,211.6c0.4,0,0.8-0.3,0.8-0.7l1.1-6.9c0.1-0.5-0.2-0.9-0.7-1s-0.9,0.2-0.9,0.7l-1.1,6.9
				c-0.1,0.5,0.2,0.9,0.7,1C201.5,211.6,201.6,211.6,201.6,211.6L201.6,211.6z"/>
			<path class="st15" d="M200.9,160.4c0.1,0,0.3,0,0.4-0.1c0.4-0.2,0.5-0.8,0.3-1.2l-3.4-6.1c-0.2-0.4-0.7-0.6-1.1-0.3
				c-0.4,0.2-0.5,0.8-0.3,1.2l3.4,6.1C200.4,160.2,200.6,160.4,200.9,160.4L200.9,160.4z"/>
			<path class="st15" d="M211.7,185c0.1,0,0.3-0.1,0.4-0.1l5.5-3.8c0.4-0.3,0.5-0.8,0.2-1.2c-0.2-0.4-0.8-0.5-1.1-0.3l-5.5,3.8
				c-0.4,0.3-0.5,0.8-0.2,1.2C211.2,184.9,211.4,185,211.7,185L211.7,185z"/>
			<path class="st15" d="M270.2,226.3c0.1,0,0.2,0,0.4-0.1c0.4-0.2,0.6-0.8,0.4-1.2l-3-6.3c-0.2-0.4-0.7-0.6-1.1-0.4
				c-0.4,0.2-0.6,0.8-0.4,1.2l3,6.3C269.6,226.1,269.9,226.3,270.2,226.3z"/>
			<path class="st15" d="M202.3,194.5c0.3,0,0.6-0.1,0.7-0.4c0.2-0.4,0.1-1-0.3-1.2l-5.6-3.7c-0.4-0.3-0.9-0.1-1.1,0.3
				c-0.2,0.4-0.1,1,0.3,1.2l5.6,3.7C202,194.5,202.1,194.5,202.3,194.5z"/>
			<path class="st15" d="M215.7,203.4c0.2,0.2,0.5,0.3,0.8,0.2c0.4-0.1,0.7-0.6,0.6-1.1l-1.7-6.8c-0.1-0.5-0.6-0.8-1-0.6
				s-0.7,0.6-0.6,1.1l1.7,6.8C215.5,203.2,215.6,203.3,215.7,203.4L215.7,203.4z"/>
			<path class="st15" d="M192.1,131.7l1.4,2.3c0.2,0.3,0.4,0.4,0.7,0.4c0.2,0,0.3,0,0.4-0.1c0.4-0.3,0.5-0.8,0.2-1.2l-1.6-2.6
				C192.9,130.9,192.5,131.3,192.1,131.7L192.1,131.7z"/>
			<path class="st15" d="M185.8,147.2l1.5,2.5c0.2,0.3,0.4,0.4,0.7,0.4c0.2,0,0.3-0.1,0.5-0.1c0.4-0.3,0.5-0.8,0.2-1.2l-2.2-3.5
				C186.3,145.8,186.1,146.5,185.8,147.2L185.8,147.2z"/>
			<path class="st15" d="M257.5,248.2c0.2,0,0.4-0.1,0.6-0.3l4.6-5.1c0.3-0.4,0.3-0.9,0-1.2s-0.9-0.3-1.2,0l-4.6,5.1
				c-0.3,0.4-0.3,0.9,0,1.2C257.1,248.1,257.3,248.2,257.5,248.2L257.5,248.2z"/>
			<path class="st15" d="M227.2,266c0.2,0,0.4-0.1,0.6-0.3l4.6-5.1c0.3-0.4,0.3-0.9,0-1.2s-0.9-0.3-1.2,0l-4.6,5.1
				c-0.3,0.4-0.3,0.9,0,1.2C226.8,265.9,227,266,227.2,266L227.2,266z"/>
			<path class="st15" d="M218.8,258.9c0.1-0.2,0.2-0.4,0.2-0.7l-0.8-7c-0.1-0.5-0.5-0.8-0.9-0.8c-0.4,0.1-0.8,0.5-0.7,1l0.8,7
				c0.1,0.5,0.5,0.8,0.9,0.8C218.5,259.2,218.7,259.1,218.8,258.9L218.8,258.9z"/>
			<path class="st15" d="M236.1,278.6c0.2,0,0.4-0.1,0.6-0.3l4.6-5.1c0.3-0.4,0.3-0.9,0-1.2s-0.9-0.3-1.2,0l-4.6,5.1
				c-0.3,0.4-0.3,0.9,0,1.2C235.7,278.5,235.9,278.6,236.1,278.6L236.1,278.6z"/>
			<path class="st15" d="M187,259.4c0,0.6,0,1.2,0,1.8l5.1,0.5c0.5,0,0.9-0.3,0.9-0.8s-0.3-0.9-0.8-1L187,259.4z"/>
			<path class="st15" d="M247.2,237.5c0.2,0,0.4-0.1,0.6-0.3l4.6-5.1c0.3-0.4,0.3-0.9,0-1.2s-0.9-0.3-1.2,0l-4.6,5.1
				c-0.3,0.4-0.3,0.9,0,1.2C246.8,237.5,247,237.5,247.2,237.5L247.2,237.5z"/>
			<path class="st15" d="M225.3,235.3c0,0.2,0.1,0.5,0.3,0.6l5,4.5c0.4,0.3,0.9,0.3,1.2-0.1c0.3-0.4,0.2-0.9-0.1-1.2l-5-4.5
				c-0.4-0.3-0.9-0.3-1.2,0.1C225.4,234.9,225.3,235.1,225.3,235.3L225.3,235.3z"/>
			<path class="st15" d="M201.3,260.2c0.1,0,0.3,0,0.4-0.1c0.4-0.2,0.5-0.8,0.3-1.2l-3.3-6.1c-0.2-0.4-0.7-0.6-1.1-0.3
				c-0.4,0.2-0.5,0.8-0.3,1.2l3.3,6.1C200.8,260.1,201,260.2,201.3,260.2L201.3,260.2z"/>
			<path class="st15" d="M195.6,242.1c0.3,0,0.6-0.2,0.7-0.5l3-6.2c0.2-0.4,0.1-1-0.4-1.2c-0.4-0.2-0.9-0.1-1.1,0.4l-3,6.2
				c-0.2,0.4-0.1,1,0.4,1.2C195.4,242.1,195.5,242.1,195.6,242.1L195.6,242.1z"/>
			<path class="st15" d="M204.6,171.1c0.3,0,0.6-0.2,0.7-0.5l3-6.2c0.2-0.4,0.1-1-0.4-1.2s-0.9-0.1-1.1,0.4l-3,6.2
				c-0.2,0.4-0.1,1,0.4,1.2C204.4,171.1,204.5,171.1,204.6,171.1L204.6,171.1z"/>
			<path class="st15" d="M201.3,144.9c0.1,0,0.1,0,0.2,0c0.4-0.1,0.7-0.6,0.7-1l-1.2-6.9c-0.1-0.5-0.5-0.8-1-0.7
				c-0.4,0.1-0.7,0.6-0.7,1l1.2,6.9C200.6,144.6,200.9,144.9,201.3,144.9z"/>
			<path class="st15" d="M186.2,168.7c0.1,0,0.1,0,0.2,0c0.4-0.1,0.7-0.6,0.7-1l-1.2-6.9c-0.1-0.5-0.5-0.8-1-0.7s-0.7,0.6-0.7,1
				l1.2,6.9C185.4,168.4,185.8,168.7,186.2,168.7z"/>
			<path class="st15" d="M212.1,150.9c0.1,0,0.1,0,0.2,0c0.4-0.1,0.7-0.6,0.7-1l-1.2-6.9c-0.1-0.5-0.5-0.8-1-0.7s-0.7,0.6-0.7,1
				l1.2,6.9C211.4,150.6,211.7,150.9,212.1,150.9z"/>
			<path class="st15" d="M207.1,126.9c0.2,0,0.3,0,0.5,0c0.3-0.1,0.5-0.3,0.5-0.6l1.4-6.3c-0.6,0.4-1.3,0.7-1.9,1.1l-1.1,4.8
				C206.4,126.3,206.7,126.8,207.1,126.9L207.1,126.9z"/>
			<path class="st15" d="M188.2,179.4c0.3,0,0.5-0.1,0.7-0.4l3.5-5.9c0.2-0.4,0.1-1-0.3-1.2s-0.9-0.1-1.1,0.3l-3.5,5.9
				c-0.2,0.4-0.1,1,0.3,1.2C187.9,179.3,188,179.4,188.2,179.4z"/>
			<path class="st15" d="M211.7,243.2c0.2-0.3,0.3-0.6,0.1-1l-2.8-6.4c-0.2-0.4-0.7-0.6-1.1-0.4c-0.4,0.2-0.6,0.7-0.4,1.2l2.8,6.4
				c0.2,0.4,0.7,0.6,1.1,0.4C211.6,243.4,211.7,243.3,211.7,243.2L211.7,243.2z"/>
			<path class="st15" d="M270,255.2l5.5,1c0-0.6,0-1.2,0-1.8l-5.2-0.9c-0.5-0.1-0.9,0.2-1,0.7S269.6,255.1,270,255.2L270,255.2z"/>
			<path class="st15" d="M271.7,238.9l3.7,0.6c0-0.6,0-1.2,0-1.8l-3.4-0.6c-0.5-0.1-0.9,0.2-1,0.7S271.3,238.9,271.7,238.9z"/>
			<path class="st15" d="M190.4,224.8c0.3,0,0.6-0.2,0.8-0.6l2.4-6.6c0.2-0.5,0-1-0.5-1.1c-0.4-0.2-0.9,0.1-1.1,0.5l-2.4,6.6
				c-0.2,0.5,0,1,0.5,1.1C190.2,224.8,190.3,224.8,190.4,224.8z"/>
		</g>
		<path class="st15" d="M187.4,204.1c1.6-6.4,3.5-13.6,5.4-19.7v0c0.6-1.9,1.2-3.7,1.8-5.4c0,0,0-0.1,0-0.1c0.2-0.5,0.4-1,0.6-1.5
			c0-0.1,0-0.2,0-0.3l0,0c0-0.3-0.2-0.6-0.5-0.7c-0.4-0.1-0.8,0.1-0.9,0.4c-2,5.4-4.3,13.2-6.4,20.9
			C187.4,199.9,187.4,202,187.4,204.1L187.4,204.1z"/>
		<g>
			<path class="st5" d="M211.1,79.9c0,0-5.8-6.4-3.6-13.8c2.2-7.4,8.1-7.3,8.1-7.3s3.5-7.9,9.4-8.1c5.9-0.3,11.5-10.8,16.9-7.9
				c5.4,2.9-0.6,9.1-0.6,9.1s9.2-9.7,12.3-6.9c3,2.9-4.2,10.5-4.2,10.5s7.8-5.5,10.3-3.4c2.5,2.1-6.1,11-6.1,11s5.6,10.1,0,14.6
				L211.1,79.9L211.1,79.9z"/>
			<g>
				<path class="st11" d="M251.5,82.1c0,0,3.7-4.9,6.4-0.8c2.8,4.1-1.1,16.1-7.9,13.2L251.5,82.1L251.5,82.1z"/>
				<path class="st12" d="M251.5,90.7c0.2,0,0.5-0.2,0.6-0.4c1-3.7,4.9-5.2,4.9-5.2c0.3-0.1,0.4-0.4,0.3-0.7
					c-0.1-0.3-0.4-0.4-0.7-0.3c-0.2,0.1-4.4,1.7-5.6,6c-0.1,0.3,0.1,0.6,0.4,0.7C251.4,90.6,251.5,90.7,251.5,90.7L251.5,90.7z"/>
				<path class="st12" d="M255.4,88.8c0.1,0,0.2,0,0.3-0.1c0.3-0.2,0.3-0.5,0.2-0.8c0,0-0.7-1.1-2.1-1.7c-0.3-0.1-0.6,0-0.8,0.3
					s0,0.6,0.3,0.8c1.1,0.5,1.6,1.3,1.6,1.3C255,88.7,255.2,88.8,255.4,88.8L255.4,88.8z"/>
			</g>
			<g>
				<path class="st11" d="M213.4,82.1c0,0-3.7-4.9-6.4-0.8s1.1,16.1,7.9,13.2L213.4,82.1z"/>
				<path class="st12" d="M213.4,90.7c-0.2,0-0.5-0.2-0.6-0.4c-1-3.7-4.9-5.2-4.9-5.2c-0.3-0.1-0.4-0.4-0.3-0.7s0.4-0.4,0.7-0.3
					c0.2,0.1,4.4,1.7,5.6,6c0.1,0.3-0.1,0.6-0.4,0.7C213.5,90.6,213.4,90.7,213.4,90.7L213.4,90.7z"/>
				<path class="st12" d="M209.5,88.8c-0.1,0-0.2,0-0.3-0.1c-0.3-0.2-0.3-0.5-0.2-0.8c0,0,0.7-1.1,2.1-1.7c0.3-0.1,0.6,0,0.8,0.3
					s0,0.6-0.3,0.8c-1.1,0.5-1.6,1.3-1.6,1.3C209.8,88.7,209.7,88.8,209.5,88.8L209.5,88.8z"/>
			</g>
			<path class="st7" d="M223.4,104.6v12c0,0,3.6,6.1,8.4,6.5c4.8,0.4,9.1-5.2,9.1-5.2v-12.4C240.8,105.4,223.4,104.6,223.4,104.6z"
				/>
			<path class="st11" d="M223.4,104.6v5.3c3.2,3.6,9,4.5,17.5,3.2v-7.7C240.8,105.4,223.4,104.6,223.4,104.6z"/>
			<path class="st7" d="M210.8,73.9c0.2,4.7,0.7,10.5,1.6,15.1l0,0c0,0,0,0,0,0.1l0,0c0.2,1.1,0.5,2.2,0.7,3.2
				c0.2,0.6,0.3,1.2,0.5,1.8c2.8,8.9,9.4,21.8,25.9,15.9c6.9-2.5,10.6-9.7,12.4-17.4c0.1-0.5,0.2-0.9,0.3-1.4
				c0.1-0.3,0.1-0.6,0.2-0.9l0.1-0.4c0-0.1,0-0.1,0-0.2c0,0,0,0,0,0c1.1-6,1.2-12,1.2-16.4c-0.1-4.4-2.5-8.4-6.3-10.6
				c-10.4-5.9-21.4-3.7-28.6-0.9C213.7,63.6,210.5,68.5,210.8,73.9L210.8,73.9z"/>
			<path class="st5" d="M212.3,89L212.3,89C212.3,89,212.3,89,212.3,89L212.3,89c0.1,0.5,0.7,2.6,1.3,5c2.8,8.9,9.4,21.8,25.9,15.9
				c6.9-2.5,10.6-9.7,12.4-17.4c0.1-0.5,0.2-0.9,0.3-1.4c0.1-0.3,0.1-0.6,0.2-0.9l0.1-0.4c0-0.1,0-0.1,0-0.2c0,0,0,0,0,0L250,89
				c-0.5,2.3-1.5,4.5-2.8,6.4c-2.1-4.9-12.5-1.7-12.5-1.7l-0.1,0c-0.6,0.2-1.3,0.3-1.9,0.3s-1.3-0.1-2-0.3c0,0-10.3-3.4-12.4,1.3
				c-2.1-3.3-3.6-6.3-3.6-6.3L212.3,89L212.3,89L212.3,89z M232.8,96c11.8-1.6,9.9,4.8,9.9,4.8c-1.3,1.2-2.5,2.1-3.3,2.5
				c-2.6,1.4-5.1,2-6.9,1.9c-1.8-0.1-2.3,0.3-6.9-2.2c-0.8-0.4-1.6-1.1-2.4-1.8l0,0C223,99.9,221,94,232.8,96L232.8,96z"/>
			<path class="st5" d="M222.1,82.5c0,1.3,0.7,2.3,1.5,2.3s1.5-1,1.5-2.3s-0.7-2.3-1.5-2.3S222.1,81.2,222.1,82.5z"/>
			<path class="st5" d="M240.5,82.5c0,1.3,0.7,2.3,1.5,2.3s1.5-1,1.5-2.3s-0.7-2.3-1.5-2.3S240.5,81.2,240.5,82.5z"/>
			<path class="st5" d="M218.4,74.7c0,0,6.1-2.4,10.8-0.4l-0.5,2.6c0,0-6.9-0.6-10.3,0.8C218,76.8,218,75.7,218.4,74.7L218.4,74.7z"
				/>
			<path class="st5" d="M247.2,74.7c0,0-6.1-2.4-10.8-0.4l0.5,2.6c0,0,6.9-0.6,10.4,0.8C247.6,76.8,247.6,75.8,247.2,74.7
				L247.2,74.7z"/>
			<path class="st11" d="M232.2,92.8c-1,0-1.9-0.4-2.1-0.4c-0.3-0.1-0.4-0.4-0.3-0.7s0.4-0.4,0.7-0.3c0.5,0.2,1.7,0.5,2.3,0.2
				c0.1-0.1,0.2-0.2,0.3-0.5c0.2-2-0.3-8.6-0.3-8.7c0-0.3,0.2-0.6,0.5-0.6c0.3,0,0.6,0.2,0.6,0.5c0,0.3,0.6,6.8,0.3,8.9
				c-0.1,0.8-0.5,1.2-0.8,1.4C233.1,92.8,232.7,92.8,232.2,92.8L232.2,92.8z"/>
			<path class="st8" d="M239.5,97.2c-0.4,2.2-1.9,6.2-6.7,6.2s-6.2-3.7-6.7-6.2H239.5L239.5,97.2z"/>
			<path class="st5" d="M210.7,73.8c0.2,4.7,0.7,10.5,1.6,15.1l2.5-0.2c0,0-0.6-3.9-0.9-6.5c-0.3-2.6-0.8-7.3,1.4-7.9
				c2.2-0.6,0.9-6,3.9-8.4c3-2.4,9.8-3,14.3-0.3c4.5,2.7,9.5-0.2,11.6,0.3c2.1,0.5,4.9,3.3,4.1,6s1.5,4.3,2.1,7S250,89,250,89
				l2.4,0.5c1.1-6,1.3-12,1.2-16.4c-0.1-4.4-2.5-8.4-6.3-10.6c-10.4-5.9-21.4-3.7-28.6-0.9C213.7,63.6,210.5,68.5,210.7,73.8
				L210.7,73.8z"/>
		</g>
	</g>
	<g>
		<g>
			<path class="st10" d="M315.3,201.8c-1.5,14.1-10.7,45.5-17.1,51.7c-8.3,8-35.6,24.9-49.8,33.6c-2.6,1.6,9.5,12,9.5,12
				s37.7-16.1,52.1-28.9c4.1-3.6,12.4-14.9,21.7-36.6c2.8-6.6,9.7-19.8,9.3-28.4C340.6,195.3,324.9,196.9,315.3,201.8L315.3,201.8z"
				/>
			<path class="st7" d="M285.8,282.7c0,0-10.3,3.9-13.9,8.2c-3.6,4.3-8.4,7.9-7.3,9.6c1.2,1.7,6.5-3.2,6.5-3.2s1.5,5.4,6.6,6
				s14.9-9.5,14.9-9.5L285.8,282.7L285.8,282.7z"/>
			<g>
				<g>
					<path class="st6" d="M387.1,241.1c0,0.9,0,1.9,0,3.1s0,2.5-0.1,4c0,1-0.1,2.1-0.1,3.1c0,0.9-0.1,1.9-0.1,2.9
						c0,1-0.1,2.1-0.1,3.2c-0.7,14.8-2.4,35.1-6.2,51.4h-79.8c2.7-11.9,6.7-30.6,10-54.9c0.1-1,0.3-2.1,0.4-3.1s0.3-2.1,0.4-3.1
						c0.1-0.6,0.1-1.1,0.2-1.7c0-0.5,0.1-0.9,0.2-1.4c0.1-1.3,0.3-2.6,0.4-3.9c0.1-1.1,0.2-2.1,0.3-3.1c1.4-16.3,0.9-28.6,2.9-35.9
						c2.3-8.5,29-18.3,29-18.3l16.7,0.9c0,0,16,5.2,24.5,12.7c8.5,7.5,1.4,29.8,1.6,42.5C387.1,240,387.1,240.6,387.1,241.1
						L387.1,241.1z"/>
					<path class="st6" d="M387.1,244.2c-7.3,0.9-14.8,1.2-22.3,1.2c-24.3,0-47.2-3.7-52.7-4.7c0.1-1.1,0.2-2.1,0.3-3.1
						c6.4,1.1,43.6,7.3,74.7,3.4C387.1,242,387.1,243.1,387.1,244.2L387.1,244.2z"/>
					<path class="st6" d="M387,248.2c0,1-0.1,2.1-0.1,3.1c-7.2,0.9-14.7,1.2-22.1,1.2c-25.7,0-49.7-4.1-53.5-4.8
						c0.1-0.6,0.1-1.1,0.2-1.7c0-0.5,0.1-0.9,0.2-1.4C315.4,245.3,354.5,252.2,387,248.2L387,248.2z"/>
					<path class="st6" d="M386.8,254.3c0,1-0.1,2.1-0.1,3.2c-7.5,1-15.4,1.3-23,1.3c-24.9,0-48.2-3.9-53-4.8c0.1-1,0.3-2.1,0.4-3.1
						C316.7,251.9,355.1,258.4,386.8,254.3z"/>
					<path class="st6" d="M349.1,199.5c8.3,0,16-8.8,16.3-9.2c0.2-0.2,0.2-0.6-0.1-0.8c-0.2-0.2-0.6-0.2-0.8,0.1
						c-0.1,0.1-8.1,9.4-16.2,8.8c-0.3,0-0.6,0.2-0.6,0.6c0,0.3,0.2,0.6,0.5,0.6C348.5,199.5,348.8,199.6,349.1,199.5L349.1,199.5z"
						/>
					<path class="st6" d="M356.3,299c0.3,0,0.5-0.2,0.6-0.5c0-0.3-0.2-0.6-0.5-0.6c-21.5-2.5-30.4-39.7-30.5-40.1
						c-0.1-0.3-0.4-0.5-0.7-0.4c-0.3,0.1-0.5,0.4-0.4,0.7C325.1,259.6,333.9,296.4,356.3,299C356.3,299,356.3,299,356.3,299
						L356.3,299z"/>
					<path class="st6" d="M347.8,287.8c0.2,0,0.4-0.1,0.5-0.3c0.2-0.3,0.1-0.6-0.2-0.8c-11.4-7-13.1-17.4-13.1-17.5
						c0-0.3-0.4-0.5-0.7-0.5c-0.3,0-0.5,0.4-0.5,0.7c0.1,0.5,1.8,11,13.7,18.4C347.5,287.7,347.6,287.8,347.8,287.8L347.8,287.8z"/>
				</g>
				<g>
					<circle class="st5" cx="354.4" cy="144.8" r="23.5"/>
					<path class="st5" d="M331.3,140.6c0,0-6.7-1.8-5.8-8.3c0.8-5.5,7.2-1.9,6.6-6.2c-0.6-4.3-1.8-8.2,3.7-9.3
						c4.9-0.9,5,2.4,11.4-2.4c7.6-5.7,13.4,7.5,20.1,7.9c10,0.6,11.2,6.2,12.2,10.7c1,4.5-2.9,7.7-2.9,7.7L331.3,140.6L331.3,140.6z
						"/>
					<g>
						<path class="st11" d="M334.8,151.4c0,0-3.7-5-6.5-0.9s1.1,16.3,7.9,13.3L334.8,151.4L334.8,151.4z"/>
						<path class="st12" d="M334.8,160.1c-0.2,0-0.5-0.2-0.5-0.4c-1-3.8-4.9-5.3-5-5.3c-0.3-0.1-0.4-0.4-0.3-0.7
							c0.1-0.3,0.4-0.4,0.7-0.3c0.2,0.1,4.5,1.7,5.7,6.1c0.1,0.3-0.1,0.6-0.4,0.7C334.9,160.1,334.8,160.1,334.8,160.1L334.8,160.1z
							"/>
						<path class="st12" d="M330.9,158.2c-0.1,0-0.2,0-0.3-0.1c-0.3-0.2-0.3-0.5-0.2-0.8c0,0,0.7-1.1,2.1-1.7c0.3-0.1,0.6,0,0.8,0.3
							s0,0.6-0.3,0.8c-1.1,0.5-1.6,1.3-1.7,1.3C331.2,158.1,331,158.2,330.9,158.2L330.9,158.2z"/>
					</g>
					<path class="st7" d="M361.9,174.1v12.1c0,0-5,5.3-9.8,5.7s-7.8-5.4-7.8-5.4V175L361.9,174.1L361.9,174.1z"/>
					<path class="st11" d="M361.9,174.1v5.4c-3.3,3.6-9.1,4.5-17.7,3.3V175L361.9,174.1L361.9,174.1z"/>
					<path class="st7" d="M374.6,143.1c-0.2,4.7-0.7,10.6-1.6,15.3c-0.2,1.2-0.5,2.3-0.8,3.3c-2.5,8.9-8.9,24.2-26.7,17.8
						c-7.9-2.8-11.5-11.6-13.1-20.5c-1.1-6.1-1.3-12.2-1.2-16.5c0.1-4.5,2.5-8.5,6.4-10.7c10.5-6,21.6-3.7,28.9-0.9
						C371.6,132.7,374.9,137.7,374.6,143.1L374.6,143.1z"/>
					<g>
						<path class="st5" d="M353.3,151.6v0.9c0,1.9,0.8,3.7,2.1,5.1c1.3,1.3,3.1,2.1,5,2.1h0.2c1.6,0,3.1-0.7,4.4-2
							c1.3-1.3,2-3.1,2-5v-1.1c0-0.3-0.1-0.6-0.2-0.9c-0.1-0.3-0.3-0.6-0.6-0.9c-0.5-0.4-1.1-0.7-1.8-0.7h-8.8c-1,0-1.9,0.6-2.3,1.4
							C353.3,150.9,353.2,151.2,353.3,151.6C353.2,151.6,353.2,151.6,353.3,151.6L353.3,151.6z M354.3,151.6c0-0.8,0.7-1.5,1.5-1.5
							h8.8c0.8,0,1.5,0.6,1.5,1.5v1.1c0,1.6-0.6,3.2-1.7,4.3c-1.1,1.1-2.4,1.6-3.7,1.7h-0.2c-1.6,0-3.1-0.6-4.3-1.8
							c-1.2-1.1-1.8-2.7-1.8-4.3L354.3,151.6L354.3,151.6z"/>
						<path class="st5" d="M335.6,151.6v0.9c0,1.9,0.8,3.7,2.1,5.1c1.3,1.3,3.1,2.1,5,2.1h0.2c1.6,0,3.1-0.7,4.4-2
							c1.3-1.3,2.1-3.1,2.1-5v-1.1c0,0,0,0,0-0.1c0-0.3-0.1-0.7-0.2-1c-0.4-0.9-1.3-1.5-2.3-1.5h-8.8c-0.8,0-1.5,0.4-1.9,0.9
							c-0.2,0.3-0.4,0.6-0.5,0.9C335.7,151.1,335.6,151.4,335.6,151.6L335.6,151.6z M336.7,151.6c0-0.8,0.7-1.5,1.5-1.5h8.8
							c0.8,0,1.5,0.6,1.5,1.5v1.1c0,1.6-0.6,3.2-1.7,4.3c-1.1,1.1-2.4,1.6-3.7,1.7h-0.2c-1.6,0-3.1-0.6-4.3-1.8
							c-1.2-1.1-1.8-2.7-1.8-4.3L336.7,151.6L336.7,151.6z"/>
						<path class="st5" d="M373.4,148.7c-3-0.1-5.1,0.7-6,1.1c-0.2,0.1-0.9,0.5-0.9,0.5l0.5,0.9c0,0,0.7-0.4,1-0.5
							c0.8-0.4,2.7-1.2,5.4-1L373.4,148.7L373.4,148.7z"/>
						<path class="st5" d="M354,151.7l0.3-1c-0.1,0-1.5-0.5-3.1-0.5c-1.7,0-2.8,0.5-2.9,0.6l0.5,0.9c0,0,0.9-0.4,2.4-0.4
							S353.9,151.7,354,151.7L354,151.7z"/>
						<path class="st5" d="M332,149v1c2.1,0.2,4.1,1.1,4.2,1.1l0.5-0.9C336.5,150.2,334.4,149.1,332,149z"/>
					</g>
					<path class="st5" d="M343.8,153c0,1.3-0.7,2.3-1.5,2.3s-1.5-1.1-1.5-2.3s0.7-2.3,1.5-2.3S343.8,151.7,343.8,153z"/>
					<path class="st5" d="M361.2,153c0,1.3-0.7,2.3-1.5,2.3s-1.5-1.1-1.5-2.3s0.7-2.3,1.5-2.3S361.2,151.7,361.2,153z"/>
					<path class="st5" d="M337.5,145.8c0,0,6.2-2.4,10.9-0.4l-0.4,2.2c0,0-5.1-1.1-10.2,0.7C337.5,147.3,337.1,146.8,337.5,145.8z"
						/>
					<path class="st5" d="M365.7,145.8c0,0-6.2-2.4-10.9-0.4l0.4,2.2c0,0,5.1-1.1,10.2,0.7C365.7,147.3,366.1,146.8,365.7,145.8z"/>
					<path class="st11" d="M351.9,162.8c1,0,1.9-0.4,2.1-0.4c0.3-0.1,0.4-0.4,0.3-0.8c-0.1-0.3-0.5-0.4-0.8-0.3
						c-0.5,0.2-1.8,0.5-2.3,0.2c-0.1-0.1-0.2-0.2-0.3-0.5c-0.2-2,0.3-8.7,0.4-8.8c0-0.3-0.2-0.6-0.5-0.6c-0.3,0-0.6,0.2-0.6,0.5
						c0,0.3-0.6,6.9-0.3,9c0.1,0.8,0.5,1.2,0.8,1.4C351,162.7,351.5,162.8,351.9,162.8L351.9,162.8z"/>
					<path class="st8" d="M344.8,165.7c0.5,2.4,2,6.7,7.3,6.7s6.7-4,7.2-6.7H344.8z"/>
					<path class="st11" d="M352,175.4c1.5,0,2.7-0.8,2.8-0.8c0.3-0.2,0.4-0.5,0.2-0.8c-0.2-0.3-0.5-0.4-0.8-0.2c0,0-1,0.6-2.2,0.6
						c-1.1,0-2.1-0.6-2.1-0.6c-0.3-0.2-0.6-0.1-0.8,0.2s-0.1,0.6,0.2,0.8C349.3,174.6,350.6,175.4,352,175.4L352,175.4z"/>
					<path class="st5" d="M334.2,155.2c-0.4-2.4-0.9-5.4-0.5-7c0.6-2.8,2.9-4.4,2.1-7.1c-0.8-2.7,2.1-5.6,4.1-6
						c2.1-0.5,6.9,0.6,11.7-1.7c4.6-2.2,12.5-0.6,13.8,2.3c1.6,3.6-0.6,3.9,3.7,7.7c1.7,1.5-0.3,5.5-0.6,8.1c-0.1,1.2-0.1,1.8-0.1,3
						l0,0.6h5.1c0.6-4,0.9-8.4,1.1-12.1c0.3-5.4-3-10.4-8-12.3c-7.3-2.8-18.4-5-28.9,0.9c-3.9,2.2-6.3,6.3-6.4,10.7
						c-0.1,3.5,0,8,0.6,12.8L334.2,155.2L334.2,155.2z"/>
					<g>
						<path class="st7" d="M371.3,157.4c0-1.3,0.1-2.7,0.3-4c0.3-1.8,0.8-3.4,2.7-4.2c1.5-0.6,3.1-0.6,4.2,1.1
							c2.8,4.1-0.3,16.9-7.1,13.9L371.3,157.4L371.3,157.4z"/>
						<path class="st11" d="M372.7,160.5c0.2-0.1,0.4-0.3,0.5-0.5c0.3-3.9,3.8-6.1,3.9-6.2c0.3-0.2,0.4-0.5,0.2-0.8
							c-0.2-0.3-0.5-0.4-0.8-0.2c-0.2,0.1-4,2.6-4.4,7c0,0.3,0.2,0.6,0.5,0.6C372.6,160.5,372.6,160.5,372.7,160.5L372.7,160.5z"/>
						<path class="st11" d="M376.2,157.9c0.1,0,0.2-0.1,0.3-0.1c0.2-0.2,0.2-0.6,0-0.8c0,0-0.9-0.9-2.5-1.3
							c-0.3-0.1-0.6,0.1-0.7,0.4s0.1,0.6,0.4,0.7c1.2,0.3,1.9,0.9,1.9,1C375.8,157.9,376,158,376.2,157.9L376.2,157.9z"/>
					</g>
				</g>
			</g>
			<path class="st10" d="M382.1,194.4c-8.4,12.7-40.5,56.7-47.7,61.8c-9.4,6.6-35.1,16.1-49.9,26c-5,3.4,6.8,12.8,6.8,12.8
				s36-10.1,52.2-20.5c4.6-2.9,23.6-22,35.8-38.9c4.2-5.8,10.9-13.9,11.9-22.4C392.3,203.3,389.2,198,382.1,194.4L382.1,194.4z"/>
		</g>
		<g>
			<path class="st16" d="M218.5,296.3h100c1.3,0,2.3,1,2.3,2.3v8c0,1.3-1,2.3-2.3,2.3h-100c-1.3,0-2.3-1-2.3-2.3v-8
				C216.2,297.3,217.2,296.3,218.5,296.3L218.5,296.3z"/>
			<path class="st5" d="M216.2,308.9l-19.7-73.6c-1.1-4.1,2-8.2,6.3-8.2h43.3c2.9,0,5.5,1.9,6.3,4.8l21.6,77.1H216.2L216.2,308.9z"
				/>
			<path class="st16" d="M252.4,231.8l21.5,76.4h4.9l-21.5-76.4c-0.8-2.8-3.4-4.8-6.3-4.8h-4.9C249,227,251.6,229,252.4,231.8
				L252.4,231.8z"/>
			<path class="st17" d="M241.2,271.2c1.1,4.9-1.9,8.8-6.8,8.8s-9.7-3.9-10.8-8.8c-1.1-4.9,1.9-8.8,6.8-8.8S240.1,266.4,241.2,271.2
				z"/>
		</g>
	</g>
	<g>
		<g>
			<path class="st18" d="M375.3,37.6c-3.6,0-6.6-3-6.6-6.6s3-6.6,6.6-6.6s6.6,3,6.6,6.6S379,37.6,375.3,37.6z M375.3,26.5
				c-2.5,0-4.5,2-4.5,4.5s2,4.5,4.5,4.5s4.5-2,4.5-4.5S377.8,26.5,375.3,26.5z"/>
			<path class="st18" d="M399.1,60.8c-3.6,0-6.6-3-6.6-6.6s3-6.6,6.6-6.6s6.6,3,6.6,6.6S402.7,60.8,399.1,60.8z M399.1,49.7
				c-2.5,0-4.5,2-4.5,4.5s2,4.5,4.5,4.5s4.5-2,4.5-4.5S401.6,49.7,399.1,49.7z"/>
			<g>
				<g>
					<path class="st18" d="M407.3,82.3c-0.6,0-1-0.5-1-1v-4.6c0-0.6,0.5-1,1-1s1,0.5,1,1v4.6C408.3,81.8,407.8,82.3,407.3,82.3z"/>
					<path class="st18" d="M407.3,90.2c-0.6,0-1-0.5-1-1v-4.6c0-0.6,0.5-1,1-1s1,0.5,1,1v4.6C408.3,89.8,407.8,90.2,407.3,90.2z"/>
				</g>
				<g>
					<path class="st18" d="M413.7,84h-4.1c-0.6,0-1-0.5-1-1s0.5-1,1-1h4.1c0.6,0,1,0.5,1,1S414.3,84,413.7,84z"/>
					<path class="st18" d="M405,84h-4.1c-0.6,0-1-0.5-1-1s0.5-1,1-1h4.1c0.6,0,1,0.5,1,1S405.5,84,405,84z"/>
				</g>
			</g>
			<g>
				<g>
					<path class="st18" d="M370.8,56.7c-0.6,0-1-0.5-1-1V51c0-0.6,0.5-1,1-1s1,0.5,1,1v4.6C371.8,56.2,371.4,56.7,370.8,56.7z"/>
					<path class="st18" d="M370.8,64.7c-0.6,0-1-0.5-1-1v-4.6c0-0.6,0.5-1,1-1s1,0.5,1,1v4.6C371.8,64.2,371.4,64.7,370.8,64.7z"/>
				</g>
				<g>
					<path class="st18" d="M377.2,58.4h-4.1c-0.6,0-1-0.5-1-1s0.5-1,1-1h4.1c0.6,0,1,0.5,1,1S377.8,58.4,377.2,58.4z"/>
					<path class="st18" d="M368.5,58.4h-4.1c-0.6,0-1-0.5-1-1s0.5-1,1-1h4.1c0.6,0,1,0.5,1,1S369.1,58.4,368.5,58.4z"/>
				</g>
			</g>
		</g>
		<g>
			<path class="st18" d="M68.9,7.3c0-3.6,3-6.6,6.6-6.6s6.6,3,6.6,6.6s-3,6.6-6.6,6.6S68.9,11,68.9,7.3z M70.9,7.3
				c0,2.5,2,4.5,4.5,4.5s4.5-2,4.5-4.5s-2-4.5-4.5-4.5S70.9,4.8,70.9,7.3z"/>
			<path class="st18" d="M42.4,32.5c0-3.6,3-6.6,6.6-6.6s6.6,3,6.6,6.6s-3,6.6-6.6,6.6S42.4,36.1,42.4,32.5z M44.4,32.5
				c0,2.5,2,4.5,4.5,4.5s4.5-2,4.5-4.5S51.5,28,49,28S44.4,30,44.4,32.5z"/>
			<g>
				<g>
					<path class="st18" d="M28.6,41.8c0.6,0,1-0.5,1-1v-4.6c0-0.6-0.5-1-1-1s-1,0.5-1,1v4.6C27.6,41.3,28,41.8,28.6,41.8z"/>
					<path class="st18" d="M28.6,49.8c0.6,0,1-0.5,1-1v-4.6c0-0.6-0.5-1-1-1s-1,0.5-1,1v4.6C27.6,49.3,28,49.8,28.6,49.8z"/>
				</g>
				<g>
					<path class="st18" d="M22.2,43.5h4.1c0.6,0,1-0.5,1-1s-0.5-1-1-1h-4.1c-0.6,0-1,0.5-1,1S21.6,43.5,22.2,43.5z"/>
					<path class="st18" d="M30.9,43.5H35c0.6,0,1-0.5,1-1s-0.5-1-1-1h-4.1c-0.6,0-1,0.5-1,1S30.4,43.5,30.9,43.5z"/>
				</g>
			</g>
			<g>
				<g>
					<path class="st18" d="M52.5,6.6c0.6,0,1-0.5,1-1V1c0-0.6-0.5-1-1-1s-1,0.5-1,1v4.6C51.5,6.2,51.9,6.6,52.5,6.6z"/>
					<path class="st18" d="M52.5,14.6c0.6,0,1-0.5,1-1V9c0-0.6-0.5-1-1-1s-1,0.5-1,1v4.6C51.5,14.2,51.9,14.6,52.5,14.6z"/>
				</g>
				<g>
					<path class="st18" d="M46.1,8.4h4.1c0.6,0,1-0.5,1-1s-0.5-1-1-1h-4.1c-0.6,0-1,0.5-1,1S45.5,8.4,46.1,8.4z"/>
					<path class="st18" d="M54.8,8.4h4.1c0.6,0,1-0.5,1-1s-0.5-1-1-1h-4.1c-0.6,0-1,0.5-1,1S54.2,8.4,54.8,8.4z"/>
				</g>
			</g>
		</g>
		<g>
			<path class="st18" d="M323.6,14.3v20.1c0,2.7-2.2,4.8-4.8,4.8h-36.5l-11,4c-1.1,0.4-2.2-0.7-1.8-1.8l4.2-10.8V14.3
				c0-2.7,2.2-4.8,4.8-4.8h40.3C321.5,9.5,323.6,11.7,323.6,14.3L323.6,14.3z"/>
			<g class="st19">
				<path class="st8" d="M315.9,20h-33.5c-0.7,0-1.3-0.6-1.3-1.3l0,0c0-0.7,0.6-1.3,1.3-1.3h33.5c0.7,0,1.3,0.6,1.3,1.3l0,0
					C317.2,19.4,316.6,20,315.9,20z"/>
				<path class="st8" d="M315.9,25.4h-33.5c-0.7,0-1.3-0.6-1.3-1.3l0,0c0-0.7,0.6-1.3,1.3-1.3h33.5c0.7,0,1.3,0.6,1.3,1.3l0,0
					C317.2,24.8,316.6,25.4,315.9,25.4z"/>
				<path class="st8" d="M315.9,30.7h-33.5c-0.7,0-1.3-0.6-1.3-1.3l0,0c0-0.7,0.6-1.3,1.3-1.3h33.5c0.7,0,1.3,0.6,1.3,1.3l0,0
					C317.2,30.1,316.6,30.7,315.9,30.7z"/>
			</g>
		</g>
	</g>
	<g>
		<path class="st13" d="M34.4,308.9h389.4c4.1,0,7.5,3.4,7.5,7.5v0.7c0,4.1-3.4,7.5-7.5,7.5H34.4c-4.1,0-7.5-3.4-7.5-7.5v-0.7
			C26.9,312.2,30.2,308.9,34.4,308.9z"/>
		<path class="st13" d="M431.3,316.4v0.4H26.9v-0.4c0-4.1,3.4-7.5,7.5-7.5h389.4C427.9,308.9,431.3,312.2,431.3,316.4L431.3,316.4z"
			/>
	</g>
</g>
</svg>
