<?xml version="1.0" encoding="UTF-8"?><svg id="Layer_2" xmlns="http://www.w3.org/2000/svg" viewBox="0 0 106.28 58.32"><defs><style>.cls-1{opacity:.13;}.cls-2{fill:#fff;}.cls-3{fill:#3ecc99;}.cls-4{fill:#acd4f7;}</style></defs><g id="Layer_2-2"><g id="Layer_2-2"><g><path class="cls-2" d="M21.86,13.4c-3.86,10.8-7.73,21.61-10.35,32.95,1.99,.67,4.07,1.07,6.17,1.18,.79-2.78,1.59-5.56,2.38-8.34,0,0-.12-.09-.27-.12,1.59,.31,3.02,1.17,4.23,2.24s2.21,2.35,3.33,3.83c-.12,1.57,1.04,3.08,2.52,3.61,1.48,.54,3.19,.21,4.57-.72-.14,.69-.14,1.41,0,2.1,.06,.3,.14,.6,.29,.87,.3,.57,.82,1,1.39,1.29,.97,.5,2.11,.66,3.27,.46-.12,1.31,.87,2.56,2.11,3.01,1.24,.46,2.64,.24,3.92-.24,.2,.45,.41,.92,.78,1.25,.41,.37,.97,.54,1.53,.6,1.32,.15,2.7-.22,3.94-.96,1.36,.74,3.08,.77,4.46,.07,.36-.18,.71-.41,.98-.71,.56-.6,.81-1.43,.86-2.25s-.09-1.64-.14-2.47c.68,.8,1.4,1.58,2.29,2.13s1.99,.84,3,.57c.84-.23,1.55-.83,2.02-1.57,.46-.74,.7-1.6,.77-2.59,.34,.56,.71,1.09,1.11,1.6,.38,.48,.79,.95,1.29,1.29,.51,.34,1.12,.56,1.73,.49,.94-.11,1.7-.87,2.08-1.74s.43-1.84,.49-2.78c.03-.55,.06-1.09,.04-1.65,.49,.93,.99,1.87,1.65,2.7s1.49,1.54,2.49,1.9c.25,.09,.5,.15,.75,.22,.41,.1,.88,.19,1.22-.05,.28-.19,.39-.55,.43-.88,.04-.34,.02-.68,.21-1.02,3.78-1.42,7.51-3.01,11.11-4.71,.36,1.33,.76,2.64,1.3,3.91,2.7-.63,5.32-1.59,7.74-2.84,2.14-.82,4.24-1.73,6.15-2.93-.31-10.69-2.13-21.53-7.02-31.04-.31-.6-.63-1.19-1.12-1.7-5.36,1.87-10.59,4.14-15.61,6.8,.14,.27,.28,.54,.27,.85-5.2,.37-10.29-1.39-15.21-3.13-1.56-.55-3.14-1.11-4.79-1.22-1.47-.1-2.93,.16-4.57,.3-1.74-1.06-3.69-1.73-5.65-2.27-1.19-.33-2.4-.62-3.63-.6-1.13,.01-2.24,.28-3.32,.6-5.82,1.7-11.27,4.85-17.32,5.41,.05-.41,.1-.81,.14-1.22,.03-.22,.04-.47-.08-.64-1.96-.79-3.95-1.6-5.95-1.81l.02-.03Z"/><path d="M102.89,42.84s-.04,0-.06,0l-5.33-2.01c-.08-.03-.13-.13-.1-.21,.03-.09,.13-.13,.21-.1l5.33,2.01c.08,.03,.13,.13,.1,.21-.02,.07-.09,.11-.15,.11Z"/><path d="M104.7,40.84h-.05c-2.93-1-5.84-2.18-8.64-3.51-.08-.04-.12-.14-.08-.22s.14-.12,.22-.08c2.79,1.32,5.68,2.5,8.61,3.49,.09,.03,.13,.12,.1,.21-.02,.07-.09,.11-.16,.11Z"/><path d="M105.15,37.7h-.05c-3.26-1.07-6.52-2.28-9.68-3.62-.08-.04-.12-.13-.09-.21,.04-.08,.13-.12,.21-.09,3.15,1.33,6.4,2.54,9.65,3.61,.09,.03,.13,.12,.1,.21-.02,.07-.09,.11-.16,.11h.02Z"/><path d="M105.15,34.68s-.04,0-.06,0c-3.8-1.43-6.74-2.65-10.79-4.36-.08-.04-.12-.13-.09-.21,.04-.08,.13-.12,.21-.09,4.05,1.71,6.99,2.93,10.78,4.36,.08,.03,.13,.13,.1,.21-.02,.07-.09,.11-.15,.11h0Z"/><path d="M104.21,31.27s-.04,0-.06-.01l-10.89-4.44c-.08-.03-.12-.13-.09-.21,.03-.08,.13-.12,.21-.09l10.89,4.44c.08,.03,.12,.13,.09,.21-.03,.06-.09,.1-.15,.1Z"/><path d="M103.85,28.01s-.04,0-.07-.01l-11.82-5.24c-.08-.04-.12-.13-.08-.22,.04-.08,.13-.12,.22-.08l11.82,5.24c.08,.04,.12,.13,.08,.22-.03,.06-.09,.1-.15,.1h0Z"/><path d="M102.7,23.91s-.05,0-.07-.01l-11.93-5.36c-.08-.04-.12-.13-.08-.22s.13-.12,.22-.08l11.93,5.36c.08,.04,.12,.13,.08,.22-.03,.06-.09,.1-.15,.1h0Z"/><path d="M100.02,18.55s-.04,0-.06-.01c-2.96-1.14-5.99-2.24-8.99-3.26-.09-.03-.13-.12-.1-.21s.12-.13,.21-.1c3,1.03,6.03,2.13,9,3.27,.08,.03,.13,.13,.09,.21-.02,.06-.09,.1-.15,.1Z"/><path d="M99.78,14.78s-.04,0-.06-.01l-4.26-1.78c-.08-.03-.12-.13-.09-.21,.03-.08,.13-.12,.21-.09l4.26,1.78c.08,.03,.12,.13,.09,.21-.03,.06-.09,.1-.15,.1Z"/><path class="cls-4" d="M9.5,9.42c4.21,1.41,8.46,2.7,12.52,3.91-.67,2.81-2.37,5.24-3.52,7.88-.61,1.4-1.06,2.87-1.51,4.33-2.09,6.86-4.09,13.75-6.01,20.65-3.75-1.29-6.67-1.94-10.69-2.66C4,32,7.34,20.93,9.49,9.41h.01Z"/><g class="cls-1"><path d="M88.99,43.52c-.66,.19-1.3,.43-1.93,.69-.14,0-.29,0-.43,.04-.32,.06-.62,.18-.92,.3-.33,.11-.65,.22-.97,.36-.13,.05-.51,.2-.66,.23-.05,0-.08,.03-.11,.04-.1,.03-.19,.06-.29,.09h-.17c-.06,0-.13-.03-.19-.05h0c-.14-.13-.26-.27-.38-.41-.16-.2,.02,.03,.08,.1-.1-.14-.22-.28-.34-.41-.04-.04-.06-.08-.09-.11-.11-.15-.21-.31-.31-.47-.42-.63-.79-1.3-1.14-1.97-.74-1.43-1.42-2.89-2.2-4.29-.46-.96-.84-1.95-1.42-2.84-1.64-2.5-3.23-4.46-5.68-6.65-1.55-1.57-3.33-2.91-5.24-3.99-1.3-.72-2.65-1.43-4.16-1.53-1.05-.24-1.31,1.32-.22,1.39,.99,.05,2.04,.5,3.18,1.15-.11,.26-.08,.56,.18,.83,1.05,.91,2.26,1.61,3.35,2.47-.05-.03,.56,.48,.68,.61,.13,.12,.25,.25,.37,.38-.1,.09-.16,.22-.16,.37,.07,.45,.58,.99,.81,1.41,1.2,1.83,2.61,3.53,3.63,5.47,1.35,2.66,2.33,5.31,2.78,8.88,.23,1.12,.37,3.17,0,3.75-.03,.04-.06,.07-.1,.1l-.07,.04s-.09,.03-.14,.05c-.02,0-.05,.02-.07,.02h-.31s-.07,0-.11-.02c-.41-.1-.19,0-.8-.34-.94-.53-1.75,.86-.83,1.42,2.33,1.67,3.96,1.08,4.42-1.19,.23-1.37,.08-2.77-.16-4.13,.07,.21,.14,.41,.21,.62,.13,.81,.25,1.57,.35,2.26-.02,.02-.04,.04-.05,.06-.26,.42-.07,.94,.3,1.18,.17,.26,.52,.39,.82,.3,.26-.08,.41-.24,.48-.44,2.54-1,5.06-2.07,7.4-3.49,.55-.34,.55-.37,1.01-.56,.24-.1,.52-.23,.66-.45,.11-.08,.22-.17,.3-.3,.43-.9-.64-1.35-1.35-.97h-.01Z"/></g><g class="cls-1"><path d="M105.24,40.9c-.14,0-.26,.04-.38,.09-.59,.18-1.12,.55-1.7,.76-1.03,.5-1.43,.59-2.81,1.25-2.37,1.26-6.31,2.5-8.43,3.39-1.39,.42-.83,2.48,.59,2.14,2.22-.72,4.32-1.76,6.47-2.67,1.13-.52,3.28-1.3,5.07-2.17,.83-.44,1.87-.95,1.97-1.21,.52-.59,0-1.6-.77-1.57h-.01Z"/></g><g><g class="cls-1"><path d="M26.63,18.03c-.9,3.26-2.49,5.67-3.66,9.26-.71,2.1-1.24,4.24-1.65,6.41-.26,.96-.45,1.94-.65,2.91-.15,.86-.4,1.75-.25,2.62,.22,.85,1.16,1.26,1.93,.99,.49,.51,1,.99,1.52,1.47v-.07c-.04-.96-.03-1.92,.03-2.88-.2-.67-.28-1.12-.32-1.67,.2-1.06,.45-2.11,.58-3.19,.51-3.46,1.49-6.82,2.61-10.13,.34-.99,.6-2,1.03-2.95,.3-.86,.8-1.73,.8-2.65-.1-1.07-1.71-1.18-1.97-.13h0Z"/></g><g class="cls-1"><path d="M27.65,44.48c-.05,.21-.26,.37-.48,.36,.17,.09,.36,.14,.57,.08,.32-.08,.53-.4,.51-.72-.2,.1-.4,.19-.6,.28Z"/></g><g class="cls-1"><path d="M20.42,39.24l-.05-.39c0,.14,.02,.27,.05,.39Z"/></g></g><g class="cls-1"><path d="M33.62,47.13c-.38,.26-.9,.18-1.89,.16-.66-.06-1.5,0-2.24-.25-.48-.11-.94-.48-1.45-.42-.95,.08-1.04,1.51-.12,1.74,.67,.26,1.34,.49,2.04,.64,.59,.14,1.19,.27,1.79,.13,.74-.16,1.45-.47,2.12-.83,.27-.17,.64-.31,.74-.64,.15-.6-.56-.9-.99-.52h0Z"/></g><g class="cls-1"><path d="M43.7,48.42c-.33,.11-.4,.29-.92,.56-1.04,.56-1.48,.67-2.86,.94-1.31,.34-1.2,.27-2.65,.36-.45,.02-.91,0-1.36-.06-.3-.05-.59-.17-.89-.11-1.19,.12-1.3,1.88-.15,2.18,2.94,.85,5.36,0,7.44-1.26,.63-.38,1.25-.77,1.79-1.28,.29-.33,.37-.27,.43-.72,0-.42-.42-.74-.82-.63v.02Z"/></g><g class="cls-1"><path d="M56.04,54.47c-.62,.09-.46,.16-.79,.26-.26,.07-.29,.19-1.22,.41-.63,.11-.61,.11-.78,.12,.12-.16,.18-.37,.13-.56-.03-.4-.41-.71-.8-.71-.48,.03-.85,.43-1.29,.6-.92,.41-.7,.34-1.97,.77-1.15,.33-1.75,.29-2.19,.32-.42,0-.83-.29-1.22-.33,.77-.3,1.51-.71,2.21-1.15,.8-.49,1.52-1.1,2.18-1.76,.15-.13,.24-.32,.24-.51,0-.24-.13-.45-.33-.58-.25-.15-.6-.11-.81,.1,.04-.03,.16-.12,.09-.08-.33,.2-.66,.41-.99,.6-1.92,1.23-4.45,1.96-6.1,2.21-.39,.04-.78,.09-1.17,.05h-.11c-.3-.04-.59-.19-.89-.15-.71,.06-.78,1.13-.09,1.3,.62,.22,1.25,.43,1.91,.49,.69,.08,1.39-.02,2.08-.1,.37-.03,.74-.1,1.09-.2-.33,.36-.32,1.04,.18,1.31,1.79,.9,3.72,.72,5.5-.09,.33-.13,.64-.29,.94-.46,0,.54,.43,1.08,1.04,1.06,1.11-.14,2.32-.21,3.26-.88,.28-.21,.65-.4,.77-.75,.29-.59-.22-1.32-.86-1.3h0Z"/></g><g class="cls-1"><path d="M65.05,50.32c-.69,.35-.52,.42-.96,.69-.66,.46-.57,.41-1.53,.65-.78,.13-.31,.11-.99,.12-.08,0-.16,0-.24-.02s-.19-.04-.28-.06c-.57-.09-1.17-.52-1.73-.18-.74,.4-.58,1.59,.23,1.79,.75,.22,1.52,.44,2.31,.39,.94-.07,1.86-.41,2.64-.93,.38-.27,.74-.56,1.08-.87,.25-.2,.5-.46,.49-.8,.01-.53-.53-.93-1.04-.79h.02Z"/></g><g class="cls-1"><path d="M72.8,47.61c0-.41-.27-.81-.68-.92h-.07c0-.77,.02-1.56-.18-2.31-.29-1.18-.93-2.21-1.46-3.29-.49-1.14-1.12-2.23-1.94-3.16-.35-.3-.93,0-.92,.45,.03,.39,.39,.67,.57,1,1,1.47,1.34,2.56,1.82,4.32,.59,1.84,.69,2.74,.52,4.64v.06c-.02,.09-.04,.17-.06,.26,0,.04-.03,.11-.05,.18-.1,.16-.2,.31-.31,.46-.13,.16-.41,.48-.56,.62-.03,.02-.07,.04-.1,.06-.3,.03-.53,.02-1.34-.25-.23-.09-.28-.11-.02,0-.41-.14-.78-.42-1.2-.5-.96-.17-1.42,1.21-.58,1.68,.3,.15,.63,.3,.91,.43,.06,.31,.23,.6,.54,.77,.07,.04,.14,.07,.22,.1,.03,.38,.25,.75,.74,.89,.41,.11,.83,.22,1.26,.13,.15-.03,.44-.15,.48-.17,.42-.18,.86-.44,1.05-.87,.1-.22,.11-.44,.05-.63,.16-.16,.25-.38,.27-.61,.42-.55,.72-1.2,.88-1.86,.09-.46,.15-.94,.16-1.41v-.08h0Z"/></g><path d="M17.37,48.07h-.09c-3.03-.55-6.17-1.12-9.26-1.97-1.2-.4-2.35-.66-3.58-.94-1.33-.3-2.71-.62-4.11-1.11-.26-.09-.39-.37-.3-.63,.09-.26,.37-.39,.63-.3,1.35,.47,2.7,.78,4.01,1.08,1.19,.27,2.43,.55,3.64,.96,2.87,.78,5.83,1.33,8.7,1.86,1.24-5.02,2.92-9.91,4.56-14.65,.97-2.82,1.97-5.73,2.89-8.68,0-.01,0-.02,.01-.04,.31-.76,.63-1.51,.95-2.24,.86-1.96,1.68-3.82,2.08-5.97-.01-.02-.05-.05-.07-.06-.06,0-.11,0-.17-.03-2.68-1.02-5.49-1.77-8.21-2.49-3.21-.85-6.53-1.73-9.76-3.09-.25-.11-.37-.39-.26-.64s.39-.37,.64-.26c3.16,1.33,6.45,2.2,9.63,3.05,2.72,.72,5.53,1.47,8.24,2.49,.51,.06,.94,.53,.94,1.04v.09c-.42,2.3-1.3,4.32-2.16,6.27-.31,.71-.64,1.45-.93,2.19-.92,2.95-1.92,5.87-2.89,8.69-1.75,5.08-3.4,9.89-4.64,15.01-.05,.22-.25,.38-.48,.38h-.01Z"/><path d="M11.15,46.5s-.08,0-.12,0c-.26-.07-.42-.33-.36-.6,2.82-11.27,6.8-23.24,10.91-32.86,.11-.25,.4-.37,.65-.26s.37,.4,.26,.65c-4.09,9.57-8.05,21.49-10.86,32.71-.06,.22-.26,.37-.48,.37Z"/><path d="M91.74,49.5c-.08,0-.15-.02-.22-.05-.12-.06-.21-.17-.25-.3-1.95-6.73-4.02-13.45-6.21-20.56-1.13-3.68-2.3-7.48-3.47-11.32-.07-.22,.03-.46,.24-.58,4.98-2.7,10.22-5,15.57-6.85,.26-.09,.54,.05,.63,.3,.09,.26-.05,.54-.3,.63-5.17,1.79-10.24,4.01-15.07,6.6,1.13,3.71,2.26,7.38,3.35,10.93,2.14,6.94,4.16,13.51,6.07,20.07,4.57-1.63,9.11-3.5,13.51-5.55,.25-.12,.54,0,.65,.24,.11,.25,0,.54-.24,.65-4.58,2.14-9.32,4.08-14.09,5.76-.05,.02-.11,.03-.16,.03h0Z"/><path d="M97.65,46.93c-.22,0-.42-.15-.47-.37-2.87-10.8-6.14-21.63-9.72-32.21-.09-.26,.05-.54,.31-.62,.26-.09,.54,.05,.62,.31,3.59,10.6,6.87,21.46,9.74,32.27,.07,.26-.09,.53-.35,.6-.04,0-.08,.02-.13,.02Z"/><path d="M43.24,32.3c-1.13,0-2.45-.49-3.05-1.64-1.06-2.05,.93-4.36,1.58-5.12,2.7-3.13,5.49-6.36,8.96-8.8,3.91-2.75,8.19-4,12.04-3.51,1.97,.25,3.85,.94,5.66,1.62,.58,.22,1.19,.44,1.78,.64,3.78,1.29,7.72,1.98,11.72,2.04,.27,0,.49,.23,.48,.5,0,.27-.22,.5-.5,.48-4.1-.06-8.15-.76-12.02-2.09-.61-.21-1.22-.43-1.81-.65-1.76-.65-3.58-1.33-5.44-1.56-3.61-.46-7.64,.73-11.35,3.34-3.37,2.37-6.12,5.56-8.78,8.64-1.49,1.72-1.96,3.04-1.45,4.02,.43,.83,1.49,1.15,2.34,1.1,.98-.06,1.9-.49,2.92-1,.68-.34,1.35-.68,2.03-1.01,4.13-2.06,8.04-4,11.75-6.61,.22-.16,.53-.1,.69,.12,.16,.22,.1,.53-.12,.69-3.77,2.66-7.71,4.61-11.87,6.69-.67,.34-1.35,.67-2.03,1.01-1.07,.54-2.14,1.03-3.3,1.1h-.23Z"/><path d="M79.6,50.21c-.19,0-.38-.11-.45-.3-.1-.25,.02-.54,.27-.64,3.53-1.46,7.1-2.97,10.61-4.5,.25-.11,.54,0,.65,.25s0,.54-.25,.65c-3.51,1.53-7.09,3.05-10.63,4.51-.06,.03-.12,.04-.19,.04h-.01Z"/><path d="M78.23,52.18c-.1,0-.2,0-.28-.02-1.63-.17-3.24-1.26-4.41-2.97-.75-1.1-1.27-2.32-1.77-3.51-.16-.37-.32-.75-.48-1.12-1.33-2.99-3.14-5.72-5.36-8.12-.18-.2-.17-.51,.03-.69s.51-.17,.69,.03c2.3,2.48,4.16,5.3,5.54,8.38,.17,.38,.33,.75,.49,1.13,.5,1.19,.98,2.32,1.67,3.34,1,1.47,2.35,2.4,3.7,2.55,.08,0,.31,.03,.42-.03,.12-.08,.18-.34,.17-.77-.18-5.7-2.05-11.43-5.28-16.13-3.23-4.7-7.9-8.51-13.15-10.72-.25-.11-.37-.39-.26-.64s.39-.37,.64-.26c5.43,2.29,10.25,6.22,13.58,11.07s5.27,10.77,5.45,16.65c.01,.33,.04,1.21-.62,1.63-.25,.16-.52,.2-.76,.2h0Z"/><path d="M53.68,57.57c-.68,0-1.57-.11-2.53-.81-.22-.16-.27-.47-.11-.69,.16-.22,.47-.27,.69-.11,.92,.67,1.68,.64,2.36,.61h.07c1.02-.04,2.12-.56,2.73-1.3,.27-.32,.57-.82,.48-1.43v-.07c0-1.05-.14-2.11-.27-2.93-.03-.21,.08-.43,.27-.52,.2-.09,.43-.05,.58,.11,.74,.82,1.51,1.67,2.45,2.23,.98,.59,2.07,.75,2.91,.44,1.16-.42,2.34-2.44,2.08-3.53-.06-.26,.1-.53,.36-.59s.53,.1,.59,.36c.41,1.72-1.2,4.13-2.7,4.68-1.13,.41-2.5,.22-3.75-.52-.61-.36-1.14-.82-1.63-1.3,.05,.49,.08,1.01,.08,1.52,.09,.75-.15,1.5-.71,2.16-.79,.95-2.15,1.59-3.44,1.64h-.07c-.14,0-.29,.02-.46,.02l.02,.03Z"/><path d="M69.85,53.55c-.41,0-.8-.11-1.16-.25-1.86-.72-2.84-2.75-3.8-4.7-.66-1.36-1.34-2.76-2.28-3.59-.2-.18-.22-.49-.04-.69,.18-.2,.49-.22,.69-.04,1.08,.96,1.8,2.45,2.51,3.89,.91,1.87,1.77,3.64,3.27,4.22,.64,.25,1.44,.56,2.51-1.24,.29-.49,.37-1.11,.41-1.71,.11-1.53-.3-3.11-.7-4.64-.06-.23-.12-.47-.18-.7-.07-.26,.09-.53,.36-.6,.26-.07,.53,.09,.6,.36l.18,.69c.42,1.6,.85,3.26,.73,4.96-.05,.72-.15,1.48-.55,2.14-.87,1.47-1.74,1.91-2.55,1.91h0Z"/><path d="M37.89,53.25h-.13c-1.84-.04-3.43-1.14-3.88-2.66-.17-.58-.16-1.16-.09-1.72-1,.62-2.25,.88-3.44,.67-1.83-.33-3.36-1.83-3.65-3.56-.12-.72,.11-1.12,.32-1.32,.19-.19,.5-.19,.7,0,.19,.19,.19,.5,0,.7-.05,.05-.08,.19-.04,.46,.22,1.34,1.42,2.5,2.85,2.76,1.4,.25,2.89-.31,3.71-1.39,.13-.18,.37-.24,.57-.16,.18-.1,.34-.16,.45-.2,1.97-.77,4.03-1.24,6.13-1.4,1.69-.13,2.82,.28,3.34,1.21,.25,.45,.34,1,.26,1.63-.1,.81-.45,1.6-.99,2.22-.52,.6-1.19,1.02-1.83,1.39-1.14,.65-2.64,1.39-4.28,1.39v-.02Zm-2.93-5.16c-.22,.83-.33,1.55-.14,2.22,.36,1.25,1.76,1.93,2.96,1.95,1.44,.04,2.84-.65,3.9-1.26,.57-.32,1.15-.69,1.58-1.18,.41-.47,.68-1.08,.76-1.7,.04-.29,.04-.71-.14-1.03-.4-.71-1.53-.78-2.41-.72-2.01,.15-3.98,.61-5.85,1.34-.31,.12-.53,.24-.65,.37h-.01Z"/><path d="M42.71,56.57c-.77,0-1.49-.18-2.1-.54-1.19-.7-1.91-2.1-1.79-3.48,.02-.27,.26-.47,.53-.45s.47,.26,.45,.53c-.09,.99,.45,2.04,1.31,2.55,.83,.49,1.96,.54,3.11,.13,1.07-.38,2.01-1.08,2.95-1.81,1.34-1.05,2.61-2.23,2.72-3.71,0-.09,0-.22-.02-.29s-.12-.15-.27-.24c-.71-.43-1.67-.53-2.7-.3-.91,.21-1.66,.59-2.52,1.04l-.15,.08c-.24,.12-.54,.03-.66-.21-.12-.24-.03-.54,.21-.66l.15-.08c.88-.46,1.72-.89,2.76-1.12,1.28-.29,2.5-.14,3.43,.41,.21,.13,.52,.34,.67,.7,.12,.27,.11,.55,.1,.76-.14,1.86-1.57,3.22-3.09,4.41-.97,.76-2.02,1.54-3.23,1.97-.62,.22-1.24,.33-1.84,.33l-.02-.02Z"/><path d="M48.44,57.97c-.7,0-1.4-.16-2.03-.47-.73-.36-1.49-1.09-1.43-2.04,.02-.27,.25-.48,.52-.46s.48,.25,.46,.52c-.03,.47,.46,.88,.89,1.1,.67,.33,1.44,.45,2.18,.32,1.17-.2,2.18-.97,3.02-1.69,.94-.82,1.35-1.49,1.27-2.13-.09-.74-.9-1.24-1.6-1.28-.7-.04-1.42,.25-2.26,.91-.21,.17-.52,.13-.69-.08-.17-.21-.13-.52,.08-.69,.65-.51,1.67-1.18,2.92-1.11,1.12,.06,2.36,.88,2.52,2.14,.16,1.3-.84,2.33-1.6,2.99-.88,.77-2.08,1.67-3.5,1.91-.25,.04-.5,.06-.75,.06Z"/><path d="M34.68,47.64c-.23,0-.44-.17-.48-.41-.17-1.01-1.28-1.61-1.92-1.88-1.88-.79-3.51-.77-4.85,.08-.22,.14-.51,.08-.66-.13-1.88-2.61-4.22-4.54-6.97-5.73-.25-.11-.36-.4-.25-.65s.4-.36,.65-.25c2.78,1.21,5.17,3.13,7.11,5.7,1.54-.8,3.34-.77,5.36,.08,1.43,.6,2.32,1.53,2.51,2.62,.05,.27-.13,.52-.4,.57h-.1Z"/><path d="M27.57,17.7c-.22,0-.43-.15-.48-.38-.06-.26,.1-.53,.37-.59,5.44-1.26,10.44-2.98,14.61-4.51l.37-.14c1.59-.58,3.23-1.18,4.96-1.38,3.98-.44,7.66,1.27,10.9,2.78,.25,.11,.35,.41,.24,.65-.11,.25-.41,.35-.65,.24-3.12-1.46-6.66-3.11-10.38-2.7-1.61,.18-3.2,.76-4.73,1.32l-.37,.14c-4.2,1.53-9.24,3.27-14.72,4.54-.04,0-.07,.01-.11,.01v.02Z"/><path d="M37.32,9.18c-.16,0-.32-.08-.42-.23-.15-.23-.08-.53,.15-.68,4.47-2.83,9.83-4.22,15.1-3.92,.27,.02,.48,.25,.46,.52s-.24,.48-.52,.46c-5.07-.29-10.23,1.05-14.52,3.77-.08,.05-.17,.08-.26,.08h0Z"/><path d="M34.24,4.38c-.16,0-.32-.08-.41-.22-.15-.23-.08-.53,.14-.68C36.61,1.76,39.64,.56,42.74,0c.27-.05,.52,.13,.57,.4s-.13,.52-.4,.57c-2.97,.52-5.88,1.67-8.41,3.31-.08,.05-.18,.08-.27,.08h.01Z"/><path d="M65.68,58.32c-.26,0-.48-.21-.49-.48,0-.27,.2-.5,.48-.51,2.86-.09,5.66-1.14,7.87-2.96,.21-.17,.52-.14,.69,.07,.17,.21,.14,.52-.07,.69-2.38,1.95-5.38,3.08-8.46,3.18h-.02Z"/><path d="M102.89,42.84s-.04,0-.06,0l-5.33-2.01c-.08-.03-.13-.13-.1-.21,.03-.09,.13-.13,.21-.1l5.33,2.01c.08,.03,.13,.13,.1,.21-.02,.07-.09,.11-.15,.11Z"/><path d="M104.7,40.84h-.05c-2.93-1-5.84-2.18-8.64-3.51-.08-.04-.12-.14-.08-.22s.14-.12,.22-.08c2.79,1.32,5.68,2.5,8.61,3.49,.09,.03,.13,.12,.1,.21-.02,.07-.09,.11-.16,.11Z"/><path d="M105.15,37.7h-.05c-3.26-1.07-6.52-2.28-9.68-3.62-.08-.04-.12-.13-.09-.21,.04-.08,.13-.12,.21-.09,3.15,1.33,6.4,2.54,9.65,3.61,.09,.03,.13,.12,.1,.21-.02,.07-.09,.11-.16,.11h.02Z"/><path d="M105.15,34.68s-.04,0-.06,0c-3.8-1.43-6.74-2.65-10.79-4.36-.08-.04-.12-.13-.09-.21,.04-.08,.13-.12,.21-.09,4.05,1.71,6.99,2.93,10.78,4.36,.08,.03,.13,.13,.1,.21-.02,.07-.09,.11-.15,.11h0Z"/><path d="M104.21,31.27s-.04,0-.06-.01l-10.89-4.44c-.08-.03-.12-.13-.09-.21,.03-.08,.13-.12,.21-.09l10.89,4.44c.08,.03,.12,.13,.09,.21-.03,.06-.09,.1-.15,.1Z"/><path d="M103.85,28.01s-.04,0-.07-.01l-11.82-5.24c-.08-.04-.12-.13-.08-.22,.04-.08,.13-.12,.22-.08l11.82,5.24c.08,.04,.12,.13,.08,.22-.03,.06-.09,.1-.15,.1h0Z"/><path d="M102.7,23.91s-.05,0-.07-.01l-11.93-5.36c-.08-.04-.12-.13-.08-.22s.13-.12,.22-.08l11.93,5.36c.08,.04,.12,.13,.08,.22-.03,.06-.09,.1-.15,.1h0Z"/><path d="M100.02,18.55s-.04,0-.06-.01c-2.96-1.14-5.99-2.24-8.99-3.26-.09-.03-.13-.12-.1-.21s.12-.13,.21-.1c3,1.03,6.03,2.13,9,3.27,.08,.03,.13,.13,.09,.21-.02,.06-.09,.1-.15,.1Z"/><path d="M99.78,14.78s-.04,0-.06-.01l-4.26-1.78c-.08-.03-.12-.13-.09-.21,.03-.08,.13-.12,.21-.09l4.26,1.78c.08,.03,.12,.13,.09,.21-.03,.06-.09,.1-.15,.1Z"/><path class="cls-3" d="M9.5,9.42c4.21,1.41,8.46,2.7,12.52,3.91-.67,2.81-2.37,5.24-3.52,7.88-.61,1.4-1.06,2.87-1.51,4.33-2.09,6.86-4.09,13.75-6.01,20.65-3.75-1.29-6.67-1.94-10.69-2.66C4,32,7.34,20.93,9.49,9.41h.01Z"/><g class="cls-1"><path d="M88.99,43.52c-.66,.19-1.3,.43-1.93,.69-.14,0-.29,0-.43,.04-.32,.06-.62,.18-.92,.3-.33,.11-.65,.22-.97,.36-.13,.05-.51,.2-.66,.23-.05,0-.08,.03-.11,.04-.1,.03-.19,.06-.29,.09h-.17c-.06,0-.13-.03-.19-.05h0c-.14-.13-.26-.27-.38-.41-.16-.2,.02,.03,.08,.1-.1-.14-.22-.28-.34-.41-.04-.04-.06-.08-.09-.11-.11-.15-.21-.31-.31-.47-.42-.63-.79-1.3-1.14-1.97-.74-1.43-1.42-2.89-2.2-4.29-.46-.96-.84-1.95-1.42-2.84-1.64-2.5-3.23-4.46-5.68-6.65-1.55-1.57-3.33-2.91-5.24-3.99-1.3-.72-2.65-1.43-4.16-1.53-1.05-.24-1.31,1.32-.22,1.39,.99,.05,2.04,.5,3.18,1.15-.11,.26-.08,.56,.18,.83,1.05,.91,2.26,1.61,3.35,2.47-.05-.03,.56,.48,.68,.61,.13,.12,.25,.25,.37,.38-.1,.09-.16,.22-.16,.37,.07,.45,.58,.99,.81,1.41,1.2,1.83,2.61,3.53,3.63,5.47,1.35,2.66,2.33,5.31,2.78,8.88,.23,1.12,.37,3.17,0,3.75-.03,.04-.06,.07-.1,.1l-.07,.04s-.09,.03-.14,.05c-.02,0-.05,.02-.07,.02h-.31s-.07,0-.11-.02c-.41-.1-.19,0-.8-.34-.94-.53-1.75,.86-.83,1.42,2.33,1.67,3.96,1.08,4.42-1.19,.23-1.37,.08-2.77-.16-4.13,.07,.21,.14,.41,.21,.62,.13,.81,.25,1.57,.35,2.26-.02,.02-.04,.04-.05,.06-.26,.42-.07,.94,.3,1.18,.17,.26,.52,.39,.82,.3,.26-.08,.41-.24,.48-.44,2.54-1,5.06-2.07,7.4-3.49,.55-.34,.55-.37,1.01-.56,.24-.1,.52-.23,.66-.45,.11-.08,.22-.17,.3-.3,.43-.9-.64-1.35-1.35-.97h-.01Z"/></g><g class="cls-1"><path d="M105.24,40.9c-.14,0-.26,.04-.38,.09-.59,.18-1.12,.55-1.7,.76-1.03,.5-1.43,.59-2.81,1.25-2.37,1.26-6.31,2.5-8.43,3.39-1.39,.42-.83,2.48,.59,2.14,2.22-.72,4.32-1.76,6.47-2.67,1.13-.52,3.28-1.3,5.07-2.17,.83-.44,1.87-.95,1.97-1.21,.52-.59,0-1.6-.77-1.57h-.01Z"/></g><g><g class="cls-1"><path d="M26.63,18.03c-.9,3.26-2.49,5.67-3.66,9.26-.71,2.1-1.24,4.24-1.65,6.41-.26,.96-.45,1.94-.65,2.91-.15,.86-.4,1.75-.25,2.62,.22,.85,1.16,1.26,1.93,.99,.49,.51,1,.99,1.52,1.47v-.07c-.04-.96-.03-1.92,.03-2.88-.2-.67-.28-1.12-.32-1.67,.2-1.06,.45-2.11,.58-3.19,.51-3.46,1.49-6.82,2.61-10.13,.34-.99,.6-2,1.03-2.95,.3-.86,.8-1.73,.8-2.65-.1-1.07-1.71-1.18-1.97-.13h0Z"/></g><g class="cls-1"><path d="M27.65,44.48c-.05,.21-.26,.37-.48,.36,.17,.09,.36,.14,.57,.08,.32-.08,.53-.4,.51-.72-.2,.1-.4,.19-.6,.28Z"/></g><g class="cls-1"><path d="M20.42,39.24l-.05-.39c0,.14,.02,.27,.05,.39Z"/></g></g><g class="cls-1"><path d="M33.62,47.13c-.38,.26-.9,.18-1.89,.16-.66-.06-1.5,0-2.24-.25-.48-.11-.94-.48-1.45-.42-.95,.08-1.04,1.51-.12,1.74,.67,.26,1.34,.49,2.04,.64,.59,.14,1.19,.27,1.79,.13,.74-.16,1.45-.47,2.12-.83,.27-.17,.64-.31,.74-.64,.15-.6-.56-.9-.99-.52h0Z"/></g><g class="cls-1"><path d="M43.7,48.42c-.33,.11-.4,.29-.92,.56-1.04,.56-1.48,.67-2.86,.94-1.31,.34-1.2,.27-2.65,.36-.45,.02-.91,0-1.36-.06-.3-.05-.59-.17-.89-.11-1.19,.12-1.3,1.88-.15,2.18,2.94,.85,5.36,0,7.44-1.26,.63-.38,1.25-.77,1.79-1.28,.29-.33,.37-.27,.43-.72,0-.42-.42-.74-.82-.63v.02Z"/></g><g class="cls-1"><path d="M56.04,54.47c-.62,.09-.46,.16-.79,.26-.26,.07-.29,.19-1.22,.41-.63,.11-.61,.11-.78,.12,.12-.16,.18-.37,.13-.56-.03-.4-.41-.71-.8-.71-.48,.03-.85,.43-1.29,.6-.92,.41-.7,.34-1.97,.77-1.15,.33-1.75,.29-2.19,.32-.42,0-.83-.29-1.22-.33,.77-.3,1.51-.71,2.21-1.15,.8-.49,1.52-1.1,2.18-1.76,.15-.13,.24-.32,.24-.51,0-.24-.13-.45-.33-.58-.25-.15-.6-.11-.81,.1,.04-.03,.16-.12,.09-.08-.33,.2-.66,.41-.99,.6-1.92,1.23-4.45,1.96-6.1,2.21-.39,.04-.78,.09-1.17,.05h-.11c-.3-.04-.59-.19-.89-.15-.71,.06-.78,1.13-.09,1.3,.62,.22,1.25,.43,1.91,.49,.69,.08,1.39-.02,2.08-.1,.37-.03,.74-.1,1.09-.2-.33,.36-.32,1.04,.18,1.31,1.79,.9,3.72,.72,5.5-.09,.33-.13,.64-.29,.94-.46,0,.54,.43,1.08,1.04,1.06,1.11-.14,2.32-.21,3.26-.88,.28-.21,.65-.4,.77-.75,.29-.59-.22-1.32-.86-1.3h0Z"/></g><g class="cls-1"><path d="M65.05,50.32c-.69,.35-.52,.42-.96,.69-.66,.46-.57,.41-1.53,.65-.78,.13-.31,.11-.99,.12-.08,0-.16,0-.24-.02s-.19-.04-.28-.06c-.57-.09-1.17-.52-1.73-.18-.74,.4-.58,1.59,.23,1.79,.75,.22,1.52,.44,2.31,.39,.94-.07,1.86-.41,2.64-.93,.38-.27,.74-.56,1.08-.87,.25-.2,.5-.46,.49-.8,.01-.53-.53-.93-1.04-.79h.02Z"/></g><g class="cls-1"><path d="M72.8,47.61c0-.41-.27-.81-.68-.92h-.07c0-.77,.02-1.56-.18-2.31-.29-1.18-.93-2.21-1.46-3.29-.49-1.14-1.12-2.23-1.94-3.16-.35-.3-.93,0-.92,.45,.03,.39,.39,.67,.57,1,1,1.47,1.34,2.56,1.82,4.32,.59,1.84,.69,2.74,.52,4.64v.06c-.02,.09-.04,.17-.06,.26,0,.04-.03,.11-.05,.18-.1,.16-.2,.31-.31,.46-.13,.16-.41,.48-.56,.62-.03,.02-.07,.04-.1,.06-.3,.03-.53,.02-1.34-.25-.23-.09-.28-.11-.02,0-.41-.14-.78-.42-1.2-.5-.96-.17-1.42,1.21-.58,1.68,.3,.15,.63,.3,.91,.43,.06,.31,.23,.6,.54,.77,.07,.04,.14,.07,.22,.1,.03,.38,.25,.75,.74,.89,.41,.11,.83,.22,1.26,.13,.15-.03,.44-.15,.48-.17,.42-.18,.86-.44,1.05-.87,.1-.22,.11-.44,.05-.63,.16-.16,.25-.38,.27-.61,.42-.55,.72-1.2,.88-1.86,.09-.46,.15-.94,.16-1.41v-.08h0Z"/></g><path d="M17.37,48.07h-.09c-3.03-.55-6.17-1.12-9.26-1.97-1.2-.4-2.35-.66-3.58-.94-1.33-.3-2.71-.62-4.11-1.11-.26-.09-.39-.37-.3-.63,.09-.26,.37-.39,.63-.3,1.35,.47,2.7,.78,4.01,1.08,1.19,.27,2.43,.55,3.64,.96,2.87,.78,5.83,1.33,8.7,1.86,1.24-5.02,2.92-9.91,4.56-14.65,.97-2.82,1.97-5.73,2.89-8.68,0-.01,0-.02,.01-.04,.31-.76,.63-1.51,.95-2.24,.86-1.96,1.68-3.82,2.08-5.97-.01-.02-.05-.05-.07-.06-.06,0-.11,0-.17-.03-2.68-1.02-5.49-1.77-8.21-2.49-3.21-.85-6.53-1.73-9.76-3.09-.25-.11-.37-.39-.26-.64s.39-.37,.64-.26c3.16,1.33,6.45,2.2,9.63,3.05,2.72,.72,5.53,1.47,8.24,2.49,.51,.06,.94,.53,.94,1.04v.09c-.42,2.3-1.3,4.32-2.16,6.27-.31,.71-.64,1.45-.93,2.19-.92,2.95-1.92,5.87-2.89,8.69-1.75,5.08-3.4,9.89-4.64,15.01-.05,.22-.25,.38-.48,.38h-.01Z"/><path d="M11.15,46.5s-.08,0-.12,0c-.26-.07-.42-.33-.36-.6,2.82-11.27,6.8-23.24,10.91-32.86,.11-.25,.4-.37,.65-.26s.37,.4,.26,.65c-4.09,9.57-8.05,21.49-10.86,32.71-.06,.22-.26,.37-.48,.37Z"/><path d="M91.74,49.5c-.08,0-.15-.02-.22-.05-.12-.06-.21-.17-.25-.3-1.95-6.73-4.02-13.45-6.21-20.56-1.13-3.68-2.3-7.48-3.47-11.32-.07-.22,.03-.46,.24-.58,4.98-2.7,10.22-5,15.57-6.85,.26-.09,.54,.05,.63,.3,.09,.26-.05,.54-.3,.63-5.17,1.79-10.24,4.01-15.07,6.6,1.13,3.71,2.26,7.38,3.35,10.93,2.14,6.94,4.16,13.51,6.07,20.07,4.57-1.63,9.11-3.5,13.51-5.55,.25-.12,.54,0,.65,.24,.11,.25,0,.54-.24,.65-4.58,2.14-9.32,4.08-14.09,5.76-.05,.02-.11,.03-.16,.03h0Z"/><path d="M97.65,46.93c-.22,0-.42-.15-.47-.37-2.87-10.8-6.14-21.63-9.72-32.21-.09-.26,.05-.54,.31-.62,.26-.09,.54,.05,.62,.31,3.59,10.6,6.87,21.46,9.74,32.27,.07,.26-.09,.53-.35,.6-.04,0-.08,.02-.13,.02Z"/><path d="M43.24,32.3c-1.13,0-2.45-.49-3.05-1.64-1.06-2.05,.93-4.36,1.58-5.12,2.7-3.13,5.49-6.36,8.96-8.8,3.91-2.75,8.19-4,12.04-3.51,1.97,.25,3.85,.94,5.66,1.62,.58,.22,1.19,.44,1.78,.64,3.78,1.29,7.72,1.98,11.72,2.04,.27,0,.49,.23,.48,.5,0,.27-.22,.5-.5,.48-4.1-.06-8.15-.76-12.02-2.09-.61-.21-1.22-.43-1.81-.65-1.76-.65-3.58-1.33-5.44-1.56-3.61-.46-7.64,.73-11.35,3.34-3.37,2.37-6.12,5.56-8.78,8.64-1.49,1.72-1.96,3.04-1.45,4.02,.43,.83,1.49,1.15,2.34,1.1,.98-.06,1.9-.49,2.92-1,.68-.34,1.35-.68,2.03-1.01,4.13-2.06,8.04-4,11.75-6.61,.22-.16,.53-.1,.69,.12,.16,.22,.1,.53-.12,.69-3.77,2.66-7.71,4.61-11.87,6.69-.67,.34-1.35,.67-2.03,1.01-1.07,.54-2.14,1.03-3.3,1.1h-.23Z"/><path d="M79.6,50.21c-.19,0-.38-.11-.45-.3-.1-.25,.02-.54,.27-.64,3.53-1.46,7.1-2.97,10.61-4.5,.25-.11,.54,0,.65,.25s0,.54-.25,.65c-3.51,1.53-7.09,3.05-10.63,4.51-.06,.03-.12,.04-.19,.04h-.01Z"/><path d="M78.23,52.18c-.1,0-.2,0-.28-.02-1.63-.17-3.24-1.26-4.41-2.97-.75-1.1-1.27-2.32-1.77-3.51-.16-.37-.32-.75-.48-1.12-1.33-2.99-3.14-5.72-5.36-8.12-.18-.2-.17-.51,.03-.69s.51-.17,.69,.03c2.3,2.48,4.16,5.3,5.54,8.38,.17,.38,.33,.75,.49,1.13,.5,1.19,.98,2.32,1.67,3.34,1,1.47,2.35,2.4,3.7,2.55,.08,0,.31,.03,.42-.03,.12-.08,.18-.34,.17-.77-.18-5.7-2.05-11.43-5.28-16.13-3.23-4.7-7.9-8.51-13.15-10.72-.25-.11-.37-.39-.26-.64s.39-.37,.64-.26c5.43,2.29,10.25,6.22,13.58,11.07s5.27,10.77,5.45,16.65c.01,.33,.04,1.21-.62,1.63-.25,.16-.52,.2-.76,.2h0Z"/><path d="M53.68,57.57c-.68,0-1.57-.11-2.53-.81-.22-.16-.27-.47-.11-.69,.16-.22,.47-.27,.69-.11,.92,.67,1.68,.64,2.36,.61h.07c1.02-.04,2.12-.56,2.73-1.3,.27-.32,.57-.82,.48-1.43v-.07c0-1.05-.14-2.11-.27-2.93-.03-.21,.08-.43,.27-.52,.2-.09,.43-.05,.58,.11,.74,.82,1.51,1.67,2.45,2.23,.98,.59,2.07,.75,2.91,.44,1.16-.42,2.34-2.44,2.08-3.53-.06-.26,.1-.53,.36-.59s.53,.1,.59,.36c.41,1.72-1.2,4.13-2.7,4.68-1.13,.41-2.5,.22-3.75-.52-.61-.36-1.14-.82-1.63-1.3,.05,.49,.08,1.01,.08,1.52,.09,.75-.15,1.5-.71,2.16-.79,.95-2.15,1.59-3.44,1.64h-.07c-.14,0-.29,.02-.46,.02l.02,.03Z"/><path d="M69.85,53.55c-.41,0-.8-.11-1.16-.25-1.86-.72-2.84-2.75-3.8-4.7-.66-1.36-1.34-2.76-2.28-3.59-.2-.18-.22-.49-.04-.69,.18-.2,.49-.22,.69-.04,1.08,.96,1.8,2.45,2.51,3.89,.91,1.87,1.77,3.64,3.27,4.22,.64,.25,1.44,.56,2.51-1.24,.29-.49,.37-1.11,.41-1.71,.11-1.53-.3-3.11-.7-4.64-.06-.23-.12-.47-.18-.7-.07-.26,.09-.53,.36-.6,.26-.07,.53,.09,.6,.36l.18,.69c.42,1.6,.85,3.26,.73,4.96-.05,.72-.15,1.48-.55,2.14-.87,1.47-1.74,1.91-2.55,1.91h0Z"/><path d="M37.89,53.25h-.13c-1.84-.04-3.43-1.14-3.88-2.66-.17-.58-.16-1.16-.09-1.72-1,.62-2.25,.88-3.44,.67-1.83-.33-3.36-1.83-3.65-3.56-.12-.72,.11-1.12,.32-1.32,.19-.19,.5-.19,.7,0,.19,.19,.19,.5,0,.7-.05,.05-.08,.19-.04,.46,.22,1.34,1.42,2.5,2.85,2.76,1.4,.25,2.89-.31,3.71-1.39,.13-.18,.37-.24,.57-.16,.18-.1,.34-.16,.45-.2,1.97-.77,4.03-1.24,6.13-1.4,1.69-.13,2.82,.28,3.34,1.21,.25,.45,.34,1,.26,1.63-.1,.81-.45,1.6-.99,2.22-.52,.6-1.19,1.02-1.83,1.39-1.14,.65-2.64,1.39-4.28,1.39v-.02Zm-2.93-5.16c-.22,.83-.33,1.55-.14,2.22,.36,1.25,1.76,1.93,2.96,1.95,1.44,.04,2.84-.65,3.9-1.26,.57-.32,1.15-.69,1.58-1.18,.41-.47,.68-1.08,.76-1.7,.04-.29,.04-.71-.14-1.03-.4-.71-1.53-.78-2.41-.72-2.01,.15-3.98,.61-5.85,1.34-.31,.12-.53,.24-.65,.37h-.01Z"/><path d="M42.71,56.57c-.77,0-1.49-.18-2.1-.54-1.19-.7-1.91-2.1-1.79-3.48,.02-.27,.26-.47,.53-.45s.47,.26,.45,.53c-.09,.99,.45,2.04,1.31,2.55,.83,.49,1.96,.54,3.11,.13,1.07-.38,2.01-1.08,2.95-1.81,1.34-1.05,2.61-2.23,2.72-3.71,0-.09,0-.22-.02-.29s-.12-.15-.27-.24c-.71-.43-1.67-.53-2.7-.3-.91,.21-1.66,.59-2.52,1.04l-.15,.08c-.24,.12-.54,.03-.66-.21-.12-.24-.03-.54,.21-.66l.15-.08c.88-.46,1.72-.89,2.76-1.12,1.28-.29,2.5-.14,3.43,.41,.21,.13,.52,.34,.67,.7,.12,.27,.11,.55,.1,.76-.14,1.86-1.57,3.22-3.09,4.41-.97,.76-2.02,1.54-3.23,1.97-.62,.22-1.24,.33-1.84,.33l-.02-.02Z"/><path d="M48.44,57.97c-.7,0-1.4-.16-2.03-.47-.73-.36-1.49-1.09-1.43-2.04,.02-.27,.25-.48,.52-.46s.48,.25,.46,.52c-.03,.47,.46,.88,.89,1.1,.67,.33,1.44,.45,2.18,.32,1.17-.2,2.18-.97,3.02-1.69,.94-.82,1.35-1.49,1.27-2.13-.09-.74-.9-1.24-1.6-1.28-.7-.04-1.42,.25-2.26,.91-.21,.17-.52,.13-.69-.08-.17-.21-.13-.52,.08-.69,.65-.51,1.67-1.18,2.92-1.11,1.12,.06,2.36,.88,2.52,2.14,.16,1.3-.84,2.33-1.6,2.99-.88,.77-2.08,1.67-3.5,1.91-.25,.04-.5,.06-.75,.06Z"/><path d="M34.68,47.64c-.23,0-.44-.17-.48-.41-.17-1.01-1.28-1.61-1.92-1.88-1.88-.79-3.51-.77-4.85,.08-.22,.14-.51,.08-.66-.13-1.88-2.61-4.22-4.54-6.97-5.73-.25-.11-.36-.4-.25-.65s.4-.36,.65-.25c2.78,1.21,5.17,3.13,7.11,5.7,1.54-.8,3.34-.77,5.36,.08,1.43,.6,2.32,1.53,2.51,2.62,.05,.27-.13,.52-.4,.57h-.1Z"/><path d="M27.57,17.7c-.22,0-.43-.15-.48-.38-.06-.26,.1-.53,.37-.59,5.44-1.26,10.44-2.98,14.61-4.51l.37-.14c1.59-.58,3.23-1.18,4.96-1.38,3.98-.44,7.66,1.27,10.9,2.78,.25,.11,.35,.41,.24,.65-.11,.25-.41,.35-.65,.24-3.12-1.46-6.66-3.11-10.38-2.7-1.61,.18-3.2,.76-4.73,1.32l-.37,.14c-4.2,1.53-9.24,3.27-14.72,4.54-.04,0-.07,.01-.11,.01v.02Z"/><path d="M37.32,9.18c-.16,0-.32-.08-.42-.23-.15-.23-.08-.53,.15-.68,4.47-2.83,9.83-4.22,15.1-3.92,.27,.02,.48,.25,.46,.52s-.24,.48-.52,.46c-5.07-.29-10.23,1.05-14.52,3.77-.08,.05-.17,.08-.26,.08h0Z"/><path d="M34.24,4.38c-.16,0-.32-.08-.41-.22-.15-.23-.08-.53,.14-.68C36.61,1.76,39.64,.56,42.74,0c.27-.05,.52,.13,.57,.4s-.13,.52-.4,.57c-2.97,.52-5.88,1.67-8.41,3.31-.08,.05-.18,.08-.27,.08h.01Z"/><path d="M65.68,58.32c-.26,0-.48-.21-.49-.48,0-.27,.2-.5,.48-.51,2.86-.09,5.66-1.14,7.87-2.96,.21-.17,.52-.14,.69,.07,.17,.21,.14,.52-.07,.69-2.38,1.95-5.38,3.08-8.46,3.18h-.02Z"/></g></g></g></svg>