<?xml version="1.0" encoding="UTF-8"?><svg id="Layer_2" xmlns="http://www.w3.org/2000/svg" xmlns:xlink="http://www.w3.org/1999/xlink" viewBox="0 0 476.31 152.86"><defs><style>.cls-1{fill:url(#linear-gradient-2);}.cls-2{fill:#fff;}.cls-3{fill:#4e37d3;}.cls-4{fill:#3ecc99;}.cls-5{fill:url(#linear-gradient);}</style><linearGradient id="linear-gradient" x1="147.45" y1="5.86" x2="147.45" y2="145.81" gradientTransform="matrix(1, 0, 0, 1, 0, 0)" gradientUnits="userSpaceOnUse"><stop offset="0" stop-color="#4e37d3"/><stop offset="1" stop-color="#3ecc99"/></linearGradient><linearGradient id="linear-gradient-2" x1="45.74" y1="145.71" x2="45.74" y2="5.85" xlink:href="#linear-gradient"/></defs><g id="Layer_1-2"><g><g><g><path class="cls-2" d="M471.51,66.6c1.51,.85,2.68,2.09,3.53,3.74,.85,1.65,1.27,3.62,1.27,5.93v14.99h-6.46v-14.11c0-2.03-.51-3.59-1.52-4.68-1.01-1.09-2.4-1.64-4.15-1.64s-3.19,.55-4.22,1.64c-1.03,1.09-1.54,2.65-1.54,4.68v14.11h-6.46V57.12h6.46v11.76c.83-1.11,1.94-1.98,3.32-2.61,1.38-.63,2.92-.95,4.61-.95,1.94,0,3.66,.42,5.17,1.27Z"/><path class="cls-2" d="M254.31,71.72c1.05-1.95,2.48-3.47,4.31-4.54,1.83-1.08,3.87-1.61,6.11-1.61s4.14,.48,5.77,1.43c1.63,.95,2.84,2.15,3.64,3.6v-4.61h4.24v25.28h-4.24v-4.7c-.83,1.48-2.07,2.7-3.71,3.67-1.65,.97-3.56,1.45-5.74,1.45s-4.27-.55-6.09-1.66c-1.81-1.11-3.24-2.66-4.29-4.66-1.05-2-1.57-4.27-1.57-6.83s.52-4.85,1.57-6.8Zm18.68,1.87c-.77-1.41-1.81-2.5-3.11-3.25-1.31-.75-2.74-1.13-4.31-1.13s-3,.37-4.29,1.11-2.32,1.81-3.09,3.23c-.77,1.41-1.15,3.08-1.15,4.98s.38,3.62,1.15,5.05c.77,1.43,1.8,2.52,3.09,3.27,1.29,.75,2.72,1.13,4.29,1.13s3.01-.38,4.31-1.13c1.31-.75,2.34-1.85,3.11-3.27,.77-1.43,1.15-3.1,1.15-5.01s-.38-3.57-1.15-4.98Z"/><path class="cls-2" d="M305.28,68.31c1.91,1.86,2.86,4.54,2.86,8.05v14.9h-4.15v-14.3c0-2.52-.63-4.45-1.89-5.79-1.26-1.34-2.98-2.01-5.17-2.01s-3.97,.69-5.28,2.08c-1.31,1.38-1.96,3.4-1.96,6.04v13.98h-4.2v-25.28h4.2v3.6c.83-1.29,1.96-2.29,3.39-3,1.43-.71,3.01-1.06,4.73-1.06,3.07,0,5.57,.93,7.47,2.79Z"/><path class="cls-2" d="M315.01,71.72c1.05-1.95,2.48-3.47,4.31-4.54,1.83-1.08,3.88-1.61,6.16-1.61,1.97,0,3.8,.45,5.49,1.36,1.69,.91,2.98,2.1,3.87,3.58v-13.38h4.24v34.13h-4.24v-4.75c-.83,1.51-2.06,2.74-3.69,3.71-1.63,.97-3.54,1.45-5.72,1.45s-4.28-.55-6.11-1.66c-1.83-1.11-3.27-2.66-4.31-4.66-1.05-2-1.57-4.27-1.57-6.83s.52-4.85,1.57-6.8Zm18.68,1.87c-.77-1.41-1.81-2.5-3.11-3.25-1.31-.75-2.74-1.13-4.31-1.13s-3,.37-4.29,1.11-2.32,1.81-3.09,3.23c-.77,1.41-1.15,3.08-1.15,4.98s.38,3.62,1.15,5.05c.77,1.43,1.8,2.52,3.09,3.27,1.29,.75,2.72,1.13,4.29,1.13s3-.38,4.31-1.13c1.31-.75,2.34-1.85,3.11-3.27,.77-1.43,1.15-3.1,1.15-5.01s-.38-3.57-1.15-4.98Z"/><path class="cls-2" d="M346.19,71.72c1.04-1.95,2.48-3.47,4.31-4.54,1.83-1.08,3.87-1.61,6.11-1.61s4.14,.48,5.77,1.43c1.63,.95,2.84,2.15,3.64,3.6v-4.61h4.24v25.28h-4.24v-4.7c-.83,1.48-2.07,2.7-3.71,3.67-1.65,.97-3.56,1.45-5.74,1.45s-4.27-.55-6.09-1.66c-1.81-1.11-3.24-2.66-4.29-4.66-1.05-2-1.57-4.27-1.57-6.83s.52-4.85,1.57-6.8Zm18.68,1.87c-.77-1.41-1.81-2.5-3.11-3.25-1.31-.75-2.74-1.13-4.31-1.13s-3,.37-4.29,1.11-2.32,1.81-3.09,3.23c-.77,1.41-1.15,3.08-1.15,4.98s.38,3.62,1.15,5.05c.77,1.43,1.8,2.52,3.09,3.27,1.29,.75,2.72,1.13,4.29,1.13s3-.38,4.31-1.13c1.31-.75,2.34-1.85,3.11-3.27,.77-1.43,1.15-3.1,1.15-5.01s-.38-3.57-1.15-4.98Z"/><path class="cls-2" d="M384.11,62.72v19.59c0,.97,.23,1.67,.7,2.11,.47,.43,1.26,.65,2.37,.65h3.38v6.14h-4.58c-6.14,0-9.2-2.98-9.2-8.94v-19.54h7.44v-5.98h-7.44v-7.12h.21c3.94,0,7.12,3.19,7.12,7.12h6.45c0,3.3-2.68,5.98-5.98,5.98h-.47Z"/><path class="cls-2" d="M419.29,80.42h-18.68c.15,1.85,.8,3.29,1.94,4.34,1.14,1.05,2.54,1.57,4.2,1.57,2.4,0,4.11-1.03,5.12-3.09h6.96c-.74,2.46-2.15,4.48-4.24,6.07-2.09,1.58-4.66,2.38-7.7,2.38-2.46,0-4.67-.55-6.62-1.64-1.95-1.09-3.48-2.64-4.57-4.64-1.09-2-1.64-4.3-1.64-6.92s.54-4.97,1.61-6.96c1.08-2,2.58-3.54,4.52-4.61,1.94-1.08,4.17-1.61,6.69-1.61s4.6,.52,6.53,1.57c1.92,1.05,3.41,2.53,4.47,4.45,1.06,1.92,1.59,4.13,1.59,6.62,0,.92-.06,1.75-.18,2.49Zm-6.5-4.34c-.03-1.66-.63-2.99-1.8-3.99-1.17-1-2.6-1.5-4.29-1.5-1.6,0-2.95,.48-4.04,1.45-1.09,.97-1.76,2.31-2.01,4.04h12.13Z"/><path class="cls-2" d="M424.14,71.54c1.08-1.98,2.57-3.52,4.47-4.61,1.91-1.09,4.09-1.64,6.55-1.64,3.17,0,5.79,.79,7.86,2.38,2.08,1.58,3.47,3.81,4.17,6.67h-6.96c-.37-1.11-.99-1.98-1.87-2.61-.88-.63-1.96-.95-3.25-.95-1.85,0-3.31,.67-4.38,2.01-1.08,1.34-1.61,3.24-1.61,5.7s.54,4.31,1.61,5.65c1.08,1.34,2.54,2.01,4.38,2.01,2.61,0,4.32-1.17,5.12-3.51h6.96c-.71,2.77-2.11,4.97-4.2,6.6-2.09,1.63-4.7,2.45-7.84,2.45-2.46,0-4.64-.55-6.55-1.64-1.91-1.09-3.4-2.63-4.47-4.61-1.08-1.98-1.61-4.3-1.61-6.94s.54-4.96,1.61-6.94Z"/></g><path class="cls-2" d="M229.42,67.02c1.64-.97,3.56-1.45,5.74-1.45s4.28,.54,6.11,1.61c1.83,1.08,3.27,2.59,4.31,4.54,1.05,1.95,1.57,4.22,1.57,6.8s-.52,4.83-1.57,6.83c-1.05,2-2.48,3.55-4.31,4.66-1.83,1.11-3.87,1.66-6.11,1.66s-4.05-.48-5.7-1.45c-1.65-.97-2.9-2.18-3.76-3.62v16.65h-4.2v-37.27h4.2v4.66c.83-1.44,2.07-2.65,3.71-3.62Zm12.29,6.53c-.77-1.41-1.81-2.49-3.11-3.23-1.31-.74-2.74-1.11-4.31-1.11s-2.96,.38-4.27,1.13c-1.31,.75-2.35,1.85-3.14,3.28-.78,1.43-1.18,3.08-1.18,4.96s.39,3.58,1.18,5.01c.78,1.43,1.83,2.52,3.14,3.27,1.31,.75,2.73,1.13,4.27,1.13s3.01-.38,4.31-1.13c1.31-.75,2.34-1.85,3.11-3.27,.77-1.43,1.15-3.11,1.15-5.05s-.38-3.57-1.15-4.98Z"/></g><path class="cls-5" d="M108.77,152.86c-3.78,0-6.84-3.06-6.84-6.84s3.06-6.84,6.84-6.84c16.51,0,32.74-6.86,44.53-18.82,11.84-12.01,18.23-27.8,18-44.45-.06-4.11-.52-8.22-1.36-12.23-.51-2.43,.33-4.94,2.2-6.57,4.69-4.08,7.38-9.98,7.38-16.18,0-11.83-9.62-21.45-21.45-21.45-3.79,0-7.52,1.01-10.79,2.91-2.15,1.25-4.8,1.24-6.94-.02-9.58-5.68-20.58-8.69-31.79-8.69-3.78,0-6.84-3.06-6.84-6.84s3.06-6.84,6.84-6.84c12.39,0,24.57,3.01,35.45,8.74,4.42-1.93,9.22-2.94,14.07-2.94,19.37,0,35.13,15.76,35.13,35.13,0,8.8-3.31,17.23-9.18,23.67,.59,3.67,.91,7.4,.96,11.12,.29,20.34-7.5,39.61-21.93,54.25-14.34,14.55-34.13,22.9-54.27,22.9Z"/><path class="cls-4" d="M136.1,73h0l-12.04-12.21h0c-1.31-1.63-3.32-2.68-5.58-2.68-3.96,0-7.17,3.21-7.17,7.17,0,1.33,.36,2.58,1,3.65,.05,.09,.12,.17,.17,.26h-.01l8.53,15.66h0c1.63,3.11,4.89,5.23,8.65,5.23,5.39,0,9.76-4.37,9.76-9.76,0-2.92-1.29-5.53-3.31-7.32Z"/><path class="cls-1" d="M84.42,152.86c3.78,0,6.84-3.06,6.84-6.84,0-3.78-3.06-6.84-6.84-6.84-16.51,0-32.74-6.86-44.53-18.82-11.84-12.01-18.23-27.8-18-44.45,.06-4.11,.52-8.22,1.36-12.23,.51-2.43-.33-4.94-2.2-6.57-4.69-4.08-7.38-9.98-7.38-16.18,0-11.83,9.62-21.45,21.45-21.45,3.79,0,7.52,1.01,10.79,2.91,2.15,1.25,4.8,1.24,6.94-.02,9.58-5.68,20.58-8.69,31.79-8.69,3.78,0,6.84-3.06,6.84-6.84C91.49,3.06,88.43,0,84.65,0c-12.39,0-24.57,3.01-35.45,8.74-4.42-1.93-9.22-2.94-14.07-2.94C15.76,5.8,0,21.56,0,40.93c0,8.8,3.31,17.23,9.18,23.67-.59,3.67-.91,7.4-.96,11.12-.29,20.34,7.5,39.61,21.93,54.25,14.34,14.55,34.13,22.9,54.27,22.9Z"/><path class="cls-3" d="M57.09,73h0l12.04-12.21h0c1.31-1.63,3.32-2.68,5.58-2.68,3.96,0,7.17,3.21,7.17,7.17,0,1.33-.36,2.58-1,3.65-.05,.09-.12,.17-.17,.26h.01l-8.53,15.66h0c-1.63,3.11-4.89,5.23-8.65,5.23-5.39,0-9.76-4.37-9.76-9.76,0-2.92,1.29-5.53,3.31-7.32Z"/></g></g></svg>