<?xml version="1.0" encoding="UTF-8"?><svg id="Layer_2" xmlns="http://www.w3.org/2000/svg" viewBox="0 0 15 15.03"><defs><style>.cls-1{fill:#f5f195;}</style></defs><g id="Layer_1-2"><path class="cls-1" d="M14.63,10.89l-3.19,.58-.58,3.19c-.06,.32-.43,.47-.69,.29l-2.67-1.85-2.67,1.85c-.27,.19-.64,.03-.69-.29l-.58-3.19-3.19-.58c-.32-.06-.47-.43-.29-.69l1.85-2.67L.08,4.83c-.19-.24-.03-.61,.29-.67l3.19-.58L4.11,.39c.06-.32,.43-.47,.69-.29l2.69,1.85L10.17,.08c.27-.19,.64-.03,.69,.29l.58,3.19,3.19,.58c.32,.06,.47,.43,.29,.69l-1.85,2.67,1.85,2.69c.18,.27,.03,.64-.29,.7Zm-3.41-3.36c0-2.04-1.68-3.72-3.72-3.72s-3.72,1.65-3.72,3.72,1.65,3.72,3.72,3.72,3.72-1.65,3.72-3.72Zm-.94,0c0,1.53-1.21,2.79-2.79,2.79s-2.79-1.31-2.79-2.84,1.23-2.79,2.79-2.79,2.79,1.31,2.79,2.84Z"/></g></svg>