<?xml version="1.0" encoding="UTF-8"?><svg id="Layer_2" xmlns="http://www.w3.org/2000/svg" viewBox="0 0 462.31 324.6"><defs><style>.cls-1{fill:#5b23a9;}.cls-2{fill:#1a0b42;}.cls-3{fill:#fff;}.cls-4{fill:#fe6669;}.cls-5{opacity:.5;}.cls-6{fill:#3e31ba;}.cls-7{fill:#614c6e;}.cls-8{fill:#0f6d47;}.cls-9{fill:#9c78ed;}.cls-10{fill:#31b583;}.cls-11{fill:#91b3fa;}.cls-12{fill:#ffa681;}.cls-13{fill:#403657;}.cls-14{fill:#4e37d3;}.cls-15{fill:#e1ecff;}.cls-16{fill:#ea5143;}.cls-17{fill:#7846d1;}.cls-18{fill:#3ecc99;}.cls-19{fill:#f97853;}</style></defs><g id="OBJECTS"><g><path class="cls-15" d="M195.97,62.42C180.6,6.66,111.34-11.3,71.64,30.37c-.57,.6-1.14,1.21-1.71,1.83-56.91,61.86-30.02,214.3,88.74,252.94,118.76,38.64,242.29-31.92,249.23-94.99,6.94-63.07-47.85-82.89-132.88-65.25-48.04,9.96-69.49-27.76-79.06-62.47Z"/><path class="cls-15" d="M294.77,71.96c-15.89,2.59-20.29,16.66-8.02,26.65,4.06,3.3,9.85,6.04,18.1,7.41,31.43,5.21,48.11-8.69,35.51-26.72-7.78-11.13-29.83-9.91-45.58-7.34Z"/><path class="cls-15" d="M48.85,185.9c-7.8-14.08-22.54-13.47-27.8,1.45-1.74,4.93-2.36,11.31-.86,19.54,5.71,31.34,24.43,42.34,37.14,24.4,7.85-11.08-.75-31.43-8.48-45.38Z"/><path class="cls-15" d="M419.11,197.48c-1.46,7.66,4.86,13.09,12.03,10.14,2.37-.98,4.76-2.86,6.89-6.17,8.1-12.6,4-23.41-7.28-22.3-6.96,.68-10.19,10.74-11.64,18.33Z"/><path class="cls-15" d="M378.94,116.61c7.64,1.59,13.17-4.64,10.34-11.86-.94-2.39-2.78-4.81-6.05-6.99-12.46-8.31-23.34-4.4-22.42,6.9,.57,6.97,10.56,10.37,18.13,11.95Z"/><path class="cls-15" d="M193.32,34.61c6.05,4.93,13.83,1.94,14.64-5.77,.27-2.55-.25-5.55-2.15-8.99-7.24-13.12-18.7-14.64-23.08-4.19-2.71,6.45,4.6,14.07,10.6,18.95Z"/></g><g><g><path class="cls-9" d="M435.14,309.8c2.62,.44,5.36-.3,7.19-2.23,1.19-1.26,2-2.81,2-4.3v-.06c-.03-10.69,13.1-9.98,17.31-23.05,4.22-13.07-12.44-14.17-21.96-6.1-6.84,5.8-15.05-2.3-25,4.46-8.64,5.87-3.83,20.33-17.99,15.81-4.52-1.45-8.57-.05-11.99,2.51-3.93,2.95-6.5,7.09-7.56,11.59l1.13,.8c27.94,17.12,40.53-2.16,56.88,.57Z"/><path class="cls-17" d="M407.46,309.23l37.04-23.77c.5-.32,.64-.98,.32-1.47-.32-.5-.98-.64-1.47-.32l-39.83,25.57h3.95Z"/></g><g><path class="cls-1" d="M405.46,238.5c-1.56-23.3-1.82-47.74-.09-63.94,2.27-21.17,7.39-35.9,15.23-43.79,.52-.52,1.37-.53,1.89,0,.52,.52,.53,1.37,0,1.89-13.71,13.8-18.64,50.84-14.29,107.21l-2.76-1.36Z"/><path class="cls-17" d="M408.97,155.86s-11.16-.02-10.37-19.64c0,0,17.08,4.87,10.37,19.64Z"/><path class="cls-17" d="M408.03,165.96s-.6-11.15,19.04-11.44c0,0-3.92,17.33-19.04,11.44Z"/><path class="cls-17" d="M416.57,138.43s-4.29-10.31,14.13-17.14c0,0,2.08,17.64-14.13,17.14Z"/><path class="cls-17" d="M405.52,186.21s-10.51,3.76-16.4-14.98c0,0,17.72-1.19,16.4,14.98Z"/><path class="cls-17" d="M406.13,196.65s-2.52-10.88,16.77-14.56c0,0-.86,17.74-16.77,14.56Z"/><path class="cls-17" d="M405.54,211.01s-10.44,3.96-16.68-14.67c0,0,17.7-1.53,16.68,14.67Z"/></g><g><path class="cls-17" d="M81.56,290.44l-3.04-.12-1.61-.06-4.57-.18s-42.24-71.71-15.78-95.09c8.15-7.2,22.39-1.23,19.24,31.86-2.92,30.67,5.76,63.6,5.76,63.6Z"/><path class="cls-1" d="M78.52,290.32l-1.61-.06c-7.37-17.37-11.1-36.04-12.94-49.14-2.19-15.55-2.3-26.85-2.3-26.96,0-.4,.32-.73,.72-.73,.4,0,.73,.32,.74,.72,0,.11,.1,11.33,2.29,26.79,1.86,13.16,5.62,31.98,13.11,49.38Z"/></g><g><path class="cls-9" d="M89.95,304.8l-4.13,1.53-2.19,.81-6.21,2.3S-18.97,237.17,3.36,191.18c6.87-14.16,29.23-14.12,43.46,31.85,13.19,42.61,43.14,81.77,43.14,81.77Z"/><path class="cls-17" d="M85.82,306.34l-2.19,.81c-19.53-19.11-34.91-41.97-44.68-58.45-11.6-19.56-18.03-34.6-18.09-34.75-.23-.54,.02-1.16,.56-1.38,.54-.23,1.16,.02,1.39,.56,.06,.15,6.45,15.08,17.98,34.53,9.82,16.55,25.33,39.6,45.03,58.68Z"/></g><g><path class="cls-17" d="M419.45,308.89c-.05-1.67-.24-3.35-.61-5.02-3.47-15.86,5.96-18.86,18.39-23.87,12.43-5.01,13.91-19.89,5.1-32.26-8.8-12.37,7.01-22.31,1.19-40.93-5.82-18.61-26.05-6.23-30.48,10.93-3.18,12.34-19.35,9.67-25.34,25.67-5.2,13.89,12.23,26.72-7.9,33.09-6.43,2.03-9.99,6.97-11.85,12.74-2.14,6.65-1.72,13.55,.72,19.64h50.76Z"/><path class="cls-1" d="M394.82,308.89l33.16-81.87c.31-.78-.06-1.66-.84-1.97-.78-.31-1.66,.06-1.97,.84l-33.62,83.01h3.27Z"/></g></g><g><path class="cls-13" d="M118.49,61.37s.7-14.74-8.27-17.57c-13.96-4.41-17.85,2.83-20,7.62-2.76,6.13-1.58,18.16,6.74,19.32,12.43,1.73,20.76-5.24,21.52-9.36Z"/><path class="cls-13" d="M127.48,110.66c7.26,0,13.52-5.08,15.01-12.19,1.07-5.11,2.12-9.64,2.12-12.19v-.07c.07-.8,.1-1.61,.11-2.4,.1-11.63-7.08-32.87-32.3-29.5,0,0-20.93,2.39-23.31,22.84,0,0-.99,9.44-1.65,16.27-.01,.12-.02,.24-.04,.36-.92,9.03,6.18,16.87,15.26,16.87h24.81Z"/><g><path class="cls-18" d="M157.43,134.97s4.46,35.33,9.55,53.47c0,0,7.24-3.37,16.71-7.95,10.27-4.96,25.04-14.02,25.04-14.02l3.73,8.99s-38.15,36-50.78,38.04c-12.64,2.04-20.38-43.2-20.38-43.2l16.12-35.33Z"/><path class="cls-12" d="M207.95,167.53s-1.05-5.02,1.2-8.42c2.25-3.4,5.67-9.76,9.68-11.08,3.36-1.11-1.6,4.56-1.74,8.16,0,0,5-.63,8.6-1.8,3.17-1.03,9.44-2.31,12.35-2.89,.8-.16,1.31,.85,.7,1.38-.99,.86-3.07,1.94-7.35,2.97,0,0,10.45-1.98,11.53-.38,1.08,1.6-12.02,3.83-12.02,3.83,0,0,10.17-.6,10.44,.99,.16,.97-10.38,3.2-10.38,3.2,0,0,9.62,.26,7.29,1.78-.68,.44-19.29,2.54-25.77,10.19,0,0-4.36-4.51-4.51-7.94Z"/></g><g><path class="cls-18" d="M93.11,128.01s-21.34,6.29-39.72,10.44c0,0-.48-7.97-.96-18.48-.52-11.4,.42-28.69,.42-28.69l-9.68,.99s-13.52,50.68-9.3,62.76c4.22,12.08,57.78-4.84,57.78-4.84l1.47-22.18Z"/><path class="cls-12" d="M52.29,92.47s4.91-1.47,6.83-5.06c1.92-3.59,7.22-10.82,3.95-13.5-1.19-.98-2.06,3.29-5.15,5.13,0,0-1.83-4.69-2.51-8.42-.6-3.28-2.46-9.41-3.34-12.24-.24-.78-1.37-.75-1.54,.05-.28,1.28-.25,3.62,.88,7.88,0,0-3.23-10.13-5.15-10.32-1.92-.19,2.35,12.4,2.35,12.4,0,0-4.31-9.23-5.84-8.71-.93,.32,2.12,10.65,2.12,10.65,0,0-4.8-8.34-5.03-5.57-.07,.81,6.95,18.18,3.3,27.52,0,0,6.04,1.69,9.13,.2Z"/></g><g><g><path class="cls-18" d="M156.63,271.86l.17,.75c-16.62,11.25-78.77,3.57-78.77,3.57,.11-1.3,.24-2.67,.43-4.08,.19-1.57,.43-3.2,.71-4.88,.75-4.52,1.76-9.42,2.89-14.45,.36-1.58,.73-3.19,1.11-4.81,1.12-4.81,2.32-9.68,3.45-14.42,.39-1.63,.77-3.24,1.15-4.84,.52-2.22,1.01-4.41,1.48-6.52,.61-2.82,1.16-5.52,1.62-8.07,.31-1.72,.58-3.36,.78-4.92,.24-1.65,.4-3.21,.5-4.66-.99-3.65-1.91-7.23-2.77-10.7-.43-1.77-.85-3.49-1.26-5.2-1.28-5.47-2.4-10.67-3.38-15.54-.35-1.77-.69-3.49-1-5.17-1.09-5.75-1.96-10.95-2.67-15.48-.27-1.81-.53-3.5-.75-5.09-.25-1.74-.46-3.35-.65-4.82-.83-6.43-1.12-10.08-1.12-10.08,.15-.12,.3-.23,.46-.34,1.88-1.34,4.83-2.6,8.11-3.72,3.46-1.19,7.28-2.22,10.65-3.03,.51-.12,1.01-.24,1.5-.36,4.43-1.04,7.74-1.64,7.74-1.64,15.07,3.16,19.37,1.13,19.37,1.13l7.66,2.26,.9,.32,5.58,1.96,.23,.08,10.01,3.52,6.68,2.34-2.59,11.95-1.13,5.22-3.41,15.74-1.12,5.2-3.4,15.68-1.12,5.15-2.81,12.99,.56,2.48,1.1,4.82,1.74,7.66,1.58,6.93,1.09,4.8,3.28,14.44,1.09,4.77,3.25,14.28,1.09,4.77Z"/><path class="cls-12" d="M134.93,127.06c-1.6,9.42-6.17,18.9-15.67,19.92-11.47,1.24-17.42-13.15-20.01-21.99,4.43-1.04,9.02-2.05,9.02-2.05,15.07,3.16,17.98,1.23,17.98,1.23l7.77,2.56,.9,.32Z"/><path class="cls-3" d="M118.09,139.07c-12.02,0-14.9-14.85-14.93-15-.06-.32,.15-.63,.48-.69,.32-.06,.63,.15,.69,.47,.11,.6,2.84,14.61,14.46,14.01,10.17-.51,10.77-11.8,10.79-12.28,.01-.33,.29-.58,.62-.57,.33,.01,.58,.29,.57,.62,0,.13-.66,12.85-11.91,13.42-.26,.01-.51,.02-.76,.02Z"/><path class="cls-10" d="M96.52,134.97c0,1.62-1.31,2.93-2.93,2.93s-2.93-1.31-2.93-2.93,1.31-2.93,2.93-2.93,2.93,1.31,2.93,2.93Z"/><path class="cls-10" d="M90.65,149.29c0,1.62-1.31,2.93-2.93,2.93s-2.93-1.31-2.93-2.93,1.31-2.93,2.93-2.93,2.93,1.31,2.93,2.93Z"/><path class="cls-10" d="M109.38,156.06c0,1.62-1.31,2.93-2.93,2.93s-2.93-1.31-2.93-2.93,1.31-2.94,2.93-2.94,2.93,1.31,2.93,2.94Z"/><path class="cls-10" d="M96.31,164.07c.6,1.5-.13,3.21-1.64,3.81-1.51,.6-3.21-.13-3.81-1.64-.6-1.5,.13-3.21,1.64-3.81,1.51-.6,3.21,.13,3.81,1.64Z"/><path class="cls-10" d="M121.75,169.49c0,1.62-1.31,2.93-2.93,2.93s-2.93-1.31-2.93-2.93,1.31-2.93,2.93-2.93,2.93,1.31,2.93,2.93Z"/><path class="cls-10" d="M140.47,175.54c0,1.62-1.31,2.93-2.93,2.93s-2.93-1.31-2.93-2.93,1.31-2.93,2.93-2.93,2.93,1.31,2.93,2.93Z"/><path class="cls-10" d="M144.24,137.91c0,1.62-1.31,2.94-2.93,2.94s-2.93-1.31-2.93-2.94,1.31-2.93,2.93-2.93,2.93,1.31,2.93,2.93Z"/><path class="cls-10" d="M122.94,188.23c0,1.62-1.31,2.93-2.93,2.93s-2.93-1.31-2.93-2.93,1.31-2.93,2.93-2.93,2.93,1.31,2.93,2.93Z"/><path class="cls-10" d="M104.86,197.33c0,1.62-1.31,2.94-2.93,2.94s-2.93-1.31-2.93-2.94,1.31-2.93,2.93-2.93,2.93,1.31,2.93,2.93Z"/><path class="cls-10" d="M102.76,180.76c0,1.62-1.31,2.93-2.93,2.93s-2.93-1.31-2.93-2.93,1.31-2.94,2.93-2.94,2.93,1.31,2.93,2.94Z"/><path class="cls-10" d="M131.67,156.83c0,1.62-1.31,2.93-2.93,2.93s-2.93-1.31-2.93-2.93,1.31-2.93,2.93-2.93,2.93,1.31,2.93,2.93Z"/><path class="cls-10" d="M147.89,153.13c0,1.62-1.31,2.94-2.93,2.94s-2.93-1.31-2.93-2.94,1.31-2.93,2.93-2.93,2.93,1.31,2.93,2.93Z"/><path class="cls-10" d="M137.54,193.08c0,1.62-1.31,2.93-2.93,2.93s-2.93-1.31-2.93-2.93,1.31-2.93,2.93-2.93,2.93,1.31,2.93,2.93Z"/><path class="cls-10" d="M138.33,216.3c0,1.62-1.31,2.93-2.93,2.93s-2.93-1.31-2.93-2.93,1.31-2.93,2.93-2.93,2.93,1.31,2.93,2.93Z"/><path class="cls-10" d="M123.39,206.62c.6,1.51-.13,3.21-1.64,3.81-1.51,.6-3.21-.13-3.81-1.64-.6-1.5,.13-3.21,1.64-3.81,1.51-.6,3.21,.13,3.81,1.64Z"/><path class="cls-10" d="M103.41,215.22c.6,1.51-.13,3.21-1.64,3.81-1.51,.6-3.21-.13-3.81-1.64-.6-1.51,.13-3.21,1.64-3.81,1.51-.6,3.21,.13,3.81,1.64Z"/></g><polygon class="cls-8" points="162.85 308.87 162.24 305.21 159.87 291.03 159.06 286.17 156.8 272.61 152.69 272.8 98.2 275.27 78.03 276.18 76.73 286.73 76.12 291.64 74.33 306.2 74 308.87 162.85 308.87"/><path class="cls-8" d="M162.84,308.87l-.56-3.3-.05-.35-.39-2.33-.39-2.31-1.6-9.55-.46-2.82-.35-2.03-.05-.3-2.06-12.37-.14-.88-.19-.76-.16-.67-.92-4.09-1.83-8-.53-2.29-.9-4-1.09-4.79-.74-3.28-.53-2.29-2.01-8.85-.74-3.24-.35-1.57-.16-.72-1.41-6.22c-22.15,6.54-45.61,2.66-56.02,.32-.46,2.1-.97,4.3-1.48,6.52-.12,.49-.23,.97-.35,1.46-.18,.76-.37,1.53-.55,2.29-.07,.37-.16,.72-.25,1.09-.86,3.63-1.76,7.33-2.64,11-.18,.76-.35,1.53-.53,2.27-.09,.39-.18,.76-.28,1.16-.37,1.62-.74,3.24-1.11,4.81-.46,2.1-.9,4.16-1.32,6.2-.16,.76-.32,1.5-.46,2.24-.42,2.06-.79,4.07-1.11,6.01-.28,1.69-.51,3.31-.69,4.9-.07,.49-.12,.97-.18,1.43-.07,.79-.16,1.55-.23,2.31,0,.12-.02,.21-.02,.32l-1.29,10.54-.21,1.64-.28,2.29-.12,.97-1.43,11.54-.28,2.31-.09,.74-.32,2.66h88.84Z"/></g><g><g><g><path class="cls-19" d="M136.04,87.63s3.6-4.56,6.28-.79c2.68,3.77-1.11,14.92-7.67,12.2l1.39-11.41Z"/><path class="cls-16" d="M136.09,95.6c.24,0,.46-.15,.53-.38,1.02-3.44,4.77-4.84,4.81-4.85,.29-.1,.43-.41,.32-.68-.11-.27-.43-.41-.71-.31-.18,.06-4.31,1.59-5.48,5.55-.08,.28,.09,.57,.38,.65,.05,.01,.1,.02,.15,.02Z"/><path class="cls-16" d="M139.88,93.86c.1,0,.21-.03,.3-.08,.26-.16,.33-.48,.17-.73-.03-.04-.69-1-2.08-1.59-.28-.12-.61,0-.73,.27-.13,.27,0,.58,.28,.7,1.07,.46,1.6,1.2,1.6,1.2,.11,.16,.28,.24,.47,.24Z"/><path class="cls-3" d="M134.42,98.97c-.62,.69-1,1.6-1,2.6,0,2.15,1.75,3.91,3.91,3.91s3.91-1.75,3.91-3.91c0-1.24-.58-2.35-1.49-3.06-.45-.36-.99-.62-1.57-.75-.1-.26-.05-.51,.14-.74,.75,.16,1.43,.5,1.99,.98,1.03,.85,1.68,2.14,1.68,3.57,0,2.57-2.09,4.66-4.66,4.66s-4.66-2.09-4.66-4.66c0-1.11,.39-2.12,1.04-2.92,.24,.11,.47,.22,.71,.32Z"/></g><path class="cls-12" d="M108.27,110.95v13.68s6.36,4.9,11.31,5.33c4.95,.43,6.67-5.41,6.67-5.41v-12.73l-17.98-.86Z"/><path class="cls-19" d="M108.27,112.29v5.46c3.33,3.69,9.23,5,17.98,3.71v-8.3l-17.98-.86Z"/><path class="cls-12" d="M138.21,92.83c-.16,1.32-.34,2.66-.58,4-1.57,8.89-7.2,18.5-14.3,20.11-15.34,3.48-21.71-8.57-24.16-17.45-.27-.99,.24-2.12,.02-3.29-.51-2.77-1.63-5.92-1.88-9.02-.18-2.15-.3-4.27-.39-6.19-.25-5.4,2.88-10.37,7.77-12.31,7.05-2.8,17.76-5.02,27.9,.92,3.75,2.2,6.1,6.26,6.18,10.72,.06,3.4-.02,7.85-.57,12.5Z"/><path class="cls-19" d="M118.76,99.71c-.29,0-.54-.21-.59-.5-.05-.32,.16-.63,.49-.69l2.05-.34-2.82-7.51c-.12-.31,.04-.65,.35-.77,.31-.11,.65,.04,.77,.35l3.33,8.86-3.47,.58s-.07,0-.1,0Z"/><path class="cls-13" d="M126.1,89.78c0,1.31,.68,2.38,1.51,2.38s1.51-1.06,1.51-2.38-.68-2.38-1.51-2.38-1.51,1.06-1.51,2.38Z"/><path class="cls-13" d="M109.4,89.78c0,1.31,.68,2.38,1.51,2.38s1.51-1.06,1.51-2.38-.68-2.38-1.51-2.38-1.51,1.06-1.51,2.38Z"/><path class="cls-13" d="M132.05,83.54c-1.21-.24-3.67-.63-6.29-.54-.69,.02-1.24,.54-1.14,1.09h0c.08,.45,.54,.75,1.09,.7,1.78-.13,6.45-.11,8.62,.54,.06-.31-.15-.65-.46-.94-.46-.44-1.12-.72-1.83-.86Z"/><path class="cls-13" d="M107.76,83.83c1.21-.25,3.66-.68,6.28-.62,.69,.02,1.25,.53,1.16,1.08h0c-.07,.45-.53,.75-1.08,.72-1.79-.11-6.45-.02-8.61,.66-.06-.31,.14-.65,.44-.95,.46-.45,1.11-.74,1.81-.89Z"/><path class="cls-3" d="M126.1,103.26c-.44,2.09-1.91,5.93-6.85,5.93s-6.35-3.51-6.82-5.93h13.68Z"/><path class="cls-19" d="M119.31,112.78c1.43,0,2.69-.77,2.74-.8,.27-.17,.36-.53,.19-.8-.17-.27-.53-.36-.8-.19h0s-1.04,.63-2.13,.63c-1.18,0-2.23-.62-2.24-.63-.28-.17-.64-.08-.8,.2-.17,.28-.08,.63,.2,.8,.05,.03,1.34,.8,2.85,.8Z"/><path class="cls-13" d="M138.83,91.43c-.14,.12-.28,.08-.41-.16-2.03-3.57-.12-10.7-6.12-13.43-4.57-2.08-6.21-6.36-6.21-6.36-1.04,1.79-3.76,3.43-3.76,3.43,0,0-6.9,4.09-14.06,6.85-2.13,.82-3.65,1.65-4.71,2.37,.08,.02,.13,.04,.13,.04,0,0-1.98,3.22-.53,8.23,1.45,5.01-.42,13.27-3.64,15.18,.06-.14,2.48-5.85,1.11-10.52-.79-2.67-.78-6.93-1.53-9.47-.83-.57-2.74-1.53-3.38-1.91-.18-2.19-.32-4.35-.41-6.31-.26-5.51,3.04-10.57,8.19-12.55,7.43-2.86,18.72-5.12,29.41,.94,3.95,2.24,6.43,6.38,6.52,10.92,.06,3.46-.03,8-.6,12.75Z"/></g><g><path class="cls-12" d="M99.1,87.59s-4.19-5.08-6.66-1.42c-2.47,3.67,1.18,14.9,7.23,12.26l-.57-10.84Z"/><path class="cls-3" d="M99.27,98.61c.43,.82,.58,1.79,.34,2.76-.52,2.09-2.65,3.36-4.74,2.84s-3.36-2.65-2.84-4.74c.3-1.2,1.13-2.13,2.18-2.61,.53-.24,1.11-.36,1.71-.35,.1-.22,.16-.47,.04-.75-.76-.02-1.51,.14-2.17,.46-1.2,.58-2.15,1.67-2.49,3.06-.62,2.49,.9,5.02,3.39,5.65,2.49,.62,5.02-.9,5.65-3.39,.27-1.07,.13-2.15-.3-3.08-.26,.05-.51,.09-.77,.14Z"/><path class="cls-19" d="M98.19,94.68c-.22,0-.43-.15-.49-.37-.94-3.34-4.4-4.7-4.44-4.71-.26-.1-.4-.4-.3-.66,.1-.26,.39-.4,.66-.3,.16,.06,3.98,1.54,5.06,5.39,.08,.27-.08,.55-.35,.63-.05,.01-.09,.02-.14,.02Z"/><path class="cls-19" d="M94.7,92.99c-.09,0-.19-.03-.28-.08-.24-.15-.31-.47-.15-.71,.03-.04,.64-.97,1.92-1.55,.26-.12,.56,0,.68,.26,.12,.26,0,.56-.26,.68-.99,.44-1.47,1.16-1.48,1.17-.1,.15-.26,.23-.43,.23Z"/></g></g></g><g><path class="cls-12" d="M320.98,197.96c-9.75,7-25,11.8-25,11.8l-3.12-11.23-2.44-8.76-1.72-6.18h-17.48c.95,3.26,1.92,6.61,2.91,9.91,1.26,4.25,2.52,8.41,3.71,12.25,1.69,5.4,3.24,10.15,4.5,13.55,.29,.79,.63,1.65,1.02,2.57,2.34,6.31,4.22,13.16,13.14,8.86,7.85-3.78,18.5-9.02,23.82-12.5l.67-20.26Z"/><g><path class="cls-19" d="M274.13,193.49c1.26,4.25,2.52,8.41,3.72,12.25,7.14-.76,12.07-4.29,15.01-7.22l-2.44-8.76-16.29,3.73Z"/><path class="cls-14" d="M270.42,132.19s18.24,43.49,26.08,57.58c0,0-10.99,9.34-21.7,9.6,0,0-6.17-47.75-4.38-67.18Z"/></g><g><path class="cls-11" d="M227.73,308.9c.18-3.04,.36-5.94,.51-8.63,.65-10.98,1.06-18.47,1.06-18.47l-4.3-.19-2.42-.11-29.23-1.3s-.53,8.38-1.16,20.69c-.13,2.52-.26,5.2-.39,8.01h35.93Z"/><path class="cls-14" d="M225,281.61l4.3,.19s-.42,7.49-1.06,18.47c-11.23,.94-23.49,1.32-36.05,.62,.63-12.31,1.16-20.69,1.16-20.69l29.23,1.3,2.42,.11Z"/><path class="cls-17" d="M223.47,308.9c.68-11.73,1.23-21.77,1.54-27.29l-2.42-.11c-.3,5.54-.86,15.63-1.54,27.4h2.43Z"/></g><g><path class="cls-11" d="M237.15,308.9h35.93c-.13-2.81-.27-5.49-.39-8.01-.63-12.31-1.16-20.69-1.16-20.69l-29.23,1.3-2.42,.11-4.3,.19s.42,7.49,1.06,18.47c.16,2.69,.33,5.58,.51,8.63Z"/><path class="cls-14" d="M239.87,281.61l-4.3,.19s.42,7.49,1.06,18.47c11.23,.94,23.49,1.32,36.05,.62-.63-12.31-1.16-20.69-1.16-20.69l-29.23,1.3-2.42,.11Z"/><path class="cls-17" d="M243.83,308.9c-.68-11.77-1.24-21.86-1.54-27.4l-2.42,.11c.3,5.52,.86,15.56,1.54,27.29h2.43Z"/></g><path class="cls-14" d="M187.01,259.37c0,.6,0,1.2,0,1.78,.01,10.69,.07,18.97,.12,23.04,10.32,2.8,20.65,4.6,30.98,5.44,.47,.04,.93,.07,1.4,.11,.25,.02,.5,.04,.75,.05,.55,.04,1.11,.07,1.66,.1,.62,.04,1.23,.07,1.85,.1,7.03,.33,14.05,.2,21.08-.38,1.42-.12,2.83-.26,4.25-.41,.09,0,.18-.02,.27-.03,.36-.04,.72-.08,1.09-.13,.22-.03,.44-.05,.66-.08,8.17-.98,16.35-2.57,24.53-4.78,.02-1.85,.03-4.59,.03-8.04,0-.64,0-1.3,0-1.99h0c0-4.94-.04-11.09-.09-18.04,0-.59,0-1.19-.01-1.8-.04-4.63-.09-9.58-.15-14.75,0-.6-.01-1.2-.02-1.8-.07-5.3-.15-10.8-.24-16.39-.06-3.41-.12-6.86-.19-10.3-.07-3.49-.15-6.99-.23-10.46-.02-.76-.04-1.51-.06-2.27-.8-32.85-2.19-63.05-4.48-66.42-1.59-2.33-5.22-5.07-9.51-7.83-.52-.33-1.06-.67-1.6-1.01-1.82-1.14-16.71-6.2-18.6-7.31l-15.73-1.1c-.1,.06-15.14,5.13-15.24,5.18-.65,.37-1.3,.74-1.95,1.12-5.57,3.21-11.07,6.6-14.23,9.52-.46,.42-.88,.84-1.23,1.24-.28,.32-.53,.63-.73,.94-.19,.28-.37,.74-.55,1.38-1.9,6.92-2.9,34.1-3.4,63.68-.04,2.12-.07,4.25-.1,6.39-.01,.94-.03,1.88-.04,2.82-.01,.65-.02,1.3-.03,1.94v.97c-.04,1.61-.05,3.21-.07,4.81-.01,1.18-.03,2.36-.04,3.54-.14,14.9-.18,29.36-.17,41.15Z"/><g><g><path class="cls-12" d="M158.87,301.61c-.39,4.2,4.73,1.92,3.28-6.59-1.44-8.51,2.66-16.21,4.42-15.97,1.77,.25-1.46,9.29,.11,12.55,1.57,3.26,3.6-3.07,5.62-6.91,2.1-3.99,1.97-12.69,1.02-18.9-.95-6.21,10.3-43.94,10.36-54.87l1.37-4.63,5.02-16.97,7.86-26.57s-4.71-20.11-12.65-18.38c0,0-4.2,14.01-8.7,29.81-.76,2.68-1.53,5.42-2.29,8.14-3.2,11.45-6.21,22.76-7.61,29.47-3.69,17.72-3.98,54.54-3.98,54.54,0,0-6.52,13.53-6.67,19.55-.16,6.42,3.21,11.52,2.82,15.72Z"/><path class="cls-19" d="M174.3,182.31l10.76,23.97,5.02-16.97-13.49-15.15c-.76,2.68-1.53,5.42-2.29,8.14Z"/></g><path class="cls-14" d="M173.77,175.17c4.72,8.09,9.52,16.14,14.3,24.2,1.57-5.27,3.21-10.33,4.74-14.99,0-.01,0-.02,.01-.04,.61-1.86,1.21-3.65,1.78-5.37,0-.03,.02-.06,.03-.09,.2-.6,.39-1.2,.59-1.78h0c2.28-6.9,4.05-12.39,4.56-15.58,1.36-8.61-2.35-25.46-7.59-28.79h0c-.14,.3-.55-.63-.8-.06-.92,2.12-5,7.37-7.02,12.48-.26,.65-.52,1.33-.8,2.02-2.92,7.51-6.5,17.29-9.81,27.99Z"/></g><g><path class="cls-6" d="M231.94,130.42c6.81,0,11.62-6.22,11.82-6.48,.29-.38,.23-.93-.12-1.24s-.87-.25-1.16,.13c-.06,.08-4.53,5.83-10.54,5.83s-9.56-6.51-9.59-6.57c-.23-.42-.73-.56-1.12-.32-.39,.24-.53,.78-.3,1.2,.16,.3,4.12,7.45,11.01,7.45Z"/><path class="cls-6" d="M260.75,189.98c.13,0,.25-.03,.37-.1,.41-.22,.57-.75,.37-1.19l-2.97-6.28c-.21-.44-.71-.61-1.11-.39-.41,.22-.57,.75-.37,1.19l2.97,6.28c.15,.31,.44,.49,.74,.49Z"/><path class="cls-6" d="M266.94,184.83c.11,.07,.23,.12,.36,.13,.46,.04,.86-.32,.9-.81l.58-7.01c.04-.49-.3-.92-.75-.96-.46-.04-.86,.32-.9,.81l-.58,7.01c-.03,.34,.13,.66,.39,.83Z"/><path class="cls-6" d="M250.98,173.96c.4,0,.75-.31,.82-.74l1.07-6.94c.07-.48-.23-.94-.68-1.02-.45-.08-.88,.25-.95,.73l-1.07,6.94c-.07,.48,.23,.94,.68,1.02,.05,0,.09,.01,.14,.01Z"/><path class="cls-6" d="M224.29,176.55c.14,0,.29-.04,.42-.12,.39-.25,.52-.79,.29-1.21l-3.35-6.06c-.23-.42-.74-.56-1.14-.31-.39,.25-.52,.79-.29,1.21l3.35,6.06c.15,.28,.43,.44,.71,.44Z"/><path class="cls-6" d="M257.08,149.41c.15,0,.31-.05,.45-.14l5.52-3.82c.38-.27,.49-.81,.25-1.23-.25-.41-.76-.53-1.15-.26l-5.52,3.82c-.38,.27-.49,.81-.25,1.23,.16,.26,.43,.41,.7,.41Z"/><path class="cls-6" d="M232.47,205.82c.13,0,.25-.03,.37-.1,.41-.22,.57-.75,.37-1.19l-2.97-6.28c-.21-.44-.7-.61-1.11-.39-.41,.22-.57,.75-.37,1.19l2.97,6.28c.15,.31,.44,.49,.74,.49Z"/><path class="cls-6" d="M245.52,154.13c.28,0,.55-.15,.7-.42,.24-.42,.13-.96-.26-1.22l-5.58-3.73c-.39-.26-.9-.13-1.14,.28-.24,.42-.13,.96,.26,1.22l5.58,3.73c.14,.09,.29,.14,.44,.14Z"/><path class="cls-6" d="M258.78,128.02c-.01,.17,.02,.34,.09,.48,.13,.26,.38,.44,.67,.47,.46,.04,.85-.33,.88-.82l.26-4.04c-.52-.33-1.05-.67-1.6-1.01l-.32,4.93Z"/><path class="cls-6" d="M266.22,166.55c.28,0,.55-.15,.7-.42,.24-.42,.13-.96-.26-1.22l-5.58-3.73c-.39-.26-.9-.13-1.14,.28-.24,.42-.13,.96,.26,1.22l5.58,3.73c.14,.09,.29,.14,.44,.14Z"/><path class="cls-6" d="M221.74,135.91c.16,0,.31-.05,.46-.15,.38-.27,.49-.82,.24-1.23l-3.18-5.16c-.25-.41-.77-.52-1.15-.25-.38,.27-.49,.82-.24,1.23l3.18,5.16c.16,.26,.42,.4,.69,.4Z"/><path class="cls-6" d="M218.89,225.08c.22,0,.44-.09,.6-.27l4.56-5.08c.32-.35,.31-.91-.02-1.25-.33-.34-.86-.33-1.17,.03l-4.56,5.08c-.32,.35-.31,.91,.02,1.25,.16,.17,.37,.25,.57,.25Z"/><path class="cls-6" d="M235.64,224.02c.22,0,.44-.09,.6-.27l4.56-5.08c.32-.35,.31-.91-.02-1.25-.33-.34-.85-.33-1.17,.03l-4.56,5.08c-.32,.35-.31,.91,.02,1.25,.16,.17,.37,.25,.57,.25Z"/><path class="cls-6" d="M247.68,258.33c.08-.22,.07-.47-.03-.69l-2.84-6.35c-.2-.44-.69-.63-1.11-.42-.41,.21-.59,.74-.39,1.18l2.84,6.35c.2,.44,.69,.63,1.11,.42,.2-.1,.35-.28,.42-.49Z"/><path class="cls-6" d="M199.62,279.27c.08-.22,.07-.47-.03-.69l-2.84-6.35c-.2-.44-.69-.63-1.11-.42-.41,.21-.59,.74-.39,1.18l2.84,6.35c.2,.44,.69,.63,1.11,.42,.2-.1,.35-.28,.42-.49Z"/><path class="cls-6" d="M220.26,289.78c.56,.04,1.11,.07,1.66,.1l.58-3.95c.07-.48-.24-.94-.69-1.01-.45-.07-.88,.26-.95,.74l-.6,4.12Z"/><path class="cls-6" d="M213.64,277.84c.18-.13,.31-.34,.34-.59l1.02-6.95c.07-.48-.24-.94-.69-1.01-.45-.08-.88,.25-.95,.74l-1.02,6.95c-.07,.48,.24,.94,.69,1.01,.22,.04,.43-.02,.6-.15Z"/><path class="cls-6" d="M253.65,219.7c.14,0,.28-.04,.41-.12,.4-.24,.53-.79,.3-1.21l-3.3-6.09c-.23-.42-.74-.57-1.13-.32-.4,.24-.53,.79-.3,1.21l3.3,6.09c.15,.28,.43,.44,.72,.44Z"/><path class="cls-6" d="M243.97,204.48c.3,0,.59-.18,.74-.48l3.02-6.25c.21-.44,.05-.97-.36-1.19-.41-.23-.91-.05-1.12,.38l-3.02,6.25c-.21,.44-.05,.97,.36,1.19,.12,.07,.25,.1,.38,.1Z"/><path class="cls-6" d="M270.18,203.56c.09,.11,.2,.19,.31,.25,.28,.12,.61,.08,.86-.14l3.39-3.05c-.02-.76-.03-1.51-.05-2.27l-4.41,3.96c-.35,.32-.39,.88-.1,1.25Z"/><path class="cls-6" d="M244.01,138.13c.3,0,.59-.17,.74-.48l3.02-6.25c.21-.44,.05-.97-.36-1.19-.41-.22-.91-.05-1.12,.38l-3.02,6.25c-.21,.44-.05,.97,.36,1.19,.12,.07,.25,.1,.38,.1Z"/><path class="cls-6" d="M224.68,161.04c.05,0,.1,0,.16-.02,.45-.09,.74-.56,.66-1.04l-1.25-6.91c-.09-.48-.52-.8-.97-.7-.45,.09-.74,.56-.66,1.04l1.25,6.91c.08,.42,.42,.72,.81,.72Z"/><path class="cls-6" d="M235.44,167.11c.05,0,.1,0,.16-.02,.45-.09,.74-.56,.66-1.04l-1.25-6.91c-.09-.48-.52-.79-.97-.7-.45,.09-.74,.56-.66,1.04l1.25,6.91c.08,.42,.42,.72,.81,.72Z"/><path class="cls-6" d="M227.73,144.31c.27,0,.54-.15,.7-.41l3.53-5.94c.25-.41,.13-.96-.26-1.22-.39-.26-.9-.14-1.14,.27l-3.53,5.94c-.25,.41-.13,.96,.26,1.22,.14,.09,.29,.14,.44,.14Z"/><path class="cls-6" d="M260.08,205.58c.23-.26,.29-.65,.14-.99l-2.83-6.35c-.2-.44-.69-.63-1.11-.42-.41,.21-.59,.74-.39,1.18l2.83,6.35c.2,.44,.69,.63,1.11,.42,.1-.05,.18-.12,.25-.19Z"/><path class="cls-6" d="M238.74,187.15c.33,0,.64-.21,.77-.56l2.4-6.55c.17-.46-.04-.97-.47-1.15-.43-.18-.91,.05-1.07,.5l-2.4,6.55c-.17,.46,.04,.97,.47,1.15,.1,.04,.2,.06,.3,.06Z"/><path class="cls-6" d="M212.4,227.63c.13,0,.25-.03,.37-.1,.41-.22,.57-.75,.37-1.19l-2.97-6.28c-.21-.44-.71-.61-1.11-.39-.41,.22-.57,.75-.37,1.19l2.97,6.28c.15,.31,.44,.49,.74,.49Z"/><path class="cls-6" d="M256.06,272.75c0,.13,.03,.27,.09,.4,.21,.43,.71,.6,1.12,.38l5.84-3.24c.41-.22,.57-.76,.35-1.2-.21-.43-.71-.6-1.12-.38l-5.84,3.24c-.29,.16-.45,.47-.45,.8Z"/><path class="cls-6" d="M271.92,276.78c0,.14,.03,.27,.09,.4,.21,.44,.71,.6,1.12,.38l2.54-1.41c0-.64,0-1.3,0-1.99l-3.3,1.82c-.29,.16-.45,.47-.45,.8Z"/><path class="cls-6" d="M247.38,284.61l2,4.56c.36-.04,.72-.08,1.09-.13l.65-.08-2.24-5.11c-.19-.44-.69-.64-1.1-.43-.42,.21-.6,.73-.4,1.18Z"/><path class="cls-6" d="M201.62,211.61c.4,0,.75-.31,.82-.74l1.07-6.94c.07-.48-.23-.94-.68-1.02-.45-.08-.88,.25-.95,.73l-1.07,6.94c-.07,.48,.23,.94,.68,1.02,.05,0,.09,.01,.14,.01Z"/><path class="cls-6" d="M200.93,160.38c.14,0,.29-.04,.42-.12,.39-.25,.52-.79,.29-1.21l-3.35-6.06c-.23-.42-.74-.56-1.14-.31-.39,.25-.52,.79-.29,1.21l3.35,6.06c.15,.28,.43,.44,.71,.44Z"/><path class="cls-6" d="M211.71,185c.15,0,.31-.05,.45-.14l5.52-3.82c.38-.27,.49-.81,.25-1.23-.25-.41-.76-.53-1.15-.26l-5.53,3.82c-.38,.27-.49,.81-.25,1.23,.16,.26,.43,.41,.7,.41Z"/><path class="cls-6" d="M270.21,226.28c.13,0,.25-.03,.37-.1,.41-.22,.57-.75,.37-1.19l-2.97-6.28c-.21-.44-.7-.61-1.11-.39-.41,.22-.57,.75-.37,1.19l2.97,6.28c.15,.31,.44,.49,.74,.49Z"/><path class="cls-6" d="M202.3,194.54c.28,0,.55-.15,.7-.42,.24-.42,.12-.96-.26-1.22l-5.58-3.73c-.39-.26-.9-.13-1.14,.28-.24,.42-.13,.96,.26,1.22l5.58,3.73c.14,.09,.29,.14,.44,.14Z"/><path class="cls-6" d="M215.67,203.42c.2,.2,.49,.29,.78,.21,.44-.13,.7-.62,.58-1.09l-1.73-6.79c-.12-.47-.58-.75-1.02-.62-.44,.13-.7,.62-.58,1.09l1.73,6.79c.04,.17,.13,.31,.24,.42Z"/><path class="cls-6" d="M192.13,131.74l1.44,2.34c.16,.26,.42,.4,.69,.4,.16,0,.31-.04,.45-.15,.38-.27,.49-.82,.24-1.23l-1.6-2.6c-.46,.42-.87,.84-1.23,1.24Z"/><path class="cls-6" d="M185.82,147.18l1.53,2.49c.16,.26,.42,.4,.69,.4,.16,0,.31-.05,.46-.15,.38-.27,.49-.82,.23-1.23l-2.17-3.53c-.24,.65-.49,1.33-.74,2.02Z"/><path class="cls-6" d="M257.54,248.2c.22,0,.44-.09,.6-.27l4.56-5.08c.32-.35,.31-.91-.02-1.25-.33-.34-.86-.33-1.17,.03l-4.56,5.08c-.32,.35-.31,.91,.02,1.25,.16,.17,.37,.25,.57,.25Z"/><path class="cls-6" d="M227.22,265.95c.22,0,.44-.09,.6-.27l4.56-5.08c.32-.35,.31-.91-.02-1.25-.33-.34-.86-.33-1.17,.03l-4.56,5.08c-.32,.35-.31,.91,.02,1.25,.16,.17,.37,.25,.57,.25Z"/><path class="cls-6" d="M218.79,258.9c.14-.18,.21-.42,.18-.67l-.82-6.98c-.06-.49-.47-.83-.93-.77-.45,.06-.78,.5-.72,.99l.82,6.98c.06,.49,.47,.83,.93,.77,.22-.03,.41-.15,.54-.32Z"/><path class="cls-6" d="M236.06,278.58c.22,0,.44-.09,.6-.27l4.56-5.08c.32-.35,.31-.91-.02-1.25-.33-.34-.86-.33-1.17,.03l-4.56,5.08c-.32,.35-.31,.91,.02,1.25,.16,.17,.37,.25,.57,.25Z"/><path class="cls-6" d="M187,259.37c0,.6,0,1.2,0,1.78l5.14,.46c.46,.04,.86-.32,.9-.81,.04-.49-.3-.91-.76-.96l-5.28-.47Z"/><path class="cls-6" d="M247.24,237.53c.22,0,.44-.09,.6-.27l4.56-5.08c.32-.35,.31-.91-.02-1.25-.33-.34-.85-.33-1.17,.03l-4.56,5.08c-.32,.35-.31,.91,.02,1.25,.16,.17,.37,.25,.57,.25Z"/><path class="cls-6" d="M225.32,235.32c.01,.23,.11,.46,.29,.62l5.04,4.53c.35,.32,.87,.27,1.17-.11,.29-.38,.25-.93-.1-1.25l-5.04-4.53c-.35-.32-.87-.27-1.17,.11-.14,.18-.21,.41-.19,.63Z"/><path class="cls-6" d="M201.32,260.23c.14,0,.28-.04,.41-.12,.4-.25,.53-.79,.3-1.21l-3.3-6.09c-.23-.42-.74-.57-1.13-.32-.4,.25-.53,.79-.3,1.21l3.3,6.09c.15,.28,.43,.44,.72,.44Z"/><path class="cls-6" d="M195.62,242.13c.3,0,.59-.18,.74-.48l3.02-6.25c.21-.44,.05-.97-.36-1.19-.41-.23-.91-.05-1.12,.38l-3.02,6.25c-.21,.44-.05,.97,.36,1.19,.12,.07,.25,.1,.38,.1Z"/><path class="cls-6" d="M204.62,171.12c.3,0,.59-.18,.74-.48l3.02-6.25c.21-.44,.05-.97-.36-1.19-.41-.22-.91-.05-1.12,.38l-3.02,6.25c-.21,.44-.05,.97,.36,1.19,.12,.07,.25,.1,.38,.1Z"/><path class="cls-6" d="M201.32,144.88c.05,0,.1,0,.16-.02,.45-.09,.74-.56,.66-1.04l-1.25-6.91c-.09-.48-.52-.8-.97-.7-.45,.09-.74,.56-.66,1.04l1.25,6.91c.08,.42,.42,.72,.81,.72Z"/><path class="cls-6" d="M186.17,168.72c.05,0,.1,0,.16-.02,.45-.09,.74-.56,.66-1.04l-1.25-6.91c-.09-.48-.52-.79-.97-.7-.45,.09-.74,.56-.66,1.04l1.25,6.91c.08,.42,.42,.72,.81,.72Z"/><path class="cls-6" d="M212.09,150.94c.05,0,.1,0,.16-.02,.45-.09,.74-.56,.66-1.04l-1.25-6.91c-.09-.48-.52-.79-.97-.7-.45,.09-.74,.56-.66,1.04l1.25,6.91c.08,.42,.42,.72,.81,.72Z"/><path class="cls-6" d="M207.15,126.87c.16,.04,.32,.03,.46-.03,.26-.1,.47-.33,.53-.63l1.39-6.35c-.65,.37-1.3,.74-1.95,1.12l-1.06,4.82c-.11,.48,.17,.95,.62,1.07Z"/><path class="cls-6" d="M188.18,179.4c.27,0,.54-.15,.7-.41l3.53-5.94c.25-.41,.13-.96-.26-1.22-.39-.26-.9-.14-1.14,.27l-3.53,5.94c-.25,.41-.13,.96,.26,1.22,.14,.09,.29,.14,.44,.14Z"/><path class="cls-6" d="M211.73,243.23c.23-.26,.29-.65,.14-.99l-2.83-6.35c-.2-.44-.69-.63-1.11-.42-.41,.21-.59,.74-.39,1.18l2.83,6.35c.2,.44,.69,.63,1.11,.42,.1-.05,.18-.12,.25-.19Z"/><path class="cls-6" d="M270.05,255.16l5.54,.96c0-.59,0-1.19-.02-1.8l-5.25-.91c-.45-.07-.88,.25-.95,.73-.07,.48,.23,.94,.68,1.02Z"/><path class="cls-6" d="M271.73,238.94l3.69,.64c0-.6-.01-1.2-.02-1.8l-3.4-.59c-.45-.08-.88,.25-.95,.73-.07,.48,.23,.94,.68,1.02Z"/><path class="cls-6" d="M190.39,224.8c.33,0,.64-.21,.77-.56l2.4-6.55c.17-.46-.04-.97-.47-1.15-.43-.18-.91,.05-1.07,.5l-2.4,6.55c-.17,.46,.04,.97,.47,1.15,.1,.04,.2,.06,.3,.06Z"/></g><path class="cls-6" d="M187.35,204.13c1.56-6.43,3.51-13.58,5.45-19.74v-.04c.61-1.9,1.21-3.71,1.79-5.37,0-.03,.02-.06,.03-.09,.18-.52,.36-1.03,.55-1.52,.03-.09,.04-.17,.04-.26h0c0-.3-.18-.58-.48-.69-.38-.14-.8,.06-.94,.44-1.99,5.42-4.34,13.22-6.35,20.87-.04,2.12-.07,4.25-.1,6.39Z"/><g><path class="cls-13" d="M211.12,79.93s-5.77-6.36-3.59-13.77c2.18-7.4,8.14-7.32,8.14-7.32,0,0,3.48-7.87,9.4-8.13,5.92-.26,11.51-10.78,16.9-7.92,5.39,2.86-.58,9.09-.58,9.09,0,0,9.23-9.74,12.28-6.88,3.04,2.86-4.23,10.52-4.23,10.52,0,0,7.76-5.45,10.31-3.38,2.55,2.08-6.08,11.04-6.08,11.04,0,0,5.58,10.06-.04,14.58l-42.5,2.18Z"/><g><path class="cls-19" d="M251.46,82.06s3.69-4.92,6.44-.85c2.75,4.07-1.14,16.09-7.86,13.16l1.42-12.31Z"/><path class="cls-16" d="M251.51,90.65c.25,0,.48-.16,.55-.41,1.04-3.71,4.89-5.22,4.93-5.23,.29-.11,.44-.44,.33-.73-.11-.29-.44-.44-.73-.33-.18,.07-4.42,1.71-5.62,5.99-.08,.3,.09,.62,.39,.7,.05,.01,.1,.02,.15,.02Z"/><path class="cls-16" d="M255.39,88.78c.11,0,.21-.03,.31-.09,.26-.17,.34-.52,.17-.79-.03-.04-.71-1.08-2.13-1.72-.28-.13-.62,0-.75,.29-.13,.29,0,.62,.29,.75,1.1,.49,1.64,1.29,1.64,1.3,.11,.17,.29,.26,.48,.26Z"/></g><g><path class="cls-19" d="M213.41,82.06s-3.69-4.92-6.44-.85c-2.75,4.07,1.14,16.09,7.86,13.16l-1.42-12.31Z"/><path class="cls-16" d="M213.37,90.65c-.25,0-.48-.16-.55-.41-1.04-3.71-4.89-5.22-4.93-5.23-.29-.11-.44-.44-.33-.73,.11-.29,.44-.44,.73-.33,.18,.07,4.42,1.71,5.62,5.99,.08,.3-.09,.62-.39,.7-.05,.01-.1,.02-.15,.02Z"/><path class="cls-16" d="M209.48,88.78c-.11,0-.21-.03-.31-.09-.26-.17-.34-.52-.17-.79,.03-.04,.71-1.08,2.13-1.72,.28-.13,.62,0,.75,.29,.13,.29,0,.62-.29,.75-1.1,.49-1.64,1.29-1.64,1.3-.11,.17-.29,.26-.48,.26Z"/></g><path class="cls-12" d="M223.35,104.56v11.96s3.57,6.09,8.39,6.5c4.82,.42,9.1-5.24,9.1-5.24v-12.38l-17.49-.84Z"/><path class="cls-19" d="M223.35,104.56v5.31c3.24,3.59,8.98,4.49,17.49,3.23v-7.7l-17.49-.84Z"/><path class="cls-12" d="M210.75,73.86c.22,4.65,.66,10.46,1.55,15.1h0s0,.04,0,.06h0c.22,1.14,.46,2.21,.73,3.17,.16,.56,.33,1.15,.53,1.75,2.83,8.89,9.4,21.76,25.9,15.87,6.95-2.48,10.57-9.65,12.41-17.44,.11-.46,.21-.92,.3-1.37,.06-.29,.12-.58,.17-.86l.08-.42c.01-.07,.02-.12,.03-.15,0-.02,0-.03,0-.03,1.09-5.99,1.25-12.04,1.17-16.36-.08-4.41-2.49-8.44-6.33-10.62-10.4-5.9-21.37-3.7-28.6-.92-5.02,1.92-8.23,6.85-7.97,12.21Z"/><path class="cls-13" d="M212.29,88.96h0s0,.04,0,.06h0c.11,.4,.69,2.53,1.26,4.92,2.83,8.89,9.4,21.76,25.9,15.87,6.95-2.48,10.57-9.65,12.41-17.44,.11-.46,.21-.92,.3-1.37,.06-.29,.12-.58,.17-.86l.08-.42c.01-.07,.02-.12,.03-.15,0-.02,0-.03,0-.03l-2.43-.49c-.46,2.3-1.49,4.46-2.75,6.39-2.05-4.92-12.47-1.65-12.47-1.65l-.05,.02c-.63,.2-1.29,.3-1.94,.3s-1.34-.11-2-.32c0,0-10.29-3.41-12.43,1.28-2.13-3.3-3.58-6.3-3.58-6.3l-2.54,.18h0Zm20.51,7.07c11.78-1.59,9.93,4.75,9.93,4.75-1.31,1.19-2.5,2.06-3.31,2.51-2.57,1.43-5.1,1.98-6.94,1.89-1.81-.08-2.3,.29-6.87-2.18-.81-.43-1.62-1.08-2.42-1.84h0c-.2-1.25-2.19-7.17,9.62-5.14Z"/><path class="cls-13" d="M222.13,82.5c0,1.28,.66,2.31,1.47,2.31s1.47-1.03,1.47-2.31-.66-2.31-1.47-2.31-1.47,1.03-1.47,2.31Z"/><path class="cls-13" d="M240.5,82.5c0,1.28,.66,2.31,1.47,2.31s1.47-1.03,1.47-2.31-.66-2.31-1.47-2.31-1.47,1.03-1.47,2.31Z"/><path class="cls-13" d="M218.37,74.71s6.07-2.4,10.75-.38l-.47,2.6s-6.86-.58-10.32,.82c-.31-1-.36-2.01,.04-3.04Z"/><path class="cls-13" d="M247.23,74.72s-6.12-2.42-10.82-.38l.47,2.62s6.91-.58,10.39,.83c.31-1.01,.36-2.03-.04-3.06Z"/><path class="cls-19" d="M232.24,92.83c-.96,0-1.91-.37-2.06-.43-.29-.12-.43-.45-.31-.74,.12-.29,.45-.43,.74-.31,.51,.21,1.74,.53,2.28,.22,.1-.06,.24-.18,.28-.53,.21-1.98-.34-8.63-.34-8.7-.03-.31,.21-.59,.52-.61,.31-.03,.59,.21,.61,.52,.02,.28,.56,6.82,.34,8.91-.08,.79-.49,1.19-.83,1.39-.36,.22-.8,.29-1.23,.29Z"/><path class="cls-3" d="M239.48,97.16c-.43,2.17-1.86,6.16-6.69,6.16s-6.2-3.65-6.66-6.16h13.36Z"/><path class="cls-13" d="M210.74,73.85c.22,4.65,.66,10.46,1.55,15.1l2.54-.18s-.62-3.92-.9-6.48c-.28-2.56-.77-7.33,1.41-7.93,2.18-.59,.9-6.04,3.93-8.4,3.03-2.37,9.8-3.02,14.26-.27,4.46,2.74,9.5-.21,11.55,.27,2.06,.47,4.86,3.31,4.1,5.96-.76,2.65,1.51,4.26,2.06,7,.55,2.74-1.21,10.13-1.21,10.13l2.43,.49c1.09-5.99,1.26-12.04,1.18-16.36-.08-4.41-2.49-8.45-6.33-10.62-10.4-5.9-21.37-3.7-28.6-.92-5.02,1.93-8.22,6.85-7.97,12.21Z"/></g></g><g><g><path class="cls-8" d="M315.26,201.79c-1.54,14.08-10.74,45.54-17.1,51.7-8.29,8.02-35.56,24.91-49.77,33.57-2.56,1.56,9.48,11.97,9.48,11.97,0,0,37.72-16.13,52.13-28.85,4.07-3.6,12.35-14.95,21.69-36.56,2.83-6.55,9.7-19.77,9.34-28.39-.41-9.92-16.17-8.29-25.76-3.45Z"/><path class="cls-12" d="M285.83,282.68s-10.26,3.9-13.9,8.18c-3.64,4.29-8.44,7.92-7.27,9.61,1.17,1.69,6.49-3.25,6.49-3.25,0,0,1.46,5.43,6.62,6.01s14.93-9.52,14.93-9.52l-6.88-11.04Z"/><g><g><path class="cls-18" d="M387.1,241.11c0,.89,0,1.95-.02,3.14-.02,1.19-.04,2.52-.08,3.97-.03,.99-.06,2.05-.1,3.15-.03,.93-.07,1.89-.11,2.89-.04,1.02-.09,2.07-.14,3.16-.71,14.75-2.44,35.11-6.24,51.44h-79.82c2.66-11.86,6.73-30.58,9.97-54.86,.14-1.02,.27-2.05,.4-3.09,.13-1.04,.26-2.09,.39-3.15,.07-.56,.14-1.13,.21-1.7,.05-.47,.11-.94,.16-1.4,.15-1.31,.28-2.6,.4-3.86,.1-1.05,.19-2.09,.28-3.11,1.37-16.32,.89-28.56,2.85-35.89,2.29-8.53,29-18.31,29-18.31l16.73,.88s15.96,5.21,24.49,12.7c8.53,7.49,1.4,29.84,1.61,42.53,0,.44,.01,.95,.01,1.52Z"/><path class="cls-18" d="M387.08,244.25c-7.26,.88-14.83,1.23-22.26,1.23-24.33,0-47.17-3.72-52.7-4.69,.1-1.05,.19-2.09,.28-3.11,6.43,1.14,43.61,7.29,74.69,3.43,0,.89,0,1.95-.02,3.14Z"/><path class="cls-18" d="M387,248.22c-.03,.99-.06,2.05-.1,3.15-7.21,.86-14.71,1.21-22.08,1.21-25.7,0-49.74-4.15-53.47-4.82,.07-.56,.14-1.13,.21-1.7,.05-.47,.11-.94,.16-1.4,3.7,.68,42.8,7.57,75.28,3.57Z"/><path class="cls-18" d="M386.8,254.26c-.04,1.02-.09,2.07-.14,3.16-7.5,.95-15.35,1.32-23.04,1.32-24.89,0-48.21-3.89-53.05-4.75,.14-1.02,.27-2.05,.4-3.09,5.76,1.03,44.17,7.5,75.83,3.36Z"/><path class="cls-18" d="M349.09,199.54c8.32,0,16-8.84,16.33-9.23,.21-.25,.18-.62-.06-.83-.25-.21-.62-.18-.83,.06-.08,.09-8.12,9.36-16.16,8.8-.32-.02-.6,.22-.63,.55-.02,.32,.22,.6,.54,.63,.27,.02,.53,.03,.8,.03Z"/><path class="cls-18" d="M356.31,299.01c.29,0,.55-.22,.58-.52,.04-.32-.19-.61-.52-.65-21.49-2.47-30.4-39.68-30.49-40.06-.07-.32-.39-.51-.7-.44-.32,.07-.51,.39-.44,.7,.36,1.57,9.19,38.39,31.5,40.96,.02,0,.05,0,.07,0Z"/><path class="cls-18" d="M347.75,287.75c.2,0,.39-.1,.5-.28,.17-.28,.08-.64-.19-.81-11.43-7.05-13.13-17.44-13.15-17.54-.05-.32-.35-.54-.67-.49-.32,.05-.54,.35-.49,.67,.07,.45,1.78,11.02,13.69,18.37,.1,.06,.2,.09,.31,.09Z"/></g><g><circle class="cls-13" cx="354.42" cy="144.81" r="23.55"/><path class="cls-13" d="M331.26,140.59s-6.67-1.84-5.79-8.31c.75-5.51,7.22-1.94,6.65-6.24-.57-4.3-1.83-8.22,3.74-9.3,4.87-.94,4.95,2.4,11.35-2.45,7.56-5.72,13.36,7.53,20.11,7.93,9.95,.59,11.2,6.21,12.18,10.71,.98,4.5-2.85,7.66-2.85,7.66h-45.38Z"/><g><path class="cls-19" d="M334.83,151.4s-3.73-4.97-6.5-.86c-2.77,4.11,1.15,16.26,7.94,13.29l-1.43-12.43Z"/><path class="cls-16" d="M334.78,160.08c-.25,0-.48-.17-.55-.42-1.05-3.75-4.94-5.27-4.98-5.28-.3-.11-.44-.44-.33-.74,.11-.3,.44-.44,.74-.33,.18,.07,4.46,1.73,5.67,6.05,.09,.31-.09,.62-.4,.71-.05,.01-.1,.02-.15,.02Z"/><path class="cls-16" d="M330.86,158.19c-.11,0-.21-.03-.31-.09-.27-.17-.34-.53-.17-.79,.03-.04,.72-1.09,2.15-1.74,.29-.13,.63,0,.76,.29,.13,.29,0,.63-.29,.76-1.11,.5-1.65,1.3-1.66,1.31-.11,.17-.29,.26-.48,.26Z"/></g><path class="cls-12" d="M361.88,174.13v12.08s-4.97,5.32-9.84,5.74c-4.87,.42-7.83-5.36-7.83-5.36v-11.61l17.66-.85Z"/><path class="cls-19" d="M361.88,174.13v5.36c-3.27,3.63-9.07,4.53-17.66,3.26v-7.78l17.66-.85Z"/><path class="cls-12" d="M374.62,143.11c-.22,4.69-.67,10.56-1.57,15.26-.22,1.17-.48,2.27-.76,3.26-2.54,8.9-8.9,24.16-26.7,17.81-7.86-2.81-11.51-11.56-13.13-20.47-1.1-6.05-1.27-12.16-1.19-16.53,.09-4.46,2.52-8.53,6.4-10.73,10.51-5.96,21.59-3.74,28.89-.93,5.07,1.95,8.31,6.92,8.05,12.33Z"/><g><path class="cls-13" d="M353.26,151.64v.95c0,1.92,.75,3.72,2.11,5.07,1.34,1.33,3.11,2.06,5,2.06h.23c1.64-.03,3.12-.69,4.42-1.96,1.31-1.27,2.05-3.1,2.05-5.01v-1.13c0-.31-.06-.61-.17-.89-.12-.34-.32-.63-.57-.88-.45-.45-1.08-.73-1.77-.73h-8.81c-1,0-1.86,.58-2.26,1.43-.15,.31-.24,.65-.24,1.01,0,.02,0,.05,0,.07Zm1.04,0c0-.81,.66-1.47,1.47-1.47h8.81c.81,0,1.47,.65,1.47,1.47v1.13c0,1.63-.63,3.18-1.74,4.26-1.11,1.07-2.36,1.63-3.72,1.66h-.21c-1.61,0-3.12-.62-4.27-1.76-1.16-1.15-1.8-2.69-1.8-4.33v-.95Z"/><path class="cls-13" d="M335.62,151.64v.95c0,1.92,.75,3.72,2.11,5.07,1.34,1.33,3.11,2.06,5,2.06h.24c1.63-.03,3.12-.69,4.42-1.96,1.31-1.27,2.06-3.1,2.06-5.01v-1.13s0-.03,0-.05c0-.34-.08-.66-.21-.96-.39-.88-1.27-1.5-2.29-1.5h-8.81c-.77,0-1.47,.35-1.93,.9-.22,.27-.39,.59-.48,.93-.07,.21-.1,.44-.1,.67Zm1.04,0c0-.81,.66-1.47,1.47-1.47h8.81c.81,0,1.47,.65,1.47,1.47v1.13c0,1.63-.64,3.18-1.74,4.26-1.1,1.07-2.36,1.63-3.72,1.66h-.21c-1.61,0-3.12-.62-4.26-1.76-1.16-1.15-1.8-2.69-1.8-4.33v-.95Z"/><path class="cls-13" d="M373.36,148.72c-2.99-.13-5.13,.73-5.97,1.15-.24,.11-.87,.52-.89,.54l.49,.88s.7-.42,.97-.54c.83-.39,2.67-1.16,5.41-1v-1.04Z"/><path class="cls-13" d="M353.96,151.68l.34-.98c-.06-.02-1.52-.52-3.12-.52-1.71,0-2.8,.52-2.85,.55l.45,.93s.94-.44,2.4-.44,2.77,.46,2.78,.47Z"/><path class="cls-13" d="M331.98,148.97v1.04c2.15,.18,4.14,1.14,4.17,1.15l.46-.93c-.12-.06-2.25-1.09-4.63-1.26Z"/></g><path class="cls-13" d="M343.78,152.97c0,1.29-.66,2.33-1.48,2.33s-1.48-1.05-1.48-2.33,.66-2.33,1.48-2.33,1.48,1.05,1.48,2.33Z"/><path class="cls-13" d="M361.16,152.97c0,1.29-.66,2.33-1.48,2.33s-1.48-1.05-1.48-2.33,.66-2.33,1.48-2.33,1.48,1.05,1.48,2.33Z"/><path class="cls-13" d="M337.47,145.8s6.18-2.44,10.94-.39l-.4,2.21s-5.15-1.15-10.2,.73c-.32-1.02-.74-1.51-.34-2.55Z"/><path class="cls-13" d="M365.74,145.8s-6.18-2.44-10.94-.39l.4,2.21s5.15-1.15,10.2,.73c.31-1.02,.74-1.51,.34-2.55Z"/><path class="cls-19" d="M351.9,162.76c.97,0,1.93-.38,2.08-.44,.29-.12,.43-.45,.31-.75-.12-.29-.45-.43-.75-.31-.52,.21-1.76,.54-2.3,.22-.1-.06-.25-.19-.28-.53-.21-2,.34-8.72,.35-8.79,.03-.32-.21-.59-.52-.62-.32-.03-.59,.21-.62,.52-.02,.28-.56,6.89-.34,9,.08,.79,.5,1.2,.83,1.4,.37,.22,.81,.3,1.25,.3Z"/><path class="cls-3" d="M344.78,165.67c.47,2.36,2.03,6.7,7.28,6.7s6.74-3.97,7.25-6.7h-14.53Z"/><path class="cls-19" d="M351.99,175.37c1.49,0,2.74-.75,2.8-.78,.27-.16,.36-.52,.19-.79-.16-.27-.52-.36-.79-.19,0,0-1.05,.62-2.2,.62-1.06,0-2.08-.61-2.09-.62-.27-.17-.62-.08-.79,.19-.17,.27-.08,.62,.19,.79,.05,.03,1.29,.79,2.69,.79Z"/><path class="cls-13" d="M334.24,155.23c-.43-2.37-.86-5.42-.55-6.99,.56-2.77,2.85-4.4,2.09-7.07-.76-2.68,2.06-5.55,4.14-6.03,2.08-.48,6.94,.55,11.72-1.72,4.56-2.17,12.5-.62,13.79,2.31,1.56,3.55-.56,3.88,3.71,7.72,1.7,1.53-.32,5.5-.61,8.08-.13,1.19-.15,1.77-.1,3.04l.02,.65h5.11c.56-4,.89-8.42,1.06-12.12,.26-5.41-2.99-10.38-8.05-12.33-7.3-2.81-18.38-5.03-28.89,.93-3.88,2.2-6.31,6.27-6.39,10.73-.07,3.46,.03,8.03,.62,12.79h2.34Z"/><g><path class="cls-12" d="M371.29,157.43c-.02-1.34,.08-2.67,.31-3.99,.32-1.8,.84-3.43,2.68-4.18,1.48-.6,3.06-.62,4.19,1.05,2.77,4.11-.32,16.91-7.11,13.94l-.08-6.83Z"/><path class="cls-19" d="M372.69,160.53c.25-.05,.44-.26,.46-.52,.3-3.88,3.81-6.13,3.85-6.16,.27-.17,.35-.52,.18-.79-.17-.27-.52-.35-.79-.18-.16,.1-4.04,2.57-4.38,7.04-.02,.32,.21,.59,.53,.62,.05,0,.11,0,.16,0Z"/><path class="cls-19" d="M376.16,157.91c.1-.02,.2-.07,.29-.15,.23-.22,.23-.58,.01-.81-.04-.04-.92-.93-2.45-1.28-.31-.07-.62,.12-.69,.43-.07,.31,.12,.62,.43,.69,1.19,.27,1.88,.95,1.88,.96,.14,.15,.34,.2,.53,.16Z"/></g></g></g><path class="cls-8" d="M382.09,194.44c-8.39,12.71-40.48,56.66-47.72,61.76-9.43,6.65-35.13,16.1-49.88,25.95-5.01,3.35,6.83,12.82,6.83,12.82,0,0,35.97-10.11,52.16-20.45,4.58-2.92,23.64-22.02,35.79-38.95,4.16-5.8,10.93-13.86,11.91-22.43,1.13-9.86-1.97-15.14-9.09-18.7Z"/></g><g><path class="cls-2" d="M218.49,296.26h99.98c1.28,0,2.31,1.04,2.31,2.31v7.97c0,1.28-1.04,2.31-2.31,2.31h-99.98c-1.28,0-2.31-1.04-2.31-2.31v-7.97c0-1.28,1.04-2.31,2.31-2.31Z"/><path class="cls-13" d="M216.2,308.86l-19.66-73.64c-1.1-4.14,2.01-8.19,6.29-8.19h43.27c2.92,0,5.48,1.94,6.27,4.75l21.65,77.08h-57.82Z"/><path class="cls-2" d="M252.38,231.78l21.47,76.45h4.94l-21.47-76.45c-.8-2.81-3.35-4.76-6.27-4.76h-4.94c2.92,0,5.48,1.94,6.27,4.76Z"/><path class="cls-7" d="M241.25,271.24c1.12,4.86-1.9,8.79-6.76,8.79s-9.71-3.94-10.83-8.79c-1.12-4.86,1.9-8.79,6.76-8.79s9.71,3.94,10.83,8.79Z"/></g></g><g><g><path class="cls-4" d="M375.33,37.63c-3.64,0-6.6-2.96-6.6-6.6s2.96-6.6,6.6-6.6,6.6,2.96,6.6,6.6-2.96,6.6-6.6,6.6Zm0-11.14c-2.5,0-4.53,2.03-4.53,4.53s2.03,4.53,4.53,4.53,4.53-2.03,4.53-4.53-2.03-4.53-4.53-4.53Z"/><path class="cls-4" d="M399.1,60.8c-3.64,0-6.6-2.96-6.6-6.6s2.96-6.6,6.6-6.6,6.6,2.96,6.6,6.6-2.96,6.6-6.6,6.6Zm0-11.14c-2.5,0-4.53,2.03-4.53,4.53s2.03,4.53,4.53,4.53,4.53-2.03,4.53-4.53-2.03-4.53-4.53-4.53Z"/><g><g><path class="cls-4" d="M407.26,82.26c-.57,0-1.04-.46-1.04-1.04v-4.57c0-.57,.46-1.04,1.04-1.04s1.04,.46,1.04,1.04v4.57c0,.57-.46,1.04-1.04,1.04Z"/><path class="cls-4" d="M407.26,90.25c-.57,0-1.04-.46-1.04-1.04v-4.57c0-.57,.46-1.04,1.04-1.04s1.04,.46,1.04,1.04v4.57c0,.57-.46,1.04-1.04,1.04Z"/></g><g><path class="cls-4" d="M413.67,83.97h-4.1c-.57,0-1.04-.46-1.04-1.04s.46-1.04,1.04-1.04h4.1c.57,0,1.04,.46,1.04,1.04s-.46,1.04-1.04,1.04Z"/><path class="cls-4" d="M404.95,83.97h-4.1c-.57,0-1.04-.46-1.04-1.04s.46-1.04,1.04-1.04h4.1c.57,0,1.04,.46,1.04,1.04s-.46,1.04-1.04,1.04Z"/></g></g><g><g><path class="cls-4" d="M370.8,56.66c-.57,0-1.04-.46-1.04-1.04v-4.57c0-.57,.46-1.04,1.04-1.04s1.04,.46,1.04,1.04v4.57c0,.57-.46,1.04-1.04,1.04Z"/><path class="cls-4" d="M370.8,64.66c-.57,0-1.04-.46-1.04-1.04v-4.57c0-.57,.46-1.04,1.04-1.04s1.04,.46,1.04,1.04v4.57c0,.57-.46,1.04-1.04,1.04Z"/></g><g><path class="cls-4" d="M377.21,58.38h-4.1c-.57,0-1.04-.46-1.04-1.04s.46-1.04,1.04-1.04h4.1c.57,0,1.04,.46,1.04,1.04s-.46,1.04-1.04,1.04Z"/><path class="cls-4" d="M368.49,58.38h-4.1c-.57,0-1.04-.46-1.04-1.04s.46-1.04,1.04-1.04h4.1c.57,0,1.04,.46,1.04,1.04s-.46,1.04-1.04,1.04Z"/></g></g></g><g><path class="cls-4" d="M68.88,7.32c0-3.64,2.96-6.6,6.6-6.6s6.6,2.96,6.6,6.6-2.96,6.6-6.6,6.6-6.6-2.96-6.6-6.6Zm2.07,0c0,2.5,2.03,4.53,4.53,4.53s4.53-2.03,4.53-4.53-2.03-4.53-4.53-4.53-4.53,2.03-4.53,4.53Z"/><path class="cls-4" d="M42.36,32.49c0-3.64,2.96-6.6,6.6-6.6s6.6,2.96,6.6,6.6-2.96,6.6-6.6,6.6-6.6-2.96-6.6-6.6Zm2.07,0c0,2.5,2.03,4.53,4.53,4.53s4.53-2.03,4.53-4.53-2.03-4.53-4.53-4.53-4.53,2.03-4.53,4.53Z"/><g><g><path class="cls-4" d="M28.63,41.75c.57,0,1.04-.46,1.04-1.04v-4.57c0-.57-.46-1.04-1.04-1.04s-1.04,.46-1.04,1.04v4.57c0,.57,.46,1.04,1.04,1.04Z"/><path class="cls-4" d="M28.63,49.75c.57,0,1.04-.46,1.04-1.04v-4.57c0-.57-.46-1.04-1.04-1.04s-1.04,.46-1.04,1.04v4.57c0,.57,.46,1.04,1.04,1.04Z"/></g><g><path class="cls-4" d="M22.22,43.47h4.1c.57,0,1.04-.46,1.04-1.04s-.46-1.04-1.04-1.04h-4.1c-.57,0-1.04,.46-1.04,1.04s.46,1.04,1.04,1.04Z"/><path class="cls-4" d="M30.94,43.47h4.1c.57,0,1.04-.46,1.04-1.04s-.46-1.04-1.04-1.04h-4.1c-.57,0-1.04,.46-1.04,1.04s.46,1.04,1.04,1.04Z"/></g></g><g><g><path class="cls-4" d="M52.5,6.64c.57,0,1.04-.46,1.04-1.04V1.04c0-.57-.46-1.04-1.04-1.04s-1.04,.46-1.04,1.04V5.6c0,.57,.46,1.04,1.04,1.04Z"/><path class="cls-4" d="M52.5,14.63c.57,0,1.04-.46,1.04-1.04v-4.57c0-.57-.46-1.04-1.04-1.04s-1.04,.46-1.04,1.04v4.57c0,.57,.46,1.04,1.04,1.04Z"/></g><g><path class="cls-4" d="M46.09,8.35h4.1c.57,0,1.04-.46,1.04-1.04s-.46-1.04-1.04-1.04h-4.1c-.57,0-1.04,.46-1.04,1.04s.46,1.04,1.04,1.04Z"/><path class="cls-4" d="M54.81,8.35h4.1c.57,0,1.04-.46,1.04-1.04s-.46-1.04-1.04-1.04h-4.1c-.57,0-1.04,.46-1.04,1.04s.46,1.04,1.04,1.04Z"/></g></g></g><g><path class="cls-4" d="M323.61,14.33v20.11c0,2.66-2.16,4.81-4.81,4.81h-36.51l-11.02,3.95c-1.13,.41-2.22-.71-1.78-1.83l4.17-10.77V14.33c0-2.66,2.16-4.81,4.82-4.81h40.33c2.66,0,4.81,2.16,4.81,4.81Z"/><g class="cls-5"><path class="cls-3" d="M315.91,20.02h-33.49c-.73,0-1.33-.59-1.33-1.33h0c0-.73,.59-1.33,1.33-1.33h33.49c.73,0,1.33,.59,1.33,1.33h0c0,.73-.59,1.33-1.33,1.33Z"/><path class="cls-3" d="M315.91,25.37h-33.49c-.73,0-1.33-.59-1.33-1.33h0c0-.73,.59-1.33,1.33-1.33h33.49c.73,0,1.33,.59,1.33,1.33h0c0,.73-.59,1.33-1.33,1.33Z"/><path class="cls-3" d="M315.91,30.72h-33.49c-.73,0-1.33-.59-1.33-1.33h0c0-.73,.59-1.33,1.33-1.33h33.49c.73,0,1.33,.59,1.33,1.33h0c0,.73-.59,1.33-1.33,1.33Z"/></g></g></g><g><path class="cls-14" d="M34.36,308.87H423.8c4.14,0,7.51,3.36,7.51,7.51v.72c0,4.14-3.36,7.51-7.51,7.51H34.36c-4.14,0-7.51-3.36-7.51-7.51v-.72c0-4.14,3.36-7.51,7.51-7.51Z"/><path class="cls-14" d="M431.3,316.38v.36H26.85v-.36c0-4.14,3.36-7.51,7.51-7.51H423.79c4.15,0,7.51,3.36,7.51,7.51Z"/></g></g></svg>