<?xml version="1.0" encoding="UTF-8"?><svg id="Layer_2" xmlns="http://www.w3.org/2000/svg" xmlns:xlink="http://www.w3.org/1999/xlink" viewBox="0 0 2130.47 1408.76"><defs><style>.cls-1{fill:url(#linear-gradient-2);}.cls-2{fill:#f0f0f0;}.cls-3,.cls-4,.cls-5{fill:#fff;}.cls-6{fill:url(#linear-gradient-17);}.cls-7{fill:url(#linear-gradient-15);}.cls-8{fill:#3e31ba;}.cls-9{fill:url(#linear-gradient-18);}.cls-10{fill:url(#linear-gradient-14);}.cls-11{fill:url(#linear-gradient-20);}.cls-12{fill:url(#linear-gradient-6);}.cls-4{opacity:.66;}.cls-13{fill:#fe5e62;}.cls-14{fill:url(#linear-gradient-11);}.cls-15{fill:#31b583;}.cls-16{fill:url(#linear-gradient-10);}.cls-17{fill:#91b3fa;}.cls-18{fill:url(#linear-gradient-16);}.cls-19{fill:#4e37d3;}.cls-20{fill:#7d97f4;}.cls-21{fill:url(#linear-gradient-5);}.cls-22{opacity:.76;}.cls-23{fill:url(#linear-gradient-7);}.cls-24{fill:#3ecc99;}.cls-25{fill:url(#linear-gradient-9);}.cls-26{fill:url(#linear-gradient-3);}.cls-27{fill:url(#linear-gradient);}.cls-28{fill:#bdd0fb;}.cls-29{fill:url(#linear-gradient-19);}.cls-30{fill:url(#linear-gradient-4);}.cls-31{fill:url(#linear-gradient-8);}.cls-32{fill:url(#linear-gradient-12);}.cls-33{fill:url(#linear-gradient-13);}.cls-5{opacity:.51;}</style><linearGradient id="linear-gradient" x1="-80.39" y1="728.56" x2="1956.35" y2="728.56" gradientTransform="translate(84.71 -3.07) rotate(-.08) scale(1.05 1) skewX(-.16)" gradientUnits="userSpaceOnUse"><stop offset="0" stop-color="#dae3fe"/><stop offset="1" stop-color="#e9effd"/></linearGradient><linearGradient id="linear-gradient-2" x1="665.71" y1="458.45" x2="471.45" y2="351.38" gradientTransform="matrix(1, 0, 0, 1, 0, 0)" gradientUnits="userSpaceOnUse"><stop offset="0" stop-color="#fe7062"/><stop offset="1" stop-color="#ff928e"/></linearGradient><linearGradient id="linear-gradient-3" x1="766.95" y1="436.34" x2="527.72" y2="552.24" gradientTransform="matrix(1, 0, 0, 1, 0, 0)" gradientUnits="userSpaceOnUse"><stop offset="0" stop-color="#ff928e"/><stop offset="1" stop-color="#feb3b1"/></linearGradient><linearGradient id="linear-gradient-4" x1="768.09" y1="438.7" x2="528.86" y2="554.59" xlink:href="#linear-gradient-3"/><linearGradient id="linear-gradient-5" x1="772.41" y1="309.01" x2="760.41" y2="415.51" xlink:href="#linear-gradient-3"/><linearGradient id="linear-gradient-6" x1="277.94" y1="815.17" x2="315.39" y2="815.17" gradientTransform="matrix(1, 0, 0, 1, 0, 0)" gradientUnits="userSpaceOnUse"><stop offset="0" stop-color="#4042e2"/><stop offset="1" stop-color="#4f52ff"/></linearGradient><linearGradient id="linear-gradient-7" x1="281.68" y1="812.82" x2="321.53" y2="812.82" gradientTransform="matrix(1, 0, 0, 1, 0, 0)" gradientUnits="userSpaceOnUse"><stop offset="0" stop-color="#09005d"/><stop offset="1" stop-color="#1a0f91"/></linearGradient><linearGradient id="linear-gradient-8" x1="301.57" y1="772.52" x2="330.88" y2="772.52" xlink:href="#linear-gradient-3"/><linearGradient id="linear-gradient-9" x1="729.65" y1="680.7" x2="785.8" y2="680.7" xlink:href="#linear-gradient-6"/><linearGradient id="linear-gradient-10" x1="715.66" y1="680.17" x2="783.36" y2="680.17" xlink:href="#linear-gradient-7"/><linearGradient id="linear-gradient-11" x1="697.71" y1="678.21" x2="729.91" y2="678.21" xlink:href="#linear-gradient-3"/><linearGradient id="linear-gradient-12" x1="416.51" y1="676.72" x2="269.51" y2="871.71" xlink:href="#linear-gradient-7"/><linearGradient id="linear-gradient-13" x1="731.18" y1="613.65" x2="543.69" y2="613.65" xlink:href="#linear-gradient-7"/><linearGradient id="linear-gradient-14" x1="540.08" y1="403.83" x2="363.48" y2="685.28" xlink:href="#linear-gradient-2"/><linearGradient id="linear-gradient-15" x1="414.6" y1="328.08" x2="446.6" y2="494.08" xlink:href="#linear-gradient-3"/><linearGradient id="linear-gradient-16" x1="519.89" y1="410" x2="497.9" y2="420.66" xlink:href="#linear-gradient-2"/><linearGradient id="linear-gradient-17" x1="579.78" y1="309.47" x2="555.78" y2="460.96" xlink:href="#linear-gradient-3"/><linearGradient id="linear-gradient-18" x1="560.58" y1="266.59" x2="602.58" y2="373.08" xlink:href="#linear-gradient-3"/><linearGradient id="linear-gradient-19" x1="556.47" y1="279.66" x2="617.37" y2="358.06" xlink:href="#linear-gradient-7"/><linearGradient id="linear-gradient-20" x1="539.59" y1="274.86" x2="581.58" y2="381.36" xlink:href="#linear-gradient-3"/></defs><g id="Illustration"><g><path class="cls-27" d="M542.58,145.46C422.99,287.22-12.49,148.18,.27,401.97c14.95,297.17,279.56,428.79,149.33,642.22-130.23,213.43,190.01,384.9,740.43,362.62,550.42-22.27,1427.6-313.29,1204.98-591.23-222.62-277.94-80.93-297.17-74.6-423.4,6.32-126.24-110.59-398.89-529.52-154.76-418.93,244.13-645.49-450.92-948.32-91.95Z"/><g><path class="cls-28" d="M777.37,1051.55c-105.74-8.4-201.09-150.8-173.21-222.03,18.84-48.13,81.72-32.57,112.78-87.35,39.66-69.95-39.53-136.45-39.97-266.04-.38-110.29,56.36-238.85,119.17-244.04,65.75-5.43,155.99,122.86,142.75,228.71-8.61,68.83-56.5,92.34-45.35,148.24,12.94,64.86,84.11,66.76,108.94,124.43,44.61,103.59-85.22,329.21-225.11,318.09Z"/><path class="cls-17" d="M840.94,1071.42c-.52,.22-1.09,.33-1.69,.3-2.11-.11-3.74-1.91-3.63-4.02,14.5-285.28-68.21-574.03-69.04-576.91-.59-2.03,.58-4.16,2.61-4.75,2.03-.59,4.16,.58,4.75,2.61,.84,2.9,83.9,292.88,69.34,579.43-.08,1.52-1.02,2.78-2.33,3.34Z"/><path class="cls-17" d="M885.92,523.95c-.16,0-.33-.02-.49-.07-1.02-.27-1.62-1.31-1.35-2.33,29.88-111.94,7.56-176.63-16.42-211.19-25.94-37.38-59.38-48.57-59.71-48.68-1-.32-1.55-1.4-1.22-2.39,.32-1,1.4-1.55,2.39-1.23,1.41,.46,34.83,11.59,61.52,49.92,24.53,35.23,47.41,101.04,17.11,214.55-.23,.85-1,1.41-1.84,1.41Z"/><path class="cls-2" d="M760.09,1034.41c-.35,0-.71-.1-1.02-.3-90.18-57.68-135.82-112.46-135.63-162.8,.16-44.78,38.15-69.2,38.53-69.45,.89-.56,2.06-.29,2.62,.6,.56,.89,.29,2.06-.59,2.62-.37,.23-36.63,23.61-36.76,66.29-.15,48.94,44.9,102.62,133.88,159.54,.88,.57,1.14,1.74,.58,2.63-.36,.57-.98,.88-1.6,.88Z"/></g><g><path class="cls-17" d="M707.24,1156.28c-67.52,28.16-172.72-30.53-218.45-108.51-47.06-80.25,.31-127.31-24.09-246.87-27.71-135.81-102.51-142.13-185.99-315.95-18.83-39.22-127.82-266.16-61.13-326.16,61.66-55.47,282.03,24.11,346.99,169.47,46.32,103.65-20.47,164.45,33.87,285.09,47.68,105.86,114.87,94.06,161.95,195.97,57.31,124.07,35.51,309.97-53.15,346.95Z"/><path class="cls-20" d="M708.73,1190.23c-10.38-150.23-92.64-368.72-159.82-525.56-72.73-169.8-143.94-305.93-144.65-307.28l-5.51,2.89c.71,1.35,71.82,137.3,144.46,306.89,66.98,156.38,149,374.15,159.32,523.5l6.21-.43Z"/></g><g><path class="cls-28" d="M507.22,1174.85c70.31-36.63,94.37-162.43,54.41-203.31-27-27.62-65.73,1.43-103.09-27.2-47.7-36.56-12.61-105.42-50.11-194.72-31.91-76-108.47-147.91-153.2-133.16-46.83,15.45-71.49,130.05-31.5,199.02,26.01,44.85,65.82,47.06,74.45,88.77,10.02,48.4-38.39,70.48-38.66,117.41-.47,84.3,154.69,201.66,247.7,153.2Z"/><path class="cls-17" d="M469.28,1207.07c.42,0,.85-.09,1.25-.29,1.42-.69,2.02-2.4,1.33-3.83-93.21-192.07-120.54-414.88-120.81-417.11-.19-1.57-1.61-2.69-3.18-2.5-1.57,.19-2.69,1.61-2.5,3.18,.27,2.24,27.72,226.01,121.34,418.93,.49,1.02,1.52,1.61,2.58,1.61Z"/><path class="cls-17" d="M278.05,844.08c-.57,0-1.13-.25-1.5-.73-54.07-69.41-57.53-121.52-50.91-153.02,7.22-34.32,27.08-51.84,27.93-52.57,.79-.69,1.99-.6,2.68,.19,.69,.79,.6,1.99-.19,2.68-.2,.17-19.85,17.56-26.74,50.71-6.38,30.67-2.84,81.53,50.24,149.66,.65,.83,.5,2.02-.33,2.67-.35,.27-.76,.4-1.17,.4Z"/><path class="cls-17" d="M513.56,1158.61c-.37,0-.74-.11-1.07-.33-.87-.59-1.09-1.78-.49-2.64,44.52-64.97,59.84-114.89,45.54-148.36-12.43-29.08-43.96-34.56-44.27-34.62-1.04-.17-1.74-1.15-1.57-2.18,.17-1.04,1.13-1.74,2.18-1.57,1.38,.22,33.86,5.82,47.14,36.83,14.88,34.75-.55,85.91-45.88,152.06-.37,.54-.96,.83-1.57,.83Z"/></g><path class="cls-19" d="M176.98,1327.97H1877.85v62.78H195.12c-10.01,0-18.14-8.13-18.14-18.14v-44.65h0Z"/><g><g><path class="cls-8" d="M1556.73,313.19h369.74c22.31,0,40.42,18.11,40.42,40.42v988.06h-450.58V353.61c0-22.31,18.11-40.42,40.42-40.42Z"/><path class="cls-19" d="M1423.89,313.19h369.74c22.31,0,40.42,18.11,40.42,40.42v988.06h-450.58V353.61c0-22.31,18.11-40.42,40.42-40.42Z"/><g><path class="cls-17" d="M1420.67,500.43c-1.58,0-2.85-1.28-2.85-2.85v-78.07c0-41.08,33.42-74.5,74.5-74.5h118.48c1.58,0,2.85,1.28,2.85,2.85s-1.28,2.85-2.85,2.85h-118.48c-37.93,0-68.79,30.86-68.79,68.79v78.07c0,1.58-1.28,2.85-2.85,2.85Z"/><path class="cls-3" d="M1420.67,583.2c-1.58,0-2.85-1.28-2.85-2.85v-31.81c0-1.58,1.28-2.85,2.85-2.85s2.85,1.28,2.85,2.85v31.81c0,1.58-1.28,2.85-2.85,2.85Z"/></g></g><g><path class="cls-15" d="M1530.2,1341.67h-457.53V566.04c0-22.33,18.1-40.42,40.42-40.42h376.68c22.33,0,40.42,18.1,40.42,40.42v775.62Z"/><path class="cls-24" d="M1413.98,1341.67h-457.53V566.04c0-22.33,18.1-40.42,40.42-40.42h376.68c22.33,0,40.42,18.1,40.42,40.42v775.62Z"/><g><path class="cls-3" d="M987.12,678.05c-1.58,0-2.85-1.28-2.85-2.85v-57.9c0-30.87,25.11-55.98,55.99-55.98h87.86c1.58,0,2.85,1.28,2.85,2.85s-1.28,2.85-2.85,2.85h-87.86c-27.72,0-50.28,22.55-50.28,50.28v57.9c0,1.58-1.28,2.85-2.85,2.85Z"/><path class="cls-3" d="M987.12,739.44c-1.58,0-2.85-1.28-2.85-2.85v-23.59c0-1.58,1.28-2.85,2.85-2.85s2.85,1.28,2.85,2.85v23.59c0,1.58-1.28,2.85-2.85,2.85Z"/></g></g><g><path class="cls-8" d="M711.91,765.29h313.39c22.31,0,40.42,18.11,40.42,40.42v535.95h-394.24V805.71c0-22.31,18.11-40.42,40.42-40.42Z"/><path class="cls-19" d="M595.69,765.29h313.39c22.31,0,40.42,18.11,40.42,40.42v535.95h-394.24V805.71c0-22.31,18.11-40.42,40.42-40.42Z"/><g><path class="cls-17" d="M587.81,929.47c-1.58,0-2.85-1.28-2.85-2.85v-68.31c0-36.14,29.4-65.54,65.54-65.54h103.66c1.58,0,2.85,1.28,2.85,2.85s-1.28,2.85-2.85,2.85h-103.66c-32.99,0-59.83,26.84-59.83,59.83v68.31c0,1.58-1.28,2.85-2.85,2.85Z"/><path class="cls-17" d="M587.81,1001.9c-1.58,0-2.85-1.28-2.85-2.85v-27.83c0-1.58,1.28-2.85,2.85-2.85s2.85,1.28,2.85,2.85v27.83c0,1.58-1.28,2.85-2.85,2.85Z"/></g></g><g><path class="cls-15" d="M687.84,1341.67H293.59v-246.01c0-22.33,18.1-40.42,40.42-40.42h313.39c22.33,0,40.42,18.1,40.42,40.42v246.01Z"/><path class="cls-24" d="M571.61,1341.67H177.37v-246.01c0-22.33,18.1-40.42,40.42-40.42h313.39c22.33,0,40.42,18.1,40.42,40.42v246.01Z"/><g><path class="cls-3" d="M205.4,1214.7c-1.58,0-2.85-1.28-2.85-2.85v-68.31c0-36.14,29.4-65.54,65.54-65.54h103.66c1.58,0,2.85,1.28,2.85,2.85s-1.28,2.85-2.85,2.85h-103.66c-32.99,0-59.83,26.84-59.83,59.83v68.31c0,1.58-1.28,2.85-2.85,2.85Z"/><path class="cls-3" d="M205.4,1287.13c-1.58,0-2.85-1.28-2.85-2.85v-27.83c0-1.58,1.28-2.85,2.85-2.85s2.85,1.28,2.85,2.85v27.83c0,1.58-1.28,2.85-2.85,2.85Z"/></g></g></g><g><path class="cls-5" d="M1676.44,9.18l26.24,53.17c2.4,4.86,7.03,8.23,12.39,9l58.67,8.53c13.5,1.96,18.89,18.55,9.12,28.08l-42.46,41.39c-3.88,3.78-5.65,9.23-4.73,14.57l10.02,58.44c2.31,13.45-11.81,23.7-23.88,17.35l-52.48-27.59c-4.8-2.52-10.52-2.52-15.32,0l-52.48,27.59c-12.08,6.35-26.19-3.91-23.88-17.35l10.02-58.44c.92-5.34-.85-10.79-4.73-14.57l-42.46-41.39c-9.77-9.52-4.38-26.12,9.12-28.08l58.67-8.53c5.36-.78,10-4.15,12.39-9l26.24-53.17c6.04-12.23,23.48-12.23,29.52,0Z"/><path class="cls-13" d="M1729.48,231.68c-1.02,0-2.04-.26-3.04-.78l-52.48-27.59c-3.77-1.98-8.02-3.03-12.29-3.03s-8.51,1.05-12.29,3.03l-52.48,27.59c-.99,.52-2.01,.78-3.04,.78-1.89,0-3.77-.9-5.04-2.41-.86-1.02-1.8-2.76-1.38-5.25l10.02-58.44c1.47-8.57-1.37-17.3-7.59-23.37l-42.46-41.39c-2.62-2.55-2.03-5.52-1.65-6.68,.38-1.16,1.64-3.91,5.26-4.44l58.67-8.53c8.6-1.25,16.03-6.65,19.88-14.44l26.24-53.17c1.62-3.28,4.63-3.63,5.84-3.63s4.23,.35,5.84,3.63l26.24,53.17c3.85,7.8,11.28,13.19,19.88,14.44l58.67,8.53c3.62,.53,4.88,3.28,5.26,4.44,.38,1.16,.97,4.13-1.65,6.68l-42.46,41.39c-6.22,6.07-9.06,14.8-7.59,23.37l10.02,58.44c.43,2.48-.51,4.22-1.38,5.25-1.27,1.51-3.16,2.41-5.04,2.41Z"/><path class="cls-4" d="M1606.03,151.38c-.63,0-1.21-.4-1.42-1.03-1.74-5.35-4.79-10.26-8.82-14.19l-16.15-15.75c-.59-.57-.6-1.52-.03-2.11,.57-.59,1.52-.6,2.11-.03l16.15,15.74c4.38,4.27,7.69,9.59,9.58,15.4,.25,.78-.17,1.62-.96,1.88-.15,.05-.31,.07-.46,.07Z"/><path class="cls-4" d="M1637.75,199.69c-.54,0-1.05-.29-1.32-.8-.38-.73-.1-1.63,.63-2.01l7.03-3.69c5.41-2.84,11.5-4.35,17.61-4.35s12.2,1.5,17.61,4.35c.73,.38,1.01,1.29,.63,2.01-.38,.73-1.29,1.01-2.01,.63-4.98-2.62-10.59-4-16.22-4s-11.24,1.38-16.22,4l-7.03,3.69c-.22,.12-.46,.17-.69,.17Z"/><path class="cls-4" d="M1710.78,211.54c-1.17,0-2.35-.17-3.5-.53-.79-.24-1.23-1.07-.99-1.86,.24-.79,1.07-1.23,1.86-.99,3.02,.92,6.27,.2,8.7-1.94,2.43-2.14,3.51-5.21,2.96-8.42l-5.19-30.28c-2.1-12.28,1.96-24.8,10.88-33.49l22-21.45c2.56-2.49,3.43-6.01,2.32-9.41-1.1-3.4-3.87-5.73-7.41-6.25l-30.4-4.42c-12.33-1.79-22.98-9.53-28.49-20.7l-13.6-27.55c-1.58-3.2-4.66-5.12-8.23-5.12s-6.65,1.91-8.23,5.12l-13.6,27.55c-5.51,11.17-16.16,18.91-28.49,20.7l-30.4,4.42c-1.81,.26-3.47,1.02-4.78,2.2-.62,.55-1.56,.49-2.11-.12-.55-.61-.49-1.56,.12-2.11,1.75-1.57,3.95-2.58,6.34-2.92l30.4-4.42c11.35-1.65,21.17-8.78,26.24-19.07l13.6-27.55c2.06-4.18,6.24-6.78,10.91-6.78s8.84,2.6,10.91,6.78l13.6,27.55c5.08,10.29,14.89,17.42,26.25,19.07l30.4,4.42c4.61,.67,8.38,3.84,9.82,8.28,1.44,4.44,.26,9.21-3.08,12.47l-22,21.45c-8.22,8.01-11.96,19.54-10.02,30.85l5.19,30.28c.72,4.19-.75,8.37-3.93,11.17-2.29,2.01-5.14,3.08-8.04,3.08Z"/></g><g class="cls-22"><path class="cls-3" d="M1798.07,176.94l5.61,1.6c1.52,.43,2.4,2.02,1.97,3.54-.43,1.52-2.02,2.4-3.54,1.97h0l-.12-.04-5.37-1.55-.12-.03c-1.51-.44-2.39-2.02-1.95-3.53,.44-1.51,2.01-2.39,3.52-1.95Z"/><path class="cls-3" d="M1816.45,183.17l5.33,2.35c1.46,.65,2.13,2.36,1.48,3.82-.65,1.46-2.36,2.13-3.82,1.48h0l-.11-.05-5.11-2.28-.11-.05c-1.46-.65-2.11-2.36-1.46-3.81,.65-1.46,2.35-2.11,3.8-1.47Z"/><path class="cls-3" d="M1833.82,191.82l4.97,3.03c1.38,.84,1.82,2.65,.98,4.03-.84,1.38-2.65,1.82-4.03,.98h0l-.1-.06-4.77-2.93-.1-.06c-1.38-.84-1.81-2.64-.96-4.02,.84-1.38,2.64-1.81,4.01-.97Z"/><path class="cls-3" d="M1849.91,202.62l4.55,3.61c1.28,1.02,1.5,2.88,.48,4.17s-2.88,1.5-4.17,.48h0l-.08-.07-4.37-3.5-.08-.07c-1.28-1.02-1.48-2.88-.46-4.16,1.02-1.28,2.87-1.49,4.15-.47Z"/><path class="cls-3" d="M1864.57,215.27l4.1,4.11c1.17,1.17,1.17,3.07,0,4.24-1.17,1.17-3.07,1.17-4.24,0h0l-.07-.08-3.94-3.98-.07-.07c-1.16-1.17-1.15-3.07,.02-4.23,1.17-1.16,3.06-1.16,4.22,.01Z"/><path class="cls-3" d="M1877.69,229.5l3.62,4.54c1.05,1.31,.83,3.22-.48,4.27-1.31,1.05-3.22,.83-4.27-.48h0l-.06-.08-3.48-4.4-.06-.08c-1.04-1.31-.82-3.21,.49-4.25,1.31-1.04,3.21-.83,4.24,.48Z"/><path class="cls-3" d="M1889.19,245.05l3.12,4.89c.91,1.43,.49,3.33-.94,4.24-1.43,.91-3.33,.49-4.24-.94h0l-.05-.09-3-4.74-.05-.08c-.9-1.43-.48-3.32,.95-4.22,1.43-.9,3.31-.49,4.22,.94Z"/><path class="cls-3" d="M1899,261.72l2.6,5.19c.77,1.53,.15,3.4-1.38,4.17-1.53,.77-3.4,.15-4.17-1.38h0l-.04-.1-2.5-5.03-.04-.09c-.76-1.53-.14-3.39,1.39-4.15,1.53-.76,3.38-.15,4.14,1.38Z"/><path class="cls-3" d="M1907.04,279.31l2.06,5.43c.61,1.62-.2,3.43-1.82,4.05-1.62,.61-3.43-.2-4.05-1.82h0l-.03-.1-1.97-5.25-.03-.09c-.61-1.62,.21-3.42,1.83-4.03,1.62-.61,3.42,.2,4.02,1.82Z"/><path class="cls-3" d="M1913.24,297.64l1.48,5.62c.45,1.69-.56,3.43-2.26,3.88-1.69,.45-3.43-.56-3.88-2.26h0l-.03-.11-1.41-5.44-.03-.1c-.44-1.69,.57-3.42,2.26-3.86,1.69-.44,3.41,.56,3.85,2.25Z"/><path class="cls-3" d="M1917.48,316.54c.32,1.91,.6,3.83,.87,5.74,.25,1.75-.96,3.38-2.72,3.63-1.75,.25-3.38-.96-3.63-2.72h0v-.06c-.27-1.85-.53-3.71-.83-5.55-.29-1.74,.89-3.39,2.63-3.68,1.74-.29,3.39,.88,3.68,2.63Z"/><path class="cls-3" d="M1919.74,335.74l.32,5.79c.1,1.78-1.27,3.31-3.05,3.4-1.78,.1-3.31-1.27-3.4-3.05h0v-.09l-.3-5.61v-.09c-.1-1.78,1.27-3.3,3.05-3.4,1.78-.09,3.3,1.27,3.4,3.05Z"/><path class="cls-3" d="M1920.17,355.05l-.21,5.79c-.07,1.79-1.57,3.19-3.36,3.12-1.79-.07-3.19-1.57-3.12-3.36h0v-.09l.22-5.62v-.09c.07-1.79,1.58-3.18,3.36-3.12,1.79,.07,3.18,1.57,3.12,3.36Z"/><path class="cls-3" d="M1918.88,374.31l-.71,5.75c-.22,1.79-1.85,3.05-3.63,2.83-1.78-.22-3.05-1.85-2.83-3.63h0v-.08l.71-5.58v-.08c.23-1.78,1.86-3.05,3.64-2.83,1.78,.22,3.05,1.84,2.83,3.63Z"/><path class="cls-3" d="M1915.97,393.37l-1.17,5.66c-.37,1.77-2.09,2.9-3.86,2.54-1.77-.37-2.9-2.09-2.54-3.86h0l.02-.08,1.15-5.51,.02-.08c.37-1.77,2.1-2.9,3.86-2.53,1.77,.37,2.9,2.09,2.53,3.86Z"/><path class="cls-3" d="M1911.55,412.14l-1.6,5.56c-.5,1.74-2.32,2.75-4.06,2.24-1.74-.5-2.75-2.32-2.24-4.06h0l.02-.07,1.57-5.41,.02-.07c.5-1.74,2.32-2.74,4.06-2.24,1.74,.5,2.74,2.32,2.24,4.05Z"/><path class="cls-3" d="M1905.75,430.5l-1.99,5.42c-.63,1.71-2.52,2.58-4.23,1.95-1.71-.63-2.58-2.52-1.95-4.23h0l.02-.07,1.95-5.28,.02-.07c.63-1.7,2.52-2.57,4.22-1.95,1.7,.63,2.58,2.52,1.95,4.22Z"/><path class="cls-3" d="M1898.67,448.4l-2.36,5.27c-.75,1.67-2.7,2.41-4.37,1.66-1.67-.75-2.41-2.7-1.66-4.37h0l.03-.06,2.32-5.15,.03-.06c.75-1.66,2.7-2.4,4.36-1.66,1.66,.75,2.41,2.7,1.66,4.36Z"/><path class="cls-3" d="M1890.39,465.77l-2.7,5.1c-.86,1.62-2.86,2.24-4.48,1.38-1.62-.86-2.23-2.86-1.38-4.48h0l.03-.06,2.65-4.98,.03-.06c.86-1.62,2.86-2.23,4.48-1.37,1.62,.86,2.23,2.86,1.37,4.48Z"/><path class="cls-3" d="M1881.01,482.57l-3.02,4.92c-.96,1.57-3.01,2.06-4.58,1.09-1.57-.96-2.06-3.01-1.09-4.58h0l.03-.06,2.96-4.81,.03-.05c.96-1.56,3.01-2.05,4.57-1.09,1.56,.96,2.05,3.01,1.09,4.57Z"/><path class="cls-3" d="M1870.58,498.73l-3.32,4.72c-1.06,1.51-3.15,1.87-4.65,.81-1.51-1.06-1.87-3.15-.81-4.65h0l.04-.05,3.26-4.61,.04-.05c1.06-1.5,3.14-1.86,4.65-.8,1.5,1.06,1.87,3.14,.8,4.65Z"/><path class="cls-3" d="M1859.2,514.22l-3.58,4.52c-1.15,1.45-3.26,1.7-4.71,.55-1.45-1.15-1.7-3.26-.55-4.71h0l.03-.05,3.52-4.43,.03-.04c1.15-1.45,3.26-1.69,4.7-.54,1.45,1.15,1.69,3.25,.54,4.7Z"/><path class="cls-3" d="M1847,529.05l-3.81,4.32c-1.23,1.39-3.35,1.53-4.75,.3s-1.53-3.35-.3-4.75h0l.03-.04,3.74-4.24,.03-.04c1.23-1.39,3.35-1.52,4.74-.29s1.53,3.35,.3,4.74Z"/><path class="cls-3" d="M1834.07,543.23l-4.01,4.13c-1.3,1.34-3.43,1.37-4.77,.07-1.34-1.3-1.37-3.43-.07-4.77h0l.03-.04,3.95-4.06,.03-.03c1.3-1.33,3.43-1.36,4.77-.07,1.33,1.3,1.37,3.43,.07,4.76Z"/><path class="cls-3" d="M1820.5,556.77l-4.18,3.95c-1.36,1.28-3.5,1.22-4.79-.14-1.28-1.36-1.22-3.5,.14-4.79h0l.03-.03,4.13-3.88,.03-.03c1.36-1.28,3.5-1.21,4.78,.15,1.28,1.36,1.22,3.5-.14,4.78Z"/><path class="cls-3" d="M1806.37,569.72l-4.34,3.77c-1.42,1.23-3.56,1.08-4.8-.33-1.23-1.42-1.08-3.56,.33-4.8h0l.03-.03,4.28-3.71,.03-.03c1.42-1.23,3.56-1.08,4.79,.34,1.23,1.42,1.08,3.56-.34,4.79Z"/><path class="cls-3" d="M1791.76,582.1l-4.46,3.6c-1.47,1.18-3.61,.95-4.8-.51-1.18-1.47-.95-3.61,.51-4.8h0l.03-.02,4.41-3.55,.03-.02c1.47-1.18,3.61-.95,4.79,.52,1.18,1.47,.95,3.61-.51,4.79Z"/><path class="cls-3" d="M1776.73,593.94l-4.58,3.46c-1.51,1.14-3.65,.84-4.79-.67-1.14-1.51-.84-3.65,.67-4.79h0l.03-.02,4.54-3.42,.03-.02c1.51-1.14,3.65-.83,4.79,.68,1.14,1.51,.84,3.65-.67,4.79Z"/><path class="cls-3" d="M1761.35,605.3l-4.68,3.32c-1.55,1.1-3.69,.73-4.79-.81-1.1-1.55-.73-3.69,.81-4.79h0l.02-.02,4.64-3.29,.02-.02c1.55-1.1,3.69-.73,4.78,.82,1.1,1.55,.73,3.69-.81,4.78Z"/><path class="cls-3" d="M1745.65,616.23l-4.76,3.2c-1.58,1.06-3.72,.64-4.78-.94-1.06-1.58-.64-3.72,.94-4.78h0l.02-.02,4.73-3.17h.02c1.58-1.07,3.72-.65,4.78,.93,1.06,1.58,.64,3.72-.94,4.77Z"/><path class="cls-3" d="M1729.7,626.77l-4.83,3.09c-1.61,1.03-3.75,.56-4.78-1.05-1.03-1.61-.56-3.75,1.05-4.78h.02l4.79-3.07h.02c1.61-1.04,3.74-.57,4.77,1.04,1.03,1.61,.56,3.74-1.05,4.77Z"/><path class="cls-3" d="M1713.56,636.95l-4.88,3c-1.63,1-3.77,.49-4.77-1.14-1-1.63-.49-3.77,1.14-4.77h.02l4.85-2.98h.02c1.63-1.01,3.77-.5,4.77,1.14,1,1.63,.49,3.76-1.14,4.76Z"/><path class="cls-3" d="M1697.23,646.84l-4.93,2.91c-1.66,.98-3.79,.43-4.77-1.23-.98-1.66-.43-3.79,1.23-4.77h.02l4.9-2.9h.02c1.66-.98,3.79-.43,4.76,1.22,.97,1.66,.43,3.79-1.23,4.76Z"/><path class="cls-3" d="M1680.73,656.45l-4.98,2.83c-1.68,.95-3.81,.37-4.76-1.31-.95-1.68-.37-3.81,1.31-4.76h.02l4.95-2.82h.01c1.68-.96,3.81-.37,4.76,1.31,.95,1.68,.36,3.8-1.31,4.76Z"/><path class="cls-3" d="M1664.09,665.79l-5.02,2.76c-1.7,.93-3.83,.31-4.76-1.39-.93-1.7-.31-3.83,1.39-4.76h.02l5-2.74h.01c1.7-.94,3.82-.31,4.75,1.39,.93,1.7,.31,3.82-1.39,4.75Z"/><path class="cls-3" d="M1647.31,674.88l-5.06,2.68c-1.72,.91-3.85,.26-4.76-1.46-.91-1.72-.26-3.85,1.46-4.76h.02l5.03-2.67h.01c1.72-.91,3.84-.26,4.75,1.46,.91,1.72,.25,3.84-1.46,4.75Z"/><path class="cls-3" d="M1630.42,683.73l-5.09,2.61c-1.73,.89-3.86,.21-4.75-1.53-.89-1.73-.21-3.86,1.53-4.75h.02l5.07-2.6h.01c1.73-.89,3.86-.21,4.74,1.53,.89,1.73,.21,3.86-1.53,4.74Z"/><path class="cls-3" d="M1613.42,692.37l-5.12,2.55c-1.75,.87-3.88,.16-4.75-1.59-.87-1.75-.16-3.88,1.59-4.75h.01l5.1-2.54h.01c1.75-.87,3.87-.16,4.74,1.59,.87,1.75,.16,3.87-1.59,4.74Z"/><path class="cls-3" d="M1596.33,700.81l-5.15,2.5c-1.77,.86-3.89,.12-4.75-1.65-.86-1.77-.12-3.89,1.65-4.75h.01l5.13-2.49h0c1.76-.86,3.89-.12,4.74,1.65,.85,1.76,.12,3.89-1.65,4.74Z"/><path class="cls-3" d="M1579.15,709.07l-5.17,2.45c-1.78,.84-3.91,.08-4.75-1.7-.84-1.78-.08-3.91,1.7-4.75h.01l5.15-2.44h0c1.78-.84,3.9-.08,4.74,1.7,.84,1.78,.08,3.9-1.7,4.74Z"/><path class="cls-3" d="M1561.9,717.16l-5.19,2.4c-1.79,.83-3.92,.05-4.75-1.74-.83-1.79-.05-3.92,1.74-4.75h.01l5.18-2.39c1.79-.83,3.91-.05,4.75,1.74s.05,3.92-1.74,4.75Z"/><path class="cls-3" d="M1544.58,725.11l-5.21,2.36c-1.81,.82-3.93,.02-4.75-1.79-.82-1.81-.02-3.93,1.79-4.75h.01l5.19-2.35c1.8-.82,3.93-.02,4.75,1.78,.82,1.8,.02,3.93-1.78,4.75Z"/><path class="cls-3" d="M1527.21,732.94l-5.22,2.33c-1.82,.81-3.94,0-4.75-1.82-.81-1.82,0-3.94,1.82-4.75h0l5.21-2.32c1.81-.81,3.94,0,4.75,1.82s0,3.94-1.82,4.75Z"/><path class="cls-3" d="M1509.8,740.64l-5.23,2.29c-1.82,.8-3.93-.03-4.73-1.85-.79-1.82,.03-3.93,1.85-4.73l5.22-2.29c1.82-.8,3.94,.02,4.74,1.84,.8,1.82-.02,3.94-1.84,4.74h0Z"/><path class="cls-3" d="M1492.34,748.25l-5.24,2.27c-1.81,.78-3.92-.05-4.7-1.86-.78-1.81,.05-3.92,1.86-4.7l5.23-2.27c1.81-.79,3.92,.04,4.71,1.85,.79,1.81-.04,3.92-1.85,4.71h0Z"/><path class="cls-3" d="M1474.86,755.78l-5.25,2.25c-1.81,.78-3.91-.06-4.68-1.87-.78-1.81,.06-3.9,1.87-4.68l5.24-2.25c1.81-.78,3.91,.05,4.69,1.86s-.05,3.91-1.86,4.69h0Z"/><path class="cls-3" d="M1457.35,763.27l-5.25,2.24c-1.8,.77-3.89-.07-4.66-1.88-.77-1.81,.07-3.89,1.87-4.66l5.25-2.24c1.81-.77,3.9,.06,4.67,1.87,.77,1.81-.06,3.9-1.87,4.67h0Z"/><path class="cls-3" d="M1439.84,770.71l-5.25,2.23c-1.8,.76-3.88-.08-4.64-1.88-.76-1.8,.07-3.88,1.87-4.64l5.25-2.24c1.8-.77,3.88,.07,4.65,1.87,.77,1.8-.07,3.88-1.87,4.65h0Z"/><path class="cls-3" d="M1422.33,778.14l-5.25,2.23c-1.79,.76-3.86-.08-4.62-1.87-.76-1.79,.07-3.86,1.86-4.62l5.25-2.24c1.79-.76,3.87,.07,4.63,1.86,.76,1.79-.07,3.87-1.87,4.63h0Z"/><path class="cls-3" d="M1404.81,785.58l-5.25,2.23c-1.79,.76-3.85-.07-4.61-1.86-.76-1.79,.07-3.85,1.85-4.61l5.25-2.24c1.79-.76,3.85,.07,4.62,1.85,.76,1.79-.07,3.85-1.85,4.62h0Z"/><path class="cls-3" d="M1387.32,793.03l-5.25,2.24c-1.78,.76-3.84-.06-4.6-1.84-.76-1.78,.06-3.83,1.84-4.6l5.25-2.25c1.78-.76,3.84,.06,4.6,1.84,.76,1.78-.06,3.84-1.84,4.6h0Z"/><path class="cls-3" d="M1369.84,800.52l-5.24,2.26c-1.77,.76-3.82-.05-4.59-1.82-.76-1.77,.05-3.82,1.82-4.59l5.24-2.27c1.77-.77,3.83,.05,4.59,1.82,.77,1.77-.05,3.83-1.82,4.59h0Z"/><path class="cls-3" d="M1352.39,808.07l-5.23,2.28c-1.76,.77-3.81-.03-4.58-1.79-.77-1.76,.03-3.81,1.79-4.58l5.23-2.29c1.76-.77,3.81,.03,4.58,1.79,.77,1.76-.03,3.81-1.79,4.58h0Z"/><path class="cls-3" d="M1334.98,815.7l-5.21,2.31c-1.75,.78-3.79-.01-4.57-1.76-.78-1.75,.01-3.79,1.76-4.57l5.22-2.32c1.75-.78,3.8,.01,4.57,1.76,.78,1.75-.01,3.8-1.76,4.57h0Z"/><path class="cls-3" d="M1317.61,823.42l-5.2,2.34c-1.74,.78-3.78,.01-4.56-1.72-.78-1.74-.01-3.78,1.72-4.56l5.21-2.35c1.74-.78,3.78-.01,4.57,1.73,.78,1.74,.01,3.78-1.73,4.57h-.01Z"/><path class="cls-3" d="M1300.3,831.25l-5.18,2.37c-1.72,.8-3.76,.04-4.56-1.68-.8-1.72-.04-3.77,1.68-4.56l5.19-2.39c1.73-.79,3.77-.04,4.56,1.69,.79,1.73,.04,3.77-1.69,4.56h-.01Z"/><path class="cls-3" d="M1283.06,839.21l-5.16,2.42c-1.71,.81-3.75,.07-4.56-1.64-.81-1.71-.07-3.75,1.64-4.56l5.17-2.43c1.71-.81,3.75-.07,4.56,1.64s.07,3.75-1.64,4.56h-.01Z"/><path class="cls-3" d="M1265.88,847.33l-5.14,2.47h0c-1.7,.82-3.74,.1-4.55-1.59-.82-1.7-.1-3.73,1.59-4.55l5.15-2.48c1.7-.82,3.74-.11,4.56,1.59,.82,1.7,.11,3.74-1.59,4.56h-.01Z"/><path class="cls-3" d="M1248.8,855.61l-5.11,2.52h-.01c-1.68,.84-3.72,.14-4.55-1.54-.83-1.68-.14-3.72,1.54-4.55l5.13-2.54c1.68-.83,3.72-.15,4.56,1.54,.83,1.68,.14,3.72-1.54,4.56h-.01Z"/><path class="cls-3" d="M1231.81,864.09l-5.08,2.58h-.01c-1.67,.85-3.7,.19-4.55-1.48-.85-1.67-.19-3.7,1.48-4.55l5.1-2.6c1.67-.85,3.71-.19,4.56,1.48,.85,1.67,.19,3.71-1.48,4.56h-.02Z"/><path class="cls-3" d="M1214.92,872.76l-5.04,2.65h-.01c-1.65,.87-3.69,.24-4.55-1.41-.87-1.65-.23-3.69,1.41-4.55l5.06-2.67c1.65-.87,3.69-.24,4.56,1.41,.87,1.65,.24,3.69-1.41,4.56h-.02Z"/><path class="cls-3" d="M1198.16,881.67l-5.01,2.72h-.01c-1.63,.89-3.67,.29-4.56-1.34-.89-1.63-.29-3.67,1.34-4.55l5.03-2.74c1.63-.89,3.67-.29,4.56,1.34,.89,1.63,.29,3.67-1.34,4.56h-.02Z"/><path class="cls-3" d="M1181.53,890.81l-4.96,2.79h-.01c-1.61,.91-3.65,.34-4.56-1.27-.91-1.61-.34-3.65,1.27-4.56l4.98-2.82c1.61-.91,3.65-.34,4.57,1.27,.91,1.61,.34,3.65-1.27,4.57h-.02Z"/><path class="cls-3" d="M1165.06,900.22l-4.91,2.87h-.01c-1.59,.94-3.63,.4-4.56-1.18-.93-1.59-.4-3.63,1.19-4.56l4.93-2.9c1.59-.93,3.63-.4,4.57,1.19s.4,3.63-1.19,4.57h-.02Z"/><path class="cls-3" d="M1148.75,909.89l-4.86,2.96h-.02c-1.57,.96-3.61,.47-4.56-1.1-.95-1.57-.46-3.61,1.1-4.56l4.89-2.99c1.57-.96,3.61-.46,4.57,1.1,.96,1.57,.46,3.61-1.1,4.57h-.02Z"/><path class="cls-3" d="M1132.62,919.86l-4.8,3.05h-.02c-1.54,.99-3.59,.53-4.57-1.01-.98-1.54-.53-3.58,1.01-4.56l4.83-3.08c1.54-.98,3.59-.53,4.57,1.01,.98,1.54,.53,3.59-1.01,4.57h-.02Z"/><path class="cls-3" d="M1116.69,930.14l-4.74,3.15h-.02c-1.52,1.02-3.56,.61-4.57-.91-1.01-1.52-.6-3.56,.92-4.57l4.77-3.18c1.52-1.01,3.56-.6,4.57,.92,1.01,1.52,.6,3.56-.92,4.57h-.02Z"/><path class="cls-3" d="M1100.97,940.74l-4.67,3.24h-.02c-1.49,1.05-3.53,.68-4.57-.81-1.03-1.49-.67-3.53,.82-4.57l4.7-3.28c1.49-1.04,3.54-.67,4.58,.82s.67,3.54-.82,4.58h-.02Z"/><path class="cls-3" d="M1085.5,951.68l-4.59,3.35h-.02c-1.46,1.08-3.5,.76-4.57-.7-1.06-1.46-.75-3.5,.71-4.57l4.63-3.38c1.46-1.07,3.51-.75,4.57,.71,1.07,1.46,.75,3.51-.71,4.57h0l-.02,.02Z"/><path class="cls-3" d="M1070.27,962.96l-4.51,3.45h-.02c-1.43,1.11-3.47,.83-4.57-.59-1.09-1.43-.82-3.47,.6-4.56l4.55-3.49c1.43-1.1,3.48-.83,4.57,.6,1.1,1.43,.83,3.48-.6,4.57h0l-.02,.02Z"/><path class="cls-3" d="M1055.32,974.6l-4.43,3.56-.02,.02c-1.4,1.12-3.44,.9-4.56-.49-1.12-1.4-.9-3.44,.49-4.56l4.46-3.6c1.4-1.13,3.44-.91,4.57,.49,1.13,1.4,.91,3.44-.49,4.57h0l-.02,.02Z"/><path class="cls-3" d="M1040.67,986.6l-4.34,3.67-.02,.02c-1.36,1.15-3.4,.98-4.55-.38-1.15-1.36-.99-3.4,.37-4.55l4.37-3.71c1.36-1.16,3.4-.99,4.56,.37,1.16,1.36,.99,3.4-.37,4.56h0l-.02,.02Z"/><path class="cls-3" d="M1026.32,998.97l-4.24,3.78-.02,.02c-1.32,1.18-3.34,1.06-4.52-.26-1.18-1.32-1.07-3.33,.25-4.51l4.26-3.83c1.32-1.18,3.35-1.08,4.53,.24,1.18,1.32,1.08,3.35-.24,4.53h0l-.02,.03Z"/><path class="cls-3" d="M1012.29,1011.7l-4.12,3.9-.03,.03c-1.27,1.2-3.27,1.15-4.47-.12-1.2-1.27-1.16-3.26,.11-4.46l4.16-3.97c1.27-1.21,3.28-1.16,4.49,.1,1.21,1.27,1.16,3.28-.11,4.49h0l-.03,.03Z"/><path class="cls-3" d="M998.8,1024.89l-3.9,4.09-.04,.04c-1.19,1.25-3.17,1.3-4.42,.11-1.25-1.19-1.31-3.16-.12-4.41l3.96-4.19c1.19-1.26,3.18-1.31,4.43-.12,1.26,1.19,1.31,3.18,.12,4.43h0l-.04,.05Z"/><path class="cls-3" d="M986.17,1038.82l-3.56,4.35-.05,.06c-1.08,1.32-3.03,1.51-4.35,.44-1.32-1.08-1.52-3.02-.44-4.34l3.65-4.5c1.08-1.33,3.03-1.53,4.36-.45,1.33,1.08,1.53,3.03,.45,4.36h0l-.05,.07Z"/><path class="cls-3" d="M974.81,1053.7l-3.09,4.67-.06,.09c-.93,1.41-2.82,1.79-4.23,.86s-1.8-2.81-.87-4.22l3.18-4.86c.93-1.41,2.82-1.81,4.24-.88,1.41,.93,1.81,2.82,.88,4.24h0l-.06,.1Z"/><path class="cls-3" d="M965.21,1069.66c-.85,1.66-1.67,3.33-2.46,5.01l-.02,.04c-.71,1.51-2.51,2.15-4.01,1.44-1.51-.71-2.16-2.49-1.45-4,.83-1.77,1.67-3.53,2.56-5.26,.76-1.49,2.58-2.08,4.07-1.32,1.49,.76,2.08,2.58,1.32,4.07h0v.02Z"/><path class="cls-3" d="M957.94,1086.73l-1.64,5.32-.04,.14c-.49,1.57-2.15,2.45-3.72,1.96-1.57-.48-2.45-2.14-1.97-3.71l1.71-5.6c.48-1.58,2.15-2.47,3.73-1.99,1.58,.48,2.47,2.15,1.99,3.73h0l-.04,.15Z"/><path class="cls-3" d="M953.52,1104.7l-.71,5.5-.02,.16c-.21,1.61-1.68,2.74-3.29,2.54-1.61-.21-2.75-1.67-2.54-3.28l.73-5.82c.2-1.62,1.68-2.76,3.29-2.56s2.76,1.68,2.56,3.29h0l-.02,.17Z"/><path class="cls-3" d="M952.37,1123.11l.37,5.51v.19c.12,1.6-1.09,2.98-2.69,3.09-1.6,.11-2.98-1.09-3.09-2.69l-.42-5.88c-.11-1.6,1.09-3,2.7-3.11,1.6-.11,3,1.09,3.11,2.7h0v.19Z"/><path class="cls-3" d="M955.02,1141.26l1.61,5.26,.06,.2c.46,1.51-.39,3.11-1.9,3.57-1.51,.46-3.11-.38-3.57-1.89l-1.75-5.65c-.47-1.52,.38-3.13,1.89-3.6s3.13,.38,3.6,1.89h0l.06,.21Z"/></g><g><path class="cls-1" d="M633.71,394.42l-31.84,48.99c14.81,28.86,31.27,44.79,47.73,52.36,2.94-17.98,13.44-32.9,21.15-41.77-29.36-16.7-37.03-59.58-37.03-59.58Z"/><path class="cls-26" d="M743.12,445.21c-32.6,19.3-55.9,18.16-72.37,8.79-7.71,8.86-18.21,23.79-21.15,41.77,52.33,24.08,104.73-36.52,104.73-36.52l-11.21-14.04Z"/><path class="cls-30" d="M744.89,453.6s-8.8-15.34,3.86-27.13c0,0,4.08-4.66,8.56,2.18,0,0,13.62-12.36,17.34-7.38,3.72,4.98,13.59,17.31,3.95,31.37-9.75,14.22-29.41,7.88-33.71,.95Z"/><path class="cls-21" d="M758.27,445.36c-1.35,0-2.79-.25-4.08-1.01-1.26-.75-2.85-2.3-3.25-5.46-.13-1.04,.6-2,1.65-2.13,1.03-.13,2,.6,2.13,1.65,.25,1.97,1.12,2.49,1.41,2.66,1.03,.62,2.56,.55,3.78,.32l-2.98-9.45c-.32-1,.24-2.07,1.24-2.39,1-.32,2.07,.24,2.39,1.24l3.57,11.33c.3,.95-.19,1.98-1.12,2.34-.34,.13-2.38,.9-4.74,.9Z"/><path class="cls-12" d="M281.71,774.2c-2.83,1.71-4.28,5.3-3.61,8.82,2.66,13.85,11.39,50.44,32.62,72.1,1.4,1.43,3.44,1.3,4.67,.01-5.37-5.6-12.04-15.17-19.83-31.42-11.97-24.98-14.19-40.38-13.86-49.51Z"/><path class="cls-23" d="M309.11,773.68s-13.68-7.44-27.31,.45c-.03,.02-.06,.05-.1,.07-.33,9.13,1.89,24.53,13.86,49.51,7.79,16.25,14.45,25.82,19.83,31.42,.39-.41,.7-.93,.89-1.56,3.99-13.85,12.4-52.33-7.17-79.89Z"/><path class="cls-31" d="M328.87,774.54l-12.4,11.9c-2.19,2.1-5.56,2.44-8.09,.76-2.21-1.47-4.67-3.87-6.3-7.77-.98-2.34-.51-5.04,1.2-6.92l12.38-13.62c2.95-3.25,8.21-2.71,10.45,1.07l3.87,6.55c1.54,2.61,1.09,5.93-1.1,8.03Z"/><path class="cls-25" d="M729.65,714.87c2.88,1.62,6.72,1.1,9.45-1.22,10.73-9.16,38.22-34.83,46.56-63.99,.55-1.93-.57-3.63-2.3-4.07-2.21,7.44-7.24,17.96-17.52,32.76-15.8,22.75-28.09,32.29-36.19,36.52Z"/><path class="cls-16" d="M715.66,691.3s.29,15.57,13.89,23.52c.03,.02,.07,.03,.11,.05,8.1-4.22,20.39-13.76,36.19-36.52,10.28-14.8,15.3-25.33,17.52-32.76-.55-.14-1.15-.15-1.79,0-14.01,3.38-51.62,15.08-65.91,45.71Z"/><path class="cls-14" d="M714.7,665.51l12.96,11.29c2.29,2,2.93,5.32,1.48,7.99-1.26,2.33-3.44,5-7.17,6.97-2.24,1.19-4.98,.96-7-.57l-14.67-11.11c-3.5-2.65-3.44-7.94,.13-10.5l6.17-4.44c2.46-1.77,5.81-1.61,8.1,.38Z"/><path class="cls-32" d="M454.73,551.27s-25.28,86.13-41.63,123.99c0,0-28.57,4.36-46.26,14.69-17.69,10.33-55.78,67.61-55.78,67.61,0,0,9.95,18.89,21.95,21.78l108.44-75.14,86.55-100.65-4.11-46.68-69.17-5.6Z"/><path class="cls-33" d="M456.29,544.24l-7.4,23.59s6.77,61.84,84.72,51.41c77.96-10.43,87.76-23.15,87.76-23.15,0,0-6.77,39.49,78.48,86.98,0,0,12.96-9.78,15.81-20.89l-59.74-98.46c-8.31-12.91-16.01-16.32-31.19-13.94-33.55,5.25-96.37,12.09-105.87,10.46l-62.57-15.99Z"/><path class="cls-10" d="M517.18,368.85c-22.72,1.16-58.63,11.95-81.83,33.31,7.13,7.87,18.1,20.67,26.28,33.31,7.31-6.86,17.8-12.57,32.58-16.23-12.77,47.73-27.86,93.2-46.26,135.47-1.15,2.65,.16,5.71,2.88,6.65,14.23,4.96,56.21,16.77,89.87-2.25l74.64-106.88c8.03-11.49,13.3-24.68,15.42-38.54l2.95-19.28s-67.04-28.08-116.54-25.57Z"/><path class="cls-7" d="M476.47,530.58c-3.24-7.16-14.35-13.86-19.65-16.73-4.61-9.51-23.02-52.26,4.81-78.38-8.18-12.64-19.15-25.44-26.28-33.31-26.76,24.64-36.56,63.35,10.37,117.54-2.56,13.35,5.8,28.89,10.32,31.07,2.08,1,24.74-10.67,20.43-20.19Z"/><path class="cls-18" d="M498.52,419.47c-.88,0-1.67-.61-1.86-1.5-.22-1.03,.43-2.04,1.46-2.26l20.75-4.48c1.03-.22,2.04,.43,2.26,1.46,.22,1.03-.43,2.04-1.46,2.26l-20.75,4.48c-.14,.03-.27,.04-.4,.04Z"/><path class="cls-6" d="M567.59,340.47l-19.5,38.17c-1.19,2.33-.84,5.14,.91,7.09,4.72,5.26,15.87,13.8,35.27,7.68,2.14-.67,3.68-2.56,4-4.77l5.08-34.66-25.76-13.5Z"/><g><path class="cls-9" d="M600.1,296.14s11.44,26.27,12.21,40.06c.77,13.79,3.74,22.74-12.21,25.52-15.94,2.78-29.38-5.17-36.65-18.9,0,0-11.4-21.17-8.84-29.83,2.56-8.67,45.5-16.84,45.5-16.84Z"/><path class="cls-29" d="M568.9,332.94l.91-.4c1.16-.51,1.65-1.88,1.07-3.01-2.25-4.34-6.63-14.3-.97-16.62,7.3-2.99,36.2-8.89,42.44-19.14,5.99-9.86,.68-22.58-7.3-26.2-.53-.24-1.16-.05-1.44,.47l-.67,1.26c-.46,.86-1.73,.73-2-.21h0c-.26-.9-1.46-1.07-1.95-.28-1.92,3.07-7.09,8.04-20.93,10.6-19.67,3.63-32.68,11.59-33,25.18-.02,.86-.94,1.34-1.68,.89-1.45-.89-3.78-1.3-6.88,1.31-5.4,4.54-3.19,16.33,8.65,26.02,.56,.46,.56,1.34-.05,1.74-2.15,1.4-5.35,4.72,2.95,9.16,8.58,4.59,14.98,4.21,17.45,3.8,.61-.1,1.01-.7,.88-1.3l-2.63-11.95c-.15-.68,.37-1.32,1.06-1.32h4.1Z"/><path class="cls-11" d="M569.39,335.47s-4.36-16.78-11.89-12.08c-7.52,4.71,3.9,18.8,9.95,19.43l1.93-7.36Z"/></g></g><g><g><g><path class="cls-17" d="M1945.09,992.89c-5.2-14.61-8.43-29.67-7.86-45.64,1.43-40.23,28.54-74.54,49.23-107.11,19.02-29.94,35.66-75.78-17.67-77.2-42.48-1.13-96.47,35.61-106.76,78.79-12.18,51.11,6.12,119.13-28.78,163.03-48.82,61.41-77.4,43.12-89.18,154.24-5.03,47.48,18.49,76.46,47.08,94.08,45.13,27.81,102.8,24.62,144.57-8.03,36.9-28.84,61.73-73.29,59.96-120.75-1.79-47.93-35.03-87.66-50.6-131.42Z"/><path class="cls-20" d="M1895.7,1365.07c-1.4,0-2.62-1.03-2.82-2.46-34.28-243.51-11.97-388.16,12.78-466.63,26.99-85.57,61.86-112.88,63.33-114.01,1.25-.95,3.04-.71,4,.54,.95,1.25,.71,3.04-.54,4-.5,.38-35.26,27.94-61.6,111.99-24.41,77.88-46.37,221.47-12.32,463.31,.22,1.56-.87,3-2.43,3.22-.13,.02-.27,.03-.4,.03Z"/></g><path class="cls-17" d="M1999.49,880.2c-1.98-.77-4.2-1.18-6.61-1.16-13.34,.12-20.23,13.44-25.25,23.9-4.3,8.95-9.41,19.84-8.52,30.13,.96,11.12,11.59,21.24,21.17,11.07,10.88-11.57,27.25-29.36,29.11-46.02,.92-8.28-3.04-15.25-9.9-17.91Z"/></g><g><path class="cls-28" d="M2074.77,1194.76c9.16-34.94,.57-77.08-1.89-115.32-1.3-20.22-.79-40.09,4.52-59.76,5.28-19.55,16.91-40.08,10.39-60.81-13.13-41.76-56.33-27.97-83.16-.42-31.13,31.97-44.68,88.17-59.75,130.95-9.09,25.79-21.43,51.92-27.6,78.53-10.22,44.08-3.41,76.16,15.73,99.36,18.36,22.26,49.13,29.73,75.68,18.43,23.98-10.21,51.32-34.58,66.09-90.95Z"/><path class="cls-17" d="M1963.02,1365.07c-1.5,0-2.76-1.17-2.85-2.69-.13-2.34-12.42-235.47,75.85-400.99,.74-1.39,2.47-1.92,3.86-1.18,1.39,.74,1.92,2.47,1.18,3.86-87.52,164.12-75.32,395.65-75.19,397.97,.09,1.57-1.11,2.92-2.68,3.01-.06,0-.11,0-.17,0Z"/></g></g><path class="cls-24" d="M1726.62,1240.99l278.48,111.69c18.52,7.43,13.75,38.08-5.92,38.08h-303.88c-9.69,0-17.54-8.78-17.54-19.62v-91.69c0-28.28,25.06-48.01,48.86-38.46Z"/><path class="cls-13" d="M177.94,1340.34s822.27-140.64,1341.29-888.49l-60.13-20.82c-16.62-5.75-20.17-27.69-6.2-38.39l190.87-146.13c14.49-11.09,35.35-.37,34.77,17.86l-7.76,243.36c-.52,16.24-19.3,24.97-32.05,14.89l-51.01-40.34s-253.04,715.35-762.92,875.17l-646.86-17.12Z"/><g class="cls-22"><path class="cls-3" d="M1844.88,258.11l1.61,5.55c.3,1.02-.29,2.09-1.31,2.39-1.02,.3-2.09-.29-2.39-1.31v-.02l-.02-.07-1.52-5.42-.02-.07c-.28-1.01,.31-2.06,1.32-2.34,1.01-.28,2.05,.3,2.34,1.3Z"/><path class="cls-3" d="M1849.42,276.83l.9,5.71c.17,1.1-.58,2.13-1.67,2.3-1.1,.17-2.13-.58-2.3-1.67v-.09l-.84-5.57v-.07c-.17-1.09,.58-2.1,1.66-2.26,1.08-.16,2.08,.58,2.25,1.65Z"/><path class="cls-3" d="M1851.62,295.96l.21,5.78c.04,1.16-.86,2.13-2.02,2.17-1.16,.04-2.13-.86-2.17-2.02v-.09l-.16-5.63v-.07c-.03-1.14,.87-2.1,2.01-2.13,1.14-.03,2.08,.86,2.13,1.99Z"/><path class="cls-3" d="M1851.57,315.22l-.43,5.76c-.09,1.2-1.14,2.1-2.34,2.01-1.2-.09-2.1-1.14-2.01-2.34v-.09l.48-5.62v-.07c.11-1.19,1.15-2.07,2.33-1.97,1.18,.1,2.06,1.13,1.97,2.31Z"/><path class="cls-3" d="M1849.41,334.35l-1.04,5.68c-.22,1.23-1.4,2.04-2.63,1.82-1.23-.22-2.04-1.4-1.82-2.63v-.02l.02-.07,1.06-5.54v-.07c.25-1.21,1.42-2.01,2.63-1.78,1.21,.23,2,1.39,1.78,2.6Z"/><path class="cls-3" d="M1845.28,353.15l-1.6,5.55c-.36,1.25-1.66,1.96-2.91,1.61-1.25-.36-1.96-1.66-1.61-2.91v-.02l.03-.07,1.61-5.4,.02-.07c.37-1.23,1.66-1.93,2.89-1.56,1.22,.36,1.92,1.65,1.57,2.87Z"/><path class="cls-3" d="M1839.33,371.45l-2.12,5.38c-.49,1.25-1.91,1.86-3.16,1.37-1.25-.49-1.86-1.91-1.37-3.16v-.02l.03-.06,2.12-5.23,.03-.06c.5-1.23,1.9-1.83,3.13-1.33,1.22,.5,1.82,1.89,1.33,3.11Z"/><path class="cls-3" d="M1831.67,389.12l-2.63,5.14c-.63,1.23-2.13,1.72-3.36,1.09-1.23-.63-1.72-2.13-1.09-3.36h0l.03-.07,2.58-5.01,.03-.06c.63-1.22,2.13-1.7,3.35-1.07,1.22,.63,1.71,2.12,1.08,3.35Z"/><path class="cls-3" d="M1822.36,405.97l-3.1,4.89c-.75,1.18-2.31,1.53-3.49,.78-1.18-.75-1.53-2.31-.78-3.49h0l.04-.07,3.04-4.76,.04-.06c.75-1.17,2.31-1.52,3.48-.77,1.17,.75,1.52,2.3,.77,3.47Z"/><path class="cls-3" d="M1811.52,421.9l-3.52,4.57c-.86,1.12-2.47,1.33-3.59,.46-1.12-.86-1.33-2.47-.46-3.59h0l.04-.06,3.46-4.45,.04-.05c.86-1.11,2.46-1.31,3.58-.45,1.11,.86,1.32,2.46,.46,3.57Z"/><path class="cls-3" d="M1799.34,436.78l-3.89,4.26c-.96,1.06-2.6,1.13-3.65,.17-1.06-.96-1.13-2.6-.17-3.65h0l.04-.05,3.82-4.16,.04-.05c.96-1.05,2.59-1.12,3.64-.16,1.05,.96,1.12,2.59,.16,3.64Z"/><path class="cls-3" d="M1786,450.62l-4.21,3.95c-1.05,.99-2.71,.94-3.7-.12-.99-1.05-.94-2.71,.12-3.7h0l.04-.05,4.13-3.85,.04-.04c1.05-.98,2.7-.92,3.68,.13,.98,1.05,.93,2.7-.12,3.68Z"/><path class="cls-3" d="M1771.65,463.4l-4.48,3.63c-1.13,.92-2.8,.74-3.72-.39-.92-1.13-.74-2.8,.39-3.72h0l.04-.04,4.4-3.54,.04-.03c1.13-.91,2.79-.73,3.71,.4,.91,1.13,.74,2.79-.39,3.7Z"/><path class="cls-3" d="M1756.44,475.13l-4.71,3.31c-1.21,.85-2.88,.56-3.73-.65-.85-1.21-.56-2.88,.65-3.73h0l.04-.03,4.63-3.24,.04-.03c1.21-.84,2.87-.55,3.71,.66,.84,1.21,.56,2.86-.65,3.71Z"/><path class="cls-3" d="M1740.5,485.82l-4.9,3.01c-1.27,.78-2.94,.38-3.72-.89-.78-1.27-.38-2.94,.89-3.72h0l.04-.03,4.83-2.94,.04-.03c1.27-.77,2.93-.37,3.7,.9,.77,1.27,.38,2.92-.89,3.7Z"/><path class="cls-3" d="M1723.95,495.5l-5.07,2.72c-1.33,.71-2.99,.21-3.7-1.12-.71-1.33-.21-2.99,1.12-3.7h0l.04-.03,5-2.66,.04-.02c1.33-.71,2.98-.2,3.68,1.12,.71,1.33,.21,2.97-1.12,3.68Z"/><path class="cls-3" d="M1706.88,504.24l-5.22,2.44c-1.38,.65-3.02,.05-3.67-1.33-.65-1.38-.05-3.02,1.33-3.67h0l.04-.02,5.15-2.39,.04-.02c1.38-.64,3.01-.04,3.65,1.34,.64,1.38,.05,3.01-1.33,3.65Z"/><path class="cls-3" d="M1689.37,512.05l-5.33,2.17c-1.43,.58-3.05-.1-3.64-1.53-.58-1.43,.1-3.05,1.53-3.64h0l.04-.02,5.26-2.12,.04-.02c1.42-.57,3.04,.11,3.62,1.54,.57,1.42-.11,3.04-1.53,3.62Z"/><path class="cls-3" d="M1671.5,518.97l-5.41,1.91c-1.47,.52-3.08-.25-3.6-1.72-.52-1.47,.25-3.08,1.72-3.6h0l.04-.02,5.35-1.87h.04c1.47-.52,3.07,.25,3.58,1.71,.51,1.46-.25,3.06-1.72,3.58Z"/><path class="cls-3" d="M1653.35,525.06l-5.49,1.68c-1.5,.46-3.1-.39-3.55-1.89-.46-1.5,.39-3.1,1.89-3.55h.04l5.43-1.65h.03c1.5-.46,3.08,.39,3.54,1.89,.45,1.5-.39,3.08-1.89,3.54Z"/><path class="cls-3" d="M1634.96,530.39l-5.55,1.45c-1.54,.4-3.11-.52-3.51-2.05-.4-1.54,.52-3.11,2.05-3.51h.04l5.49-1.43h.03c1.53-.4,3.1,.52,3.49,2.05,.4,1.53-.52,3.1-2.05,3.49Z"/><path class="cls-3" d="M1616.39,534.98l-5.6,1.24c-1.57,.35-3.12-.64-3.47-2.21-.35-1.57,.64-3.12,2.21-3.47h.04l5.54-1.22h.03c1.56-.35,3.11,.64,3.45,2.2,.34,1.56-.64,3.1-2.2,3.45Z"/><path class="cls-3" d="M1597.67,538.89l-5.64,1.05c-1.59,.3-3.12-.76-3.42-2.35-.3-1.59,.76-3.12,2.35-3.42h.04l5.59-1.03h.03c1.59-.3,3.11,.76,3.4,2.35,.29,1.59-.75,3.11-2.34,3.4Z"/><path class="cls-3" d="M1578.83,542.17l-5.67,.87c-1.62,.25-3.13-.86-3.38-2.48-.25-1.62,.86-3.13,2.48-3.38h.04l5.62-.85h.03c1.61-.25,3.12,.87,3.36,2.48,.24,1.61-.86,3.12-2.48,3.36Z"/><path class="cls-3" d="M1559.91,544.86l-5.69,.7c-1.64,.2-3.13-.96-3.34-2.6-.2-1.64,.96-3.13,2.6-3.34h.03l5.64-.68h.02c1.64-.2,3.12,.97,3.32,2.6,.2,1.64-.96,3.12-2.6,3.32Z"/><path class="cls-3" d="M1540.93,547.02l-5.7,.55c-1.66,.16-3.14-1.05-3.3-2.72-.16-1.66,1.05-3.14,2.72-3.3h.03l5.66-.53h.02c1.66-.16,3.13,1.06,3.28,2.72,.16,1.66-1.05,3.12-2.71,3.28Z"/><path class="cls-3" d="M1521.9,548.71l-5.71,.42c-1.68,.12-3.14-1.14-3.27-2.82-.12-1.68,1.14-3.14,2.82-3.27h.03l5.67-.4h.02c1.68-.12,3.13,1.14,3.25,2.82,.12,1.68-1.14,3.13-2.81,3.25Z"/><path class="cls-3" d="M1502.86,549.96l-5.72,.3c-1.7,.09-3.15-1.21-3.24-2.91-.09-1.7,1.21-3.15,2.91-3.24h.03l5.69-.28h.02c1.69-.08,3.13,1.22,3.22,2.91,.08,1.69-1.21,3.13-2.91,3.22Z"/><path class="cls-3" d="M1483.8,550.81l-5.73,.18c-1.69,.05-3.1-1.27-3.15-2.96-.05-1.69,1.27-3.1,2.96-3.15h0l5.7-.2h.02c1.69-.06,3.11,1.26,3.17,2.96,.06,1.69-1.27,3.11-2.96,3.17h0Z"/><path class="cls-3" d="M1464.72,551.31l-5.73,.09c-1.67,.03-3.05-1.31-3.08-2.98-.03-1.67,1.31-3.05,2.98-3.08h0l5.7-.11h.01c1.68-.03,3.07,1.3,3.1,2.98,.03,1.68-1.3,3.07-2.98,3.1h0Z"/><path class="cls-3" d="M1445.65,551.54l-5.73,.02c-1.66,0-3.01-1.33-3.02-3,0-1.66,1.33-3.01,3-3.02h0l5.7-.04h.01c1.67-.01,3.02,1.33,3.03,3,.01,1.66-1.33,3.02-3,3.03h0Z"/><path class="cls-3" d="M1426.59,551.54l-5.72-.04c-1.65-.01-2.97-1.35-2.96-3,.01-1.65,1.35-2.97,3-2.96l5.7,.02c1.65,0,2.99,1.34,2.99,2.99,0,1.65-1.34,2.99-2.99,2.99h-.02Z"/><path class="cls-3" d="M1407.53,551.36l-5.72-.08c-1.63-.02-2.94-1.36-2.92-3,.02-1.63,1.36-2.94,3-2.92l5.7,.06c1.64,.02,2.95,1.36,2.94,2.99-.02,1.64-1.36,2.95-2.99,2.94h-.01Z"/><path class="cls-3" d="M1388.49,551.06l-5.72-.1c-1.62-.03-2.91-1.37-2.88-2.99,.03-1.62,1.36-2.91,2.98-2.88l5.71,.09c1.62,.02,2.92,1.36,2.9,2.98-.02,1.62-1.36,2.92-2.98,2.9h-.01Z"/><path class="cls-3" d="M1369.46,550.7l-5.71-.11c-1.61-.03-2.88-1.36-2.85-2.96,.03-1.61,1.35-2.88,2.96-2.85l5.71,.1c1.61,.03,2.89,1.36,2.86,2.96-.03,1.61-1.36,2.89-2.96,2.86h0Z"/><path class="cls-3" d="M1350.44,550.32l-5.7-.11c-1.59-.03-2.86-1.34-2.83-2.93s1.34-2.86,2.93-2.83l5.71,.09c1.6,.03,2.87,1.34,2.84,2.94-.03,1.6-1.34,2.87-2.94,2.84h0Z"/><path class="cls-3" d="M1331.43,549.98l-5.7-.09c-1.58-.02-2.84-1.32-2.82-2.9s1.32-2.84,2.89-2.82l5.71,.07c1.58,.02,2.85,1.32,2.83,2.9s-1.32,2.85-2.9,2.83h-.01Z"/><path class="cls-3" d="M1312.42,549.73l-5.7-.05c-1.56,0-2.82-1.29-2.81-2.85,0-1.56,1.29-2.82,2.85-2.81l5.71,.03c1.57,0,2.83,1.29,2.82,2.86,0,1.57-1.29,2.83-2.86,2.82h-.01Z"/><path class="cls-3" d="M1293.42,549.63h-5.7c-1.55,0-2.81-1.24-2.82-2.8,0-1.55,1.25-2.81,2.8-2.82l5.72-.02c1.55,0,2.82,1.25,2.82,2.81,0,1.55-1.25,2.82-2.81,2.82h-.02Z"/><path class="cls-3" d="M1274.43,549.71l-5.7,.07h-.01c-1.54,.02-2.8-1.21-2.82-2.75-.02-1.54,1.2-2.8,2.74-2.82l5.73-.09c1.54-.02,2.81,1.21,2.83,2.75s-1.21,2.81-2.75,2.83h-.02Z"/><path class="cls-3" d="M1255.44,550.04l-5.7,.15h-.01c-1.52,.04-2.79-1.16-2.83-2.68-.04-1.52,1.15-2.79,2.68-2.83l5.72-.17c1.53-.05,2.8,1.16,2.85,2.68,.05,1.53-1.16,2.8-2.68,2.85h-.02Z"/><path class="cls-3" d="M1236.46,550.66l-5.69,.25h-.02c-1.51,.07-2.78-1.1-2.85-2.61-.07-1.51,1.09-2.78,2.6-2.85l5.72-.27c1.51-.07,2.8,1.1,2.87,2.61,.07,1.51-1.1,2.8-2.61,2.87h-.02Z"/><path class="cls-3" d="M1217.51,551.64l-5.68,.37h-.02c-1.49,.1-2.78-1.03-2.88-2.53-.1-1.49,1.03-2.78,2.52-2.88l5.71-.39c1.5-.1,2.79,1.03,2.89,2.53,.1,1.5-1.03,2.79-2.53,2.89h-.02Z"/><path class="cls-3" d="M1198.61,553.02l-5.66,.5h-.02c-1.48,.13-2.78-.96-2.91-2.44-.13-1.48,.95-2.78,2.43-2.91l5.7-.52c1.48-.13,2.79,.96,2.92,2.44,.13,1.48-.96,2.79-2.44,2.92h-.03Z"/><path class="cls-3" d="M1179.75,554.84l-5.65,.64h-.02c-1.46,.17-2.78-.88-2.94-2.34-.17-1.46,.87-2.78,2.33-2.94l5.69-.66c1.46-.17,2.79,.88,2.96,2.34,.17,1.46-.88,2.79-2.34,2.96h-.03Z"/><path class="cls-3" d="M1160.95,557.17l-5.63,.8h-.02c-1.44,.21-2.77-.79-2.98-2.23-.21-1.44,.79-2.77,2.23-2.98l5.67-.83c1.44-.21,2.78,.79,2.99,2.23s-.79,2.78-2.23,2.99h-.03Z"/><path class="cls-3" d="M1142.23,560.06l-5.59,.99h-.03c-1.42,.26-2.77-.69-3.02-2.11-.25-1.42,.69-2.77,2.11-3.02l5.64-1.01c1.42-.25,2.78,.69,3.04,2.11,.26,1.42-.69,2.78-2.11,3.04h-.03Z"/><path class="cls-3" d="M1123.63,563.58l-5.55,1.18h-.03c-1.4,.3-2.77-.59-3.07-1.98-.3-1.4,.59-2.77,1.98-3.06l5.61-1.21c1.4-.3,2.78,.59,3.08,1.99,.3,1.4-.59,2.78-1.99,3.08h-.03Z"/><path class="cls-3" d="M1105.17,567.77l-5.51,1.39h-.03c-1.37,.35-2.76-.48-3.11-1.85-.35-1.37,.48-2.76,1.85-3.11l5.56-1.42c1.37-.35,2.77,.48,3.12,1.85,.35,1.37-.48,2.77-1.85,3.12h-.03Z"/><path class="cls-3" d="M1086.88,572.64l-5.45,1.6h-.03c-1.34,.4-2.75-.37-3.15-1.71-.39-1.34,.37-2.75,1.71-3.14l5.5-1.63c1.35-.4,2.76,.37,3.16,1.71,.4,1.35-.37,2.76-1.71,3.16h-.04Z"/><path class="cls-3" d="M1068.8,578.24l-5.37,1.82h-.03c-1.31,.46-2.74-.25-3.18-1.56-.45-1.31,.25-2.73,1.56-3.18l5.43-1.86c1.31-.45,2.75,.25,3.2,1.57,.45,1.31-.25,2.75-1.57,3.2h-.04Z"/><path class="cls-3" d="M1050.98,584.58l-5.29,2.04h-.03c-1.27,.5-2.7-.13-3.19-1.4-.49-1.27,.14-2.69,1.4-3.19l5.34-2.11c1.28-.5,2.73,.12,3.23,1.4,.5,1.28-.12,2.73-1.4,3.23h-.02l-.03,.02Z"/><path class="cls-3" d="M1033.45,591.67l-5.19,2.28h-.03c-1.21,.55-2.63,0-3.16-1.22-.53-1.21,.01-2.61,1.21-3.15l5.24-2.35c1.22-.55,2.65,0,3.2,1.22,.55,1.22,0,2.65-1.22,3.2h-.02l-.03,.02Z"/><path class="cls-3" d="M1016.27,599.58l-5.07,2.54-.03,.02c-1.15,.57-2.55,.11-3.12-1.04-.57-1.14-.11-2.53,1.02-3.11l5.12-2.61c1.15-.59,2.57-.13,3.16,1.03,.59,1.16,.13,2.57-1.03,3.16h-.02l-.03,.02Z"/><path class="cls-3" d="M999.52,608.34l-4.94,2.8-.03,.02c-1.08,.61-2.46,.24-3.07-.85-.61-1.08-.24-2.44,.83-3.06l4.98-2.88c1.09-.63,2.48-.26,3.11,.83,.63,1.09,.26,2.48-.83,3.11h-.01l-.03,.03Z"/><path class="cls-3" d="M983.26,617.99l-4.76,3.07-.03,.02c-1.01,.65-2.36,.36-3.01-.65-.65-1.01-.36-2.35,.64-3.01l4.8-3.14c1.02-.67,2.38-.38,3.05,.64,.67,1.02,.38,2.38-.64,3.05h-.01l-.03,.03Z"/><path class="cls-3" d="M967.58,628.54l-4.58,3.34-.03,.02c-.94,.69-2.26,.48-2.95-.46-.68-.94-.48-2.25,.45-2.94l4.61-3.42c.94-.7,2.28-.5,2.98,.44,.7,.94,.5,2.28-.44,2.98h-.01l-.03,.03Z"/><path class="cls-3" d="M952.57,640.01l-4.36,3.62-.03,.03c-.87,.72-2.15,.6-2.87-.27-.72-.86-.6-2.14,.25-2.86l4.39-3.7c.87-.73,2.17-.62,2.9,.25,.73,.87,.62,2.17-.25,2.9h-.01l-.03,.04Z"/><path class="cls-3" d="M938.31,652.41l-4.12,3.9-.03,.03c-.79,.75-2.03,.71-2.78-.08-.74-.78-.71-2.02,.06-2.77l4.14-3.98c.79-.76,2.05-.74,2.81,.06,.76,.79,.74,2.05-.06,2.81h-.01l-.03,.04Z"/><path class="cls-3" d="M924.91,665.71l-2.03,2.18v.02c-.73,.77-1.93,.81-2.7,.1-.76-.71-.81-1.91-.1-2.68l2.04-2.23c.71-.78,1.93-.83,2.7-.12,.78,.71,.83,1.93,.12,2.7h0v.03Z"/></g></g></g></svg>