<?xml version="1.0" encoding="UTF-8"?><svg id="Layer_2" xmlns="http://www.w3.org/2000/svg" xmlns:xlink="http://www.w3.org/1999/xlink" viewBox="0 0 2751.56 2750.82"><defs><style>.cls-1{fill:#f8a570;}.cls-2{fill:url(#linear-gradient-2);}.cls-3,.cls-4,.cls-5{fill:#fff;}.cls-6{fill:url(#linear-gradient-17);}.cls-7{fill:url(#linear-gradient-15);}.cls-8{fill:#0f6d47;}.cls-9{fill:url(#linear-gradient-18);}.cls-10{fill:url(#linear-gradient-40);}.cls-11{fill:url(#linear-gradient-28);}.cls-12{fill:url(#linear-gradient-14);}.cls-13{fill:url(#linear-gradient-36);}.cls-14{fill:url(#linear-gradient-20);}.cls-15{fill:url(#linear-gradient-6);}.cls-4{opacity:.56;}.cls-5{opacity:.26;}.cls-16{fill:url(#linear-gradient-35);}.cls-17{fill:#4031bd;}.cls-18{fill:url(#linear-gradient-32);}.cls-19{fill:url(#linear-gradient-11);}.cls-20{fill:url(#linear-gradient-39);}.cls-21{fill:url(#linear-gradient-10);}.cls-22{fill:#91b3fa;}.cls-23{fill:#ff454e;}.cls-24{fill:url(#linear-gradient-37);}.cls-25{fill:url(#linear-gradient-16);}.cls-26{opacity:.3;}.cls-27{fill:url(#linear-gradient-31);}.cls-28{fill:#4e37d3;}.cls-29{fill:#7d97f4;}.cls-30{fill:url(#linear-gradient-41);}.cls-31{fill:#3f3468;}.cls-32{fill:url(#linear-gradient-21);}.cls-33{fill:url(#linear-gradient-25);}.cls-34{fill:url(#linear-gradient-5);}.cls-35{fill:url(#linear-gradient-34);}.cls-36{fill:url(#linear-gradient-7);}.cls-37{fill:#3ecc99;}.cls-38{fill:url(#linear-gradient-24);}.cls-39{fill:url(#linear-gradient-9);}.cls-40{fill:url(#linear-gradient-22);}.cls-41{fill:url(#linear-gradient-42);}.cls-42{fill:url(#linear-gradient-3);}.cls-43{fill:url(#linear-gradient);}.cls-44{fill:url(#linear-gradient-27);}.cls-45{fill:url(#linear-gradient-33);}.cls-46{fill:url(#linear-gradient-38);}.cls-47{fill:url(#linear-gradient-29);}.cls-48{fill:url(#linear-gradient-30);}.cls-49{fill:url(#linear-gradient-23);}.cls-50{fill:url(#linear-gradient-19);}.cls-51{fill:url(#linear-gradient-4);}.cls-52{fill:url(#linear-gradient-8);}.cls-53{fill:url(#linear-gradient-12);}.cls-54{fill:url(#linear-gradient-13);}.cls-55{fill:url(#linear-gradient-26);}</style><linearGradient id="linear-gradient" x1="-1127.91" y1="2643.76" x2="-943.49" y2="2643.76" gradientTransform="translate(1284.95) rotate(-180) scale(1 -1)" gradientUnits="userSpaceOnUse"><stop offset="0" stop-color="#09005d"/><stop offset="1" stop-color="#1a0f91"/></linearGradient><linearGradient id="linear-gradient-2" x1="-1110.38" y1="2591.84" x2="-1056.92" y2="2591.84" gradientTransform="translate(1284.95) rotate(-180) scale(1 -1)" gradientUnits="userSpaceOnUse"><stop offset="0" stop-color="#febbba"/><stop offset="1" stop-color="#ff928e"/></linearGradient><linearGradient id="linear-gradient-3" x1="-1466.08" y1="2655.64" x2="-1359.34" y2="2655.64" xlink:href="#linear-gradient"/><linearGradient id="linear-gradient-4" x1="-1410.6" y1="2563.96" x2="-1346.72" y2="2563.96" xlink:href="#linear-gradient-2"/><linearGradient id="linear-gradient-5" x1="2425.25" y1="1797.11" x2="2475.04" y2="2424.42" gradientTransform="matrix(1, 0, 0, 1, 0, 0)" xlink:href="#linear-gradient"/><linearGradient id="linear-gradient-6" x1="2502.45" y1="2645.91" x2="2436.07" y2="2400.32" gradientTransform="matrix(1, 0, 0, 1, 0, 0)" xlink:href="#linear-gradient"/><linearGradient id="linear-gradient-7" x1="-531.91" y1="1218.33" x2="-784.93" y2="1547.49" xlink:href="#linear-gradient-2"/><linearGradient id="linear-gradient-8" x1="-1095.88" y1="1431.07" x2="-1068.2" y2="1285.75" xlink:href="#linear-gradient-2"/><linearGradient id="linear-gradient-9" x1="-1020.98" y1="1164.45" x2="-1178.91" y2="1285.29" xlink:href="#linear-gradient-2"/><linearGradient id="linear-gradient-10" x1="-1132.16" y1="1068.77" x2="-985.07" y2="1258.15" xlink:href="#linear-gradient"/><linearGradient id="linear-gradient-11" x1="-1040.57" y1="1138.85" x2="-1198.5" y2="1259.69" xlink:href="#linear-gradient-2"/><linearGradient id="linear-gradient-12" x1="-947.97" y1="1534.31" x2="-1058.51" y2="1700.12" xlink:href="#linear-gradient-2"/><linearGradient id="linear-gradient-13" x1="-2305.48" y1="1701.84" x2="-2555.21" y2="1770.28" gradientTransform="translate(4645.3 -79.22) rotate(-2.83)" xlink:href="#linear-gradient"/><linearGradient id="linear-gradient-14" x1="-2576.05" y1="1575.11" x2="-2752.2" y2="1761.29" gradientTransform="translate(4664.05)" xlink:href="#linear-gradient"/><linearGradient id="linear-gradient-15" x1="-4770.32" y1="1150.63" x2="-4770.32" y2="1465.91" gradientTransform="translate(-5864.37 -421.67) rotate(-177.17) scale(1.39 -1.39)" xlink:href="#linear-gradient"/><linearGradient id="linear-gradient-16" x1="-8077.63" y1="2079.05" x2="-8077.63" y2="2394.33" gradientTransform="translate(8028.74 -6836.39) rotate(-62.23) scale(1.39 -1.39)" xlink:href="#linear-gradient"/><linearGradient id="linear-gradient-17" x1="1699.28" y1="2280.44" x2="1032.2" y2="2529.35" gradientTransform="matrix(1, 0, 0, 1, 0, 0)" xlink:href="#linear-gradient-2"/><linearGradient id="linear-gradient-18" x1="-750.57" y1="2559.01" x2="-776.38" y2="2954.89" gradientTransform="translate(475.93) rotate(-180) scale(1 -1)" gradientUnits="userSpaceOnUse"><stop offset="0" stop-color="#4f52ff"/><stop offset="1" stop-color="#4042e2"/></linearGradient><linearGradient id="linear-gradient-19" x1="1528.5" y1="2359.19" x2="1913.48" y2="2116.92" gradientTransform="matrix(1, 0, 0, 1, 0, 0)" xlink:href="#linear-gradient-2"/><linearGradient id="linear-gradient-20" x1="-706.53" y1="2564.59" x2="-639.99" y2="2319.21" gradientTransform="translate(475.93) rotate(-180) scale(1 -1)" xlink:href="#linear-gradient"/><linearGradient id="linear-gradient-21" x1="-999.71" y1="2542.76" x2="-1025.53" y2="2938.64" xlink:href="#linear-gradient-18"/><linearGradient id="linear-gradient-22" x1="388.65" y1="2719.75" x2="563.4" y2="2719.75" gradientTransform="matrix(1, 0, 0, 1, 0, 0)" xlink:href="#linear-gradient"/><linearGradient id="linear-gradient-23" x1="523.28" y1="2383.73" x2="475.54" y2="2713.61" gradientTransform="matrix(1, 0, 0, 1, 0, 0)" xlink:href="#linear-gradient-18"/><linearGradient id="linear-gradient-24" x1="397.38" y1="2667.09" x2="444.66" y2="2667.09" gradientTransform="matrix(1, 0, 0, 1, 0, 0)" xlink:href="#linear-gradient-2"/><linearGradient id="linear-gradient-25" x1="662.73" y1="2685.12" x2="803.82" y2="2685.12" gradientTransform="matrix(1, 0, 0, 1, 0, 0)" xlink:href="#linear-gradient"/><linearGradient id="linear-gradient-26" x1="759.78" y1="2417.96" x2="712.03" y2="2747.84" gradientTransform="matrix(1, 0, 0, 1, 0, 0)" xlink:href="#linear-gradient-18"/><linearGradient id="linear-gradient-27" x1="514.67" y1="2256.3" x2="272.4" y2="2498.57" gradientTransform="matrix(1, 0, 0, 1, 0, 0)" xlink:href="#linear-gradient"/><linearGradient id="linear-gradient-28" x1="621.32" y1="2671.07" x2="677.77" y2="2671.07" gradientTransform="matrix(1, 0, 0, 1, 0, 0)" xlink:href="#linear-gradient-2"/><linearGradient id="linear-gradient-29" x1="600.59" y1="2070.19" x2="539.75" y2="2159.79" gradientTransform="matrix(1, 0, 0, 1, 0, 0)" xlink:href="#linear-gradient"/><linearGradient id="linear-gradient-30" x1="264.04" y1="1835.79" x2="404.72" y2="1835.79" gradientTransform="matrix(1, 0, 0, 1, 0, 0)" xlink:href="#linear-gradient-2"/><linearGradient id="linear-gradient-31" x1="545.53" y1="2148.56" x2="675.92" y2="2148.56" gradientTransform="matrix(1, 0, 0, 1, 0, 0)" xlink:href="#linear-gradient-2"/><linearGradient id="linear-gradient-32" x1="-690.6" y1="3229.26" x2="-826.39" y2="3408.9" gradientTransform="translate(-855.68 -1317.18) rotate(-34.6)" xlink:href="#linear-gradient-2"/><linearGradient id="linear-gradient-33" x1="-794.3" y1="3272.59" x2="-632.1" y2="3272.59" gradientTransform="translate(-855.68 -1317.18) rotate(-34.6)" xlink:href="#linear-gradient"/><linearGradient id="linear-gradient-34" x1="-889.48" y1="3371.52" x2="-780.56" y2="3259.78" gradientTransform="translate(-855.68 -1317.18) rotate(-34.6)" xlink:href="#linear-gradient-2"/><linearGradient id="linear-gradient-35" x1="-648.02" y1="1948.24" x2="-666.55" y2="1829.36" gradientTransform="translate(475.93) rotate(-180) scale(1 -1)" xlink:href="#linear-gradient-2"/><linearGradient id="linear-gradient-36" x1="-589.65" y1="1816.68" x2="-425.98" y2="1927.85" gradientTransform="translate(453.29 -25.98) rotate(174.46) scale(1 -1)" xlink:href="#linear-gradient-2"/><linearGradient id="linear-gradient-37" x1="-304.03" y1="1607.85" x2="-578.53" y2="1893.44" gradientTransform="translate(453.29 -25.98) rotate(174.46) scale(1 -1)" xlink:href="#linear-gradient"/><linearGradient id="linear-gradient-38" x1="-579.84" y1="1802.24" x2="-416.17" y2="1913.41" gradientTransform="translate(453.29 -25.98) rotate(174.46) scale(1 -1)" xlink:href="#linear-gradient-2"/><linearGradient id="linear-gradient-39" x1="-541.66" y1="2154.09" x2="-193.7" y2="2154.09" gradientTransform="translate(475.93) rotate(-180) scale(1 -1)" xlink:href="#linear-gradient-2"/><linearGradient id="linear-gradient-40" x1="-182.02" y1="1725.11" x2="-456.52" y2="2010.7" gradientTransform="translate(453.29 -25.98) rotate(174.46) scale(1 -1)" xlink:href="#linear-gradient"/><linearGradient id="linear-gradient-41" x1="-624.21" y1="2169.24" x2="-843.25" y2="2229.28" gradientTransform="translate(494.68 -79.22) rotate(-177.17) scale(1 -1)" xlink:href="#linear-gradient"/><linearGradient id="linear-gradient-42" x1="-831.51" y1="1976.75" x2="-986.93" y2="2141.02" gradientTransform="translate(475.93) rotate(-180) scale(1 -1)" xlink:href="#linear-gradient"/></defs><g id="Illustration"><g><g><rect class="cls-22" x="67.93" y="195.98" width="2585.33" height="1790.69" rx="36.5" ry="36.5"/><rect class="cls-5" x="130.55" y="505.18" width="2436.07" height="1406.53" rx="36.5" ry="36.5"/><path class="cls-22" d="M2653.26,425.01v-107.88c0-66.91-55.38-121.12-122.29-121.12H196.91c-66.91,0-122.34,54.21-122.34,121.12v107.88H2653.26Z"/><g><circle class="cls-4" cx="210.15" cy="355.8" r="31.59" transform="translate(-190.04 252.81) rotate(-45)"/><circle class="cls-4" cx="309.7" cy="357.18" r="31.59"/><circle class="cls-4" cx="405.18" cy="361.59" r="31.59"/></g><rect class="cls-4" x="218.51" y="589.03" width="814.99" height="1239.64" rx="12" ry="12"/><rect class="cls-4" x="1088.44" y="588.62" width="1390.01" height="591.56" rx="12" ry="12"/><rect class="cls-4" x="1082.41" y="1250.73" width="1390.01" height="557.67" rx="12" ry="12"/></g><g><g><g class="cls-26"><path class="cls-29" d="M819.01,573.65c-5.34,1.08-10.75-2.02-12.42-7.34-3.65-11.62-6.86-23.57-9.52-35.52-1.3-5.81,2.37-11.58,8.18-12.87l.21-.04c5.74-1.17,11.39,2.48,12.67,8.22,2.53,11.35,5.57,22.71,9.04,33.74,1.79,5.68-1.37,11.74-7.05,13.52-.36,.12-.73,.21-1.1,.28Zm-18-92.2c-.41,.08-.84,.14-1.27,.18-5.93,.49-11.15-3.92-11.64-9.86-1.01-12.19-1.5-24.55-1.47-36.72,.01-5.96,4.83-10.75,10.81-10.76,5.96,.02,10.77,4.86,10.76,10.81-.03,11.57,.44,23.31,1.4,34.9,.45,5.5-3.31,10.38-8.59,11.45Zm2.75-93.87c-1.18,.24-2.41,.28-3.67,.1-5.89-.85-9.99-6.31-9.15-12.2,1.73-12.08,4-24.25,6.76-36.14,1.35-5.8,7.14-9.41,12.94-8.07,5.8,1.35,9.41,7.14,8.07,12.94-2.62,11.3-4.78,22.84-6.42,34.32-.66,4.64-4.19,8.16-8.53,9.05Zm23.67-90.92c-1.94,.39-4.02,.26-6.01-.51-5.56-2.14-8.33-8.38-6.19-13.94,4.39-11.4,9.33-22.75,14.67-33.73,2.61-5.35,9.06-7.58,14.42-4.98,5.35,2.61,7.58,9.06,4.98,14.42-5.07,10.43-9.76,21.2-13.93,32.04-1.38,3.57-4.44,5.99-7.93,6.69Zm43.35-83.36c-2.73,.55-5.66,.06-8.16-1.62-4.95-3.32-6.26-10.02-2.94-14.96,6.79-10.12,14.12-20.09,21.76-29.62,3.72-4.65,10.51-5.4,15.16-1.67,4.65,3.73,5.39,10.51,1.67,15.16-7.27,9.07-14.23,18.54-20.69,28.16-1.65,2.45-4.12,4.01-6.81,4.56Zm60.71-71.69c-3.53,.72-7.34-.35-10-3.16-4.09-4.33-3.89-11.15,.44-15.24,8.88-8.38,18.22-16.48,27.78-24.08,4.67-3.71,11.45-2.93,15.15,1.73,3.7,4.66,2.93,11.44-1.73,15.15-9.08,7.22-17.96,14.91-26.4,22.88-1.52,1.43-3.34,2.34-5.25,2.72Zm382.14-103.75c-1.46,.3-3.01,.29-4.56-.06-11.29-2.6-22.85-4.74-34.35-6.36-5.9-.83-10-6.29-9.17-12.18,.83-5.9,6.28-10,12.18-9.17,12.11,1.71,24.28,3.96,36.17,6.7,5.8,1.34,9.43,7.13,8.09,12.93-.98,4.26-4.35,7.34-8.37,8.15Zm-307.11,47.34c-4.38,.89-9.04-1.03-11.44-5.1-3.02-5.13-1.31-11.74,3.82-14.77,10.52-6.2,21.43-12.01,32.44-17.28,5.38-2.55,11.81-.3,14.38,5.07,2.57,5.37,.3,11.81-5.07,14.38-10.46,5-20.82,10.52-30.81,16.4-1.06,.62-2.19,1.05-3.33,1.28Zm213.77-57.96c-.7,.14-1.42,.22-2.16,.22-11.59,0-23.34,.49-34.91,1.47-5.94,.5-11.15-3.9-11.65-9.84-.5-5.93,3.89-11.18,9.84-11.65,12.18-1.03,24.54-1.55,36.74-1.55,5.96,0,10.78,4.83,10.78,10.79,0,5.21-3.71,9.56-8.63,10.56Zm-128.01,19.72c-5.33,1.08-10.73-2.01-12.41-7.32-1.8-5.68,1.35-11.74,7.03-13.54,11.63-3.68,23.57-6.91,35.49-9.58,.07-.02,.15-.03,.22-.05,5.73-1.16,11.37,2.47,12.66,8.2,1.31,5.81-2.34,11.58-8.16,12.89-11.33,2.55-22.67,5.61-33.71,9.11-.37,.11-.75,.21-1.12,.29Z"/><path class="cls-29" d="M1385.58,61.46c-2.08,.42-4.31,.24-6.41-.67-5.1-2.2-10.34-4.34-15.56-6.35-5.56-2.13-8.34-8.37-6.2-13.93,2.13-5.56,8.37-8.34,13.93-6.2,5.49,2.11,11,4.35,16.37,6.67,5.47,2.36,7.99,8.71,5.63,14.17-1.45,3.37-4.42,5.62-7.77,6.3Z"/></g><g class="cls-26"><path class="cls-29" d="M1612.59,299.26c-5.1,1.04-10.34-1.75-12.23-6.78-1.95-5.2-4.05-10.46-6.23-15.61-2.32-5.49,.24-11.81,5.73-14.13,5.51-2.33,11.81,.25,14.13,5.73,2.29,5.42,4.5,10.95,6.56,16.43,2.09,5.58-.73,11.79-6.31,13.89-.55,.21-1.1,.36-1.66,.47Z"/><path class="cls-29" d="M1303.45,858.66c-4.86,.99-9.76,1.89-14.69,2.72-5.87,.99-11.44-2.97-12.42-8.85-.99-5.87,3-11.46,8.85-12.42,11.38-1.91,22.66-4.28,33.65-7.08,5.78-1.46,11.64,2.02,13.11,7.79,1.47,5.77-2.02,11.65-7.79,13.11-6.8,1.73-13.76,3.32-20.7,4.73Zm-71.35,8.3c-.59,.12-1.2,.19-1.82,.21-12.03,.37-24.2,.24-36.19-.4-5.95-.31-10.51-5.39-10.2-11.34,.32-5.95,5.4-10.53,11.34-10.2,11.38,.6,22.95,.73,34.38,.38,5.95-.19,10.93,4.49,11.11,10.44,.16,5.33-3.57,9.87-8.62,10.9Zm145.94-30.81c-4.98,1.01-10.14-1.63-12.12-6.51-2.24-5.52,.41-11.81,5.93-14.05,10.55-4.29,21.07-9.09,31.25-14.28,5.31-2.69,11.8-.59,14.5,4.72,2.7,5.31,.59,11.8-4.72,14.5-10.72,5.46-21.8,10.52-32.91,15.04-.64,.26-1.28,.45-1.93,.58Zm-238.11,23.48c-1.34,.27-2.76,.29-4.18,.01-11.8-2.28-23.65-5.09-35.21-8.35-5.73-1.62-9.06-7.57-7.45-13.3,1.62-5.74,7.57-9.07,13.31-7.45,10.98,3.1,22.23,5.77,33.44,7.93,5.85,1.13,9.67,6.78,8.55,12.63-.85,4.42-4.29,7.69-8.45,8.53Zm319.31-67.55c-4.09,.83-8.46-.77-11-4.41-3.4-4.89-2.2-11.61,2.69-15.01,9.35-6.5,18.54-13.5,27.34-20.8,4.58-3.8,11.38-3.17,15.18,1.42,3.8,4.58,3.17,11.38-1.42,15.18-9.26,7.68-18.95,15.05-28.79,21.9-1.24,.87-2.61,1.44-4.01,1.72Zm69.56-60.82c-3.27,.66-6.8-.19-9.44-2.62-4.39-4.03-4.68-10.85-.66-15.24,7.72-8.42,15.17-17.26,22.16-26.28,3.64-4.71,10.41-5.58,15.13-1.93,4.71,3.65,5.57,10.42,1.92,15.13-7.35,9.49-15.19,18.79-23.32,27.65-1.6,1.74-3.64,2.84-5.79,3.28Zm54.65-74.54c-2.49,.5-5.16,.14-7.53-1.23-5.16-2.97-6.93-9.57-3.96-14.73,5.71-9.91,11.06-20.15,15.91-30.47,2.53-5.39,8.95-7.71,14.35-5.17,5.39,2.53,7.71,8.95,5.17,14.35-5.1,10.86-10.74,21.65-16.74,32.07-1.61,2.79-4.28,4.59-7.2,5.18Zm37.09-84.68c-1.72,.35-3.55,.28-5.35-.28-5.69-1.77-8.85-7.82-7.08-13.5,3.4-10.91,6.38-22.08,8.84-33.21,1.29-5.81,7.05-9.49,12.86-8.2,5.82,1.29,9.49,7.05,8.2,12.86-2.59,11.73-5.73,23.5-9.31,34.98-1.22,3.89-4.43,6.6-8.16,7.36Zm17.6-90.79c-.97,.2-1.98,.26-3.01,.18-5.94-.48-10.36-5.68-9.88-11.61,.91-11.36,1.35-22.91,1.3-34.33-.02-5.96,4.8-10.8,10.74-10.83,5.96-.03,10.8,4.78,10.83,10.74,.05,12.02-.41,24.18-1.37,36.14-.39,4.9-4.01,8.78-8.6,9.71Zm-2.77-92.38c-.22,.04-.44,.08-.66,.11-5.9,.83-11.35-3.28-12.17-9.18-1.17-8.33-2.6-16.71-4.27-24.93-.6-2.98-1.24-5.94-1.91-8.89-1.31-5.81,2.34-11.58,8.15-12.89,5.86-1.44,11.58,2.34,12.89,8.14,.7,3.1,1.37,6.22,2,9.35,1.76,8.65,3.27,17.47,4.49,26.23,.8,5.68-2.98,10.94-8.52,12.06Z"/><path class="cls-29" d="M1051.4,832.07c-2.1,.43-4.35,.23-6.46-.69-5.35-2.34-10.75-4.84-16.05-7.42-5.35-2.61-7.58-9.07-4.97-14.42,2.61-5.35,9.06-7.58,14.42-4.97,5.04,2.46,10.17,4.83,15.24,7.05,5.45,2.38,7.94,8.74,5.56,14.2-1.46,3.34-4.42,5.57-7.74,6.25Z"/></g><g><path class="cls-29" d="M1040.78,706.6c1.66,1.36,4.01,1.52,5.84,.39l52.21-32.2c25.72,12.62,53.63,21.22,82.86,25.07l25.63,55.69c.9,1.95,2.94,3.12,5.08,2.91l73.22-7.29c2.14-.21,3.91-1.76,4.4-3.85l14.14-59.65c27.9-9.54,53.57-23.48,76.29-40.92l57.54,21.27c2.02,.75,4.28,.13,5.65-1.53l46.61-56.93c1.36-1.66,1.52-4.01,.39-5.84l-32.2-52.21c12.62-25.72,21.22-53.63,25.07-82.86l55.69-25.63c1.95-.9,3.12-2.94,2.91-5.08l-7.29-73.22c-.21-2.14-1.76-3.91-3.85-4.4l-59.65-14.14c-9.54-27.9-23.48-53.57-40.92-76.29l21.27-57.54c.74-2.02,.13-4.28-1.53-5.65l-56.93-46.61c-1.66-1.36-4.01-1.52-5.84-.39l-52.21,32.2c-25.72-12.62-53.63-21.22-82.86-25.07l-25.63-55.69c-.9-1.95-2.94-3.12-5.08-2.91l-73.22,7.29c-2.14,.21-3.91,1.76-4.4,3.85l-14.14,59.65c-27.9,9.53-53.57,23.48-76.29,40.92l-57.54-21.27c-2.02-.75-4.29-.13-5.65,1.53l-46.61,56.93c-1.36,1.66-1.52,4.01-.39,5.84l32.2,52.21c-12.62,25.72-21.22,53.63-25.07,82.86l-55.69,25.63c-1.95,.9-3.12,2.94-2.91,5.08l7.29,73.21c.21,2.14,1.76,3.91,3.85,4.41l59.65,14.14c9.54,27.9,23.48,53.56,40.92,76.29l-21.27,57.54c-.75,2.02-.13,4.28,1.53,5.65l56.93,46.61Z"/><path class="cls-22" d="M1231.65,505.84c-35.33,7.17-71.62-12.48-84.22-47.37-13.85-38.36,6.09-80.83,44.44-94.68,18.58-6.72,38.66-5.78,56.54,2.61,17.88,8.39,31.43,23.25,38.14,41.83,13.85,38.36-6.09,80.83-44.44,94.68-3.46,1.25-6.95,2.22-10.46,2.93Zm-25.83-128.1c-2.73,.55-5.43,1.31-8.1,2.27-29.41,10.62-44.69,43.19-34.07,72.59,10.62,29.41,43.18,44.71,72.6,34.08,29.41-10.62,44.69-43.19,34.07-72.59-5.15-14.25-15.53-25.64-29.24-32.07-11.14-5.23-23.41-6.68-35.26-4.27Z"/><path class="cls-22" d="M1254.38,610.22c-6.07,1.23-12.23,2.16-18.48,2.79h0c-1.97,.2-3.94,.36-5.91,.49-9.72,.65-19.48,.53-29.12-.36-.13-.01-.26-.02-.39-.04-.37-.04-.75-.07-1.12-.11-.73-.07-1.45-.15-2.17-.23-1.9-.22-3.38-1.64-3.74-3.42-.09-.43-.11-.89-.06-1.35,.27-2.37,2.41-4.06,4.77-3.8,12.18,1.38,24.59,1.46,36.89,.23,61.08-6.07,111.66-43.36,137.5-94.46,14.38-28.42,21.1-61.11,17.71-95.08-.59-5.96-1.48-11.84-2.66-17.63-7.91-38.95-28.8-73.71-59.97-99.23-35.8-29.32-80.87-42.94-126.91-38.35-95.09,9.48-164.67,94.5-155.21,189.54,.58,5.86,1.46,11.67,2.63,17.4,5.05,24.85,15.47,48.31,30.62,68.68,.39,.53,.64,1.11,.77,1.71,.32,1.59-.27,3.29-1.65,4.32-1.92,1.42-4.61,1.03-6.04-.89-15.9-21.38-26.85-46.02-32.14-72.1-1.22-6.02-2.14-12.11-2.76-18.27-9.94-99.79,63.18-189.05,162.94-198.99,48.34-4.82,95.65,9.48,133.24,40.26,32.72,26.79,54.65,63.28,62.96,104.17,1.23,6.08,2.17,12.25,2.79,18.5,4.81,48.34-9.48,95.66-40.26,133.24-26.8,32.73-63.3,54.66-104.2,62.96Z"/></g></g><g><g class="cls-26"><path class="cls-29" d="M514.89,925.34c-2.82,.57-5.8-.74-7.21-3.42-2.64-5-5.17-10.15-7.5-15.3-1.52-3.35-.04-7.29,3.31-8.82,3.35-1.54,7.3-.03,8.82,3.31,2.23,4.91,4.63,9.82,7.15,14.59,1.72,3.25,.47,7.28-2.78,9-.58,.3-1.18,.51-1.79,.63Z"/><path class="cls-29" d="M495.23,878.03c-3.31,.67-6.65-1.26-7.68-4.55-2.9-9.3-5.34-18.85-7.28-28.38-.41-2.01-.79-4.03-1.16-6.06-.65-3.62,1.97-6.99,5.37-7.75,3.62-.66,7.08,1.75,7.74,5.36,.35,1.94,.72,3.87,1.11,5.79,1.85,9.1,4.18,18.2,6.94,27.07,1.1,3.51-.87,7.24-4.38,8.34-.22,.06-.44,.12-.66,.17Zm-12.32-68.05c-.31,.06-.63,.11-.95,.13-3.67,.21-6.82-2.6-7.03-6.27-.68-11.78-.63-23.71,.14-35.45,.24-3.67,3.43-6.44,7.08-6.21,3.67,.24,6.45,3.41,6.21,7.08-.74,11.2-.78,22.58-.14,33.81,.19,3.35-2.12,6.26-5.32,6.91Zm4.55-69c-.83,.17-1.7,.18-2.58,.01-3.61-.69-5.97-4.19-5.28-7.8,2.23-11.57,5.21-23.13,8.86-34.35,1.14-3.5,4.88-5.41,8.39-4.27,3.5,1.14,5.41,4.9,4.27,8.39-3.48,10.7-6.32,21.72-8.44,32.75-.53,2.73-2.65,4.75-5.22,5.27Zm21.38-65.77c-1.35,.27-2.8,.13-4.14-.49-3.33-1.56-4.77-5.53-3.21-8.86,5.01-10.69,10.72-21.16,16.99-31.13,1.96-3.11,6.08-4.04,9.18-2.09,3.11,1.96,4.05,6.07,2.09,9.18-5.97,9.5-11.43,19.49-16.2,29.68-.93,1.99-2.72,3.3-4.71,3.7Zm36.79-58.56c-1.89,.38-3.93-.05-5.54-1.36-2.85-2.32-3.28-6.52-.96-9.37,7.45-9.14,15.53-17.91,24.03-26.05,2.65-2.56,6.87-2.46,9.42,.19,2.55,2.66,2.46,6.87-.19,9.42-8.1,7.78-15.82,16.14-22.92,24.86-1.01,1.24-2.38,2.02-3.84,2.32Zm49.88-47.85c-2.44,.5-5.07-.41-6.67-2.54-2.2-2.94-1.59-7.12,1.35-9.32,9.45-7.05,19.42-13.59,29.65-19.4,3.21-1.81,7.26-.7,9.08,2.5,1.82,3.19,.7,7.26-2.49,9.08-9.75,5.55-19.26,11.77-28.27,18.5-.82,.61-1.72,1-2.66,1.19Zm60.05-34.19c-3.06,.62-6.23-.99-7.47-3.97-1.41-3.4,.2-7.29,3.6-8.71,10.85-4.51,22.13-8.39,33.52-11.54,3.57-.92,7.22,1.1,8.2,4.65,.98,3.54-1.1,7.21-4.64,8.2-10.87,3-21.63,6.71-31.97,11-.41,.17-.82,.29-1.23,.38Zm101.17-21.39c-.38,.08-.77,.12-1.17,.13-9.71,.24-19.57,1.01-29.32,2.3-1.48,.19-2.93,.39-4.37,.61-3.64,.54-7.03-1.96-7.57-5.6-.55-3.65,1.97-7.14,5.6-7.57,1.54-.23,3.08-.45,4.63-.64,10.19-1.34,20.53-2.16,30.71-2.4,3.68-.09,6.73,2.82,6.82,6.49,.08,3.28-2.22,6.06-5.33,6.69Z"/></g><g class="cls-26"><path class="cls-29" d="M823.18,1068.73c-3.56,.72-7.06-1.55-7.83-5.12-.78-3.59,1.5-7.14,5.1-7.92,10.82-2.34,21.6-5.37,32.02-8.99,3.46-1.17,7.27,.63,8.48,4.11,1.21,3.48-.63,7.27-4.11,8.48-10.93,3.79-22.22,6.97-33.57,9.42l-.09,.02Zm-33.68,5.19c-.24,.05-.47,.08-.72,.1-11.54,1.08-23.27,1.47-34.86,1.16-3.68-.1-6.58-3.16-6.48-6.84,.1-3.68,3.18-6.57,6.83-6.48,11.05,.3,22.24-.07,33.26-1.1,3.66-.34,6.91,2.35,7.25,6.01,.32,3.43-2.01,6.48-5.3,7.15Zm97.91-27.52c-2.89,.59-5.93-.81-7.3-3.59-1.62-3.29-.26-7.29,3.04-8.91,9.94-4.9,19.66-10.43,28.9-16.47,3.09-2,7.21-1.14,9.22,1.94,2.01,3.08,1.14,7.21-1.93,9.22-9.69,6.33-19.88,12.13-30.3,17.26-.53,.26-1.07,.44-1.62,.55Zm-165.93,25.65c-.74,.15-1.52,.18-2.32,.06-11.47-1.73-22.96-4.18-34.12-7.3-3.54-.99-5.61-4.66-4.63-8.21,.99-3.53,4.66-5.6,8.2-4.62,10.65,2.97,21.59,5.31,32.53,6.96,3.64,.55,6.14,3.94,5.59,7.58-.43,2.84-2.6,4.99-5.26,5.53Zm222.86-62.84c-2.31,.47-4.8-.31-6.42-2.23-2.37-2.82-2.01-7.02,.8-9.39,8.45-7.12,16.56-14.83,24.09-22.93,2.51-2.7,6.72-2.84,9.42-.34,2.69,2.51,2.84,6.72,.34,9.42-7.9,8.49-16.4,16.57-25.26,24.04-.88,.74-1.91,1.22-2.96,1.43Zm46.35-49.76c-1.77,.36-3.67,0-5.25-1.14-2.97-2.16-3.63-6.33-1.47-9.3,6.52-8.96,12.55-18.4,17.92-28.03,1.79-3.22,5.85-4.37,9.06-2.58,3.21,1.79,4.36,5.84,2.57,9.05-5.63,10.11-11.95,20-18.78,29.39-1.02,1.4-2.48,2.29-4.06,2.61Zm33.09-59.44c-1.24,.25-2.57,.16-3.83-.36-3.41-1.39-5.04-5.28-3.65-8.68,4.19-10.25,7.78-20.86,10.67-31.51,.97-3.54,4.62-5.64,8.17-4.68,3.55,.96,5.65,4.62,4.68,8.17-3.04,11.17-6.8,22.29-11.19,33.05-.88,2.14-2.74,3.58-4.85,4.01Z"/><path class="cls-29" d="M655.66,1053.68c-1.26,.26-2.6,.15-3.88-.38-5.26-2.19-10.48-4.55-15.52-7-3.3-1.61-4.68-5.6-3.07-8.91,1.62-3.29,5.6-4.67,8.91-3.07,4.8,2.34,9.78,4.59,14.81,6.69,3.4,1.41,5,5.32,3.59,8.71-.88,2.12-2.74,3.54-4.83,3.97Z"/></g><g><path class="cls-29" d="M643.97,968.26c1.11,.91,2.68,1.02,3.91,.26l34.94-21.55c17.21,8.44,35.89,14.2,55.45,16.77l17.15,37.26c.6,1.31,1.97,2.09,3.4,1.95l48.99-4.88c1.43-.14,2.62-1.18,2.95-2.58l9.46-39.91c18.67-6.38,35.84-15.71,51.05-27.38l38.5,14.23c1.35,.5,2.87,.09,3.78-1.03l31.19-38.09c.91-1.11,1.02-2.68,.26-3.91l-21.55-34.94c8.44-17.21,14.2-35.89,16.77-55.45l37.26-17.15c1.31-.6,2.09-1.97,1.95-3.4l-4.88-48.99c-.14-1.43-1.18-2.62-2.58-2.95l-39.91-9.46c-6.38-18.67-15.71-35.84-27.38-51.05l14.23-38.5c.5-1.35,.09-2.87-1.03-3.78l-38.09-31.19c-1.11-.91-2.68-1.02-3.91-.26l-34.94,21.55c-17.21-8.44-35.89-14.2-55.45-16.77l-17.15-37.26c-.6-1.31-1.97-2.09-3.4-1.95l-48.99,4.88c-1.43,.14-2.61,1.18-2.95,2.58l-9.46,39.91c-18.67,6.38-35.84,15.71-51.05,27.38l-38.5-14.23c-1.35-.5-2.87-.09-3.78,1.03l-31.19,38.09c-.91,1.11-1.02,2.68-.26,3.91l21.55,34.94c-8.44,17.21-14.2,35.89-16.77,55.45l-37.26,17.15c-1.31,.6-2.09,1.97-1.94,3.4l4.88,48.99c.14,1.43,1.18,2.62,2.58,2.95l39.91,9.46c6.38,18.67,15.71,35.84,27.38,51.05l-14.23,38.5c-.5,1.35-.09,2.87,1.03,3.78l38.09,31.19Z"/><path class="cls-22" d="M771.8,834.81c-10.53,2.14-21.42,.85-31.33-3.8-12.18-5.72-21.41-15.84-25.98-28.5-9.44-26.12,4.14-55.05,30.27-64.49,26.18-9.4,55.06,4.15,64.5,30.27,4.57,12.66,3.94,26.34-1.78,38.52-5.72,12.18-15.84,21.41-28.5,25.98-2.37,.85-4.77,1.53-7.19,2.02Zm-17.27-85.73c-1.76,.36-3.51,.84-5.24,1.47-19.22,6.95-29.2,28.23-22.26,47.44,3.36,9.31,10.15,16.76,19.11,20.96,8.96,4.21,19.02,4.66,28.34,1.31h0c9.31-3.36,16.76-10.15,20.96-19.11,4.21-8.96,4.67-19.03,1.31-28.34-6.31-17.48-24.5-27.33-42.2-23.74Z"/><path class="cls-22" d="M787.52,907.49c-4.13,.84-8.34,1.47-12.62,1.9-8.5,.85-17.09,.83-25.56-.05-.38-.04-.76-.08-1.14-.13-2.94-.33-5.22-2.53-5.78-5.28-.14-.67-.17-1.37-.09-2.09,.41-3.65,3.72-6.26,7.37-5.86,7.9,.9,15.93,.95,23.88,.15h0c.44-.04,.87-.09,1.31-.14,18.78-2.05,36.34-8.71,51.45-19.21,8.2-5.7,15.69-12.54,22.25-20.41,.05-.06,.11-.13,.16-.19,.16-.2,.33-.39,.48-.59,18.98-23.18,27.79-52.36,24.82-82.16-.38-3.86-.96-7.66-1.72-11.41-5.12-25.22-18.65-47.72-38.82-64.24-23.18-18.98-52.36-27.79-82.16-24.82-29.78,2.98-56.67,17.37-75.65,40.54-18.98,23.18-27.79,52.36-24.82,82.16,.37,3.79,.95,7.55,1.7,11.26,3.27,16.09,10.02,31.28,19.82,44.46,.6,.81,1,1.72,1.18,2.65,.5,2.45-.41,5.08-2.55,6.67-2.96,2.19-7.12,1.58-9.32-1.37-10.97-14.75-18.52-31.75-22.18-49.74-.84-4.16-1.48-8.36-1.9-12.6-3.32-33.35,6.54-66,27.78-91.93,21.23-25.92,51.27-42.06,84.63-45.36,33.35-3.32,65.99,6.54,91.92,27.78,22.58,18.48,37.71,43.66,43.43,71.87,.85,4.19,1.5,8.45,1.93,12.76,6.43,64.56-37.53,122.74-99.8,135.38Z"/></g></g></g><g><path class="cls-3" d="M680.89,1915.57s-1.21-5.34-3.1-15.23c-1.08-5.62,2.6-11.04,8.21-12.11,2.48-.48,4.9-.02,6.94,1.1,2.39-3.93,5.14-8.35,8.24-13.16,3.1-4.8,9.5-6.16,14.31-3.08,4.8,3.1,6.18,9.5,3.08,14.31-8.73,13.53-14.4,23.61-17.13,28.45-.79,1.39-1.33,2.35-1.62,2.83l-13.29,21.79-5.64-24.89Zm-11.68-66.8c-2.46-16.95-4.64-34.37-6.5-51.77-.61-5.67,3.51-10.78,9.19-11.39,5.67-.58,10.78,3.5,11.39,9.2,1.83,17.13,3.99,34.3,6.4,51,.82,5.65-3.1,10.91-8.76,11.72-.98,.14-1.95,.14-2.89,.01-4.45-.61-8.15-4.1-8.83-8.77Zm64.32-1.07c-4.49-3.52-5.28-10.04-1.75-14.53,11.14-14.19,22.8-27.61,34.65-39.88,3.97-4.12,10.52-4.24,14.63-.26,4.11,3.97,4.23,10.53,.25,14.63-11.36,11.77-22.55,24.65-33.26,38.29-2.36,3-6.03,4.34-9.56,3.86-1.76-.24-3.48-.94-4.97-2.11Zm70.42-75.71c-3.59-4.45-2.88-10.97,1.57-14.56,14.31-11.53,29.08-21.7,43.9-30.24,4.94-2.86,11.28-1.16,14.14,3.8,2.85,4.95,1.15,11.28-3.8,14.13-13.89,8.01-27.77,17.57-41.25,28.44-2.31,1.86-5.18,2.56-7.9,2.19-2.52-.35-4.93-1.61-6.65-3.76Zm-145.85-26.93c-1.24-17.46-2.15-34.99-2.72-52.08-.19-5.71,4.28-10.5,9.99-10.69,5.76-.18,10.5,4.28,10.69,10,.57,16.84,1.47,34.1,2.69,51.3,.4,5.71-3.89,10.65-9.59,11.06-.73,.05-1.45,.02-2.15-.07-4.74-.65-8.55-4.55-8.9-9.52Zm233.64-27.09c-1.86-5.41,1-11.3,6.4-13.16,12.25-4.23,24.74-7.5,37.14-9.73,4.91-.88,9.64-1.82,14.23-2.82,5.57-1.19,11.09,2.33,12.31,7.91,1.22,5.58-2.32,11.1-7.91,12.32-4.83,1.05-9.83,2.04-14.98,2.96-11.34,2.03-22.8,5.04-34.03,8.91-1.59,.56-3.22,.69-4.78,.48-3.74-.51-7.07-3.06-8.38-6.88Zm203.07,9.22c.1-4.2,2.68-7.76,6.32-9.29,4.66-8.22,11.53-15.63,21.1-22.92,4.54-3.46,11.03-2.58,14.5,1.95,3.46,4.55,2.58,11.04-1.96,14.5-11.59,8.84-17.49,17.11-19.71,27.65l-20.47-2.42,.23-9.48Zm-103.24-35.75c-2.11-5.31,.48-11.33,5.78-13.45,16.43-6.54,30.85-14.42,42.84-23.4,4.57-3.42,11.06-2.48,14.48,2.08,3.43,4.58,2.49,11.06-2.08,14.49-13.45,10.07-29.46,18.83-47.58,26.05-1.72,.68-3.52,.87-5.23,.64-3.57-.49-6.79-2.84-8.22-6.42Zm-336.95-50.63c.08-17.46,.54-35.02,1.33-52.17,.27-5.71,5.11-10.12,10.82-9.86,5.75,.25,10.12,5.11,9.86,10.82-.79,16.87-1.23,34.12-1.32,51.31-.03,5.71-4.68,10.32-10.4,10.29-.47,0-.92-.04-1.37-.1-5.06-.7-8.95-5.05-8.92-10.3Zm441,34.63c.16-19.97,.11-37.33-.16-51.6-.11-5.72,4.43-10.44,10.15-10.55,5.66-.02,10.43,4.43,10.54,10.15,.27,14.46,.33,32,.17,52.17-.05,5.72-4.72,10.31-10.43,10.27-.45-.01-.9-.04-1.34-.1-5.08-.7-8.97-5.07-8.92-10.34Zm67.97,5.94c-2.85-4.95-1.16-11.28,3.79-14.14,13.12-7.58,27.43-16.09,43.13-26.95,4.7-3.25,11.15-2.07,14.4,2.62,3.25,4.7,2.08,11.15-2.62,14.4-16.31,11.29-31.05,20.05-44.56,27.86-2.07,1.19-4.38,1.59-6.58,1.29-3.05-.42-5.89-2.2-7.56-5.08Zm-87.81-47.48c-4.91-2.92-6.53-9.26-3.61-14.17,8.49-14.29,11.84-27.43,14.06-36.14,.94-3.68,1.73-6.65,2.53-8.77,.43-1.14,.87-2.1,1.28-2.89,2.65-5.05,8.77-6.71,13.84-4.05,5.06,2.64,6.9,9.21,4.24,14.27-.59,1.58-1.13,3.82-1.84,6.57-2.36,9.25-6.32,24.74-16.32,41.58-2.19,3.69-6.31,5.52-10.31,4.97-1.33-.18-2.65-.63-3.87-1.36Zm-416.2-97.37c1.44-15.53,3.22-31.03,5.28-46.03l.82-5.87c.81-5.64,6.02-9.57,11.67-8.79h.04c5.66,.81,9.59,6.06,8.78,11.71l-.81,5.77c-2.02,14.71-3.76,29.89-5.18,45.13-.53,5.69-5.57,9.87-11.26,9.35-.16-.01-.31-.03-.46-.05-5.45-.75-9.4-5.67-8.89-11.21Zm589.82,87.37c-3.75-4.31-3.29-10.85,1.02-14.6,12.4-10.78,24.64-22.62,36.39-35.18,3.9-4.17,10.44-4.4,14.62-.49,4.18,3.9,4.39,10.45,.49,14.62-12.23,13.08-24.99,25.41-37.92,36.66-2.35,2.04-5.35,2.84-8.2,2.44-2.39-.33-4.68-1.49-6.39-3.46Zm72.15-73.86c-4.5-3.52-5.3-10.02-1.79-14.53,2.23-2.85,4.46-5.74,6.69-8.71,7.98-10.54,15.36-21.54,21.94-32.71,2.91-4.91,9.28-6.58,14.17-3.64,4.92,2.9,6.56,9.25,3.65,14.17-6.98,11.83-14.81,23.5-23.25,34.66-2.31,3.05-4.6,6.04-6.89,8.98-2.36,3.01-6.04,4.36-9.58,3.88-1.75-.24-3.46-.93-4.95-2.1Zm-638.92-104.79c-5.6-1.13-9.23-6.58-8.11-12.18,3.48-17.36,7.48-34.52,11.87-51.01,1.47-5.53,7.23-8.93,12.66-7.34,5.53,1.46,8.81,7.14,7.34,12.66-4.27,16.08-8.17,32.82-11.57,49.77-1.08,5.39-6.17,8.95-11.54,8.22-.21-.03-.42-.07-.64-.11Zm693.67,17.34c-5.3-2.13-7.87-8.15-5.74-13.46,6.2-15.42,11.28-31.5,15.1-47.79,1.3-5.55,6.9-9.16,12.44-7.71,5.56,1.3,9.02,6.87,7.71,12.43-4.06,17.31-9.46,34.39-16.04,50.79-1.81,4.49-6.41,7.02-11,6.39-.83-.11-1.65-.33-2.46-.65Zm-668.26-117.6c-5.41-1.86-8.29-7.74-6.44-13.15,5.74-16.77,12.09-33.26,18.88-49.02,2.27-5.25,8.35-7.66,13.6-5.4,5.25,2.26,7.67,8.36,5.41,13.61-6.58,15.26-12.75,31.26-18.31,47.53-1.63,4.75-6.38,7.56-11.19,6.9-.65-.09-1.3-.24-1.95-.46Zm685.46,6.77c1.4-16.53,1.66-33.43,.75-50.27-.31-5.7,4.07-10.58,9.77-10.89,5.73-.3,10.58,4.07,10.9,9.77,.96,17.79,.69,35.67-.8,53.14-.48,5.7-5.49,9.92-11.19,9.44-.18-.01-.36-.04-.54-.06-5.42-.74-9.36-5.61-8.89-11.13Zm-645.93-102.28c-5.04-2.7-6.92-8.98-4.21-14.01,8.4-15.6,17.52-30.8,27.11-45.16,3.17-4.77,9.62-6.02,14.35-2.86,4.75,3.17,6.03,9.6,2.86,14.35-9.22,13.82-18.01,28.46-26.09,43.48-2.11,3.91-6.37,5.92-10.52,5.35-1.19-.16-2.37-.54-3.5-1.14Zm640.54,2.11c-4.83-24.8-10.86-41.14-12.8-45l-13.22-18.7c-3.3-4.67-2.19-11.12,2.48-14.42,4.66-3.3,11.12-2.19,14.42,2.48l12.91,18.26-.15,.1c8.6,12.27,16.58,52.86,16.67,53.31,1.1,5.61-2.57,11.04-8.18,12.14-1.15,.23-2.29,.24-3.39,.09-4.26-.59-7.88-3.82-8.75-8.27Zm-584.78-89.05c-4.4-3.64-5.02-10.17-1.37-14.57,11.27-13.6,23.31-26.65,35.81-38.8,4.1-3.98,10.66-3.87,14.63,.22,3.98,4.1,3.89,10.65-.21,14.64-11.96,11.62-23.5,24.11-34.29,37.15-2.37,2.86-5.96,4.12-9.39,3.65-1.84-.25-3.64-1.01-5.18-2.28Zm72.46-73.51c-3.51-4.51-2.69-11.02,1.82-14.52,13.76-10.71,28.36-20.82,43.39-30.08,4.86-3,11.24-1.47,14.24,3.38,3,4.87,1.48,11.25-3.39,14.24-14.39,8.86-28.36,18.54-41.54,28.78-2.29,1.78-5.1,2.45-7.76,2.08-2.58-.36-5.03-1.68-6.76-3.9Zm456.43,56.63l-29.87-42.24c-3.3-4.66-2.19-11.12,2.48-14.43,4.66-3.3,11.11-2.19,14.42,2.47l29.87,42.24c3.3,4.67,2.19,11.12-2.48,14.43-2.23,1.58-4.87,2.14-7.38,1.8-2.74-.38-5.32-1.84-7.04-4.27Zm-369.76-112.65c-2.47-5.15-.3-11.33,4.84-13.81,15.47-7.43,31.81-14.32,48.52-20.45,5.38-1.99,11.32,.77,13.28,6.15,1.97,5.36-.78,11.31-6.15,13.27-16.1,5.91-31.81,12.53-46.69,19.68-1.9,.91-3.94,1.19-5.88,.93-3.32-.46-6.37-2.52-7.93-5.77Zm310.01,28.16l-29.87-42.25c-3.3-4.66-2.19-11.12,2.48-14.43,4.66-3.3,11.11-2.19,14.43,2.47l29.87,42.24c3.3,4.67,2.19,11.12-2.48,14.43-2.23,1.58-4.87,2.14-7.38,1.8-2.74-.38-5.32-1.84-7.04-4.27Zm-213.8-65.59c-1.49-5.52,1.79-11.2,7.31-12.68,16.47-4.43,33.69-8.33,51.19-11.6,5.61-1.02,11.02,2.66,12.07,8.28,1.05,5.61-2.65,11.02-8.27,12.07-16.96,3.17-33.65,6.94-49.6,11.23-1.38,.37-2.76,.45-4.09,.26-4-.55-7.48-3.42-8.59-7.57Zm101.22-20.55c-.65-5.68,3.43-10.81,9.11-11.46,16.51-1.88,33.63-3.32,50.9-4.24l5.7-.3,4.03,5.69c3.3,4.66,2.18,11.12-2.49,14.42-3.04,2.15-6.83,2.44-10.03,1.07-15.53,.9-30.91,2.21-45.77,3.91-.88,.1-1.75,.09-2.59-.03-4.58-.63-8.32-4.28-8.87-9.07Z"/><path class="cls-23" d="M1307.21,1114.28s63.34,220.36-93.41,284.3c-156.75,63.95-330.76,89.56-362.01,162.85,0,0-39.78-446.57,401.73-507.65l53.68,60.5Z"/><path class="cls-28" d="M1777.81,1006.27s134.01,180.87,101.58,249.94c-30.84,65.7-430.35,382.14-469.26,412.87-1.75,1.38-4.21,1.14-5.72-.5h0c-12.53-13.54-17.84-32.18-14.3-50.28,17.1-87.42,70.39-347.99,111.77-421.62,49.97-88.91,275.93-190.42,275.93-190.42Z"/><path class="cls-22" d="M1532.7,1533.12c1.38,.19,2.82-.17,3.98-1.12,2.17-1.78,217.97-178.88,307.89-258.72,16.02-14.21,22.15-36.54,15.64-56.88-10.27-32.07-32.34-94.24-64.74-150.14-1.43-2.46-4.59-3.32-7.07-1.88-2.47,1.43-3.32,4.6-1.88,7.08,31.91,55.06,53.7,116.42,63.84,148.1,5.27,16.44,.31,34.49-12.65,45.99-89.77,79.71-305.41,256.68-307.58,258.46-2.21,1.81-2.53,5.07-.72,7.29,.86,1.04,2.05,1.67,3.3,1.84Z"/><path class="cls-28" d="M1422.61,622.44s-169.96-147.6-241.33-120.62c-67.88,25.67-414.29,399.49-447.94,435.91-1.51,1.64-1.46,4.11,.05,5.75h0c12.53,13.54,30.7,20.28,49.02,18.15,88.48-10.28,352.4-43.25,429-78.81,92.51-42.94,211.19-260.37,211.19-260.37Z"/><path class="cls-22" d="M882.83,830.87c1.59,.22,3.25-.3,4.44-1.54,1.94-2.03,195.06-203.33,281.48-286.67,12.47-12.03,30.85-15.57,46.83-9.06,30.8,12.57,90.31,39.04,142.72,75.11,2.34,1.65,5.58,1.03,7.2-1.33,1.62-2.35,1.03-5.57-1.33-7.19-50.54-34.79-106.57-60.63-144.67-76.18-19.77-8.06-42.51-3.68-57.92,11.19-86.57,83.48-279.83,284.94-281.77,286.95-1.98,2.06-1.91,5.34,.15,7.31,.82,.79,1.83,1.25,2.87,1.39Z"/><path class="cls-17" d="M2330.74,490.62c-53.31,95.59-125.63,194.45-223.8,285.82-304.77,283.68-577.85,439.48-656.68,481.7-14.26,7.64-31.49,6.67-45.03-2.18-106.71-69.73-191.44-159.96-254.33-270.58-11.83-20.81-10.88-46.57,2.19-66.63,56.7-87.04,230.91-336.92,524.12-606.68,97.94-90.11,201.28-154.28,300.02-199.98,182.49,112.29,295.16,279.91,353.51,378.53Z"/><path class="cls-23" d="M1977.23,112.09C2195.34,11.16,2391.02,.46,2456.58,0c12.81-.09,22.88,10.79,21.8,23.56-5.52,65.1-31.17,258.25-147.63,467.06-58.36-98.62-171.02-266.24-353.51-378.53Z"/><g><path class="cls-3" d="M1770.09,372.12c-79.15,73.25-79.59,201.5-.97,286.46,78.62,84.95,206.52,94.44,285.67,21.19,79.15-73.25,79.59-201.5,.97-286.46-78.62-84.96-206.52-94.44-285.67-21.19Z"/><path class="cls-31" d="M1799.04,395.36c-63.07,58.37-63.42,160.56-.78,228.25,62.64,67.69,164.56,75.25,227.63,16.89,63.07-58.37,63.42-160.56,.77-228.25-62.64-67.69-164.56-75.25-227.63-16.89Z"/><path class="cls-22" d="M2013.15,584.11c2.01,.28,4.09-.65,5.18-2.52,27.8-47.77,19.89-110.66-19.24-152.96-9.86-10.65-21.21-19.57-33.73-26.52-2.49-1.4-5.64-.49-7.03,2.01-1.39,2.49-.49,5.64,2.01,7.03,11.56,6.42,22.05,14.68,31.15,24.52,36.07,38.98,43.43,96.84,17.9,140.72-1.44,2.47-.6,5.64,1.87,7.07,.6,.36,1.25,.57,1.9,.66Z"/></g><g><path class="cls-3" d="M1530.36,690.87c-52.29,48.39-52.58,133.12-.64,189.24,51.94,56.13,136.43,62.39,188.73,14,52.29-48.39,52.58-133.12,.64-189.24-51.94-56.12-136.43-62.39-188.73-14Z"/><path class="cls-31" d="M1549.49,706.22c-41.67,38.56-41.9,106.07-.51,150.79,41.39,44.72,108.71,49.72,150.38,11.15,41.67-38.56,41.9-106.07,.51-150.79-41.38-44.72-108.71-49.72-150.38-11.16Z"/><path class="cls-22" d="M1690.69,832.66c2.01,.28,4.09-.65,5.18-2.52,18.75-32.22,13.44-74.63-12.94-103.12-6.63-7.17-14.28-13.19-22.72-17.87-2.48-1.4-5.64-.49-7.03,2.01-1.38,2.5-.49,5.64,2.02,7.03,7.48,4.15,14.25,9.49,20.14,15.86,23.31,25.19,28.08,62.56,11.59,90.89-1.44,2.48-.6,5.64,1.87,7.07,.6,.36,1.25,.57,1.9,.66Z"/></g></g><g><path class="cls-29" d="M2228.44,2671.78c32.51,2.81,88.93,7.38,133.41,9.33,26.74,1.18,42.13-1.44,51-4.99-.02,1-.04,1.94-.08,2.82-.21,4.68-4.01,8.43-8.74,8.69-84.05,4.69-150.89,1.62-174.69,.18-4.92-.3-7.85-5.65-5.34-9.84,1.26-2.1,2.78-4.15,4.44-6.19Z"/><path class="cls-43" d="M2361.85,2681.11c-44.48-1.96-100.9-6.52-133.41-9.33,31.96-39.21,133.41-65.65,133.41-65.65h28.65c19.71,28.41,22.56,55.45,22.35,69.99-8.87,3.55-24.26,6.17-51,4.99Z"/><path class="cls-2" d="M2395.33,2559.35l-2.68,53.06c-.29,5.75-4.59,10.57-10.35,11.4-5.73,.82-13.39,.92-21.52-1.78-5-1.67-8.72-5.88-9.64-11.02l-9.27-51.65h53.45Z"/><g><path class="cls-29" d="M2727.88,2732.99c14.1-2.54,20.48-12.01,23.15-22.13l.05,.27c2.07,10.67-2.73,21.74-12.35,27-11.62,6.36-24.32,7.44-34.19,6.92-10.58-.56-20.29-6.22-25.63-15.28l-.08-.14c10.62,6.79,25.53,7.59,49.04,3.35Z"/><path class="cls-42" d="M2661.41,2575.7h23.63c35.99-.95,58.59,97.16,65.99,135.16-2.67,10.12-9.05,19.58-23.15,22.13-23.51,4.24-38.42,3.44-49.04-3.35-19.44-33.07-29.09-81.51-33.72-109.77-5.27-32.15,16.29-44.16,16.29-44.16Z"/></g><path class="cls-51" d="M2682.01,2526.45l13.12,52.19c1.61,6.4-1.45,13.02-7.37,16.05-7.34,3.77-17.67,7.73-27.17,6.58-4.47-.54-8.18-3.68-9.65-7.89l-19.26-54.91,50.34-12.02Z"/><path class="cls-34" d="M2220.43,1839.12s117.26,732.96,115.33,736.98c0,0,32.39,14.72,67.69,1.88,0,0-10.6-391.82-35.45-542.05,0,0,200.12,350.21,263.67,524.71,0,0,33.15-3.95,60.58-22.01,0,0-215.47-630.36-272.96-714.32l-198.86,14.81Z"/><path class="cls-15" d="M2363.32,2032.11c.63,0,1.26-.17,1.83-.53,1.62-1.02,2.11-3.15,1.1-4.77l-43.82-69.99c-.51-.81-1.32-1.37-2.25-1.56l-32.25-6.49c-1.87-.38-3.7,.84-4.08,2.71-.38,1.87,.84,3.7,2.71,4.08l30.79,6.2,43.03,68.73c.66,1.05,1.79,1.63,2.94,1.63Z"/><path class="cls-36" d="M1682.35,1121.4s79.12,17.45,127.25,39.67c9.56,4.41,17.18,12.13,21.52,21.64,14.39,31.53,57.46,110.59,140.97,148.32-12.03,15.96-31.39,49.17-39.83,104.97-50.16-37.33-93.46-99.68-114.25-201.93,0,0-15.83,8.61-35.58-.99-10.43-5.07-22.48-12.26-31.52-17.91-9.01-5.63-15.72-14.39-18.33-24.61-3.44-13.5-1.41-25.38-1.41-38.11l-40.67-12.6s-12.23-4.61-8.15-18.46Z"/><path class="cls-37" d="M1932.26,1436c8.44-55.81,27.8-89.01,39.83-104.97,51.88,23.44,119.36,30.93,205.3,1.15,7.92-2.74,16.18-4.35,24.56-4.84,45.75-2.68,196.5-7.58,321.24,33.64,26.25,8.67,47.52,28.08,58.48,53.23,33.74,77.44,88.38,253.8-63.29,342.83-11.65-28.93-25.1-52.18-36.6-69.27,24.42-41.2,31.66-97.47-11.68-170.74-31.6,85.34-46.43,209.85-49.53,264.96-1.02,18.14,2.16,36.25,9.28,53l.78,1.83c1.52,3.58-.57,7.7-4.41,8.56-85.38,19.18-174.18,13.97-200.72,11.78-4.74-.39-8.67-3.78-9.76-8.36-41.52-174.94-41.61-294.28-31.45-369.71-38.84,8.68-157.6,27.2-252.04-43.08Z"/><path class="cls-8" d="M2184.13,1483.79c1.71,0,3.2-1.27,3.43-3.01,9.75-73.66,29.61-105.8,29.81-106.12,1.02-1.62,.54-3.75-1.08-4.78-1.62-1.02-3.75-.54-4.77,1.07-.85,1.33-20.84,33.52-30.82,108.92-.25,1.9,1.08,3.64,2.98,3.89,.15,.02,.31,.03,.46,.03Z"/><path class="cls-52" d="M2394.84,1225.43s8.64,91.33,16.24,118.34c1.15,4.1-.63,8.42-4.35,10.55-12.91,7.38-43.87,19.4-86.21-1.35-6.86-3.36-10.98-10.51-10.66-18.08l3.73-88.25,81.25-21.21Z"/><g><path class="cls-39" d="M2311.72,1108.59s-27.63,63.46-29.48,96.77c-1.86,33.31-9.03,54.92,29.48,61.63,38.51,6.71,70.96-12.48,88.54-45.66,0,0,27.54-51.13,21.36-72.06-6.18-20.94-109.9-40.68-109.9-40.68Z"/><path class="cls-21" d="M2387.1,1197.48l-2.19-.97c-2.79-1.23-3.99-4.55-2.58-7.26,5.43-10.49,16.02-34.54,2.34-40.15-17.63-7.23-87.45-21.47-102.52-46.24-14.48-23.81-1.65-54.55,17.63-63.29,1.29-.59,2.81-.12,3.47,1.13l1.61,3.04c1.1,2.08,4.17,1.77,4.83-.5h0c.63-2.17,3.52-2.59,4.71-.68,4.63,7.41,17.13,19.43,50.57,25.6,47.51,8.77,78.93,28,79.71,60.83,.05,2.09,2.27,3.25,4.05,2.16,3.51-2.14,9.12-3.14,16.63,3.17,13.05,10.97,7.71,39.43-20.9,62.85-1.36,1.11-1.35,3.23,.12,4.19,5.19,3.38,12.92,11.41-7.11,22.12-20.72,11.08-36.19,10.17-42.15,9.18-1.48-.24-2.44-1.68-2.11-3.15l6.36-28.86c.36-1.63-.88-3.18-2.56-3.18h-9.9Z"/><path class="cls-19" d="M2385.9,1203.57s10.54-40.54,28.71-29.17-9.43,45.42-24.04,46.94l-4.67-17.77Z"/></g><path class="cls-1" d="M1796.91,1224.64c.77,0,1.54-.25,2.18-.78,1.48-1.21,1.71-3.39,.5-4.87-2.99-3.68-29.54-36.15-39.77-41.93-3.72-2.1-5.94-4.27-6.41-6.28-.23-.96-.07-2.04,.46-3.26l31.2,6.25,17.68,15.17c1.45,1.25,3.64,1.08,4.88-.37,1.24-1.45,1.08-3.64-.37-4.88l-18.36-15.76c-.45-.39-.99-.65-1.57-.77l-34.54-6.92c-1.37-.27-2.77,.3-3.55,1.46-2.53,3.76-3.37,7.25-2.56,10.67,.96,4.04,4.14,7.55,9.75,10.72,7.7,4.35,29.9,30.54,37.81,40.26,.68,.84,1.68,1.28,2.69,1.28Z"/><path class="cls-53" d="M2387.24,1800.92l-122.11,1.51,42.74-40.23c10.62-10,26.84-11.62,39.1-3.67,7.18,4.66,14.97,10.98,21.71,19.35,0,0,76.17-27.84,113.1-90.12,11.5,17.08,24.95,40.34,36.6,69.27-33.1,19.43-76.02,34.71-131.14,43.89Z"/><g><path class="cls-54" d="M2374.08,1816.67c-.24,.01-.47,.02-.71,.02l-309.97-.33c-7.66,0-13.87-6.16-13.86-13.74,0-7.58,6.25-13.85,13.89-13.71l309.97,.33c7.66,0,13.87,6.16,13.86,13.74,0,7.35-5.85,13.34-13.18,13.7Z"/><path class="cls-12" d="M1784.74,1538.21h258.15c19.04,0,36.38,10.87,44.5,27.92l119.34,250.38h-320.81c-12.27,0-23.3-7.42-27.81-18.71l-92.54-231.69c-5.35-13.39,4.62-27.9,19.17-27.9Z"/><ellipse class="cls-29" cx="1947.25" cy="1672.75" rx="20.32" ry="32.74" transform="translate(-425.76 693.62) rotate(-18.24)"/></g></g><g><path class="cls-7" d="M521.46,2179.6c.19,0,.38,.01,.57,.01l245.87-.25c6.08,0,11-4.93,10.99-10.99,0-6.07-4.96-11.08-11.02-10.97l-245.87,.25c-6.08,0-11,4.93-10.99,10.99,0,5.88,4.64,10.67,10.45,10.96Z"/><path class="cls-25" d="M863.11,1938.82c-.09,.17-.17,.33-.25,.51l-103.45,223.05c-2.56,5.51-.17,12.05,5.33,14.6,5.51,2.55,12.14,.18,14.6-5.36l103.45-223.05c2.56-5.51,.17-12.05-5.33-14.6-5.33-2.47-11.63-.29-14.35,4.86Z"/></g><g><g><rect class="cls-29" x="1052.14" y="2403.62" width="24.69" height="266.98" transform="translate(2128.97 5074.22) rotate(180)"/><path class="cls-29" d="M956.37,2659.67h216.22v13.63c0,1.35-1.1,2.44-2.44,2.44h-211.34c-1.35,0-2.44-1.1-2.44-2.44v-13.63h0Z" transform="translate(2128.97 5335.42) rotate(180)"/><rect class="cls-29" x="924.28" y="2343.8" width="271.86" height="77.1" rx="26.55" ry="26.55"/></g><g><path class="cls-6" d="M1246.74,2225.61s36.68,5.69,77.93,33.26c6.49,4.34,10.05,11.9,9.07,19.65-4.94,39.12-25.24,165.74-92.2,289.41-3.53,6.52-4.55,14.11-2.99,21.36l11.63,54.14,21.57,20.23h-55.57l-37-100.13,15.82-5c12.27-3.88,20.68-15.16,20.91-28.02l1.86-107.41c-1.58-47.85,29.34-80.87,29.34-80.87l-88.75-4.32,88.37-112.3Z"/><path class="cls-9" d="M1293.45,2673.42c5.06,6.62-54.47,15.36-84.54,.88,0,0-41.69-72.54-41.69-109.88,0,0,3.31-7.61,27.79-5.89,0,0,14,85.89,28.78,95.51,14.78,9.62,41.35,.97,41.35,.97,0,0,20.84,8.64,28.31,18.41Z"/><path class="cls-50" d="M1169.59,2343.8c.47-.82,95.55-11.43,95.55-11.43,0,0-3.11,28.91,6.61,68.7s149.32,212.2,149.32,212.2l-14.64,46.4c45.25,15.76,89.77,18.28,133.57,8.04l-90.71-54.43s-84.89-289.3-136.89-340.91l-95.3-32.97-47.51,104.4Z"/><path class="cls-14" d="M956.37,2175.47s-54.78,81.47-59.27,118.64c-4.5,37.16,15,52.27,72.48,54.76,57.48,2.49,210.91,2.45,210.91,2.45l130.96-111.92s-95.43-34.05-120.25-43.68c-24.81-9.63-234.83-20.24-234.83-20.24Z"/><path class="cls-32" d="M1411.96,2644.05s-15.76,15.26-5.11,32.24c0,0,124.83,22.13,158.72,12.09,0,0-7.04-16.06-45.2-34.34l2.82,2.16c3.56,2.74,1.47,8.43-3.01,8.18-25.15-1.43-77.19-6.04-108.21-20.33Z"/></g><path class="cls-29" d="M678.5,2209.2c-.91,4.5-89.84,393.95-112.39,492.68-2.6,11.38,6.82,21.94,18.98,21.32,8.48-.43,15.6-6.32,17.25-14.29l111.24-502.37-35.09,2.66Z"/><g><g><path class="cls-40" d="M458.92,2720.48c-42.84,0-61.79-3.68-70.27-7.03,1.65,7.04,7.91,12.59,15.83,12.59h151.55c5.1,0,8.32-4.89,7.11-9.31-17.28,1.39-53.97,3.75-104.22,3.75Z"/><path class="cls-49" d="M563.14,2716.74c-.25-.89-.61-1.77-1.24-2.58-11.54-14.74-34.74-37.89-66.28-37.44-46.21,.65-62.33,5.66-98.24,.28l-8.47,28.08c-.86,2.86-.88,5.72-.26,8.38,8.47,3.35,27.43,7.03,70.27,7.03,50.25,0,86.95-2.36,104.22-3.75Z"/></g><path class="cls-38" d="M407.77,2646.73l-10.4,35.37s23.04,10.49,43.3,2.07l3.98-30.64-36.88-6.79Z"/><g><path class="cls-33" d="M721.89,2698.21c-33.4,26.83-50.46,35.85-59.16,38.56,5.67,4.43,14.02,4.81,20.19-.15l118.14-94.93c3.98-3.2,3.44-9-.26-11.67-12.6,11.9-39.73,36.71-78.91,68.19Z"/><path class="cls-55" d="M800.8,2630.02c-.75-.54-1.58-.99-2.58-1.22-18.19-4.2-50.7-7.64-75.01,12.47-35.62,29.45-45.06,43.43-76.41,61.75l10.9,27.09c1.11,2.76,2.88,4.99,5.02,6.66,8.7-2.71,25.76-11.73,59.16-38.56,39.17-31.48,66.31-56.29,78.91-68.19Z"/></g><path class="cls-44" d="M185.31,2243.76s256.48,20.94,309.1,45.71c52.62,24.77-42.94,371.92-42.94,371.92,0,0-14.32,6.89-46.2-3.01,0,0,32.68-256.18,8.36-311.73l-277.71-45.42,49.38-57.46Z"/><path class="cls-11" d="M621.32,2654.25c2.38,2.17,25.48,48.76,25.48,48.76,0,0,25.72-5.56,30.96-21.84l-23.14-42.05-33.31,15.13Z"/><path class="cls-47" d="M30.83,2241.62s-8.36,20.11-8.02,46.84c.47,36.96,30.19,66.95,67.11,68.8l303.21,13.83c6.4,.29,11.82,4.72,13.43,10.93,7.12,27.56,41.95,112.19,212.19,281.07,4.53,4.49,11.58,5.26,16.98,1.85l24.23-15.31c2.54-1.61,3.36-4.94,1.84-7.54l-176.54-301.47c-9.27-15.3-24.18-26.36-41.51-30.79l-258.43-66.06-154.48-2.14Z"/><path class="cls-48" d="M382.58,1777.45s-85.42,50.67-118.54,78.49l68.45,38.19s36.99-42.73,72.23-60.53l-22.14-56.15Z"/><path class="cls-8" d="M25.32,2243.76s81.85,19.95,159.99,0c0,0,109.33-146.97,151.62-186.97,0,0,67.47,106.46,217.63,121.55l8.37-18.71s-119.55-55.11-156.35-139.79c-36.8-84.68-51.58-120.79-85.07-142.88-20.85-13.76-33.34-23.16-39.79-28.29-3.53-2.81-8.41-3.13-12.26-.78-35.53,21.65-202.73,136.17-244.14,395.87Z"/><path class="cls-27" d="M545.53,2149.85l16.9-4.51,51.32-11.88c6.18-1.43,12.67-.34,18.04,3.04l44.13,27.76-121.86-.21-8.53-14.21Z"/><g><path class="cls-18" d="M431.27,1717.24c1.02,1.47,31.37,115.88,31.37,115.88l-65.69,15.94-44.88-104.16s62.18-52.33,79.2-27.67Z"/><path class="cls-45" d="M376.57,1760.92l19.33,56.68c.25,.73,.58,1.4,1.02,2.03,2.66,3.87,12.81,16.52,25.12,5.36,11.17-10.13,21.52-19.21,31-20.78,4.26-.7,8.35,1.93,9.45,6.1,2.76,10.4,8.53,33.93,10.43,55.15,.39,4.31-2.63,8.16-6.88,8.92-12.82,2.29-40,6.37-62.63,4.53-3.07-.25-5.75-2.12-7-4.93-6.1-13.71-24.78-55.29-31.78-66.08-6.57-10.12-22.94-10.01-29.81-9.48-2.25,.18-4.46-.57-6.14-2.08-5.95-5.33-17.23-18.89-.99-34.8,3.4-3.33,3.37-8.76-.06-12.06-6.83-6.56-14.09-18.16-2.44-32.31,11.85-14.39,27.25-11.91,36.67-8.36,3.81,1.44,8-.14,10.11-3.61,1.2-1.98,3.28-3.46,6.86-3.12,4.82,.47,8.92-3.51,8.88-8.35-.07-9.3,3.39-21.01,19.57-25.86,28.71-8.6,46.27,19.24,47.81,39.89,1.55,20.65-30.11,28.21-48.67,26.62-14.11-1.21-24.74,12.67-29.02,19.4-1.36,2.13-1.65,4.76-.84,7.15Z"/><path class="cls-35" d="M371.88,1828.48s-4.24-35.87-19.12-37.78c-14.88-1.91-29.51,10.18-14.92,30.44,18.16,25.2,34.04,7.34,34.04,7.34Z"/></g></g><path class="cls-29" d="M1335.36,2208.51c.91,4.5,89.84,393.95,112.39,492.68,2.6,11.38-6.82,21.94-18.98,21.32-8.48-.43-15.6-6.32-17.25-14.29l-111.24-502.37,35.09,2.66Z"/><g><rect class="cls-29" x="127.86" y="2420.9" width="24.69" height="288.32" transform="translate(280.4 5130.12) rotate(180)"/><path class="cls-29" d="M32.09,2698.3H248.31v13.63c0,1.35-1.1,2.44-2.44,2.44H34.53c-1.35,0-2.44-1.1-2.44-2.44v-13.63h0Z" transform="translate(280.4 5412.66) rotate(180)"/><rect class="cls-29" x="0" y="2354.31" width="271.86" height="77.1" rx="26.55" ry="26.55"/></g><g><path class="cls-28" d="M1104.51,2164.68s63.79-60.74,95.19-100.97c16.97-21.75,22.3-50.38,14.45-76.82-14.34-48.3-39.81-98.32-42.14-106.1-3.56-11.93-75.08-11.44-75.08-11.44,0,0-140.74,91.34-196.04,246.07l62.1,19.33s36.75-61.65,73.06-100.85c0,0-62.83,83-65.04,116.98l133.5,13.8Z"/><path class="cls-16" d="M1180.67,1814.09c-.75,2.48-19.41,64.37-20.87,65.65-1.46,1.28-40.94,3.41-59.52-9.29l31.53-66,48.87,9.64Z"/><path class="cls-13" d="M1157.83,1690.57s34.92,10.91,62.42,57.17c27.51,46.26,12.64,70.29-8.45,75.44-21.1,5.15-53.14,7.78-90.01-20.25-36.88-28.03-9.19-124.92,36.05-112.36Z"/><path class="cls-24" d="M1142.03,1774.85s-32.18-68.46,30.61-75.4l15.8,8.91s19.26-41.55-20.42-56.65c-39.68-15.1-94.56,7.09-105.73,59.66-11.17,52.57,1.46,84.6,30.63,106.41,29.17,21.81,37.54-6.94,37.54-6.94,0,0-16.81-21.41-12.05-34.2,4.76-12.79,19.89,.62,19.89,.62l3.74-2.41Z"/><path class="cls-46" d="M1135.74,1783.43s-16.34-35.29-32-19.09c-15.66,16.2,17.14,32.4,29.86,37.44l2.14-18.36Z"/><path class="cls-20" d="M1234.46,2169.19l-46.87-45.17-64.83,27.39s-64.53,10-101.47,0l-36.94-10-83.47-25.99-13.11,37.05c-3.33,9.41,.02,19.85,8.15,25.63,7.22,5.13,15.69,10.77,21.08,13.13,10.99,4.81,270.96-3.33,270.96-3.33l46.49-18.71Z"/><path class="cls-10" d="M1067.98,1718.89c7.28-9.04,.68-22.48-10.91-23.16-37.42-2.18-93.05,9.14-109,90.33-17.97,91.46-30.98,137.57-47.98,147.09-11.17,6.25-10.35,22.52,1.78,26.61,8.97,3.03,21.4,3.2,38.63-2.38,132.93-43.05,84.76-185.46,127.49-238.49Z"/></g><g><path class="cls-30" d="M1057.11,2190.49c.21,.01,.42,.02,.62,.01l271.86-.3c6.72,0,12.16-5.46,12.16-12.18,0-6.72-5.48-12.28-12.18-12.16l-271.86,.3c-6.72,0-12.16,5.46-12.16,12.18,0,6.51,5.13,11.82,11.56,12.14Z"/><path class="cls-41" d="M1573.99,1943.65h-226.41c-16.7,0-31.9,9.64-39.03,24.75l-104.67,221.95h281.37c10.76,0,20.43-6.58,24.39-16.59l81.17-205.38c4.69-11.87-4.06-24.73-16.82-24.73Z"/><path class="cls-29" d="M1414.48,2057.45c-4.91,15.24-1.28,30.05,8.1,33.07,9.38,3.02,20.96-6.89,25.86-22.14,4.91-15.24,1.28-30.05-8.1-33.07-9.38-3.02-20.96,6.89-25.86,22.14Z"/></g><path class="cls-29" d="M614.37,2201.24c-1.14,4.71-109.76,412.11-137.3,515.39-3.17,11.9,5.69,23.59,17.87,23.59,8.49,0,15.9-5.85,17.96-14.19l136.65-525.71-35.18,.92Z"/><path class="cls-29" d="M1405.02,2211.84c1.14,4.71,109.76,412.11,137.3,515.39,3.17,11.9-5.69,23.59-17.87,23.59-8.49,0-15.9-5.85-17.96-14.19l-132.26-524.79h30.79Z"/><path class="cls-29" d="M474.97,2174.87H1567.34c15.27,0,28.6,3.61,32.41,8.79l15.25,20.68c5.49,7.44-10.64,14.69-32.61,14.64l-1120.89-2.25c-21.73-.04-37.58-7.21-32.27-14.58l13.26-18.43c3.75-5.21,17.12-8.85,32.46-8.85Z"/></g></g></g></svg>